<svg width="32" height="32" viewBox="0 0 32 32" fill="none" xmlns="http://www.w3.org/2000/svg">
<rect width="32" height="32" rx="8" fill="#00BF8E"/>
<path fill-rule="evenodd" clip-rule="evenodd" d="M6 14.6801C6 15.1133 6 15.5631 6 15.9963V17.2958C6 18.3288 6 19.3784 6 20.4113C6 21.7608 6.41617 22.9604 7.28179 23.9933C8.39711 25.3095 9.81208 25.9759 11.5433 25.9926C14.4065 26.0093 17.2698 25.9926 20.133 25.9926H20.4493C21.781 25.9926 22.9796 25.5761 23.995 24.7097C25.3101 23.5935 25.976 22.1773 25.9926 20.4446C26.0092 17.629 25.9926 14.7967 25.9926 11.9811V11.5313C25.9926 10.1984 25.5764 8.99889 24.7108 7.9826C23.5788 6.68308 22.1306 6.01666 20.3993 6C18.1853 6 15.9547 6 13.7407 6C13.0249 6 12.2924 6 11.5766 6C11.1105 6 10.6611 6.04998 10.2116 6.1666C9.01304 6.46649 8.03089 7.08293 7.2485 8.03258C6.38287 9.08219 6 10.2984 6 11.6479C6 12.6642 6 13.6638 6 14.6801ZM17.2365 24.2099H15.9713H14.5064C13.5409 24.2099 12.5754 24.2099 11.5933 24.2099C10.8275 24.2099 10.1284 24.0433 9.47915 23.6101C8.44705 22.9271 7.86442 21.9608 7.76454 20.7279C7.78119 20.528 7.78119 20.3114 7.78119 20.1114C7.78119 18.6953 7.78119 17.2792 7.78119 15.863C7.78119 14.4469 7.78119 13.0307 7.78119 11.6146C7.78119 10.4484 8.18071 9.46538 9.06298 8.699C9.77878 8.0659 10.6278 7.76601 11.5766 7.76601C12.2591 7.76601 12.9583 7.76601 13.6408 7.76601C15.9047 7.76601 18.152 7.76601 20.3993 7.76601C21.9974 7.78267 23.1627 8.5324 23.8618 9.9652C24.1115 10.465 24.1948 11.0148 24.1948 11.5646C24.1948 12.3476 24.1948 13.114 24.1948 13.8971C24.1948 16.0463 24.1948 18.2121 24.1948 20.3613C24.1948 21.9608 23.4457 23.127 22.0307 23.8434C21.5147 24.11 20.9487 24.1933 20.366 24.1933C19.3173 24.2099 18.2852 24.2099 17.2365 24.2099ZM15.988 10.8482C18.8179 10.8482 21.1318 13.164 21.1318 15.9963C21.1318 18.8286 18.8013 21.1611 15.9713 21.1444C13.1414 21.1277 10.8275 18.8119 10.8442 15.9963C10.8442 13.164 13.1581 10.8482 15.988 10.8482ZM19.3672 15.9963C19.3672 14.147 17.869 12.6309 16.0046 12.6142C14.1568 12.6142 12.642 14.1137 12.6254 15.9796C12.6254 17.829 14.1236 19.3451 15.988 19.3617C17.8358 19.3784 19.3506 17.8623 19.3672 15.9963ZM20.0498 10.6316C20.0498 11.348 20.6324 11.9311 21.3482 11.9311C22.064 11.9311 22.6466 11.3647 22.6466 10.6483C22.6633 9.94854 22.0474 9.34876 21.3482 9.34876C20.6324 9.34876 20.0498 9.93188 20.0498 10.6316Z" fill="white"/>
</svg>
