<svg width="46" height="34" viewBox="0 0 46 34" fill="none" xmlns="http://www.w3.org/2000/svg">
<g clip-path="url(#clip0)">
<rect width="46" height="34" fill="white"/>
<path fill-rule="evenodd" clip-rule="evenodd" d="M-1.75929 38.5407H-1.91417C-1.91417 38.4645 -1.95296 38.3497 -1.95296 38.3112C-1.95296 38.2732 -1.95296 38.197 -2.06933 38.197H-2.30207V38.5407H-2.41844V37.738H-2.06933C-1.91417 37.738 -1.79808 37.7765 -1.79808 37.929C-1.79808 38.0437 -1.83687 38.0822 -1.87538 38.1199C-1.83659 38.1585 -1.79808 38.1967 -1.79808 38.2732V38.426C-1.79808 38.4645 -1.79808 38.4645 -1.75929 38.4645V38.5407ZM-1.91417 37.9675C-1.91417 37.8527 -1.99175 37.8527 -2.03054 37.8527H-2.30207V38.0822H-2.06933C-1.99175 38.0822 -1.91417 38.0437 -1.91417 37.9675ZM-1.25503 38.1202C-1.25503 37.6618 -1.64264 37.279 -2.14691 37.279C-2.6121 37.279 -3 37.6618 -3 38.1202C-3 38.6172 -2.6121 39 -2.14691 39C-1.64292 38.9997 -1.25503 38.6172 -1.25503 38.1202ZM-1.3714 38.1202C-1.3714 38.541 -1.72022 38.8467 -2.14691 38.8467C-2.5736 38.8467 -2.88363 38.5407 -2.88363 38.1202C-2.88363 37.738 -2.57331 37.3937 -2.14691 37.3937C-1.7205 37.3937 -1.3714 37.738 -1.3714 38.1202ZM46.4 22.6725C46.4 23.8198 45.6633 24.3544 44.3447 24.3544H41.8248V23.2072H44.3447C44.5775 23.2072 44.7714 23.1692 44.8493 23.093C44.9266 23.0162 45.0041 22.9015 45.0041 22.7487C45.0041 22.5954 44.9268 22.4427 44.8493 22.3665C44.7714 22.2897 44.6165 22.2517 44.3838 22.2517C43.1822 22.2132 41.6696 22.2897 41.6696 20.6075C41.6696 19.8425 42.1736 19.0012 43.5307 19.0012H46.1285V20.1485H43.7244C43.4922 20.1485 43.3367 20.1485 43.2204 20.2247C43.104 20.3394 43.0267 20.4542 43.0267 20.6455C43.0267 20.8367 43.1431 20.9515 43.298 21.0282C43.4534 21.0662 43.6086 21.1045 43.8025 21.1045H44.5002C45.2369 21.1045 45.7024 21.2572 46.0127 21.5252C46.2448 21.7927 46.4 22.1373 46.4 22.6725ZM40.9326 21.5252C40.6223 21.2572 40.1568 21.1045 39.4201 21.1045H38.7225C38.5288 21.1045 38.3734 21.0659 38.2185 21.0282C38.063 20.9515 37.9472 20.8367 37.9472 20.6455C37.9472 20.4542 37.9857 20.3394 38.1409 20.2247C38.2573 20.1485 38.4122 20.1485 38.6449 20.1485H41.049V19.0012H38.4512C37.0551 19.0012 36.5896 19.8425 36.5896 20.6075C36.5896 22.2894 38.1021 22.2132 39.3043 22.2517C39.5365 22.2517 39.6919 22.2897 39.7692 22.3665C39.8465 22.4427 39.9247 22.5954 39.9247 22.7487C39.9247 22.9015 39.8468 23.0162 39.7692 23.093C39.6529 23.1692 39.498 23.2072 39.2652 23.2072H36.7448V24.3544H39.2652C40.5832 24.3544 41.3203 23.8195 41.3203 22.6725C41.3203 22.1373 41.1654 21.7927 40.9326 21.5252ZM35.9692 23.246H32.9066V22.1752H35.892V21.105H32.9066V20.1105H35.9692V19.0018H31.6268V24.3547H35.9692V23.246ZM30.2306 19.2695C29.8039 19.04 29.3 19.0015 28.6408 19.0015H25.6554V24.3544H26.9734V22.4045H28.3696C28.8345 22.4045 29.1063 22.443 29.3002 22.634C29.533 22.9015 29.533 23.3605 29.533 23.7047V24.3544H30.8122V23.3219C30.8122 22.825 30.7737 22.5954 30.6185 22.328C30.5022 22.1747 30.27 21.9837 29.9597 21.8689C30.3082 21.7547 30.8903 21.2957 30.8903 20.4542C30.8901 19.8427 30.6573 19.4985 30.2306 19.2695ZM22.8634 19.0015H18.7143L17.0469 20.7605L15.4571 19.0015H10.2225V24.3544H15.3798L17.0472 22.5954L18.637 24.3544H21.1575V22.5577H22.7861C23.9105 22.5577 25.0354 22.2517 25.0354 20.7605C25.0351 19.3075 23.8717 19.0015 22.8634 19.0015ZM29.1836 21.2195C28.9899 21.2957 28.796 21.2957 28.5632 21.2957L26.9734 21.3343V20.1102H28.5632C28.796 20.1102 29.0287 20.1102 29.1836 20.225C29.339 20.3017 29.4548 20.4545 29.4548 20.684C29.4548 20.9135 29.339 21.1047 29.1836 21.2195ZM22.8634 21.487H21.1572V20.1102H22.8634C23.3289 20.1102 23.6389 20.3017 23.6389 20.7605C23.6389 21.2195 23.3286 21.487 22.8634 21.487ZM17.8612 21.678L19.8775 19.5753V23.896L17.8612 21.678ZM14.7204 23.246H11.502V22.1752H14.3713V21.105H11.502V20.1105H14.7592L16.1938 21.6782L14.7204 23.246ZM42.7937 15.1395H40.9326L38.4897 11.1245V15.1395H35.8534L35.3489 13.954H32.6347L32.1308 15.1395H30.6182C29.9979 15.1395 29.1836 14.9865 28.7187 14.5275C28.292 14.0687 28.0593 13.457 28.0593 12.501C28.0593 11.698 28.1756 10.9715 28.7569 10.398C29.1445 9.97722 29.8427 9.78624 30.7343 9.78624H31.975V10.9335H30.7343C30.2694 10.9335 29.9976 11.01 29.7264 11.2395C29.4936 11.469 29.3773 11.8895 29.3773 12.463C29.3773 13.0365 29.4936 13.4573 29.7264 13.725C29.92 13.916 30.2694 13.9925 30.618 13.9925H31.1998L33.0609 9.78651H34.9998L37.1712 14.8337V9.78624H39.1877L41.4754 13.4952V9.78624H42.7934L42.7937 15.1395ZM27.4001 9.78624H26.0821V15.1395H27.4001V9.78624ZM24.6469 10.0157C24.2202 9.78624 23.7553 9.78624 23.0962 9.78624H20.1102V15.1395H21.3897V13.1892H22.7856C23.251 13.1892 23.5613 13.2275 23.755 13.4187C23.9877 13.6865 23.9487 14.1455 23.9487 14.4512V15.1395H25.2667V14.0687C25.2667 13.61 25.2282 13.3805 25.0345 13.1127C24.9181 12.9597 24.6854 12.7685 24.4142 12.654C24.7627 12.501 25.3448 12.0805 25.3448 11.2392C25.3451 10.6275 25.0733 10.2832 24.6469 10.0157ZM19.1795 14.0307H16.1551V12.96H19.1407V11.8513H16.1551V10.8952H19.1795V9.78651H14.8368V15.1398H19.1795V14.0307ZM13.8673 9.78624H11.7347L10.1449 13.4187L8.43873 9.78624H6.34493V14.8335L4.13476 9.78624H2.19613L-0.13041 15.1395H1.26545L1.76944 13.954H4.48359L4.98757 15.1395H7.62443V10.9335L9.52427 15.1395H10.6486L12.5487 10.9335V15.1395H13.867L13.8673 9.78624ZM34.884 12.807L33.9918 10.704L33.1002 12.807H34.884ZM23.6389 11.966C23.4453 12.0808 23.2513 12.0808 22.9798 12.0808H21.3897V10.8955H22.9795C23.2122 10.8955 23.4832 10.8955 23.6386 10.972C23.7935 11.0868 23.8714 11.2398 23.8714 11.469C23.8714 11.6982 23.7938 11.8892 23.6389 11.966ZM2.23463 12.807L3.12651 10.704L4.01839 12.807H2.23463ZM46.09 -7H-0.169481V12.2717L1.42033 8.71575H4.79363L5.2591 9.59526V8.71575H9.21424L10.1061 10.6275L10.9592 8.71575H23.5613C24.1426 8.71575 24.6466 8.83051 25.0348 9.13624V8.71575H28.4857V9.13624C29.0669 8.83023 29.8037 8.71575 30.657 8.71575H35.6589L36.1244 9.59526V8.71575H39.808L40.3511 9.59526V8.71575H43.9568V16.2102H40.3123L39.6146 15.0633V16.2102H35.0776L34.5737 14.9868H33.4488L32.9448 16.2102H30.5797C29.6491 16.2102 28.9509 15.9807 28.4859 15.7515V16.2102H22.8634V14.4895C22.8634 14.26 22.8246 14.2217 22.6695 14.2217H22.4758V16.21H11.6184V15.254L11.2307 16.21H8.94299L8.55538 15.2922V16.21H4.17355L3.70836 14.9865H2.58374L2.07976 16.21H-0.169481V38.8085H46.09V25.0809C45.586 25.3105 44.8878 25.4252 44.1898 25.4252H40.8163V24.9662C40.4287 25.2725 39.7304 25.4252 39.0716 25.4252H28.4469V23.7047C28.4469 23.4752 28.4084 23.4752 28.2141 23.4752H28.0205V25.4252H24.5305V23.3987C23.9492 23.6662 23.2898 23.6662 22.7083 23.6662H22.3204V25.4252H18.0552L17.0472 24.2779L15.9229 25.4252H9.05908V17.931H16.0387L17.0469 19.0777L18.1328 17.931H22.8246C23.3671 17.931 24.2593 18.0072 24.6469 18.3895V17.931H28.8345C29.2612 17.931 30.0758 18.0072 30.6182 18.3895V17.931H36.9387V18.3897C37.2878 18.0837 37.9472 17.9313 38.5285 17.9313H42.057V18.3897C42.4452 18.1223 42.9876 17.9313 43.6859 17.9313H46.09V-7Z" fill="#1272CE"/>
</g>
<defs>
<clipPath id="clip0">
<rect width="46" height="34" fill="white"/>
</clipPath>
</defs>
</svg>
