<svg width="24" height="17" viewBox="0 0 24 17" fill="none" xmlns="http://www.w3.org/2000/svg">
<path fill-rule="evenodd" clip-rule="evenodd" d="M2.65626 17H21.3437C22.5328 17 23.5 16.0468 23.5 14.875V11.3334C23.5 10.9418 23.1785 10.625 22.7812 10.625C21.5922 10.625 20.625 9.67181 20.625 8.50002C20.625 7.32824 21.5922 6.37502 22.7812 6.37502C23.1785 6.37502 23.5 6.05822 23.5 5.66668V2.12501C23.5 0.953222 22.5328 0 21.3437 0H2.65626C1.46724 0 0.5 0.953222 0.5 2.12501V5.66668C0.5 6.05822 0.821462 6.37502 1.21875 6.37497C2.40777 6.37497 3.37501 7.32819 3.37501 8.49998C3.37501 9.67176 2.40777 10.625 1.21875 10.625C0.821462 10.625 0.5 10.9418 0.5 11.3333V14.875C0.5 16.0468 1.46724 17 2.65626 17ZM1.93751 14.875V11.9704C3.57574 11.6412 4.81252 10.2107 4.81252 8.50002C4.81252 6.78935 3.57574 5.35885 1.93751 5.0296V2.12501C1.93751 1.73419 2.25969 1.41667 2.65626 1.41667H21.3437C21.7403 1.41667 22.0625 1.73419 22.0625 2.12501V5.02955C20.4242 5.35885 19.1875 6.7893 19.1875 8.49998C19.1875 10.2107 20.4243 11.6412 22.0625 11.9704V14.875C22.0625 15.2658 21.7403 15.5833 21.3437 15.5833H2.65626C2.25969 15.5833 1.93751 15.2658 1.93751 14.875ZM9.42633 13.2376C9.28541 13.608 9.47247 14.0195 9.84415 14.1569C10.2158 14.2942 10.6314 14.1054 10.7723 13.735L14.5729 3.74687C14.7139 3.37653 14.5268 2.96496 14.1551 2.8276C13.7834 2.69024 13.3679 2.87911 13.227 3.24945L9.42633 13.2376ZM8.5998 8.7385C7.41078 8.7385 6.44354 7.78528 6.44354 6.6135C6.44354 5.44171 7.41078 4.48849 8.5998 4.48849C9.78882 4.48849 10.7561 5.44171 10.7561 6.6135C10.7561 7.78528 9.78882 8.7385 8.5998 8.7385ZM8.5998 5.90516C8.20323 5.90516 7.88105 6.22268 7.88105 6.6135C7.88105 7.00431 8.20323 7.32183 8.5998 7.32183C8.99636 7.32183 9.31855 7.00431 9.31855 6.6135C9.31855 6.22268 8.99636 5.90516 8.5998 5.90516ZM13.873 11.0065C13.873 12.1783 14.8402 13.1315 16.0292 13.1315C17.2183 13.1315 18.1855 12.1783 18.1855 11.0065C18.1855 9.83474 17.2183 8.88152 16.0292 8.88152C14.8402 8.88152 13.873 9.83474 13.873 11.0065ZM15.3105 11.0065C15.3105 10.6157 15.6327 10.2982 16.0292 10.2982C16.4258 10.2982 16.748 10.6157 16.748 11.0065C16.748 11.3973 16.4258 11.7149 16.0292 11.7149C15.6327 11.7149 15.3105 11.3973 15.3105 11.0065Z" fill="#FF6900"/>
</svg>