<svg width="105" height="105" viewBox="0 0 105 105" fill="none" xmlns="http://www.w3.org/2000/svg">
<path fill-rule="evenodd" clip-rule="evenodd" d="M17.5303 73.7303L17.9279 73.6939C17.7249 73.0099 17.6157 72.2846 17.6157 71.5329V34.1296C17.6157 29.9928 20.949 26.5886 25.0942 26.5886H76.6144L76.2037 23.0118C75.9901 21.3312 75.1354 19.7799 73.8106 18.7026C72.4859 17.6253 70.8193 17.1513 69.1099 17.3237L11.9749 23.7443C10.3083 23.9598 8.76987 24.8216 7.70152 26.1574C6.63318 27.4933 6.16311 29.1738 6.33404 30.8975L10.4365 68.0423C10.6502 69.7228 11.5048 71.2741 12.8296 72.3514C14.1543 73.4287 15.8209 73.9027 17.5303 73.7303ZM17.7012 74.8938L18.3666 74.8267C19.5843 77.3457 22.1525 79.0739 25.0942 79.0739H72.4091C74.2442 84.7249 79.52 88.8125 85.7333 88.8125C93.4681 88.8125 99.75 82.478 99.75 74.6785C99.75 68.3971 95.6756 63.0659 90.0492 61.2286V48.5651C90.0274 48.4113 89.9611 48.2687 89.8618 48.1658C89.771 48.0693 89.6431 48.0049 89.4939 48.0049H89.4938H18.6841V34.1296C18.6841 30.553 21.5473 27.6659 25.0942 27.6659H82.5283C86.0752 27.6659 88.9384 30.553 88.9384 34.1296V36.0255H24.0258C23.7267 36.0255 23.513 36.3272 23.513 36.5858C23.513 36.8444 23.7267 37.103 24.0258 37.103H88.9384V39.4729C88.9384 39.7746 89.1948 39.99 89.4512 39.99C89.7076 39.99 89.964 39.7315 89.964 39.4729V34.1296C89.964 29.9497 86.588 26.5886 82.4856 26.5886H77.6846L77.2721 22.8825C77.0584 20.9003 76.0755 19.0905 74.4944 17.8408C72.9132 16.5912 70.9902 15.9879 68.9817 16.2464L11.8894 22.667C9.92368 22.8825 8.12886 23.8736 6.88958 25.468C5.6503 27.0624 5.05203 29.0015 5.30843 31.0268L9.41087 68.2146C9.62454 70.1968 10.6074 72.0067 12.1886 73.2563C13.5133 74.3336 15.1799 74.9369 16.8465 74.9369C17.1029 74.9369 17.4021 74.9369 17.7012 74.8938ZM88.9811 60.9267V49.0394H18.6841V71.5329C18.6841 75.1095 21.5473 77.9966 25.0942 77.9966H72.1059C71.8515 76.9322 71.7167 75.8211 71.7167 74.6785C71.7167 66.8789 77.9985 60.5445 85.7333 60.5445C86.8511 60.5445 87.9386 60.6768 88.9811 60.9267ZM72.785 74.7216C72.785 67.5253 78.5968 61.6649 85.7333 61.6649C92.8699 61.6649 98.6817 67.5253 98.6817 74.7216C98.6817 81.9178 92.8699 87.7783 85.7333 87.7783C78.5968 87.7783 72.785 81.9178 72.785 74.7216ZM90.9469 80.4958C90.8187 80.4958 90.6905 80.4527 90.5623 80.3234L85.7547 75.4757L80.9472 80.3234C80.819 80.4096 80.6908 80.4958 80.5626 80.4958C80.4344 80.4958 80.3062 80.4527 80.178 80.3234C79.9643 80.108 79.9643 79.7633 80.178 79.5478L84.9855 74.7L80.178 69.8522C79.9643 69.6368 79.9643 69.2921 80.178 69.0766C80.3916 68.8611 80.7335 68.8611 80.9472 69.0766L85.7547 73.9244L90.5623 69.0766C90.7759 68.8611 91.1178 68.8611 91.3315 69.0766C91.5452 69.2921 91.5452 69.6368 91.3315 69.8522L86.5239 74.7L91.3315 79.5478C91.5452 79.7633 91.5452 80.108 91.3315 80.3234C91.2033 80.4096 91.0751 80.4958 90.9469 80.4958Z" fill="#00B0CA"/>
</svg>
