<svg width="24" height="24" viewBox="0 0 24 24" fill="currentColor" xmlns="http://www.w3.org/2000/svg">
    <path d="M15.0938 11.79C15.0938 13.4219 13.7087 14.7448 12 14.7448C10.2914 14.7448 8.90624 13.4219 8.90624 11.79C8.90624 10.1581 10.2914 8.83517 12 8.83517C13.7087 8.83517 15.0938 10.1581 15.0938 11.79Z"/>
    <path fill-rule="evenodd" clip-rule="evenodd" d="M2.0616 12.1125C3.68606 16.0436 7.58293 18.58 12 18.58C16.4079 18.58 20.3139 16.0348 21.9384 12.1038C22.0205 11.9033 22.0205 11.6767 21.9384 11.4675C20.3139 7.53644 16.4171 5 12 5C7.58293 5 3.68606 7.53644 2.0616 11.4762C1.97947 11.6767 1.97947 11.9033 2.0616 12.1125ZM11.9909 16.8367C8.45905 16.8367 5.31964 14.8669 3.89596 11.79C5.31964 8.71315 8.45905 6.74326 12 6.74326C15.5318 6.74326 18.6712 8.71315 20.0858 11.79C18.6712 14.8669 15.5318 16.8367 11.9909 16.8367Z"/>
</svg>
