<svg width="105" height="105" viewBox="0 0 105 105" fill="none" xmlns="http://www.w3.org/2000/svg">
<path fill-rule="evenodd" clip-rule="evenodd" d="M35.0115 35.7656C35.0115 35.4636 35.2535 35.2188 35.552 35.2188H73.1693C73.4678 35.2188 73.7098 35.4636 73.7098 35.7656C73.7098 36.0677 73.4678 36.3125 73.1693 36.3125H35.552C35.2535 36.3125 35.0115 36.0677 35.0115 35.7656Z" fill="#00B0CA"/>
<path fill-rule="evenodd" clip-rule="evenodd" d="M22.6886 10.5H68.8512L86.2489 27.8808V57.6482L86.2487 57.6558C85.813 73.5253 80.4396 84.553 77.743 89.1988L77.5863 89.4688H13.5625L14.134 88.6152C17.7102 83.2736 19.889 76.5341 21.1537 70.2518C22.4176 63.9737 22.76 58.1955 22.6887 54.8085L22.6886 54.8027V10.5ZM23.7696 11.5938V54.7911C23.842 58.259 23.4922 64.1153 22.2129 70.4701C20.999 76.5001 18.9405 83.018 15.5819 88.375H76.9664C79.649 83.6837 84.7456 72.958 85.1679 57.6331V28.3379L68.4074 11.5938H23.7696Z" fill="#00B0CA"/>
<path fill-rule="evenodd" clip-rule="evenodd" d="M35.0115 46.2656C35.0115 45.9636 35.2535 45.7188 35.552 45.7188H73.1694C73.4679 45.7188 73.7098 45.9636 73.7098 46.2656C73.7098 46.5677 73.4679 46.8125 73.1694 46.8125H35.552C35.2535 46.8125 35.0115 46.5677 35.0115 46.2656Z" fill="#00B0CA"/>
<path fill-rule="evenodd" clip-rule="evenodd" d="M35.0115 55.8906C35.0115 55.5886 35.2535 55.3438 35.552 55.3438H73.1694C73.4679 55.3438 73.7098 55.5886 73.7098 55.8906C73.7098 56.1927 73.4679 56.4375 73.1694 56.4375H35.552C35.2535 56.4375 35.0115 56.1927 35.0115 55.8906Z" fill="#00B0CA"/>
<path fill-rule="evenodd" clip-rule="evenodd" d="M35.0115 65.5156C35.0115 65.2136 35.2535 64.9688 35.552 64.9688H54.5769C54.8754 64.9688 55.1173 65.2136 55.1173 65.5156C55.1173 65.8177 54.8754 66.0625 54.5769 66.0625H35.552C35.2535 66.0625 35.0115 65.8177 35.0115 65.5156Z" fill="#00B0CA"/>
<path fill-rule="evenodd" clip-rule="evenodd" d="M67.8726 11.0469H68.9536V27.5625H85.4922V28.6562H67.8726V11.0469Z" fill="#00B0CA"/>
<path fill-rule="evenodd" clip-rule="evenodd" d="M90.141 64.8334C90.2452 62.6188 90.3525 43.6321 90.3564 33.893C90.3566 33.5945 90.5985 33.3594 90.897 33.3594C91.1955 33.3594 91.4375 33.5945 91.4374 33.893C91.4335 43.6173 91.3265 62.6381 91.2207 64.8854C91.0029 69.5138 89.2662 83.6212 82.9282 94.2359L82.7705 94.5H20.3169C20.0149 94.5 19.77 94.2552 19.77 93.9531C19.77 93.6511 20.0149 93.4062 20.3169 93.4062H82.1592C88.233 83.0509 89.9282 69.354 90.141 64.8334Z" fill="#00B0CA"/>
</svg>
