<svg width="34" height="43" viewBox="0 0 34 43" fill="none" xmlns="http://www.w3.org/2000/svg">
<ellipse cx="16.869" cy="17" rx="11.9075" ry="12" fill="white"/>
<path d="M16.8021 0C26.1425 0 33.6846 7.8106 33.6846 17.4835C33.6846 22.7647 31.43 27.49 27.8603 30.6865C27.8603 30.6865 26.2767 32.1875 24.3979 33.6328C22.707 34.9392 21.2844 35.8565 20.5597 36.6348C17.151 40.3038 18.6809 42.861 16.8826 43C15.0844 42.861 16.6142 40.3038 13.2055 36.6348C12.4809 35.8565 11.0583 34.9392 9.3674 33.6328C8.24011 32.7712 7.22019 31.8817 6.57603 31.298C2.57684 28.1015 0.000190735 23.0983 0.000190735 17.4557C-0.0534897 7.8106 7.48859 0 16.8021 0ZM10.5484 16.0659H10.6826V23.8765H15.2991V19.1235H18.332V23.8765H22.9485V16.0659H23.1364C23.7537 16.0659 24.049 15.2599 23.5658 14.8429L17.2852 9.56173C17.0437 9.36716 16.6948 9.36716 16.4532 9.56173L10.1726 14.8429C9.66264 15.2599 9.93104 16.0659 10.5484 16.0659Z" fill="#452FBA"/>
</svg>
