<svg height="100%" width="100%" viewBox="0 0 100 100"  preserveAspectRatio="none" xmlns="http://www.w3.org/2000/svg">
<path d="M47 94C72.9574 94 94 72.9574 94 47C94 21.0426 72.9574 0 47 0C21.0426 0 0 21.0426 0 47C0 72.9574 21.0426 94 47 94Z" fill="#511E84"/>
<path d="M47 87C69.0914 87 87 69.0914 87 47C87 24.9086 69.0914 7 47 7C24.9086 7 7 24.9086 7 47C7 69.0914 24.9086 87 47 87Z" fill="white"/>
<path d="M47.0001 82.9051C66.83 82.9051 82.9052 66.8299 82.9052 47C82.9052 27.1702 66.83 11.0949 47.0001 11.0949C27.1702 11.0949 11.095 27.1702 11.095 47C11.095 66.8299 27.1702 82.9051 47.0001 82.9051Z" fill="#00B0CA"/>
<path d="M46.9756 21.8841H46.8992C46.4407 21.8841 46.0586 21.5021 46.0586 21.0435V16.8406C46.0586 16.3821 46.4407 16 46.8992 16H46.9756C47.4341 16 47.8162 16.3821 47.8162 16.8406V21.069C47.8162 21.5275 47.4341 21.8841 46.9756 21.8841Z" fill="white"/>
<path d="M47.0769 78H47.0005C46.542 78 46.1599 77.6179 46.1599 77.1594V72.931C46.1599 72.4725 46.542 72.0904 47.0005 72.0904H47.0769C47.5354 72.0904 47.9175 72.4725 47.9175 72.931V77.1594C47.943 77.6434 47.5609 78 47.0769 78Z" fill="white"/>
<path d="M72.1165 46.9745V46.8981C72.1165 46.4396 72.4985 46.0575 72.957 46.0575H77.1855C77.644 46.0575 78.0261 46.4396 78.0261 46.8981V46.9745C78.0261 47.433 77.644 47.8151 77.1855 47.8151H72.957C72.4731 47.8151 72.1165 47.433 72.1165 46.9745Z" fill="white"/>
<path d="M16.0007 47.0764V47C16.0007 46.5415 16.3828 46.1594 16.8413 46.1594H21.0698C21.5283 46.1594 21.9103 46.5415 21.9103 47V47.0764C21.9103 47.5349 21.5283 47.917 21.0698 47.917H16.8413C16.3573 47.9425 16.0007 47.5604 16.0007 47.0764Z" fill="white"/>
<path d="M65.519 28.456L65.4681 28.4051C65.1369 28.0739 65.1369 27.539 65.4681 27.2078L67.0219 25.654C67.353 25.3229 67.888 25.3229 68.2191 25.654L68.2701 25.705C68.6012 26.0361 68.6012 26.571 68.2701 26.9022L66.7162 28.456C66.3851 28.7617 65.8502 28.7617 65.519 28.456Z" fill="white"/>
<path d="M25.7563 68.3714L25.7054 68.3204C25.3742 67.9893 25.3742 67.4544 25.7054 67.1232L27.5904 65.2383C27.9215 64.9071 28.4564 64.9071 28.7876 65.2383L28.8385 65.2892C29.1696 65.6203 29.1696 66.1553 28.8385 66.4864L26.9535 68.3714C26.6224 68.7025 26.0875 68.7025 25.7563 68.3714Z" fill="white"/>
<path d="M65.5447 65.544L65.5956 65.493C65.9268 65.1619 66.4617 65.1619 66.7928 65.493L68.3467 67.0468C68.6778 67.378 68.6778 67.9129 68.3467 68.244L68.2957 68.295C67.9646 68.6261 67.4296 68.6261 67.0985 68.295L65.5447 66.7412C65.239 66.41 65.239 65.8751 65.5447 65.544Z" fill="white"/>
<path d="M25.6297 25.7814L25.6807 25.7305C26.0118 25.3993 26.5467 25.3993 26.8779 25.7305L28.7628 27.6154C29.094 27.9466 29.094 28.4815 28.7628 28.8126L28.7119 28.8636C28.3807 29.1947 27.8458 29.1947 27.5147 28.8636L25.6297 26.9786C25.2986 26.6475 25.2986 26.1126 25.6297 25.7814Z" fill="white"/>
<path d="M47.0276 47.5641H46.943C46.3789 47.5641 45.8994 47.1128 45.8994 46.5205V26.9846C45.8994 26.4205 46.3507 25.941 46.943 25.941H47.0276C47.5917 25.941 48.0712 26.3923 48.0712 26.9846V46.5205C48.043 47.0846 47.5917 47.5641 47.0276 47.5641Z" fill="#511E84"/>
<path d="M33.6663 47.4615V47.3769C33.6663 46.8128 34.1175 46.3333 34.7098 46.3333H46.3073C46.8714 46.3333 47.3509 46.7846 47.3509 47.3769V47.4615C47.3509 48.0257 46.8996 48.5051 46.3073 48.5051H34.7098C34.1175 48.4769 33.6663 48.0257 33.6663 47.4615Z" fill="#511E84"/>
<path d="M47.0005 50.8923C49.1501 50.8923 50.8928 49.1497 50.8928 47C50.8928 44.8503 49.1501 43.1077 47.0005 43.1077C44.8508 43.1077 43.1082 44.8503 43.1082 47C43.1082 49.1497 44.8508 50.8923 47.0005 50.8923Z" fill="#511E84"/>
</svg>
