<svg width="80" height="80" viewBox="0 0 80 80" fill="none" xmlns="http://www.w3.org/2000/svg">
<path d="M66.7673 53.2327L52.0748 38.5427L66.5623 26.9533C67.6392 26.0889 67.8148 24.5171 66.9529 23.4377C66.0886 22.3658 64.5211 22.1852 63.4373 23.0471L39.9998 41.7996L16.5623 23.0471C15.4829 22.1852 13.9111 22.3658 13.0467 23.4377C12.1848 24.5171 12.3604 26.0889 13.4373 26.9533L27.9223 38.5427L13.2323 53.2327C12.2554 54.2096 12.2554 55.7914 13.2323 56.7677C13.7204 57.2558 14.3604 57.5002 14.9998 57.5002C15.6392 57.5002 16.2792 57.2558 16.7673 56.7677L31.7673 41.7677C31.7967 41.7383 31.8067 41.6996 31.8329 41.6702L38.4373 46.9533C38.8936 47.3171 39.4479 47.5002 39.9998 47.5002C40.5517 47.5002 41.1061 47.3171 41.5623 46.9533L48.1661 41.6702C48.1929 41.6996 48.2029 41.7383 48.2317 41.7677L63.2317 56.7677C63.7204 57.2558 64.3604 57.5002 64.9998 57.5002C65.6392 57.5002 66.2792 57.2558 66.7673 56.7677C67.7442 55.7914 67.7442 54.2089 66.7673 53.2327Z" fill="#A8F0DD"/>
<path d="M65 10H15C6.71625 10 0 16.7163 0 25V55C0 63.2837 6.71625 70 15 70H65C73.2838 70 80 63.2837 80 55V25C80 16.7163 73.2838 10 65 10ZM75 55C75 60.515 70.515 65 65 65H15C9.485 65 5 60.515 5 55V25C5 19.485 9.485 15 15 15H65C70.515 15 75 19.485 75 25V55Z" fill="#00BF8E"/>
</svg>
