<svg width="84" height="81" viewBox="0 0 84 81" fill="none" xmlns="http://www.w3.org/2000/svg">
<path d="M48.8279 1.46094C47.9023 1.46094 47.1309 2.22942 47.1309 3.1516V9.76055C47.1309 10.6827 47.9023 11.4512 48.8279 11.4512C49.7536 11.4512 50.525 10.6827 50.525 9.76055V3.22845C50.525 2.22942 49.7536 1.46094 48.8279 1.46094Z" stroke="#00B0CA" stroke-width="1.3" stroke-miterlimit="10"/>
<path d="M34.0174 1.46094C33.0917 1.46094 32.3203 2.22942 32.3203 3.1516V9.76055C32.3203 10.6827 33.0917 11.4512 34.0174 11.4512C34.9431 11.4512 35.7145 10.6827 35.7145 9.76055V3.22845C35.7145 2.22942 34.9431 1.46094 34.0174 1.46094Z" stroke="#00B0CA" stroke-width="1.3" stroke-miterlimit="10"/>
<path d="M18.3572 1.46094C17.4316 1.46094 16.6602 2.22942 16.6602 3.1516V9.76055C16.6602 10.6827 17.4316 11.4512 18.3572 11.4512C19.2829 11.4512 20.0543 10.6827 20.0543 9.76055V3.22845C20.0543 2.22942 19.2829 1.46094 18.3572 1.46094Z" stroke="#00B0CA" stroke-width="1.3" stroke-miterlimit="10"/>
<path d="M61.2465 5.30371H50.524V9.76091C50.524 10.6831 49.7526 11.4516 48.827 11.4516C47.9013 11.4516 47.1299 10.6831 47.1299 9.76091V5.30371H35.7131V9.76091C35.7131 10.6831 34.9417 11.4516 34.016 11.4516C33.0904 11.4516 32.319 10.6831 32.319 9.76091V5.30371H20.0537V9.76091C20.0537 10.6831 19.2823 11.4516 18.3566 11.4516C17.4309 11.4516 16.6595 10.6831 16.6595 9.76091V5.30371H5.08848C3.08283 5.30371 1.46289 6.91752 1.46289 8.91558V15.8319H64.795V8.91558C64.795 6.91752 63.175 5.30371 61.2465 5.30371Z" stroke="#00B0CA" stroke-width="1.3" stroke-miterlimit="10"/>
<path d="M43.4173 34.4175H55.4512V22.4292H43.4173V34.4175Z" stroke="#00B0CA" stroke-width="1.3" stroke-miterlimit="10"/>
<path d="M27.429 34.4175H39.4629V22.4292H27.429V34.4175Z" stroke="#00B0CA" stroke-width="1.3" stroke-miterlimit="10"/>
<path d="M11.3646 34.4175H23.3984V22.4292H11.3646L11.3646 34.4175Z" stroke="#00B0CA" stroke-width="1.3" stroke-miterlimit="10"/>
<path d="M27.429 49.6475H39.4629V37.6591H27.429V49.6475Z" stroke="#00B0CA" stroke-width="1.3" stroke-miterlimit="10"/>
<path d="M11.3646 49.6475H23.3984V37.6591H11.3646L11.3646 49.6475Z" stroke="#00B0CA" stroke-width="1.3" stroke-miterlimit="10"/>
<path d="M15.7344 41.96L19.0514 45.3413" stroke="#00B0CA" stroke-width="1.3" stroke-miterlimit="10"/>
<path d="M19.0514 41.96L15.7344 45.3413" stroke="#00B0CA" stroke-width="1.3" stroke-miterlimit="10"/>
<path d="M27.429 64.877H39.4629V52.8886H27.429V64.877Z" stroke="#00B0CA" stroke-width="1.3" stroke-miterlimit="10"/>
<path d="M11.3646 64.877H23.3984V52.8886H11.3646L11.3646 64.877Z" stroke="#00B0CA" stroke-width="1.3" stroke-miterlimit="10"/>
<path d="M61.9412 79.4619C73.2736 79.4619 82.4604 70.3098 82.4604 59.0202C82.4604 47.7306 73.2736 38.5786 61.9412 38.5786C50.6087 38.5786 41.4219 47.7306 41.4219 59.0202C41.4219 70.3098 50.6087 79.4619 61.9412 79.4619Z" stroke="#00B0CA" stroke-width="1.3" stroke-miterlimit="10"/>
<path d="M61.9406 75.5428C71.1003 75.5428 78.5257 68.1455 78.5257 59.0204C78.5257 49.8954 71.1003 42.498 61.9406 42.498C52.7809 42.498 45.3555 49.8954 45.3555 59.0204C45.3555 68.1455 52.7809 75.5428 61.9406 75.5428Z" stroke="#00B0CA" stroke-width="1.3" stroke-miterlimit="10"/>
<path d="M62.0947 47.8008C61.8633 47.8008 61.709 47.6471 61.709 47.4166V46.5713C61.709 46.3407 61.8633 46.187 62.0947 46.187C62.3261 46.187 62.4804 46.3407 62.4804 46.5713V47.4166C62.4032 47.6471 62.249 47.8008 62.0947 47.8008Z" stroke="#00B0CA" stroke-width="1.3" stroke-miterlimit="10"/>
<path d="M62.0947 72.085C61.8633 72.085 61.709 71.9313 61.709 71.7008V70.8554C61.709 70.6249 61.8633 70.4712 62.0947 70.4712C62.3261 70.4712 62.4804 70.6249 62.4804 70.8554V71.7008C62.4032 71.9313 62.249 72.085 62.0947 72.085Z" stroke="#00B0CA" stroke-width="1.3" stroke-miterlimit="10"/>
<path d="M53.765 51.2589C53.6879 51.2589 53.6108 51.2589 53.5336 51.1821L52.9165 50.5673C52.7622 50.4136 52.7622 50.183 52.9165 50.0293C53.0708 49.8756 53.3022 49.8756 53.4565 50.0293L54.0736 50.6441C54.2279 50.7978 54.2279 51.0284 54.0736 51.1821C53.9193 51.1821 53.8422 51.2589 53.765 51.2589Z" stroke="#00B0CA" stroke-width="1.3" stroke-miterlimit="10"/>
<path d="M70.9682 68.3961C70.891 68.3961 70.8139 68.3961 70.7367 68.3193L70.1196 67.7045C69.9653 67.5508 69.9653 67.3202 70.1196 67.1665C70.2739 67.0128 70.5053 67.0128 70.6596 67.1665L71.2767 67.7813C71.431 67.935 71.431 68.1656 71.2767 68.3193C71.1996 68.3961 71.1224 68.3961 70.9682 68.3961Z" stroke="#00B0CA" stroke-width="1.3" stroke-miterlimit="10"/>
<path d="M53.1479 68.3961C53.0708 68.3961 52.9936 68.3961 52.9165 68.3193C52.7622 68.1656 52.7622 67.935 52.9165 67.7813L53.5336 67.1665C53.6879 67.0128 53.9193 67.0128 54.0736 67.1665C54.2279 67.3202 54.2279 67.5508 54.0736 67.7045L53.4565 68.3193C53.3022 68.3961 53.225 68.3961 53.1479 68.3961Z" stroke="#00B0CA" stroke-width="1.3" stroke-miterlimit="10"/>
<path d="M70.351 51.2589C70.2739 51.2589 70.1968 51.2589 70.1196 51.1821C69.9653 51.0284 69.9653 50.7978 70.1196 50.6441L70.7367 50.0293C70.891 49.8756 71.1224 49.8756 71.2767 50.0293C71.431 50.183 71.431 50.4136 71.2767 50.5673L70.6596 51.1821C70.5825 51.1821 70.5053 51.2589 70.351 51.2589Z" stroke="#00B0CA" stroke-width="1.3" stroke-miterlimit="10"/>
<path d="M50.2928 59.5585H49.4443C49.2129 59.5585 49.0586 59.4048 49.0586 59.1743C49.0586 58.9437 49.2129 58.79 49.4443 58.79H50.2928C50.5243 58.79 50.6785 58.9437 50.6785 59.1743C50.6785 59.328 50.5243 59.5585 50.2928 59.5585Z" stroke="#00B0CA" stroke-width="1.3" stroke-miterlimit="10"/>
<path d="M74.6698 59.5585H73.8212C73.5898 59.5585 73.4355 59.4048 73.4355 59.1743C73.4355 58.9437 73.5898 58.79 73.8212 58.79H74.6698C74.9012 58.79 75.0555 58.9437 75.0555 59.1743C75.0555 59.328 74.9012 59.5585 74.6698 59.5585Z" stroke="#00B0CA" stroke-width="1.3" stroke-miterlimit="10"/>
<path d="M41.4205 59.0204C41.4205 47.7237 50.6002 38.5788 61.9398 38.5788C62.8655 38.5788 63.8683 38.6557 64.794 38.8094V15.7549H1.53906V73.2374H47.206C43.6576 69.5487 41.4205 64.5535 41.4205 59.0204Z" stroke="#00B0CA" stroke-width="1.3" stroke-miterlimit="10"/>
<path d="M55.4596 39.6548V37.6567H43.4258V49.6451H43.7343C46.2028 44.9573 50.3684 41.3455 55.4596 39.6548Z" stroke="#00B0CA" stroke-width="1.3" stroke-miterlimit="10"/>
<path d="M61.9413 59.9425C62.4525 59.9425 62.867 59.5296 62.867 59.0203C62.867 58.511 62.4525 58.0981 61.9413 58.0981C61.4301 58.0981 61.0156 58.511 61.0156 59.0203C61.0156 59.5296 61.4301 59.9425 61.9413 59.9425Z" fill="#00B0CA"/>
<path d="M67.4184 59.0205H61.9414V51.6431" stroke="#00B0CA" stroke-width="1.3" stroke-miterlimit="10" stroke-linecap="round"/>
</svg>
