<svg width="68" height="68" viewBox="0 0 68 68" fill="none" xmlns="http://www.w3.org/2000/svg">
<circle opacity="0.07" cx="34" cy="34" r="28" fill="#23212B"/>
<circle opacity="0.07" cx="34" cy="34" r="33.5" stroke="#23212B"/>
<path d="M41.4533 26H26.5557C25.146 26 24 27.1219 24 28.5019V30.2026C24 31.5826 25.146 32.7045 26.5557 32.7045H40.0436C40.5438 32.7045 40.9531 32.3038 40.9531 31.8141C40.9531 31.3244 40.5438 30.9238 40.0436 30.9238H26.5557C26.1555 30.9327 25.819 30.6121 25.819 30.2115V28.5019C25.819 28.1102 26.1555 27.7807 26.5557 27.7807H41.4442C41.8535 27.7807 42.19 28.1102 42.19 28.5019V39.4891C42.19 39.8898 41.8535 40.2104 41.4533 40.2104H26.5557C26.1555 40.2193 25.819 39.8987 25.819 39.4981V34.5476C25.819 34.0579 25.4097 33.6572 24.9095 33.6572C24.4093 33.6572 24 34.0579 24 34.5476V39.4981C24 40.8781 25.146 42 26.5557 42H41.4442C42.854 42 43.9999 40.8781 43.9999 39.4981V28.5019C44.009 27.1219 42.8631 26 41.4533 26Z" fill="#908BA7"/>
<path d="M40.9622 37.931C40.9622 37.4413 40.5529 37.0406 40.0527 37.0406C39.5525 37.0406 39.1432 37.4413 39.1432 37.931C39.1432 38.4207 39.5525 38.8214 40.0527 38.8214C40.5529 38.8303 40.9622 38.4296 40.9622 37.931Z" fill="#908BA7"/>
<path d="M38.0427 37.931C38.0427 38.4227 37.6355 38.8214 37.1332 38.8214C36.6309 38.8214 36.2237 38.4227 36.2237 37.931C36.2237 37.4393 36.6309 37.0406 37.1332 37.0406C37.6355 37.0406 38.0427 37.4393 38.0427 37.931Z" fill="#908BA7"/>
</svg>
