<svg width="67" height="67" viewBox="0 0 67 67" fill="none" xmlns="http://www.w3.org/2000/svg">
<g clip-path="url(#clip0)">
<path d="M31.0849 42.1922C31.2004 43.3086 32.1429 44.1397 33.2412 44.1397C33.3158 44.1397 33.3911 44.136 33.4669 44.1282C34.6592 44.0049 35.5259 42.9385 35.4026 41.7462L34.4016 32.061C34.2783 30.8687 33.2114 30.0031 32.0197 30.1253C30.8274 30.2485 29.9607 31.3149 30.0839 32.5072L31.0849 42.1922Z" fill="#00BF8E"/>
<path d="M44.6684 44.1282C44.7442 44.136 44.8194 44.1397 44.8941 44.1397C45.9926 44.1397 46.9349 43.3086 47.0503 42.1922L48.051 32.5069C48.1743 31.3143 47.3076 30.2479 46.1153 30.125C44.9222 30.0031 43.8564 30.8687 43.7331 32.0607L42.7324 41.7459C42.6091 42.9385 43.4758 44.0049 44.6684 44.1282Z" fill="#00BF8E"/>
<path d="M27.8627 53.5623C24.1582 53.5623 21.1445 56.5759 21.1445 60.2804C21.1445 63.9857 24.1582 67.0003 27.8627 67.0003C31.5671 67.0003 34.5811 63.9857 34.5811 60.2804C34.5811 56.5759 31.5671 53.5623 27.8627 53.5623ZM27.8627 62.6592C26.5517 62.6592 25.4854 61.5919 25.4854 60.2801C25.4854 58.9692 26.5517 57.9028 27.8627 57.9028C29.1736 57.9028 30.2403 58.9692 30.2403 60.2801C30.2403 61.5919 29.1736 62.6592 27.8627 62.6592Z" fill="#00BF8E"/>
<path d="M50.2731 53.5623C46.5687 53.5623 43.5547 56.5759 43.5547 60.2804C43.5547 63.9857 46.5684 67.0003 50.2731 67.0003C53.9779 67.0003 56.9921 63.9857 56.9921 60.2804C56.9921 56.5759 53.9779 53.5623 50.2731 53.5623ZM50.2731 62.6592C48.9622 62.6592 47.8955 61.5919 47.8955 60.2801C47.8955 58.9692 48.9622 57.9028 50.2731 57.9028C51.5843 57.9028 52.6513 58.9692 52.6513 60.2801C52.6513 61.5919 51.5846 62.6592 50.2731 62.6592Z" fill="#00BF8E"/>
<path d="M63.2553 22.8848C62.8444 22.3532 62.2104 22.0418 61.5384 22.0418H18.2763L16.4595 15.0557C16.2107 14.0993 15.3471 13.4316 14.3589 13.4316H5.46338C4.26473 13.4316 3.29297 14.4034 3.29297 15.6021C3.29297 16.8007 4.26473 17.7725 5.46338 17.7725H12.6807L14.4827 24.7021C14.4917 24.7409 14.5018 24.7794 14.5128 24.8173L21.2142 50.5862C21.4631 51.5426 22.3266 52.2102 23.3149 52.2102H54.8217C55.81 52.2102 56.6735 51.5426 56.9224 50.5862L63.6391 24.7583C63.8081 24.1086 63.6663 23.4167 63.2553 22.8848ZM53.1435 47.87H24.993L19.4052 26.3829H58.7316L53.1435 47.87Z" fill="#00BF8E"/>
<path d="M30.5479 15.2945C30.9716 15.7178 31.5269 15.9297 32.0823 15.9297C32.6379 15.9297 33.1935 15.7175 33.6175 15.2936C34.4648 14.4457 34.4645 13.0714 33.6166 12.224L26.7908 5.40143C25.9429 4.5541 24.5689 4.55439 23.7213 5.40201C22.8739 6.24991 22.8742 7.62422 23.7218 8.47155L30.5479 15.2945Z" fill="#00BF8E"/>
<path d="M46.0647 15.9294C46.6203 15.9294 47.1763 15.7173 47.6002 15.2931L54.4159 8.47133C55.2632 7.62342 55.2623 6.24912 54.4144 5.40208C53.5665 4.55475 52.1922 4.55562 51.3452 5.40353L44.5295 12.2253C43.6822 13.0732 43.6831 14.4475 44.531 15.2948C44.9546 15.7179 45.5097 15.9294 46.0647 15.9294Z" fill="#00BF8E"/>
<path d="M39.0702 13.9806C39.0705 13.9806 39.0705 13.9806 39.0708 13.9806C40.2692 13.9806 41.2409 13.0092 41.2412 11.8108L41.2435 2.17099C41.2438 0.972344 40.2723 0.000289388 39.0737 0C39.0734 0 39.0734 0 39.0734 0C37.8748 0 36.903 0.971476 36.9027 2.16983L36.9004 11.8096C36.9001 13.0083 37.8716 13.9803 39.0702 13.9806Z" fill="#00BF8E"/>
</g>
<defs>
<clipPath id="clip0">
<rect width="67" height="67" fill="white"/>
</clipPath>
</defs>
</svg>
