<svg width="121" height="98" viewBox="0 0 121 98" fill="none" xmlns="http://www.w3.org/2000/svg">
<g clip-path="url(#clip0)">
<path d="M115.391 9.125H5.60938V97.9995H115.391V9.125Z" fill="#511E84"/>
<path d="M64.9076 29.4922H56.2266V97.9996H64.9076V29.4922Z" fill="#00B0CA"/>
<path d="M121 0H0V25.1282H121V0Z" fill="#00B0CA"/>
<path d="M65 0H56V9H65V0Z" fill="#511E84"/>
<path d="M102.437 81.5993V81.0703H102.169V81.5993C98.9641 81.7316 98.5635 84.9057 98.5635 84.9057C98.5635 84.9057 100.166 84.5089 100.834 85.4347C100.834 85.4347 101.368 85.0379 102.169 85.0379V88.741C102.169 88.741 102.169 89.27 102.169 89.4023C102.169 89.6668 101.902 89.5346 101.902 89.4023C101.902 89.27 101.769 89.27 101.769 89.4023C101.769 89.5346 101.902 89.9313 102.169 89.7991C102.437 89.7991 102.437 89.5346 102.437 89.5346V88.741V85.0379C102.971 85.0379 103.505 85.1702 103.906 85.4347C103.906 85.4347 105.241 84.5089 106.176 85.0379C106.176 85.0379 105.909 81.5993 102.437 81.5993Z" fill="white"/>
<path d="M104.707 79.8809H99.8987C98.1625 79.8809 96.6934 81.3356 96.6934 83.0549V87.8161C96.6934 89.5354 98.1625 90.9902 99.8987 90.9902H104.707C106.443 90.9902 107.912 89.5354 107.912 87.8161V83.0549C108.045 81.2034 106.576 79.8809 104.707 79.8809ZM107.111 87.6838C107.111 89.0064 106.042 90.0644 104.707 90.0644H99.8987C98.5631 90.0644 97.4947 89.0064 97.4947 87.6838V82.9227C97.4947 81.6002 98.5631 80.5421 99.8987 80.5421H104.707C106.042 80.5421 107.111 81.6002 107.111 82.9227V87.6838Z" fill="white"/>
<path d="M85.3416 87.9489H85.8759V84.1135H86.9443L85.6087 81.8652L84.1396 84.1135H85.2081L85.3416 87.9489Z" fill="white"/>
<path d="M90.9502 88.4629L84.2725 88.4922L84.2748 89.0212L90.9525 88.9919L90.9502 88.4629Z" fill="white"/>
<path d="M88.2793 84.113H89.3477V87.8161H89.882V84.113H90.9504L89.6148 81.7324L88.2793 84.113Z" fill="white"/>
<path d="M89.8824 79.8809H85.0744C83.3382 79.8809 81.8691 81.3356 81.8691 83.0549V87.8161C81.8691 89.5354 83.3382 90.9902 85.0744 90.9902H89.8824C91.6186 90.9902 93.0877 89.5354 93.0877 87.8161V83.0549C93.2212 81.2034 91.7521 79.8809 89.8824 79.8809ZM92.4199 87.6838C92.4199 89.0064 91.3515 90.0644 90.0159 90.0644H85.208C83.8725 90.0644 82.804 89.0064 82.804 87.6838V82.9227C82.804 81.6002 83.8725 80.5421 85.208 80.5421H90.0159C91.3515 80.5421 92.4199 81.6002 92.4199 82.9227V87.6838Z" fill="white"/>
<path d="M51.1511 77.6328H12.1533V91.2549H51.1511V77.6328Z" fill="white"/>
<path d="M14.9585 79.4863H14.1572V89.2731H14.9585V79.4863Z" fill="#511E84"/>
<path d="M18.1637 79.4863H16.2939V89.2731H18.1637V79.4863Z" fill="#511E84"/>
<path d="M19.9002 79.4863H19.2324V89.2731H19.9002V79.4863Z" fill="#511E84"/>
<path d="M21.9029 79.4863H21.1016V89.2731H21.9029V79.4863Z" fill="#511E84"/>
<path d="M25.776 79.4863H23.3721V89.2731H25.776V79.4863Z" fill="#511E84"/>
<path d="M27.7793 79.4863H27.2451V89.2731H27.7793V79.4863Z" fill="#511E84"/>
<path d="M31.9201 79.4863H28.7148V89.2731H31.9201V79.4863Z" fill="#511E84"/>
<path d="M33.6558 79.4863H32.8545V89.2731H33.6558V79.4863Z" fill="#511E84"/>
<path d="M37.129 79.4863H35.5264V89.2731H37.129V79.4863Z" fill="#511E84"/>
<path d="M38.9984 79.4863H38.0635V89.2731H38.9984V79.4863Z" fill="#511E84"/>
<path d="M43.0047 79.4863H41.8027V89.2731H43.0047V79.4863Z" fill="#511E84"/>
<path d="M44.2073 79.4863H43.8066V89.2731H44.2073V79.4863Z" fill="#511E84"/>
<path d="M47.412 79.4863H45.6758V89.2731H47.412V79.4863Z" fill="#511E84"/>
<path d="M49.282 79.4863H48.6143V89.2731H49.282V79.4863Z" fill="#511E84"/>
</g>
<defs>
<clipPath id="clip0">
<rect width="121" height="98" fill="white"/>
</clipPath>
</defs>
</svg>
