<svg width="24" height="24" viewBox="0 0 24 24" fill="none" xmlns="http://www.w3.org/2000/svg">
<circle cx="12" cy="12" r="12" fill="#EDEBFA"/>
<path d="M11.5271 18.4454C11.6486 18.5854 11.8212 18.6654 12.0002 18.6654C12.1792 18.6654 12.3518 18.5854 12.4732 18.4387C12.5052 18.412 13.1253 17.692 13.886 16.6187C14.5061 15.752 15.0303 14.912 15.4522 14.1187C15.7271 13.6054 15.9572 13.112 16.1362 12.6454C16.4878 11.7387 16.6668 10.9187 16.6668 10.1987C16.6668 7.51203 14.5764 5.33203 12.0002 5.33203C11.3545 5.33203 10.7216 5.47203 10.1271 5.7387C9.80747 5.88536 9.66044 6.28536 9.80108 6.6187C9.94172 6.95203 10.3189 7.10536 10.6449 6.9587C11.0732 6.76536 11.5271 6.66536 12.0066 6.66536C13.8732 6.66536 15.3947 8.25203 15.3947 10.1987C15.3947 10.7454 15.2477 11.3987 14.9536 12.1454C14.7874 12.5587 14.5828 13.0054 14.3335 13.472C13.9371 14.212 13.4385 15.0054 12.8568 15.8254C12.5308 16.2854 12.2303 16.6787 12.0002 16.972C10.7472 15.392 8.61203 12.272 8.61203 10.1987C8.61203 9.61203 8.75267 9.03203 9.02117 8.5187C9.19377 8.19203 9.0787 7.78536 8.76546 7.61203C8.45222 7.4387 8.06226 7.55203 7.89605 7.8787C7.53167 8.58536 7.3335 9.39203 7.3335 10.1987C7.3335 13.5654 11.3545 18.2454 11.5271 18.4454Z" fill="#452FBA"/>
<path d="M13.5983 10.2054C13.5983 11.1258 12.8828 11.872 12.0002 11.872C11.1175 11.872 10.402 11.1258 10.402 10.2054C10.402 9.28489 11.1175 8.5387 12.0002 8.5387C12.8828 8.5387 13.5983 9.28489 13.5983 10.2054Z" fill="#452FBA"/>
</svg>