<svg width="14" height="9" viewBox="0 0 14 9" fill="none" xmlns="http://www.w3.org/2000/svg">
<path d="M13.7442 5.03999L10.1763 8.79564C10.1164 8.85954 10.0463 8.91084 9.96768 8.94594C9.88987 8.98104 9.80608 8.99903 9.72058 8.99994C9.63593 9.00084 9.55129 8.98374 9.47263 8.94954C9.39397 8.91534 9.323 8.86584 9.26229 8.80194C9.20244 8.73894 9.15542 8.66424 9.12293 8.58144C9.09044 8.49864 9.07419 8.40954 9.07505 8.32045C9.07505 8.23045 9.093 8.14225 9.12635 8.06035C9.15969 7.97755 9.20843 7.90285 9.26913 7.84075L11.8017 5.17499H0.65408C0.56858 5.17679 0.483934 5.16059 0.404419 5.12729C0.325758 5.09399 0.253082 5.04449 0.192377 4.98149C0.131671 4.91849 0.0829353 4.8438 0.0504456 4.761C0.0170994 4.6782 0 4.59 0 4.5C0 4.41 0.0170994 4.3209 0.0504456 4.239C0.0829353 4.15621 0.131671 4.08061 0.192377 4.01761C0.253082 3.95551 0.325758 3.90601 0.404419 3.87271C0.483934 3.83941 0.56858 3.82321 0.65408 3.82501H11.8017L9.26913 1.15925C9.20843 1.09625 9.15969 1.02245 9.12635 0.939652C9.093 0.857753 9.07505 0.768654 9.07505 0.679555C9.07419 0.590457 9.09044 0.501358 9.12293 0.418559C9.15542 0.33576 9.20244 0.261061 9.26229 0.197162C9.323 0.134163 9.39397 0.0837639 9.47263 0.0504644C9.55129 0.0162649 9.63593 -0.000834888 9.72058 6.50992e-05C9.80608 6.50992e-05 9.88987 0.0189648 9.96768 0.0540643C10.0463 0.0891638 10.1164 0.140463 10.1763 0.204362L13.746 3.96181C13.8203 4.02121 13.881 4.09681 13.9255 4.1832C13.9691 4.2696 13.9939 4.3659 13.999 4.464C14.0042 4.5612 13.9888 4.6593 13.9546 4.7502C13.9195 4.842 13.8665 4.92389 13.799 4.99139C13.7819 5.00849 13.7631 5.02469 13.7442 5.03999Z" fill="#A8DE3B"/>
</svg>
