<svg width="147" height="24" viewBox="0 0 147 24" fill="none" xmlns="http://www.w3.org/2000/svg">
<path d="M126.49 9.25689C125.296 8.15484 123.606 7.34668 121.891 7.34668C119.578 7.34668 117.565 8.47321 116.794 9.96709V7.83648H112.742C112.269 7.83648 111.896 8.32627 111.896 8.79158V22.7018C111.896 23.1671 112.269 23.51 112.742 23.51H117.341V15.3059C117.341 13.2487 118.286 11.9263 120.125 11.9263C121.866 11.9263 122.786 13.1263 122.786 15.1589V23.51H127.136C127.609 23.51 128.255 23.1671 128.255 22.7018V14.0569C128.255 11.9753 127.683 10.3589 126.49 9.25689Z" fill="#00BF8E"/>
<path d="M33.509 8.69366C33.509 8.22835 33.1361 7.83651 32.6637 7.83651L28.5865 7.81202V9.3059C27.2938 8.08141 25.7027 7.49365 23.8381 7.49365C21.5758 7.49365 19.7112 8.25284 18.2444 9.82019C16.7776 11.363 16.0566 13.3222 16.0566 15.6733C16.0566 18.0243 16.7776 20.008 18.2444 21.5998C19.7112 23.1916 21.5758 23.9998 23.8381 23.9998C25.6778 23.9998 27.2938 23.4121 28.5865 22.2365C28.5865 22.6774 28.5865 23.5345 28.5865 23.5345H32.6637C33.1361 23.5345 33.509 23.1916 33.509 22.7263C33.509 22.7019 33.509 8.69366 33.509 8.69366ZM27.4429 18.3182C26.722 19.0284 25.8518 19.3957 24.8077 19.3957C23.7635 19.3957 22.8934 19.0284 22.1724 18.3182C21.4763 17.608 21.1283 16.7263 21.1283 15.6978C21.1283 14.6937 21.4763 13.861 22.1724 13.1263C22.8685 12.3916 23.7386 12.0488 24.8077 12.0488C25.8518 12.0488 26.722 12.4161 27.4429 13.1263C28.1639 13.8365 28.5119 14.6937 28.5119 15.6978C28.5119 16.7263 28.1639 17.608 27.4429 18.3182Z" fill="#00BF8E"/>
<path d="M92.3547 8.66981C92.3547 8.2045 91.9818 7.81266 91.5094 7.81266H87.4322V9.25756C86.1395 8.03307 84.5484 7.44531 82.6838 7.44531C80.4215 7.44531 78.5569 8.2045 77.0901 9.77185C75.6233 11.3147 74.9023 13.2739 74.9023 15.6249C74.9023 17.9759 75.6233 19.9596 77.0901 21.5515C78.5569 23.1433 80.4215 23.9515 82.6838 23.9515C84.5235 23.9515 86.1395 23.3637 87.4322 22.1882C87.4322 22.629 87.4322 23.5107 87.4322 23.5107H91.4845C91.9569 23.5107 92.3298 23.1433 92.3298 22.678C92.3547 22.678 92.3547 8.66981 92.3547 8.66981ZM86.2886 18.2943C85.5677 19.0045 84.6975 19.3719 83.6534 19.3719C82.6092 19.3719 81.7391 19.0045 81.0181 18.2943C80.322 17.5841 79.974 16.7025 79.974 15.6739C79.974 14.6698 80.322 13.8372 81.0181 13.1025C81.7142 12.3678 82.5844 12.0249 83.6534 12.0249C84.6975 12.0249 85.5677 12.3923 86.2886 13.1025C87.0096 13.8127 87.3576 14.6698 87.3576 15.6739C87.3576 16.7025 87.0096 17.5841 86.2886 18.2943Z" fill="#00BF8E"/>
<path d="M146.751 8.69422C146.751 8.22891 146.378 7.83707 145.906 7.83707H141.829V9.28198C140.536 8.05748 138.92 7.46973 137.08 7.46973C134.818 7.46973 132.953 8.22891 131.487 9.79626C130.02 11.3391 129.299 13.2983 129.299 15.6493C129.299 18.0004 130.02 19.984 131.487 21.5759C132.953 23.1677 134.818 23.9759 137.08 23.9759C138.92 23.9759 140.536 23.3881 141.829 22.2126V23.5106H145.906C146.378 23.5106 146.751 23.1432 146.751 22.6779C146.751 22.7024 146.751 8.69422 146.751 8.69422ZM140.685 18.2942C139.964 19.0044 139.094 19.3718 138.05 19.3718C137.006 19.3718 136.136 19.0044 135.415 18.2942C134.718 17.584 134.37 16.7024 134.37 15.6738C134.37 14.6697 134.718 13.8371 135.415 13.1024C136.111 12.3677 136.981 12.0248 138.05 12.0248C139.094 12.0248 139.964 12.3922 140.685 13.1024C141.406 13.8126 141.754 14.6697 141.754 15.6738C141.754 16.7024 141.406 17.584 140.685 18.2942Z" fill="#00BF8E"/>
<path d="M71.8426 9.08531C70.5747 7.95878 68.3621 7.37102 66.5224 7.37102C64.2352 7.37102 62.0972 8.27715 60.9287 9.99144C60.1083 8.27715 58.6415 7.39551 56.5035 7.37102C54.4649 7.34653 52.3766 8.3996 51.4816 10.0159V7.83633C51.4816 7.83633 47.4293 7.81184 47.4293 7.83633C46.9569 7.83633 46.584 8.20368 46.584 8.66899V22.7017C46.584 23.167 46.9569 23.5098 47.4293 23.5098H52.0285V14.9384C52.0285 12.9792 53.0975 11.8527 54.7383 11.8527C56.3543 11.8527 57.473 13.0772 57.473 14.9384V23.5098H62.9176V14.9384C62.9176 12.9792 63.912 11.9016 65.6523 11.9016C67.1936 11.9016 68.3621 12.9792 68.3621 14.9384V23.5098H72.9614C73.4337 23.5098 73.8066 23.1425 73.8066 22.6772V14.0078C73.8066 11.8527 73.1354 10.1874 71.8426 9.08531Z" fill="#00BF8E"/>
<path d="M43.7275 7.39648C41.9126 7.39648 40.7939 8.20465 39.7994 9.74751V7.81281H35.4488C34.9764 7.81281 34.6035 8.20465 34.6035 8.64547V22.6782C34.6035 23.1435 34.9764 23.5108 35.4488 23.5108H40.048V16.7516C40.048 13.7394 41.1171 12.221 43.454 12.221C44.1252 12.221 44.8213 12.3434 45.5672 12.5883L45.9649 7.81281C45.3683 7.54342 44.4236 7.39648 43.7275 7.39648Z" fill="#00BF8E"/>
<path d="M16.1064 3.79652C16.1064 3.33121 15.7335 2.96387 15.2611 2.96387H1.68707C1.21471 2.96387 0.841797 3.33121 0.841797 3.79652V22.7027C0.841797 23.168 1.21471 23.5109 1.68707 23.5109H6.28633V15.6741H15.0125V11.6088C15.0125 11.1435 14.6396 10.7761 14.1672 10.7761H6.28633V7.86184H16.0815V3.79652H16.1064Z" fill="#00BF8E"/>
<path d="M110.826 8.79153C110.826 8.32622 110.478 7.83643 110.005 7.83643H105.928V15.1344C105.928 16.212 105.705 17.216 105.008 17.9507C104.312 18.7099 103.243 19.0773 102.125 19.0773C101.031 19.0773 100.111 18.6854 99.4148 17.9507C98.7187 17.216 98.296 16.1875 98.296 15.1099V7.83643H94.368C93.8211 7.83643 93.3984 8.27724 93.3984 8.79153V15.1834C93.3984 20.5467 96.6304 23.9018 102.149 23.9018C107.669 23.9018 110.826 20.5222 110.826 15.1344C110.826 15.1589 110.826 8.79153 110.826 8.79153Z" fill="#A8DE3B"/>
<path fill-rule="evenodd" clip-rule="evenodd" d="M105.929 7.83675H98.2969V3.94287C98.3217 2.86531 98.6698 1.86123 99.3659 1.12653C100.062 0.391838 101.032 0 102.125 0C103.244 0 104.239 0.391838 104.935 1.12653C105.631 1.86123 105.929 2.86531 105.929 3.94287V7.83675Z" fill="#00BF8E"/>
</svg>
