<?xml version="1.0" encoding="UTF-8"?>
<svg width="30px" height="30px" viewBox="0 0 30 30" version="1.1" xmlns="http://www.w3.org/2000/svg" xmlns:xlink="http://www.w3.org/1999/xlink">
    <title>logo</title>
    <g id="Page-1" stroke="none" stroke-width="1" fill="none" fill-rule="evenodd">
        <g id="Artboard" transform="translate(-102.000000, -146.000000)" fill-rule="nonzero">
            <g id="logo" transform="translate(102.000000, 146.000000)">
                <path d="M7.77,12 L0,12 L0,0 L12,0 L12,7.77 C12,10.11 10.11,12 7.77,12 Z" id="Path" fill="#C2DF0A"></path>
                <path d="M12,30 L0,30 L0,18 L7.77,18 C10.11,18 12,19.89 12,22.23 L12,30 Z" id="Path" fill="#00B0CA"></path>
                <path d="M30,12 L22.23,12 C19.89,12 18,10.11 18,7.77 L18,0 L30,0 L30,12 Z" id="Path" fill="#00B0CA"></path>
                <path d="M30,30 L18,30 L18,22.23 C18,19.89 19.89,18 22.23,18 L30,18 L30,30 Z" id="Path" fill="#C2DF0A"></path>
            </g>
        </g>
    </g>
</svg>