<svg width="25" height="25" viewBox="0 0 25 25" fill="none" xmlns="http://www.w3.org/2000/svg">
<path d="M16.1597 25C6.13453 24.9248 -5.61032 10.3294 2.97191 1.74734C3.27683 1.43765 3.59958 1.13973 3.93117 0.861765C4.63242 0.273968 5.52088 -0.0291807 6.43236 0.00811489C7.3475 0.045557 8.20797 0.423004 8.85523 1.07085C8.85943 1.07504 8.86364 1.07934 8.86779 1.08364L10.5209 2.80006C12.31 4.54915 11.6759 7.70337 9.34351 8.61609C8.62145 8.91035 8.16083 9.17166 8.03776 9.26007C7.12745 10.1868 6.54796 11.6927 9.95285 15.1007C11.0578 16.2066 12.6942 17.6768 14.1431 17.6768C14.7309 17.6768 15.2705 17.4283 15.7913 16.9173C15.859 16.8181 16.0931 16.4196 16.395 15.668C17.2991 13.3216 20.4622 12.6693 22.2192 14.4693L23.9171 16.111C23.9211 16.1149 23.9251 16.1189 23.9291 16.1228C24.5738 16.7681 24.951 17.6254 24.9913 18.537C25.0315 19.4479 24.7317 20.3352 24.1472 21.0352C23.8879 21.3458 23.6109 21.649 23.3239 21.9362C21.302 23.96 18.8542 25 16.1597 25ZM6.2833 1.9552C5.89704 1.9552 5.50848 2.08842 5.18719 2.35769C4.90309 2.59587 4.62641 2.85122 4.36493 3.11678C-0.210292 7.7599 2.30433 14.1022 6.70005 18.4444C11.0562 22.775 17.3719 25.1428 21.9409 20.5566C22.187 20.3103 22.4244 20.0505 22.6467 19.7843C23.2107 19.1089 23.1692 18.1314 22.5514 17.5076L20.8545 15.8668C20.8504 15.8629 20.8464 15.859 20.8425 15.855C20.4536 15.4657 19.9215 15.3055 19.3829 15.4154C18.8426 15.5256 18.4147 15.8828 18.2087 16.3954C18.0721 16.7354 17.5959 17.8753 17.2031 18.2684C16.3008 19.1715 15.2713 19.6294 14.1432 19.6294C11.9921 19.6294 10.0347 17.9464 8.56981 16.4802C6.34706 14.3495 3.7781 10.7161 6.67885 7.85611C7.09003 7.44454 8.25747 6.94984 8.60548 6.80803C9.111 6.60202 9.46331 6.17571 9.57201 5.63849C9.68155 5.09711 9.52091 4.56297 9.13123 4.17292C9.12702 4.16873 9.12282 4.16443 9.11867 4.16014L7.46657 2.44473C7.13883 2.11971 6.71251 1.9552 6.2833 1.9552ZM24.0217 11.6722C23.5217 11.6722 23.0954 11.2907 23.0496 10.7835C22.626 6.08745 18.9074 2.37195 14.2075 1.94876C13.67 1.90038 13.2736 1.42579 13.322 0.888761C13.3704 0.351684 13.8457 -0.0444602 14.3829 0.00401433C19.8783 0.414559 24.5851 5.11752 24.996 10.6082C25.0445 11.1452 24.648 11.6198 24.1105 11.6682C24.0807 11.6709 24.051 11.6722 24.0217 11.6722ZM16.4087 11.6708C16.9207 11.5001 17.1972 10.9472 17.0264 10.4356C16.6431 9.28775 15.7438 8.36571 14.6209 7.96907C14.1122 7.78933 13.5538 8.05582 13.374 8.56424C13.1941 9.07261 13.4608 9.63044 13.9696 9.81013C14.5288 10.0076 14.9785 10.4725 15.1726 11.0536C15.3092 11.4626 15.6903 11.7212 16.0994 11.7212C16.2018 11.7212 16.3061 11.705 16.4087 11.6708ZM20.2476 11.6623C20.7818 11.586 21.1529 11.0914 21.0765 10.5576C20.587 7.13861 17.8554 4.40924 14.4336 3.92015C13.1441 3.78801 12.8806 5.61833 14.1569 5.85313C16.7246 6.22013 18.7746 8.26837 19.1419 10.834C19.2116 11.3209 19.6296 11.6722 20.1079 11.6722C20.154 11.6723 20.2007 11.669 20.2476 11.6623Z" fill="white"/>
</svg>
