<svg width="46" height="34" viewBox="0 0 46 34" fill="none" xmlns="http://www.w3.org/2000/svg">
<rect width="46" height="34" rx="4" fill="#27AEE3"/>
<path d="M10.6115 13L7 21.9884H11.3234L11.8594 20.5553H13.0845L13.6205 21.9884H18.3794V20.8946L18.8034 21.9884H21.2651L21.6891 20.8715V21.9884H31.5863L32.7897 20.5925L33.9166 21.9884L39 22L35.3771 17.5193L39 13H33.9954L32.824 14.3701L31.7326 13H20.9658L20.0412 15.32L19.095 13H14.7806V14.0566L14.3006 13C14.3006 13 10.6115 13 10.6115 13ZM11.448 14.2764H13.5555L15.9509 20.3715V14.2764H18.2596L20.1098 18.6465L21.815 14.2764H24.1121V20.7262H22.7143L22.7029 15.6721L20.6652 20.7262H19.4149L17.3657 15.6721V20.7262H14.4903L13.9452 19.2802H11L10.456 20.7249H8.91541L11.448 14.2764ZM25.3908 14.2764H31.0743L32.8126 16.3881L34.6069 14.2764H36.3452L33.704 17.518L36.3452 20.7224H34.528L32.7897 18.5861L30.9863 20.7224H25.3908V14.2764ZM12.4732 15.3676L11.5029 17.9435H13.4424L12.4732 15.3676ZM26.7943 15.6118V16.7892H29.8949V18.1015H26.7943V19.3869H30.2721L31.888 17.4937L30.3406 15.6107H26.7943V15.6118Z" fill="white"/>
</svg>
