<svg width="20" height="20" viewBox="0 0 20 20" fill="none" xmlns="http://www.w3.org/2000/svg">
    <path
        d="M4.76 1.48C6.33 0.51 8.14 0 10 0C15.51 0 20 4.49 20 10C20 15.51 15.51 20 10 20C4.49 20 0 15.51 0 10C0 8.68 0.25 7.4 0.75 6.18C0.96 5.67 1.55 5.43 2.06 5.64C2.57 5.86 2.81 6.44 2.6 6.95C2.2 7.92 2 8.94 2 10C2 14.41 5.59 18 10 18C14.41 18 18 14.41 18 10C18 5.59 14.41 2 10 2C8.52 2 7.07 2.41 5.81 3.19C5.34 3.48 4.72 3.33 4.43 2.86C4.14 2.39 4.29 1.77 4.76 1.48Z"
        fill="#E84545" />
    <path
        d="M11 5.92C11 5.37 10.55 4.92 10 4.92C9.45 4.92 9 5.37 9 5.92L9 10.92C9 11.47 9.45 11.92 10 11.92C10.55 11.92 11 11.47 11 10.92L11 5.92Z"
        fill="#E84545" />
    <path
        d="M10 13C9.44772 13 9 13.4477 9 14C9 14.5523 9.44772 15 10 15C10.5523 15 11 14.5523 11 14C11 13.4477 10.5523 13 10 13Z"
        fill="#E84545" />
</svg>