<svg width="20" height="16" viewBox="0 0 20 16" xmlns="http://www.w3.org/2000/svg">
<path d="M17.4455 0H2.55455C1.14545 0 0 1.12187 0 2.50195V4.20256C0 5.58264 1.14545 6.70451 2.55455 6.70451H16.0364C16.5364 6.70451 16.9455 6.30384 16.9455 5.81414C16.9455 5.32443 16.5364 4.92376 16.0364 4.92376H2.55455C2.15455 4.93267 1.81818 4.61213 1.81818 4.21146V2.50195C1.81818 2.11018 2.15455 1.78075 2.55455 1.78075H17.4364C17.8455 1.78075 18.1818 2.11018 18.1818 2.50195V13.4891C18.1818 13.8898 17.8455 14.2104 17.4455 14.2104H2.55455C2.15455 14.2193 1.81818 13.8987 1.81818 13.4981V8.54758C1.81818 8.05787 1.40909 7.65721 0.909091 7.65721C0.409091 7.65721 0 8.05787 0 8.54758V13.4981C0 14.8781 1.14545 16 2.55455 16H17.4364C18.8455 16 19.9909 14.8781 19.9909 13.4981V2.50195C20 1.12187 18.8545 0 17.4455 0Z"
/>
</svg>
