<svg width="24" height="24" viewBox="0 0 24 24" xmlns="http://www.w3.org/2000/svg">
<path d="M18.0002 20V21H19.0002V20H18.0002ZM16.5002 19C15.9479 19 15.5002 19.4477 15.5002 20C15.5002 20.5523 15.9479 21 16.5002 21V19ZM14.1526 6.99887C15.7144 7.07324 17.0002 8.42872 17.0002 10H19.0002C19.0002 7.37128 16.886 5.12676 14.2478 5.00113L14.1526 6.99887ZM17.0002 10V20H19.0002V10H17.0002ZM18.0002 19H16.5002V21H18.0002V19Z" />
<path d="M7.5 21C8.05228 21 8.5 20.5523 8.5 20C8.5 19.4477 8.05228 19 7.5 19V21ZM6 20H5V21H6V20ZM7.5 19H6V21H7.5V19ZM7 20V10H5V20H7ZM7 10C7 8.42872 8.28581 7.07324 9.84757 6.99887L9.75243 5.00113C7.11419 5.12676 5 7.37128 5 10H7Z" />
<path d="M12 23C10.9 23 10 22.1 10 21V16C10 14.9 10.9 14 12 14C13.1 14 14 14.9 14 16V21C14 22.1 13.1 23 12 23Z" stroke-width="2" stroke-miterlimit="10" stroke-linecap="square" />
<path d="M9 4H6" stroke-width="2" stroke-miterlimit="10" stroke-linecap="round"/>
<path d="M18 4H15" stroke-width="2" stroke-miterlimit="10" stroke-linecap="round" />
<path d="M12 7C13.6569 7 15 5.65685 15 4C15 2.34315 13.6569 1 12 1C10.3431 1 9 2.34315 9 4C9 5.65685 10.3431 7 12 7Z" stroke-width="2" stroke-miterlimit="10" stroke-linecap="square"/>
</svg>
