<svg width="22" height="22" viewBox="0 0 22 22" fill="none" xmlns="http://www.w3.org/2000/svg">
<path d="M10.1663 0.423394C11.0338 -0.169372 12.1776 -0.137088 13.011 0.503687L21.0333 6.6706C21.6423 7.13875 22 7.86853 22 8.64291V19.524C22 20.8914 20.9056 22 19.5556 22H2.44444C1.09442 22 0 20.8914 0 19.524V10.858C0 10.1743 0.547207 9.62002 1.22222 9.62002C1.89724 9.62002 2.44444 10.1743 2.44444 10.858V19.524H19.5556V8.64291L11.5333 2.476L3.97634 7.63975C3.41674 8.02212 2.65708 7.87261 2.27959 7.30579C1.90209 6.73899 2.0497 5.96952 2.60929 5.58715L10.1663 0.423394Z"/>
</svg>
