<svg width="90" height="90" viewBox="0 0 90 90" fill="none" xmlns="http://www.w3.org/2000/svg">
  <path fill-rule="evenodd" clip-rule="evenodd" d="M88.3636 48.3654C88.3636 47.8846 88.7487 47.5961 89.2299 47.5961C89.7112 47.5961 90 47.9808 90 48.4615C88.1711 71.7308 68.4385 90 45.0481 90C20.2139 90 0 69.8077 0 45C0 20.1923 20.2139 0 45.0481 0C56.5027 0 67.3797 4.32692 75.6578 12.1154C83.9358 19.9038 89.0374 30.3846 89.9037 41.6346C89.9037 41.8269 89.9037 42.0192 89.7112 42.2115C89.5187 42.4038 89.3262 42.5 89.1337 42.5C88.9412 42.5 88.7487 42.5 88.5562 42.3077C88.3636 42.1154 88.2674 41.9231 88.2674 41.7308C87.4973 30.8654 82.5882 20.7692 74.5989 13.3654C66.5134 5.86538 56.0214 1.73077 45.0481 1.73077C21.1765 1.73077 1.73262 21.1538 1.73262 45C1.73262 68.8461 21.1765 88.3654 45.1444 88.3654C67.6684 88.3654 86.631 70.7692 88.3636 48.3654ZM45.9143 12.6912C45.9143 13.172 45.5292 13.5566 45.0479 13.5566C44.5667 13.5566 44.1816 13.172 44.1816 12.6912V10.1912C44.1816 9.71047 44.5667 9.32586 45.0479 9.32586C45.5292 9.32586 45.9143 9.71047 45.9143 10.1912V12.6912ZM69.5936 19.5212C69.7861 19.5212 69.9786 19.6173 70.1711 19.8096C70.5561 20.1942 70.5561 20.675 70.1711 20.9635L68.4385 22.6942C68.1497 22.9827 67.5722 22.9827 67.2834 22.6942C67.0909 22.5981 66.9946 22.3096 66.9946 22.1173C66.9946 21.925 67.0909 21.7327 67.2834 21.5404L69.016 19.8096C69.1123 19.6173 69.401 19.5212 69.5936 19.5212ZM77.1978 44.1343C76.7166 44.1343 76.3315 44.5189 76.3315 44.9997C76.3315 45.4805 76.7166 45.8651 77.1978 45.8651H79.7005C80.1818 45.8651 80.5668 45.4805 80.5668 44.9997C80.5668 44.5189 80.1818 44.1343 79.7005 44.1343H77.1978ZM67.6686 66.8271C67.8611 66.8271 68.0537 66.9233 68.2462 67.1156L69.9788 68.8463C70.2676 69.1348 70.2676 69.7117 69.9788 70.0002C69.69 70.2887 69.1125 70.2887 68.8237 70.0002L67.0911 68.2694C66.8023 67.981 66.8023 67.404 67.0911 67.1156C67.1873 66.9233 67.4761 66.8271 67.6686 66.8271ZM43.9897 77.1166V79.6166C43.9897 80.0974 44.3748 80.482 44.8561 80.482C45.3373 80.482 45.7224 80.0974 45.7224 79.6166V77.1166C45.7224 76.6359 45.3373 76.2513 44.8561 76.2513C44.3748 76.2513 43.9897 76.6359 43.9897 77.1166ZM19.8288 68.7516L21.5614 67.0208C21.8502 66.7323 22.4277 66.7323 22.7165 67.0208C22.909 67.1169 23.0053 67.4054 23.0053 67.5977C23.0053 67.79 22.909 67.9823 22.7165 68.1746L20.9839 69.9054C20.6951 70.1939 20.1176 70.1939 19.8288 69.9054C19.6363 69.8092 19.54 69.5208 19.54 69.3285C19.54 69.1362 19.6363 68.9439 19.8288 68.7516ZM10.2037 43.9415C9.72243 43.9415 9.3374 44.3261 9.3374 44.8069C9.3374 45.2877 9.72243 45.6723 10.2037 45.6723H12.7064C13.1877 45.6723 13.5727 45.2877 13.5727 44.8069C13.5727 44.3261 13.1877 43.9415 12.7064 43.9415H10.2037ZM21.0801 19.8096L22.8127 21.5404C23.1977 21.8289 23.1977 22.4058 22.8127 22.6942C22.5239 22.9827 21.9464 22.9827 21.6576 22.6942L19.925 20.9635C19.7325 20.8673 19.6362 20.5789 19.6362 20.3866C19.6362 20.1942 19.7325 20.0019 19.925 19.8096C20.0213 19.6173 20.31 19.5212 20.5025 19.5212C20.6951 19.5212 20.8876 19.6173 21.0801 19.8096ZM49.476 48.1741L62.2781 54.8088C62.6631 55.0011 63.2407 54.9049 63.4332 54.4241C63.6257 54.0395 63.5295 53.4626 63.0482 53.2703L50.246 46.7318L50.3423 46.0588C50.4385 45.6741 50.4385 45.3857 50.4385 45.0011C50.4385 42.5972 48.8022 40.4818 46.492 39.8088L45.8182 39.6165V21.5395C45.8182 21.0588 45.4332 20.6741 44.9519 20.6741C44.4706 20.6741 44.0856 21.0588 44.0856 21.5395V39.6165L43.4118 39.8088C41.5829 40.2895 40.1391 41.7318 39.6578 43.5588L39.4653 44.2318H30.3209C29.8396 44.2318 29.4546 44.6165 29.4546 45.0972C29.4546 45.578 29.8396 45.9626 30.3209 45.9626H39.4653L39.6578 46.6357C40.3316 48.9434 42.4492 50.578 44.8557 50.578C46.3958 50.578 47.7434 50.0011 48.8022 48.8472L49.476 48.1741ZM45.0482 48.7511C43.0268 48.7511 41.2942 47.1165 41.2942 45.0011C41.2942 42.8857 42.9305 41.2511 45.0482 41.2511C47.1658 41.2511 48.8022 42.8857 48.8022 45.0011C48.8022 47.1165 47.0696 48.7511 45.0482 48.7511Z" fill="#00B0CA"/>
</svg>
