<svg width="24" height="24" viewBox="0 0 24 24" fill="currentColor" xmlns="http://www.w3.org/2000/svg">
    <path fill-rule="evenodd" clip-rule="evenodd" d="M4.29838 3.26695C3.93464 2.91102 3.36175 2.91102 3.0071 3.26695C2.65246 3.62289 2.65246 4.19787 3.0071 4.55381L5.64421 7.20053C4.05285 8.40525 2.78886 10.0298 2.06138 11.8916C1.97954 12.1107 1.97954 12.3479 2.06138 12.5579C3.68002 16.6922 7.58112 19.3572 12.0006 19.3572C13.6192 19.3572 15.2105 18.9648 16.6564 18.2529L19.1298 20.7353C19.3117 20.9179 19.539 21 19.7755 21C20.0119 21 20.2392 20.9087 20.4211 20.7353C20.7758 20.3794 20.7758 19.8044 20.4211 19.4485L4.29838 3.26695ZM12.0006 17.5319C8.45409 17.5319 5.31685 15.4601 3.88917 12.2202C4.5439 10.7325 5.62602 9.45481 6.96276 8.52389L9.26341 10.8329C9.05426 11.2528 8.91786 11.7182 8.91786 12.2202C8.91786 13.9269 10.291 15.3141 12.0006 15.3141C12.5007 15.3141 12.9645 15.1863 13.3828 14.9673L15.2924 16.8839C14.2557 17.3128 13.1372 17.5319 12.0006 17.5319Z"/>
    <path d="M21.9397 11.8916C20.3211 7.75725 16.42 5.09227 12.0005 5.09227C11.5277 5.09227 11.0548 5.11965 10.5911 5.18354C10.0909 5.24743 9.74536 5.70376 9.80902 6.20572C9.87267 6.70769 10.3273 7.0545 10.8275 6.99061C11.2094 6.93585 11.6004 6.9176 11.9915 6.9176C15.5379 6.9176 18.6752 8.98934 20.1028 12.2293C19.7937 12.9229 19.4026 13.58 18.9298 14.1733C18.6206 14.5657 18.6842 15.1407 19.0753 15.4601C19.239 15.597 19.439 15.6609 19.6391 15.6609C19.9028 15.6609 20.1756 15.5423 20.3484 15.3141C21.0122 14.4836 21.5396 13.5527 21.9306 12.567C22.0216 12.3479 22.0216 12.1107 21.9397 11.8916Z"/>
    <path d="M11.8914 9.14451C11.9278 9.13994 11.9642 9.13538 12.0005 9.13538C13.701 9.13538 15.0832 10.5135 15.0832 12.2293C15.0832 12.3023 15.0741 12.3753 15.0651 12.4483L11.7823 9.15363C11.8187 9.15363 11.8551 9.14907 11.8914 9.14451Z"/>
</svg>
