<svg width="66" height="53" viewBox="0 0 66 53" fill="none" xmlns="http://www.w3.org/2000/svg">
<path d="M65.8 34.5V8.1C65.8 3.6 62.2 0 57.7 0H17.2C12.7 0 9.1 3.6 9.1 8.1V10H8.1C3.6 10 0 13.6 0 18.1V44.4C0 48.9 3.6 52.5 8.1 52.5H48.6C53.1 52.5 56.7 48.9 56.7 44.4V42.5H57.7C62.1 42.6 65.8 38.9 65.8 34.5ZM54.2 44.5C54.2 47.6 51.7 50.2 48.5 50.2H8C4.9 50.2 2.3 47.7 2.3 44.5V32.1H54.1V44.5H54.2ZM54.2 29.6H2.3V22.6H54.1V29.6H54.2ZM54.2 20.1H2.3V18.2C2.3 15.1 4.8 12.5 8 12.5H48.5C51.6 12.5 54.2 15 54.2 18.2V20.1ZM63.3 34.5C63.3 37.6 60.8 40.2 57.6 40.2H56.6V18.2C56.6 13.7 53 10.1 48.5 10.1H11.5V8.1C11.5 5 14 2.4 17.2 2.4H57.7C60.8 2.4 63.4 4.9 63.4 8.1V34.5H63.3Z" fill="#00BF8E"/>
</svg>
