<svg width="80" height="80" viewBox="0 0 80 80" fill="none" xmlns="http://www.w3.org/2000/svg">
<path d="M56.6 32.3C56.6 23.3 49.3 16 40.3 16C29.1 16.4 24 24.7 24 32.3C24 39.9 29.1 48.2 40.2 48.6C49.2 48.6 56.6 41.3 56.6 32.3ZM40.3 46.9C32.2 46.9 25.7 40.3 25.7 32.3C25.7 24.3 32.2 17.7 40.2 17.7C50.2 18.1 54.7 25.6 54.7 32.3C54.8 39.1 50.2 46.6 40.3 46.9Z" fill="#00BF8E"/>
<path d="M54.9 67.6H41.4C41.9 67.1 42.4 66.5 42.9 65.9L44.9 63.6L46.3 62L46.9 61.4C54.3 52.8 62.7 41.7 62.7 32.2C62.6 20 52.6 10 40.3 10C28 10 18 20 18 32.3C18 41.8 26.5 52.9 33.8 61.5L34.4 62.1L35.8 63.7L37.8 66C38.3 66.6 38.8 67.1 39.3 67.7H25.7C25.3 67.7 24.9 68.1 24.9 68.5C24.9 68.9 25.3 69.3 25.7 69.3H54.9C55.3 69.3 55.7 68.9 55.7 68.5C55.7 68.1 55.3 67.6 54.9 67.6ZM38.9 64.7C30.8 55.5 19.7 42.9 19.7 32.3C19.7 20.9 28.9 11.7 40.3 11.7C51.7 11.7 60.9 20.9 60.9 32.3C60.8 42.9 49.8 55.5 41.7 64.7L40.3 66.3L38.9 64.7Z" fill="#00BF8E"/>
<path d="M46.3 27H34.3C33.9 27 33.5 27.4 33.5 27.8C33.5 28.2 33.9 28.6 34.3 28.6H44.5V37.3C44.5 38 44 38.5 43.3 38.5H37.3C36.6 38.5 36.1 38 36.1 37.3V30.4C36.1 30 35.7 29.6 35.3 29.6C34.9 29.6 34.5 30 34.5 30.4V37.3C34.5 38.8 35.8 40.1 37.3 40.1H43.3C44.8 40.1 46.1 38.8 46.1 37.3V28.6H46.3C46.7 28.6 47.1 28.2 47.1 27.8C47.1 27.4 46.7 27 46.3 27Z" fill="#00BF8E"/>
<path d="M37.3 26.1H43.3C43.7 26.1 44.1 25.7 44.1 25.3C44.1 24.9 43.7 24.5 43.3 24.5H37.3C36.9 24.5 36.5 24.9 36.5 25.3C36.5 25.7 36.9 26.1 37.3 26.1Z" fill="#00BF8E"/>
</svg>
