<svg width="46" height="34" viewBox="0 0 46 34" fill="none" xmlns="http://www.w3.org/2000/svg">
<rect width="46" height="34" rx="4" fill="#F0F0F0"/>
<path d="M24.6709 9H22.2364C17.6872 9 14 12.6872 14 17.2364C14 21.7848 17.6872 25.4727 22.2364 25.4727H24.6708C29.22 25.4727 32.9072 21.7848 32.9072 17.2364C32.9072 12.6872 29.22 9 24.6709 9ZM22.2364 24.6854C18.1226 24.6854 14.7873 21.35 14.7873 17.2364C14.7873 13.1227 18.1227 9.78734 22.2364 9.78734C26.35 9.78734 29.6854 13.1226 29.6854 17.2364C29.6854 21.3501 26.3501 24.6854 22.2364 24.6854Z" fill="#006699"/>
<path d="M20.5185 12.8828C18.7837 13.568 17.5557 15.2585 17.5557 17.2369C17.5557 19.2154 18.7837 20.9058 20.5185 21.591V12.8828Z" fill="#006699"/>
<path d="M23.9541 12.8828V21.591C25.689 20.9058 26.917 19.2154 26.917 17.2369C26.917 15.2585 25.689 13.568 23.9541 12.8828Z" fill="#006699"/>
</svg>
