<svg width="46" height="34" viewBox="0 0 46 34" fill="none" xmlns="http://www.w3.org/2000/svg">
<rect width="46" height="34" fill="#006699"/>
<path d="M24.5452 7H21.455C15.6804 7 11 11.4767 11 17C11 22.5224 15.6804 27 21.4549 27H24.5451C30.3197 27 35 22.5224 35 17C35.0001 11.4767 30.3197 7 24.5452 7ZM21.4549 26.0441C16.2331 26.0441 11.9994 21.9945 11.9994 17C11.9994 12.0055 16.2332 7.95594 21.4549 7.95594C26.6766 7.95594 30.9104 12.0054 30.9104 17C30.9104 21.9946 26.6767 26.0441 21.4549 26.0441Z" fill="white"/>
<path d="M19.2746 11.7148C17.0725 12.5468 15.5137 14.5992 15.5137 17.0013C15.5137 19.4034 17.0725 21.4558 19.2746 22.2877V11.7148Z" fill="white"/>
<path d="M23.6367 11.7148V22.2877C25.8389 21.4558 27.3977 19.4034 27.3977 17.0013C27.3977 14.5992 25.8389 12.5467 23.6367 11.7148Z" fill="white"/>
</svg>
