<svg width="349" height="241" viewBox="0 0 349 241" fill="none" xmlns="http://www.w3.org/2000/svg">
<path opacity="0.11" d="M150.5 196.855C182.45 196.855 208.351 171.032 208.351 139.177C208.351 107.322 182.45 81.498 150.5 81.498C118.55 81.498 92.6497 107.322 92.6497 139.177C92.6497 171.032 118.55 196.855 150.5 196.855Z" fill="#2626BC"/>
<path d="M241.62 120.821H227.503C225.528 112.602 222.27 104.876 217.976 97.8872L227.947 87.8968C230.168 85.6822 230.168 82.0404 227.947 79.7765L210.029 61.9119C207.808 59.6973 204.155 59.6973 201.884 61.9119L191.864 71.8531C184.855 67.5715 177.106 64.3234 168.862 62.3549V48.3289C168.862 45.1792 166.296 42.6201 163.137 42.6201H137.815C134.656 42.6201 132.089 45.1792 132.089 48.3289V62.4041C123.846 64.3726 116.096 67.6207 109.087 71.9023L99.0667 61.9611C96.8454 59.7465 93.1928 59.7465 90.9222 61.9611L73.0537 79.7765C70.8325 81.9912 70.8325 85.633 73.0537 87.8968L83.0245 97.8872C78.7301 104.876 75.4724 112.602 73.4979 120.821H59.3808C56.2218 120.821 53.655 123.38 53.655 126.53V151.776C53.655 154.926 56.2218 157.485 59.3808 157.485H73.4979C75.4724 165.704 78.7301 173.43 83.0245 180.419L73.0537 190.409C70.8325 192.624 70.8325 196.266 73.0537 198.529L90.9715 216.394C93.1928 218.609 96.8454 218.609 99.116 216.394L109.136 206.453C116.145 210.734 123.895 213.983 132.138 215.951V230.026C132.138 233.176 134.705 235.735 137.864 235.735H163.186C166.345 235.735 168.912 233.176 168.912 230.026V215.951C177.155 213.983 184.904 210.734 191.914 206.453L201.934 216.394C204.155 218.609 207.808 218.609 210.078 216.394L227.996 198.529C230.217 196.315 230.217 192.673 227.996 190.409L218.025 180.419C222.32 173.43 225.577 165.704 227.552 157.485H241.669C244.828 157.485 247.395 154.926 247.395 151.776V126.53C247.345 123.38 244.779 120.821 241.62 120.821ZM150.5 196.856C118.564 196.856 92.6498 171.019 92.6498 139.178C92.6498 107.336 118.564 81.499 150.5 81.499C182.436 81.499 208.351 107.287 208.351 139.178C208.351 171.068 182.436 196.856 150.5 196.856Z" fill="#00B0CA"/>
<path d="M189.199 182.042C186.237 184.7 183.029 187.062 179.573 189.031C175.427 191.442 170.886 193.362 166.147 194.69C162.445 195.724 158.595 196.413 154.646 196.659C156.078 173.627 163.679 156.058 172.86 156.058C179.919 156.058 186.089 166.589 189.199 182.042Z" fill="white"/>
<path d="M106.865 83.0232V177.022C114.812 186.126 125.524 192.672 137.716 195.428V82.974C137.716 79.9227 139.345 77.1667 141.961 75.5919C152.869 69.0465 160.273 57.1859 160.569 43.7506C160.964 24.5572 147.143 8.46425 128.831 5.31457C126.412 4.92086 124.586 7.43076 125.721 9.54696L137.469 31.7424C138.999 34.5968 137.864 38.1402 135.001 39.6658L111.456 52.0185C108.593 53.5441 105.039 52.4122 103.509 49.5578L92.2053 28.1498C91.0207 25.9352 87.8122 26.132 86.8744 28.4451C85.048 32.9235 84.0115 37.7957 84.0115 42.9139C84.0115 56.8414 91.4649 68.9972 102.62 75.6411C105.187 77.2159 106.865 79.9719 106.865 83.0232Z" fill="white"/>
<path d="M179.524 160.339H166.098V89.4711C166.098 87.2072 166.641 84.9926 167.727 82.9749L170.984 76.8231C171.774 75.3467 173.897 75.3467 174.637 76.8231L177.895 82.9749C178.931 84.9926 179.524 87.2072 179.524 89.4711V160.339Z" fill="white"/>
<path d="M183.029 165.456H162.593C159.187 165.456 156.473 162.7 156.473 159.353C156.473 155.958 159.237 153.251 162.593 153.251H183.029C186.434 153.251 189.149 156.007 189.149 159.353C189.149 162.7 186.434 165.456 183.029 165.456Z" fill="#00B0CA"/>
<path d="M241.62 117.867H229.773C227.947 111.026 225.183 104.481 221.629 98.3292L230.02 89.9628C233.426 86.5671 233.426 81.1043 230.02 77.7086L226.811 74.5097C225.676 73.3778 223.8 73.3778 222.665 74.5097C221.53 75.6416 221.53 77.5117 222.665 78.6437L225.874 81.8426C226.417 82.3839 226.713 83.0729 226.713 83.8111C226.713 84.5493 226.417 85.2383 225.874 85.7797L215.853 95.7701C214.866 96.7051 214.718 98.2307 215.409 99.3627C219.654 106.203 222.714 113.635 224.59 121.46C224.886 122.788 226.071 123.723 227.453 123.723H241.57C243.1 123.723 244.384 124.954 244.384 126.529V151.775C244.384 153.301 243.15 154.581 241.57 154.581H227.453C226.071 154.581 224.886 155.516 224.59 156.844C222.714 164.669 219.654 172.051 215.409 178.941C214.718 180.073 214.866 181.599 215.853 182.534L225.874 192.524C226.96 193.607 226.96 195.379 225.874 196.461L207.956 214.326C207.413 214.867 206.722 215.163 205.981 215.163C205.241 215.163 204.55 214.867 204.007 214.326L193.987 204.336C193.049 203.401 191.519 203.204 190.383 203.893C183.522 208.125 176.069 211.176 168.221 213.047C166.888 213.342 165.95 214.523 165.95 215.901V229.976C165.95 231.502 164.667 232.781 163.136 232.781H137.815C136.284 232.781 135.001 231.502 135.001 229.976V215.901C135.001 214.523 134.063 213.342 132.73 213.047C124.882 211.176 117.429 208.125 110.568 203.893C109.432 203.204 107.902 203.351 106.964 204.336L96.9441 214.326C96.4011 214.867 95.7101 215.163 94.9697 215.163C94.2293 215.163 93.5382 214.867 92.9953 214.326L75.0774 196.461C73.9915 195.379 73.9915 193.607 75.0774 192.524L85.0976 182.534C86.0848 181.599 86.2329 180.073 85.5418 178.941C81.2968 172.101 78.2365 164.669 76.3608 156.844C76.0646 155.516 74.88 154.581 73.4979 154.581H59.3808C57.8506 154.581 56.5673 153.35 56.5673 151.775V126.529C56.5673 125.003 57.8013 123.723 59.3808 123.723H73.4979C74.88 123.723 76.0646 122.788 76.3608 121.46C78.2365 113.635 81.2968 106.253 85.5418 99.3627C86.2329 98.2307 86.0848 96.7051 85.0976 95.7701L75.0774 85.7797C74.5345 85.2383 74.2383 84.5493 74.2383 83.8111C74.2383 83.0729 74.5345 82.3839 75.0774 81.8426L89.2932 67.669C92.4523 71.8029 96.4011 75.3463 101.041 78.1515C102.818 79.185 103.855 81.0059 103.855 83.0237V100.199C94.6735 111.076 89.6388 124.905 89.6388 139.127C89.6388 172.544 116.935 199.759 150.451 199.759C183.967 199.759 211.263 172.544 211.263 139.127C211.263 117.867 200.453 98.6245 182.338 87.5021C182.091 85.4352 181.499 83.4174 180.511 81.5473L177.254 75.3955C176.365 73.7715 174.687 72.738 172.811 72.738C170.935 72.738 169.257 73.7715 168.369 75.3955L165.703 80.4646C160.767 79.185 155.634 78.5452 150.5 78.5452C147.736 78.5452 144.972 78.7421 142.208 79.0866C142.553 78.6929 142.997 78.3976 143.442 78.1023C155.189 71.0155 162.544 58.9581 163.383 45.5228C164.815 45.6704 165.95 46.8515 165.95 48.2787V62.3539C165.95 63.7319 166.888 64.913 168.221 65.2083C176.069 67.0784 183.522 70.1297 190.383 74.3621C190.877 74.6573 191.371 74.805 191.914 74.805C192.654 74.805 193.444 74.5097 193.987 73.9683L204.007 63.9779C205.093 62.8952 206.87 62.8952 207.956 63.9779L210.967 66.98C212.102 68.1119 213.978 68.1119 215.113 66.98C216.248 65.8481 216.248 63.9779 215.113 62.846L212.102 59.844C208.696 56.4482 203.217 56.4482 199.811 59.844L191.42 68.2103C185.25 64.6669 178.685 61.9602 171.824 60.0901V48.2787C171.824 43.5542 168.023 39.7155 163.334 39.6171C162.643 31.2016 159.385 23.1305 153.955 16.5851C147.687 9.10456 138.95 4.08476 129.325 2.41149C127.103 2.01778 124.882 2.90363 123.549 4.72454C122.217 6.54545 122.069 8.90771 123.105 10.8763L134.853 33.0717C135.198 33.7607 135.297 34.5481 135.05 35.2863C134.804 36.0245 134.31 36.6643 133.619 37.0088L110.074 49.4599C109.383 49.8044 108.593 49.9028 107.853 49.6567C107.112 49.4107 106.471 48.9185 106.125 48.2295L94.7722 26.8215C93.6863 24.8038 91.6132 23.5734 89.2932 23.7211C86.9733 23.8195 84.9989 25.2467 84.1104 27.3629C82.0866 32.2843 81.05 37.5501 81.05 42.9144C81.05 50.0012 82.827 56.7435 86.0848 62.6492L70.9805 77.7086C67.5746 81.1043 67.5746 86.5671 70.9805 89.9628L79.3718 98.3292C75.8178 104.481 73.103 111.026 71.2273 117.867H59.3808C54.5928 117.867 50.6934 121.755 50.6934 126.529V151.775C50.6934 156.549 54.5928 160.437 59.3808 160.437H71.2273C73.0536 167.278 75.8178 173.823 79.3718 179.975L70.9805 188.341C67.5746 191.737 67.5746 197.2 70.9805 200.595L88.8983 218.46C90.5272 220.084 92.6991 221.019 95.019 221.019C97.339 221.019 99.5108 220.133 101.14 218.46L109.531 210.094C115.701 213.637 122.266 216.344 129.127 218.214V230.025C129.127 234.799 133.027 238.687 137.815 238.687H163.136C167.924 238.687 171.824 234.799 171.824 230.025V218.214C178.685 216.393 185.25 213.637 191.42 210.094L199.811 218.46C201.44 220.084 203.612 221.019 205.932 221.019C208.252 221.019 210.424 220.133 212.053 218.46L229.97 200.595C233.376 197.2 233.376 191.737 229.97 188.341L221.579 179.975C225.133 173.823 227.848 167.278 229.724 160.437H241.57C246.358 160.437 250.258 156.549 250.258 151.775V126.529C250.307 121.755 246.408 117.867 241.62 117.867ZM103.904 110.19V168.114C98.6223 159.699 95.562 149.807 95.562 139.177C95.562 128.891 98.5236 118.851 103.904 110.19ZM183.029 156.155C184.806 156.155 186.237 157.583 186.237 159.354C186.237 161.126 184.806 162.553 183.029 162.553H162.593C160.816 162.553 159.385 161.126 159.385 159.354C159.385 157.583 160.816 156.155 162.593 156.155H183.029ZM163.778 168.41H181.893C183.522 171.904 184.904 176.185 185.941 180.959C178.142 187.554 168.467 192.032 157.806 193.41C158.743 183.567 160.816 174.807 163.778 168.41ZM205.438 139.177C205.438 153.498 199.91 166.49 190.877 176.284C189.989 172.937 188.952 169.837 187.767 167.081C190.383 165.506 192.111 162.652 192.111 159.354C192.111 154.384 188.063 150.299 183.029 150.299H182.486V94.6381C196.899 104.924 205.438 121.263 205.438 139.177ZM170.343 84.3032L172.86 79.5787L175.378 84.3032C176.217 85.8781 176.661 87.6498 176.661 89.4215V150.299H169.109V89.4215C169.06 87.6498 169.504 85.8781 170.343 84.3032ZM89.5894 29.5775L100.893 50.9855C103.164 55.2671 108.494 56.9404 112.789 54.6765L136.334 42.3239C140.628 40.06 142.306 34.7449 140.036 30.4634L128.337 8.21872C136.581 9.64592 144.083 13.9767 149.464 20.4237C154.893 26.92 157.806 35.2371 157.608 43.7511C157.361 55.8577 150.944 66.8323 140.431 73.1809C136.877 75.2971 134.754 78.9882 134.754 83.0729V177.514C134.754 179.138 136.087 180.467 137.716 180.467C139.345 180.467 140.677 179.138 140.677 177.514V85.2875C143.935 84.697 147.242 84.4017 150.55 84.4017C154.992 84.4017 159.336 84.943 163.581 85.9765C163.334 87.1084 163.186 88.2896 163.186 89.4707V150.348H162.643C157.657 150.348 153.561 154.384 153.561 159.403C153.561 162.652 155.337 165.506 157.904 167.13C154.844 174.266 152.721 183.617 151.882 193.952C151.438 193.952 150.944 193.952 150.5 193.952C134.359 193.952 119.847 186.963 109.778 175.89V83.0237C109.778 79.0374 107.606 75.2479 104.101 73.1317C93.3408 66.6847 86.9239 55.4147 86.9239 42.9144C86.9239 38.2883 87.8124 33.8099 89.5894 29.5775Z" fill="#511E84"/>
<path fill-rule="evenodd" clip-rule="evenodd" d="M248.229 139L248.749 139.002C255.443 139.06 259.543 140.251 262.757 143.787C266.566 147.978 268.532 155.343 268.822 167.184L268.983 175.706C269.104 181.805 269.233 185.01 269.524 188.596C269.962 193.98 270.714 198.233 271.919 201.697C274.647 209.539 279.74 213.327 288.637 213.209L289.209 213.198C296.742 213.035 300.851 211.816 303.914 209.549L304.029 209.464C304.306 209.254 304.574 209.039 304.884 208.779L306.105 207.735C306.152 207.695 306.198 207.656 306.245 207.618C308.415 205.815 310.276 205.1 313.484 205.228C314.162 205.255 314.69 205.826 314.663 206.504C314.636 207.182 314.064 207.709 313.386 207.682C310.885 207.582 309.604 208.049 307.938 209.406L307.618 209.672L306.759 210.41L306.458 210.665C306.121 210.948 305.823 211.187 305.51 211.423C301.908 214.142 297.158 215.543 288.671 215.664C278.685 215.797 272.665 211.319 269.597 202.503C268.313 198.813 267.528 194.368 267.075 188.795L266.988 187.678C266.728 184.133 266.614 180.655 266.493 174.074L266.389 168.325L266.374 167.596C266.126 156.082 264.297 149.134 260.938 145.438C258.22 142.448 254.605 141.456 248.229 141.456C247.55 141.456 247 140.906 247 140.228C247 139.55 247.55 139 248.229 139Z" fill="#511E84"/>
<path fill-rule="evenodd" clip-rule="evenodd" d="M334.57 216.196H311.469C309.994 216.196 308.807 215.009 308.807 213.535V199.168C308.807 197.695 309.994 196.508 311.469 196.508H334.57C336.044 196.508 337.232 197.695 337.232 199.168V213.535C337.232 215.009 336.044 216.196 334.57 216.196Z" fill="#00B0CA"/>
<path fill-rule="evenodd" clip-rule="evenodd" d="M326.214 196.465L328.672 196.47L328.631 216.24L326.173 216.235L326.214 196.465Z" fill="#511E84"/>
<path fill-rule="evenodd" clip-rule="evenodd" d="M347.758 200.56C348.437 200.56 348.987 201.109 348.987 201.787C348.987 202.441 348.476 202.976 347.831 203.013L347.758 203.015H332.522C331.843 203.015 331.293 202.466 331.293 201.787C331.293 201.134 331.805 200.599 332.45 200.562L332.522 200.56H347.758Z" fill="#511E84"/>
<path fill-rule="evenodd" clip-rule="evenodd" d="M347.758 207.929C348.437 207.929 348.987 208.478 348.987 209.157C348.987 209.811 348.476 210.345 347.831 210.382L347.758 210.385H332.522C331.843 210.385 331.293 209.835 331.293 209.157C331.293 208.503 331.805 207.968 332.45 207.931L332.522 207.929H347.758Z" fill="#511E84"/>
</svg>
