<svg width="103" height="115" viewBox="0 0 103 115" fill="none" xmlns="http://www.w3.org/2000/svg">
<path d="M102.025 113.9L66.1122 78.2444C58.0419 70.2336 44.9583 70.2336 36.888 78.2444L0.975098 113.9L102.019 113.9V47.6609M86.9348 27.7815L102.019 42.7713L59.0171 73.1535M31.1494 12.8107L36.8818 7.10932C44.6145 -0.568036 56.9542 -0.888975 65.0745 6.1465M0.975098 42.7713L16.403 27.3851M0.975098 42.7713V106.493M0.975098 42.7713L43.9768 73.1535M30.9057 29.6443H72.0883M30.9057 37.265H72.0883M30.9057 44.8857H72.0883M30.9057 50.9395H60.5237M16.403 48.1077V11.7094C16.403 11.7094 29.4491 15.0132 53.0723 10.2935C76.6954 5.57385 86.6347 10.2935 86.6347 10.2935V53.6391" stroke="#00B0CA" stroke-width="1.5" stroke-miterlimit="10" stroke-linecap="round" stroke-linejoin="round"/>
</svg>
