<svg width="137" height="51" viewBox="0 0 137 51" fill="none" xmlns="http://www.w3.org/2000/svg">
<path fill-rule="evenodd" clip-rule="evenodd" d="M136.971 0.130017C137.021 0.219944 137.005 0.329453 136.932 0.404067L95.3051 42.6881C95.2096 42.785 95.0485 42.7926 94.9431 42.7051L82.9226 32.7249L73.2413 38.5164C73.1668 38.561 73.0732 38.5669 72.993 38.5321C72.9128 38.4973 72.8572 38.4267 72.8457 38.3449L70.4455 21.311L56.5781 10.1403C56.501 10.0782 56.4703 9.97967 56.4995 9.88865C56.5288 9.79764 56.6126 9.73116 56.7136 9.71889L136.708 0.00202548C136.816 -0.011054 136.921 0.0400908 136.971 0.130017ZM83.1208 32.2442L95.0966 42.1873L135.619 1.02556L77.6494 27.6535L83.1198 32.2433L83.1208 32.2442ZM77.3069 28.0143L73.5988 37.7299L82.5233 32.3912L77.3069 28.0143ZM73.2182 37.2902L70.945 21.1571C70.9367 21.0985 70.9056 21.0447 70.8576 21.0061L57.3526 10.1274L135.227 0.668038L77.0788 27.3783C77.0184 27.406 76.9721 27.4546 76.9495 27.5137L73.2182 37.2902ZM116.988 6.41194C117.035 6.53776 116.963 6.67498 116.828 6.71843L75.026 20.1859C74.8911 20.2293 74.744 20.1625 74.6975 20.0367C74.6509 19.9109 74.7225 19.7737 74.8573 19.7302L116.66 6.26279C116.795 6.21934 116.942 6.28612 116.988 6.41194Z" fill="#00B0CA"/>
<path fill-rule="evenodd" clip-rule="evenodd" d="M40.5142 24.5701C41.465 24.4535 42.4294 24.4294 43.3819 24.4921C43.5242 24.5015 43.6314 24.6167 43.6214 24.7495C43.6113 24.8823 43.4878 24.9823 43.3455 24.9729C42.4265 24.9125 41.4969 24.9358 40.5816 25.0481C40.4401 25.0654 40.3104 24.9725 40.2918 24.8405C40.2732 24.7085 40.3728 24.5875 40.5142 24.5701ZM45.8919 25.1107C45.9299 24.9824 46.0721 24.9071 46.2096 24.9424C47.1484 25.1839 48.0483 25.5132 48.8805 25.9247C49.0066 25.9871 49.0546 26.1329 48.9878 26.2505C48.921 26.3682 48.7646 26.413 48.6386 26.3506C47.8415 25.9565 46.977 25.6398 46.0723 25.4071C45.9348 25.3718 45.854 25.2391 45.8919 25.1107ZM38.0549 25.3481C38.104 25.4731 38.0354 25.6116 37.9015 25.6575C37.0392 25.953 36.2167 26.3426 35.4579 26.831C35.3405 26.9066 35.1796 26.8791 35.0986 26.7695C35.0176 26.66 35.0471 26.5099 35.1645 26.4343C35.9613 25.9213 36.823 25.5136 37.7233 25.205C37.8572 25.1591 38.0056 25.2232 38.0549 25.3481ZM50.8698 27.4885C50.9674 27.3915 51.1309 27.3866 51.2349 27.4777C51.9494 28.1032 52.5497 28.8191 52.9969 29.618C53.0629 29.736 53.014 29.8816 52.8875 29.9432C52.7611 30.0048 52.605 29.9591 52.5389 29.8411C52.1211 29.0947 51.5577 28.4213 50.8814 27.8292C50.7774 27.7381 50.7722 27.5856 50.8698 27.4885ZM33.3991 28.2179C33.5089 28.3028 33.5242 28.4548 33.4331 28.5572C32.8709 29.1898 32.3814 29.9116 31.9841 30.7275C31.925 30.8487 31.7719 30.9023 31.642 30.8472C31.5121 30.7921 31.4547 30.6493 31.5137 30.5281C31.9299 29.6735 32.4437 28.9153 33.0354 28.2496C33.1264 28.1471 33.2893 28.1329 33.3991 28.2179ZM53.5506 31.9935C53.6925 31.9796 53.8197 32.0756 53.8346 32.2079C53.9302 33.0532 53.8744 33.9528 53.6439 34.9002C53.6123 35.03 53.4739 35.1114 53.3348 35.0819C53.1956 35.0525 53.1085 34.9233 53.14 34.7935C53.3587 33.8946 53.4101 33.0481 53.3208 32.2585C53.3059 32.1261 53.4088 32.0075 53.5506 31.9935ZM30.9439 32.894C31.0837 32.9203 31.1742 33.0475 31.1459 33.178C31.0569 33.5885 30.9867 34.0161 30.9368 34.4612C30.8867 34.908 30.8459 35.3437 30.814 35.7684C30.8041 35.9012 30.6806 36.0013 30.5383 35.992C30.396 35.9827 30.2887 35.8675 30.2986 35.7347C30.3309 35.3043 30.3723 34.8632 30.423 34.411C30.4745 33.9512 30.5471 33.5084 30.6395 33.0824C30.6678 32.9519 30.804 32.8676 30.9439 32.894ZM52.5441 37.0976C52.6719 37.1567 52.7241 37.3014 52.6607 37.4206C52.4553 37.8066 52.2225 38.1985 51.9608 38.5961C51.708 38.9803 51.44 39.351 51.1576 39.7087C51.073 39.8158 50.9113 39.8387 50.7964 39.7598C50.6816 39.6808 50.657 39.53 50.7417 39.4228C51.0155 39.076 51.2753 38.7165 51.5205 38.3439C51.7745 37.9579 51.9998 37.5786 52.1979 37.2063C52.2613 37.0871 52.4163 37.0384 52.5441 37.0976ZM30.4689 38.0883C30.6115 38.0865 30.7287 38.193 30.7305 38.3261C30.7432 39.2353 30.8049 40.0831 30.9121 40.8727C30.93 41.0047 30.8298 41.1254 30.6883 41.1421C30.5468 41.1588 30.4175 41.0653 30.3995 40.9333C30.2896 40.124 30.2268 39.2579 30.2139 38.3324C30.2121 38.1993 30.3262 38.09 30.4689 38.0883ZM0.0728549 39.4016C0.172162 39.306 0.335704 39.3037 0.438136 39.3963C0.755801 39.6837 1.10304 39.9682 1.47805 40.2491C1.58931 40.3324 1.6071 40.4841 1.51778 40.5879C1.42847 40.6917 1.26588 40.7083 1.15463 40.625C0.768288 40.3356 0.408817 40.0412 0.0785119 39.7424C-0.0239199 39.6498 -0.0264526 39.4972 0.0728549 39.4016ZM71.3382 40.0891C71.4134 40.2022 71.3762 40.3508 71.255 40.4211C70.8665 40.6462 70.4725 40.8716 70.0735 41.0967C69.9514 41.1655 69.7926 41.129 69.7188 41.0151C69.645 40.9012 69.6841 40.753 69.8062 40.6842C70.2034 40.4601 70.5956 40.2358 70.9824 40.0116C71.1036 39.9413 71.2629 39.9761 71.3382 40.0891ZM49.2771 41.3814C49.3765 41.4769 49.3741 41.6295 49.2717 41.7222C48.5872 42.3422 47.8504 42.9103 47.0682 43.4288C46.9519 43.5059 46.7906 43.4805 46.708 43.372C46.6254 43.2634 46.6527 43.113 46.769 43.0359C47.5308 42.5308 48.2472 41.9784 48.9119 41.3763C49.0142 41.2836 49.1778 41.2859 49.2771 41.3814ZM3.41778 41.8126C3.49162 41.6987 3.65044 41.6622 3.77251 41.7311C4.53565 42.1618 5.36192 42.5779 6.24267 42.9761C6.37107 43.0341 6.42472 43.1783 6.36251 43.2981C6.3003 43.4179 6.14579 43.4679 6.0174 43.4099C5.12378 43.0059 4.2833 42.5827 3.50511 42.1436C3.38304 42.0747 3.34394 41.9265 3.41778 41.8126ZM67.7715 42.0838C67.8423 42.1994 67.7993 42.3466 67.6755 42.4127C66.8786 42.8379 66.0672 43.2589 65.2446 43.6724C65.119 43.7355 64.9623 43.6917 64.8946 43.5745C64.827 43.4573 64.8739 43.3112 64.9995 43.248C65.8181 42.8365 66.6258 42.4175 67.419 41.9943C67.5428 41.9282 67.7007 41.9683 67.7715 42.0838ZM31.1385 43.2108C31.2754 43.1732 31.419 43.2462 31.4593 43.3739C31.7344 44.2463 32.0826 45.0219 32.4957 45.7081C32.5656 45.8241 32.5214 45.9711 32.3971 46.0363C32.2727 46.1014 32.1152 46.0602 32.0453 45.9442C31.6113 45.2235 31.2487 44.4139 30.9636 43.51C30.9233 43.3823 31.0016 43.2483 31.1385 43.2108ZM8.47363 44.1628C8.52644 44.0391 8.67669 43.9788 8.80923 44.0281C9.65743 44.3435 10.5405 44.6426 11.4524 44.9232C11.5879 44.9649 11.6615 45.1012 11.6169 45.2276C11.5722 45.354 11.4261 45.4227 11.2906 45.381C10.3692 45.0975 9.47632 44.795 8.61797 44.4759C8.48544 44.4266 8.42081 44.2864 8.47363 44.1628ZM44.7374 44.4953C44.8036 44.6132 44.755 44.7589 44.6286 44.8207C43.7952 45.2286 42.9258 45.593 42.0264 45.9162C41.8933 45.964 41.7438 45.9021 41.6925 45.7779C41.6413 45.6536 41.7076 45.5142 41.8408 45.4663C42.7229 45.1494 43.574 44.7926 44.3886 44.3939C44.5149 44.332 44.6711 44.3775 44.7374 44.4953ZM62.8916 44.5496C62.9558 44.6685 62.9046 44.8134 62.7772 44.8733C61.9494 45.2629 61.1141 45.6422 60.2747 46.0083C60.1454 46.0647 59.9917 46.0127 59.9313 45.8921C59.8709 45.7715 59.9266 45.628 60.0559 45.5717C60.8904 45.2077 61.7211 44.8304 62.5446 44.4429C62.672 44.383 62.8273 44.4308 62.8916 44.5496ZM13.8335 45.8471C13.8708 45.7187 14.0127 45.6427 14.1504 45.6775C15.043 45.9031 15.9556 46.1109 16.8833 46.2991C17.0228 46.3274 17.1112 46.4557 17.0809 46.5858C17.0506 46.7159 16.913 46.7984 16.7736 46.7701C15.8374 46.5802 14.9164 46.3705 14.0153 46.1428C13.8776 46.108 13.7962 45.9756 13.8335 45.8471ZM39.4944 46.4501C39.5323 46.5784 39.4515 46.7111 39.314 46.7465C38.4097 46.9791 37.4835 47.1766 36.5402 47.3411C36.3999 47.3655 36.265 47.2793 36.2388 47.1484C36.2126 47.0176 36.305 46.8917 36.4453 46.8673C37.3752 46.7051 38.2873 46.5106 39.1767 46.2818C39.3142 46.2464 39.4564 46.3217 39.4944 46.4501ZM57.871 46.7527C57.927 46.8751 57.8661 47.0167 57.7349 47.069C56.8738 47.4122 56.0118 47.7385 55.1525 48.0447C55.0192 48.0922 54.8699 48.0299 54.819 47.9056C54.7681 47.7812 54.8349 47.6419 54.9682 47.5944C55.8208 47.2906 56.6766 46.9667 57.532 46.6257C57.6632 46.5735 57.8149 46.6303 57.871 46.7527ZM19.352 46.9923C19.3755 46.861 19.5086 46.7723 19.6493 46.7942C20.57 46.9374 21.5005 47.0606 22.4365 47.1624C22.5782 47.1778 22.6797 47.2975 22.6632 47.4297C22.6467 47.5619 22.5184 47.6566 22.3767 47.6412C21.4322 47.5385 20.4933 47.4141 19.5644 47.2697C19.4237 47.2478 19.3286 47.1236 19.352 46.9923ZM33.7384 47.7289C33.7331 47.7298 33.7277 47.7305 33.7223 47.7311C32.7876 47.8287 31.8416 47.8974 30.8886 47.939C30.7461 47.9452 30.6252 47.8425 30.6185 47.7095C30.6118 47.5765 30.722 47.4637 30.8645 47.4575C31.8069 47.4164 32.7418 47.3484 33.6649 47.252C33.8066 47.2372 33.9344 47.3325 33.9503 47.4648C33.9577 47.5267 33.9393 47.5857 33.9031 47.6325C33.9817 47.6197 34.0655 47.6408 34.1273 47.6964C34.7795 48.2833 35.5142 48.7592 36.3209 49.1344C36.4486 49.1937 36.5005 49.3385 36.4369 49.4576C36.3732 49.5767 36.2181 49.6252 36.0904 49.5658C35.239 49.1698 34.4606 48.666 33.7686 48.0434C33.6749 47.9591 33.6642 47.8246 33.7384 47.7289ZM24.9651 47.6255C24.9744 47.4926 25.0974 47.392 25.2397 47.4007C26.1771 47.4579 27.1158 47.4923 28.0516 47.5025C28.1942 47.504 28.3085 47.6131 28.3069 47.7462C28.3052 47.8793 28.1882 47.986 28.0456 47.9845C27.1003 47.9742 26.1523 47.9395 25.206 47.8817C25.0636 47.873 24.9558 47.7583 24.9651 47.6255ZM52.6926 48.6133C52.7373 48.7397 52.6637 48.876 52.5282 48.9177C51.6293 49.1944 50.7372 49.445 49.8561 49.6657C49.7183 49.7002 49.5766 49.6239 49.5396 49.4954C49.5027 49.3668 49.5844 49.2346 49.7222 49.2001C50.593 48.982 51.4758 48.734 52.3663 48.4599C52.5018 48.4182 52.6479 48.4869 52.6926 48.6133ZM47.3426 49.9719C47.3696 50.1026 47.278 50.229 47.138 50.2543C46.1936 50.4246 45.2677 50.5533 44.366 50.6352C44.224 50.648 44.0977 50.5511 44.0838 50.4186C44.07 50.2861 44.1739 50.1683 44.3159 50.1554C45.1998 50.0752 46.1096 49.9488 47.0399 49.781C47.18 49.7558 47.3155 49.8412 47.3426 49.9719ZM38.5685 50.1384C38.5985 50.0083 38.7359 49.9255 38.8754 49.9535C39.7276 50.1247 40.6316 50.2207 41.5794 50.2484C41.722 50.2525 41.8339 50.3638 41.8295 50.4968C41.825 50.6299 41.7058 50.7343 41.5632 50.7302C40.5886 50.7017 39.6532 50.6028 38.7666 50.4247C38.6272 50.3967 38.5384 50.2685 38.5685 50.1384Z" fill="#00B0CA"/>
</svg>
