<svg width="99" height="54" viewBox="0 0 99 54" fill="none" xmlns="http://www.w3.org/2000/svg">
<path fill-rule="evenodd" clip-rule="evenodd" d="M97.9794 1.13327C98.0149 1.22545 98.0038 1.3377 97.9518 1.41418L68.4788 44.7565C68.4112 44.8559 68.2971 44.8636 68.2225 44.7739L59.7116 34.544L52.857 40.4804C52.8043 40.5261 52.7379 40.5321 52.6812 40.4965C52.6244 40.4609 52.5851 40.3885 52.5769 40.3047L50.8775 22.8443L41.059 11.3941C41.0044 11.3305 40.9826 11.2294 41.0033 11.1362C41.024 11.0429 41.0834 10.9747 41.1549 10.9621L97.7935 1.00208C97.8697 0.988669 97.944 1.04109 97.9794 1.13327ZM59.8519 34.0512L68.3312 44.2432L97.0219 2.05123L55.9781 29.3456L59.8512 34.0503L59.8519 34.0512ZM55.7355 29.7155L53.1101 39.6743L59.4289 34.2019L55.7355 29.7155ZM52.8406 39.2235L51.2311 22.6866C51.2252 22.6265 51.2033 22.5714 51.1693 22.5318L41.6073 11.3808L96.7448 1.68476L55.574 29.0636C55.5313 29.092 55.4985 29.1417 55.4825 29.2023L52.8406 39.2235ZM88.378 7.57242C88.411 7.70139 88.3603 7.84205 88.2648 7.88658L54.1206 21.6911C54.0251 21.7356 53.921 21.6672 53.888 21.5382C53.855 21.4093 53.9057 21.2686 54.0012 21.2241L88.1454 7.41954C88.2409 7.375 88.345 7.44345 88.378 7.57242Z" fill="#009AB2"/>
<path fill-rule="evenodd" clip-rule="evenodd" d="M29.6853 26.1851C30.3585 26.0656 31.0412 26.0409 31.7156 26.1051C31.8164 26.1147 31.8923 26.2328 31.8852 26.3689C31.8781 26.505 31.7907 26.6076 31.6899 26.598C31.0392 26.536 30.381 26.5599 29.7329 26.675C29.6328 26.6928 29.5409 26.5975 29.5278 26.4622C29.5146 26.3269 29.5851 26.2029 29.6853 26.1851ZM33.4928 26.7392C33.5197 26.6077 33.6204 26.5304 33.7178 26.5667C34.3825 26.8142 35.0196 27.1518 35.6088 27.5736C35.6981 27.6375 35.7321 27.787 35.6848 27.9076C35.6375 28.0281 35.5268 28.0741 35.4375 28.0102C34.8732 27.6062 34.2611 27.2815 33.6205 27.043C33.5232 27.0068 33.466 26.8708 33.4928 26.7392ZM27.9439 26.9825C27.9788 27.1106 27.9302 27.2526 27.8353 27.2996C27.2249 27.6026 26.6425 28.0019 26.1053 28.5026C26.0221 28.5801 25.9082 28.5518 25.8508 28.4395C25.7935 28.3272 25.8144 28.1734 25.8975 28.0959C26.4617 27.5701 27.0718 27.1522 27.7092 26.8359C27.804 26.7888 27.9091 26.8545 27.9439 26.9825ZM37.0173 29.1765C37.0864 29.077 37.2022 29.072 37.2758 29.1654C37.7817 29.8066 38.2067 30.5404 38.5233 31.3593C38.5701 31.4802 38.5354 31.6295 38.4459 31.6926C38.3564 31.7558 38.2459 31.709 38.1991 31.588C37.9032 30.8229 37.5044 30.1327 37.0255 29.5257C36.9519 29.4324 36.9482 29.276 37.0173 29.1765ZM24.6476 29.9241C24.7253 30.0112 24.7361 30.167 24.6716 30.272C24.2736 30.9204 23.927 31.6602 23.6457 32.4965C23.6039 32.6208 23.4954 32.6757 23.4035 32.6193C23.3115 32.5628 23.2708 32.4164 23.3126 32.2921C23.6073 31.4162 23.9711 30.639 24.39 29.9566C24.4545 29.8516 24.5698 29.837 24.6476 29.9241ZM38.9154 33.7943C39.0159 33.78 39.1059 33.8784 39.1165 34.0141C39.1841 34.8805 39.1446 35.8026 38.9814 36.7737C38.9591 36.9068 38.8611 36.9902 38.7626 36.96C38.6641 36.9298 38.6023 36.7974 38.6247 36.6644C38.7795 35.7429 38.8159 34.8752 38.7527 34.0659C38.7421 33.9302 38.815 33.8086 38.9154 33.7943ZM22.9092 34.7172C23.0082 34.7443 23.0722 34.8746 23.0522 35.0084C22.9892 35.4291 22.9395 35.8675 22.9042 36.3237C22.8687 36.7817 22.8398 37.2283 22.8172 37.6636C22.8102 37.7997 22.7228 37.9023 22.622 37.8928C22.5212 37.8833 22.4453 37.7652 22.4523 37.6291C22.4752 37.188 22.5045 36.7357 22.5404 36.2723C22.5769 35.8009 22.6283 35.3471 22.6936 34.9104C22.7137 34.7767 22.8102 34.6902 22.9092 34.7172ZM38.2028 39.0261C38.2932 39.0867 38.3302 39.235 38.2853 39.3572C38.1399 39.7528 37.975 40.1545 37.7897 40.5621C37.6108 40.9559 37.421 41.3359 37.2211 41.7025C37.1612 41.8124 37.0467 41.8358 36.9654 41.7549C36.884 41.674 36.8667 41.5193 36.9266 41.4095C37.1204 41.054 37.3044 40.6855 37.478 40.3036C37.6578 39.908 37.8174 39.5192 37.9576 39.1375C38.0025 39.0153 38.1123 38.9654 38.2028 39.0261ZM22.5728 40.0416C22.6738 40.0398 22.7568 40.1489 22.7581 40.2854C22.7671 41.2173 22.8107 42.0864 22.8867 42.8957C22.8994 43.031 22.8284 43.1547 22.7282 43.1718C22.628 43.189 22.5365 43.0931 22.5238 42.9578C22.4459 42.1282 22.4015 41.2405 22.3923 40.2918C22.391 40.1554 22.4718 40.0433 22.5728 40.0416ZM1.05158 41.3878C1.1219 41.2898 1.23769 41.2874 1.31021 41.3824C1.53513 41.6769 1.78099 41.9686 2.0465 42.2565C2.12528 42.3419 2.13787 42.4974 2.07464 42.6038C2.0114 42.7102 1.89628 42.7272 1.81751 42.6418C1.54397 42.3452 1.28945 42.0434 1.05559 41.7371C0.983064 41.6421 0.981271 41.4857 1.05158 41.3878ZM51.5095 42.0925C51.5628 42.2084 51.5364 42.3607 51.4506 42.4327C51.1755 42.6636 50.8966 42.8945 50.6141 43.1252C50.5276 43.1958 50.4152 43.1584 50.3629 43.0417C50.3107 42.9249 50.3384 42.773 50.4248 42.7024C50.706 42.4728 50.9838 42.2428 51.2576 42.013C51.3434 41.941 51.4562 41.9766 51.5095 42.0925ZM35.8897 43.4171C35.96 43.515 35.9583 43.6714 35.8858 43.7664C35.4012 44.402 34.8795 44.9843 34.3257 45.5158C34.2433 45.5948 34.1291 45.5687 34.0706 45.4575C34.0121 45.3463 34.0314 45.192 34.1138 45.113C34.6532 44.5953 35.1604 44.0291 35.631 43.4119C35.7035 43.3169 35.8193 43.3192 35.8897 43.4171ZM3.41989 43.8591C3.47217 43.7424 3.58461 43.705 3.67105 43.7756C4.21137 44.2171 4.7964 44.6436 5.42 45.0517C5.5109 45.1112 5.54889 45.259 5.50484 45.3818C5.4608 45.5046 5.3514 45.5559 5.2605 45.4964C4.62778 45.0823 4.0327 44.6485 3.48172 44.1984C3.39529 44.1277 3.3676 43.9758 3.41989 43.8591ZM48.9842 44.1371C49.0343 44.2556 49.0039 44.4065 48.9162 44.4742C48.352 44.9101 47.7775 45.3416 47.1951 45.7654C47.1062 45.8302 46.9952 45.7852 46.9473 45.6651C46.8994 45.545 46.9326 45.3952 47.0216 45.3305C47.6012 44.9086 48.173 44.4792 48.7346 44.0453C48.8223 43.9776 48.934 44.0187 48.9842 44.1371ZM23.047 45.2923C23.1439 45.2537 23.2456 45.3286 23.2741 45.4595C23.4689 46.3538 23.7154 47.1488 24.0079 47.8521C24.0574 47.971 24.0261 48.1216 23.9381 48.1885C23.85 48.2553 23.7385 48.213 23.689 48.0941C23.3818 47.3554 23.125 46.5255 22.9232 45.599C22.8946 45.4681 22.9501 45.3308 23.047 45.2923ZM6.99957 46.2681C7.03697 46.1414 7.14335 46.0796 7.23719 46.1301C7.83775 46.4533 8.46295 46.7599 9.10867 47.0476C9.2046 47.0903 9.25672 47.23 9.22508 47.3596C9.19344 47.4892 9.09002 47.5596 8.99409 47.5168C8.34168 47.2262 7.70951 46.9162 7.10178 46.5891C7.00794 46.5386 6.96218 46.3949 6.99957 46.2681ZM32.6754 46.609C32.7223 46.7298 32.6878 46.8792 32.5984 46.9425C32.0083 47.3607 31.3927 47.7341 30.7559 48.0654C30.6617 48.1144 30.5558 48.051 30.5195 47.9236C30.4832 47.7963 30.5302 47.6533 30.6245 47.6043C31.249 47.2794 31.8517 46.9137 32.4284 46.505C32.5179 46.4416 32.6284 46.4882 32.6754 46.609ZM45.5291 46.6646C45.5745 46.7865 45.5383 46.935 45.4481 46.9965C44.862 47.3957 44.2706 47.7846 43.6762 48.1599C43.5847 48.2177 43.4759 48.1643 43.4331 48.0407C43.3903 47.9171 43.4298 47.7701 43.5213 47.7123C44.1122 47.3392 44.7003 46.9525 45.2834 46.5553C45.3736 46.4938 45.4836 46.5428 45.5291 46.6646ZM10.7945 47.9946C10.8209 47.8629 10.9214 47.7851 11.0189 47.8208C11.6509 48.052 12.297 48.265 12.9539 48.4579C13.0526 48.4869 13.1152 48.6185 13.0938 48.7518C13.0723 48.8851 12.9749 48.9697 12.8762 48.9407C12.2133 48.746 11.5613 48.5311 10.9233 48.2977C10.8258 48.262 10.7681 48.1263 10.7945 47.9946ZM28.9632 48.6126C28.99 48.7442 28.9328 48.8802 28.8354 48.9165C28.1952 49.1549 27.5394 49.3574 26.8715 49.526C26.7722 49.551 26.6767 49.4626 26.6581 49.3285C26.6396 49.1944 26.705 49.0653 26.8043 49.0403C27.4627 48.8741 28.1085 48.6746 28.7382 48.4401C28.8356 48.4039 28.9363 48.4811 28.9632 48.6126ZM41.9743 48.9229C42.014 49.0483 41.9709 49.1935 41.878 49.2471C41.2683 49.5989 40.658 49.9334 40.0496 50.2472C39.9552 50.2959 39.8495 50.232 39.8135 50.1046C39.7774 49.9771 39.8247 49.8343 39.9191 49.7857C40.5228 49.4742 41.1287 49.1422 41.7343 48.7927C41.8272 48.7391 41.9347 48.7974 41.9743 48.9229ZM14.7018 49.1685C14.7184 49.0339 14.8126 48.943 14.9123 48.9654C15.5641 49.1121 16.223 49.2385 16.8857 49.3428C16.9861 49.3586 17.0579 49.4813 17.0462 49.6168C17.0345 49.7523 16.9437 49.8494 16.8434 49.8336C16.1746 49.7283 15.5098 49.6008 14.8522 49.4528C14.7525 49.4304 14.6852 49.3031 14.7018 49.1685ZM24.8878 49.9235C24.884 49.9244 24.8802 49.9252 24.8764 49.9257C24.2146 50.0258 23.5448 50.0962 22.87 50.1389C22.7691 50.1452 22.6835 50.0399 22.6788 49.9036C22.6741 49.7673 22.752 49.6517 22.8529 49.6453C23.5202 49.6031 24.1821 49.5335 24.8357 49.4347C24.9361 49.4195 25.0266 49.5172 25.0378 49.6528C25.0431 49.7162 25.03 49.7767 25.0044 49.8247C25.06 49.8115 25.1193 49.8332 25.1631 49.8902C25.6249 50.4917 26.1451 50.9796 26.7163 51.3641C26.8067 51.425 26.8434 51.5733 26.7984 51.6954C26.7533 51.8176 26.6435 51.8672 26.5531 51.8063C25.9502 51.4005 25.3991 50.884 24.9092 50.2459C24.8428 50.1594 24.8353 50.0216 24.8878 49.9235ZM18.676 49.8175C18.6826 49.6813 18.7697 49.5782 18.8705 49.5871C19.5342 49.6457 20.1988 49.681 20.8613 49.6914C20.9623 49.693 21.0433 49.8048 21.0421 49.9413C21.0409 50.0777 20.9581 50.187 20.8571 50.1855C20.1878 50.175 19.5166 50.1393 18.8466 50.0801C18.7458 50.0712 18.6694 49.9536 18.676 49.8175ZM38.3079 50.83C38.3396 50.9596 38.2874 51.0993 38.1915 51.142C37.555 51.4257 36.9234 51.6826 36.2996 51.9087C36.202 51.9441 36.1017 51.866 36.0755 51.7342C36.0493 51.6024 36.1072 51.4669 36.2047 51.4315C36.8213 51.208 37.4464 50.9538 38.0769 50.6728C38.1728 50.63 38.2762 50.7004 38.3079 50.83ZM34.5199 52.2227C34.5391 52.3566 34.4742 52.4862 34.3751 52.5121C33.7064 52.6866 33.0509 52.8186 32.4124 52.9025C32.3119 52.9157 32.2224 52.8163 32.2126 52.6805C32.2029 52.5447 32.2764 52.4239 32.377 52.4107C33.0028 52.3285 33.6469 52.1989 34.3056 52.027C34.4048 52.0011 34.5008 52.0887 34.5199 52.2227ZM28.3076 52.3933C28.3289 52.2599 28.4261 52.175 28.5249 52.2038C29.1283 52.3792 29.7683 52.4776 30.4394 52.506C30.5404 52.5103 30.6197 52.6243 30.6165 52.7607C30.6133 52.8971 30.5289 53.0042 30.4279 52.9999C29.7379 52.9707 29.0757 52.8693 28.4479 52.6868C28.3492 52.6581 28.2863 52.5267 28.3076 52.3933Z" fill="#009AB2"/>
<path d="M37.478 40.3036C37.3044 40.6855 37.1204 41.054 36.9266 41.4095C36.8667 41.5193 36.884 41.674 36.9654 41.7549C37.0467 41.8358 37.1612 41.8124 37.2211 41.7025C37.421 41.3359 37.6108 40.9559 37.7897 40.5621C37.975 40.1545 38.1399 39.7528 38.2853 39.3572C38.3302 39.235 38.2932 39.0867 38.2028 39.0261C38.1123 38.9654 38.0025 39.0153 37.9576 39.1375C37.8174 39.5192 37.6578 39.908 37.478 40.3036ZM37.478 40.3036L37.6339 40.4328M97.9794 1.13327C98.0149 1.22545 98.0038 1.3377 97.9518 1.41418L68.4788 44.7565C68.4112 44.8559 68.2971 44.8636 68.2225 44.7739L59.7116 34.544L52.857 40.4804C52.8043 40.5261 52.7379 40.5321 52.6812 40.4965C52.6244 40.4609 52.5851 40.3885 52.5769 40.3047L50.8775 22.8443L41.059 11.3941C41.0044 11.3305 40.9826 11.2294 41.0033 11.1362C41.024 11.0429 41.0834 10.9747 41.1549 10.9621L97.7935 1.00208C97.8697 0.988669 97.944 1.04109 97.9794 1.13327ZM59.8519 34.0512L68.3312 44.2432L97.0219 2.05123L55.9781 29.3456L59.8512 34.0503L59.8519 34.0512ZM55.7355 29.7155L53.1101 39.6743L59.4289 34.2019L55.7355 29.7155ZM52.8406 39.2235L51.2311 22.6866C51.2252 22.6265 51.2032 22.5714 51.1693 22.5318L41.6073 11.3808L96.7448 1.68476L55.574 29.0636C55.5313 29.092 55.4985 29.1417 55.4825 29.2023L52.8406 39.2235ZM88.378 7.57242C88.411 7.70139 88.3603 7.84205 88.2648 7.88658L54.1206 21.6911C54.0251 21.7356 53.921 21.6672 53.888 21.5382C53.855 21.4093 53.9057 21.2686 54.0012 21.2241L88.1454 7.41954C88.2409 7.375 88.345 7.44345 88.378 7.57242ZM29.6853 26.1851C30.3585 26.0656 31.0412 26.0409 31.7156 26.1051C31.8164 26.1147 31.8923 26.2328 31.8852 26.3689C31.8781 26.505 31.7907 26.6076 31.6899 26.598C31.0392 26.536 30.381 26.5599 29.7329 26.675C29.6328 26.6928 29.5409 26.5975 29.5278 26.4622C29.5146 26.3269 29.5851 26.2029 29.6853 26.1851ZM33.4928 26.7392C33.5197 26.6077 33.6204 26.5304 33.7178 26.5667C34.3825 26.8142 35.0196 27.1518 35.6088 27.5736C35.6981 27.6375 35.7321 27.787 35.6848 27.9076C35.6375 28.0281 35.5268 28.0741 35.4375 28.0102C34.8732 27.6062 34.2611 27.2815 33.6205 27.043C33.5232 27.0068 33.466 26.8708 33.4928 26.7392ZM27.9439 26.9825C27.9788 27.1106 27.9302 27.2526 27.8353 27.2996C27.2249 27.6026 26.6425 28.0019 26.1053 28.5026C26.0221 28.5801 25.9082 28.5518 25.8508 28.4395C25.7935 28.3272 25.8144 28.1734 25.8975 28.0959C26.4617 27.5701 27.0718 27.1522 27.7092 26.8359C27.804 26.7888 27.9091 26.8545 27.9439 26.9825ZM37.0173 29.1765C37.0864 29.077 37.2022 29.072 37.2758 29.1654C37.7817 29.8066 38.2067 30.5404 38.5233 31.3593C38.5701 31.4802 38.5354 31.6295 38.4459 31.6926C38.3564 31.7558 38.2459 31.709 38.1991 31.588C37.9032 30.8229 37.5044 30.1327 37.0255 29.5257C36.9519 29.4324 36.9482 29.276 37.0173 29.1765ZM24.6476 29.9241C24.7253 30.0112 24.7361 30.167 24.6716 30.272C24.2736 30.9204 23.927 31.6602 23.6457 32.4965C23.6039 32.6208 23.4954 32.6757 23.4035 32.6193C23.3115 32.5628 23.2708 32.4164 23.3126 32.2921C23.6073 31.4162 23.9711 30.639 24.39 29.9566C24.4545 29.8516 24.5698 29.837 24.6476 29.9241ZM38.9154 33.7943C39.0159 33.78 39.1059 33.8784 39.1165 34.0141C39.1841 34.8805 39.1446 35.8026 38.9814 36.7737C38.9591 36.9068 38.8611 36.9902 38.7626 36.96C38.6641 36.9298 38.6023 36.7974 38.6247 36.6644C38.7795 35.7429 38.8159 34.8752 38.7527 34.0659C38.7421 33.9302 38.815 33.8086 38.9154 33.7943ZM22.9092 34.7172C23.0082 34.7443 23.0722 34.8746 23.0522 35.0084C22.9892 35.4291 22.9395 35.8674 22.9042 36.3237C22.8687 36.7817 22.8398 37.2283 22.8172 37.6636C22.8102 37.7997 22.7228 37.9023 22.622 37.8928C22.5212 37.8833 22.4453 37.7652 22.4523 37.6291C22.4752 37.188 22.5045 36.7357 22.5404 36.2723C22.5769 35.8009 22.6283 35.3471 22.6936 34.9104C22.7137 34.7767 22.8102 34.6902 22.9092 34.7172ZM22.5728 40.0416C22.6738 40.0398 22.7568 40.1489 22.7581 40.2854C22.7671 41.2173 22.8107 42.0864 22.8867 42.8957C22.8994 43.031 22.8284 43.1547 22.7282 43.1718C22.628 43.189 22.5365 43.0931 22.5238 42.9578C22.4459 42.1282 22.4015 41.2405 22.3923 40.2918C22.391 40.1554 22.4718 40.0433 22.5728 40.0416ZM1.05158 41.3878C1.1219 41.2898 1.23769 41.2874 1.31021 41.3824C1.53513 41.6769 1.78099 41.9686 2.0465 42.2565C2.12528 42.3419 2.13787 42.4974 2.07464 42.6038C2.0114 42.7102 1.89628 42.7272 1.81751 42.6418C1.54397 42.3452 1.28945 42.0434 1.05559 41.7371C0.983064 41.6421 0.981271 41.4857 1.05158 41.3878ZM51.5095 42.0925C51.5628 42.2084 51.5364 42.3607 51.4506 42.4327C51.1755 42.6636 50.8966 42.8945 50.6141 43.1252C50.5276 43.1958 50.4152 43.1584 50.3629 43.0417C50.3107 42.9249 50.3384 42.773 50.4248 42.7024C50.706 42.4728 50.9838 42.2428 51.2576 42.013C51.3434 41.941 51.4562 41.9766 51.5095 42.0925ZM35.8897 43.4171C35.96 43.515 35.9583 43.6714 35.8858 43.7664C35.4012 44.402 34.8795 44.9843 34.3257 45.5158C34.2433 45.5948 34.1291 45.5687 34.0706 45.4575C34.0121 45.3463 34.0314 45.192 34.1138 45.113C34.6532 44.5953 35.1604 44.0291 35.631 43.4119C35.7035 43.3169 35.8193 43.3192 35.8897 43.4171ZM3.41989 43.8591C3.47217 43.7424 3.58462 43.705 3.67105 43.7756C4.21137 44.2171 4.7964 44.6436 5.42 45.0517C5.5109 45.1112 5.54889 45.259 5.50484 45.3818C5.4608 45.5046 5.3514 45.5559 5.2605 45.4964C4.62778 45.0823 4.0327 44.6485 3.48172 44.1984C3.39529 44.1277 3.3676 43.9758 3.41989 43.8591ZM48.9842 44.1371C49.0343 44.2556 49.0039 44.4065 48.9162 44.4742C48.352 44.9101 47.7775 45.3416 47.1951 45.7654C47.1062 45.8302 46.9952 45.7852 46.9473 45.6651C46.8994 45.545 46.9326 45.3952 47.0216 45.3305C47.6012 44.9086 48.173 44.4792 48.7346 44.0453C48.8223 43.9776 48.934 44.0187 48.9842 44.1371ZM23.047 45.2923C23.1439 45.2537 23.2456 45.3286 23.2741 45.4595C23.4689 46.3538 23.7154 47.1488 24.0079 47.8521C24.0574 47.971 24.0261 48.1216 23.9381 48.1885C23.85 48.2553 23.7385 48.213 23.689 48.0941C23.3818 47.3553 23.125 46.5255 22.9232 45.599C22.8946 45.4681 22.9501 45.3308 23.047 45.2923ZM6.99957 46.2681C7.03697 46.1414 7.14335 46.0796 7.23719 46.1301C7.83775 46.4533 8.46295 46.7599 9.10867 47.0476C9.2046 47.0903 9.25672 47.23 9.22508 47.3596C9.19344 47.4892 9.09002 47.5596 8.99409 47.5168C8.34168 47.2262 7.70951 46.9162 7.10178 46.5891C7.00794 46.5386 6.96218 46.3949 6.99957 46.2681ZM32.6754 46.609C32.7223 46.7298 32.6878 46.8792 32.5984 46.9425C32.0083 47.3607 31.3927 47.7341 30.7559 48.0654C30.6617 48.1144 30.5558 48.051 30.5195 47.9236C30.4832 47.7963 30.5302 47.6533 30.6245 47.6043C31.249 47.2794 31.8517 46.9137 32.4284 46.505C32.5179 46.4416 32.6284 46.4882 32.6754 46.609ZM45.5291 46.6646C45.5745 46.7865 45.5383 46.935 45.4481 46.9965C44.862 47.3957 44.2706 47.7846 43.6762 48.1599C43.5847 48.2177 43.4759 48.1643 43.4331 48.0407C43.3903 47.9171 43.4298 47.77 43.5213 47.7123C44.1122 47.3392 44.7003 46.9525 45.2834 46.5553C45.3736 46.4938 45.4836 46.5428 45.5291 46.6646ZM10.7945 47.9946C10.8209 47.8629 10.9214 47.7851 11.0189 47.8208C11.6509 48.052 12.297 48.265 12.9539 48.4579C13.0526 48.4869 13.1152 48.6185 13.0938 48.7518C13.0723 48.8851 12.9749 48.9697 12.8762 48.9407C12.2133 48.746 11.5613 48.5311 10.9233 48.2977C10.8258 48.262 10.7681 48.1263 10.7945 47.9946ZM28.9632 48.6126C28.99 48.7442 28.9328 48.8802 28.8354 48.9165C28.1952 49.1549 27.5394 49.3574 26.8715 49.526C26.7722 49.551 26.6767 49.4626 26.6581 49.3285C26.6396 49.1944 26.705 49.0653 26.8043 49.0403C27.4627 48.8741 28.1085 48.6746 28.7382 48.4401C28.8356 48.4039 28.9363 48.4811 28.9632 48.6126ZM41.9743 48.9229C42.014 49.0483 41.9709 49.1935 41.878 49.2471C41.2683 49.5989 40.658 49.9334 40.0496 50.2472C39.9552 50.2959 39.8495 50.232 39.8135 50.1046C39.7774 49.9771 39.8247 49.8343 39.9191 49.7857C40.5228 49.4742 41.1287 49.1422 41.7343 48.7927C41.8272 48.7391 41.9347 48.7974 41.9743 48.9229ZM14.7018 49.1685C14.7184 49.0339 14.8126 48.943 14.9123 48.9654C15.5641 49.1121 16.223 49.2385 16.8857 49.3428C16.9861 49.3586 17.0579 49.4813 17.0462 49.6168C17.0345 49.7523 16.9437 49.8494 16.8434 49.8336C16.1746 49.7283 15.5098 49.6008 14.8522 49.4528C14.7525 49.4304 14.6852 49.3031 14.7018 49.1685ZM24.8878 49.9235C24.884 49.9244 24.8802 49.9252 24.8764 49.9257C24.2146 50.0258 23.5448 50.0962 22.87 50.1389C22.7691 50.1452 22.6835 50.0399 22.6788 49.9036C22.6741 49.7673 22.752 49.6517 22.8529 49.6453C23.5202 49.6031 24.1822 49.5335 24.8357 49.4347C24.9361 49.4195 25.0266 49.5172 25.0378 49.6528C25.0431 49.7162 25.03 49.7767 25.0044 49.8247C25.06 49.8115 25.1193 49.8332 25.1631 49.8902C25.6249 50.4917 26.1451 50.9796 26.7163 51.3641C26.8067 51.425 26.8434 51.5733 26.7984 51.6954C26.7533 51.8176 26.6435 51.8672 26.5531 51.8063C25.9502 51.4005 25.3991 50.884 24.9092 50.2459C24.8428 50.1594 24.8353 50.0216 24.8878 49.9235ZM18.676 49.8175C18.6826 49.6813 18.7697 49.5782 18.8705 49.5871C19.5342 49.6457 20.1988 49.681 20.8613 49.6914C20.9623 49.693 21.0433 49.8048 21.0421 49.9413C21.0409 50.0777 20.9581 50.187 20.8571 50.1854C20.1878 50.175 19.5166 50.1393 18.8466 50.0801C18.7458 50.0712 18.6694 49.9536 18.676 49.8175ZM38.3079 50.83C38.3395 50.9596 38.2874 51.0993 38.1915 51.142C37.555 51.4257 36.9234 51.6826 36.2996 51.9087C36.202 51.9441 36.1017 51.866 36.0755 51.7342C36.0493 51.6024 36.1072 51.4669 36.2047 51.4315C36.8213 51.208 37.4464 50.9538 38.0769 50.6728C38.1728 50.63 38.2762 50.7004 38.3079 50.83ZM34.5199 52.2227C34.5391 52.3566 34.4742 52.4862 34.3751 52.5121C33.7064 52.6866 33.0509 52.8186 32.4124 52.9025C32.3119 52.9157 32.2224 52.8163 32.2126 52.6805C32.2029 52.5447 32.2764 52.4239 32.377 52.4107C33.0028 52.3285 33.6469 52.1989 34.3056 52.027C34.4048 52.0011 34.5008 52.0887 34.5199 52.2227ZM28.3076 52.3933C28.3289 52.2599 28.4261 52.175 28.5249 52.2038C29.1283 52.3792 29.7683 52.4776 30.4394 52.506C30.5404 52.5103 30.6197 52.6243 30.6165 52.7607C30.6133 52.8971 30.5289 53.0042 30.428 52.9999C29.7379 52.9707 29.0757 52.8693 28.4479 52.6868C28.3492 52.6581 28.2863 52.5267 28.3076 52.3933Z" stroke="#00B0CA" stroke-width="1.5" stroke-miterlimit="10" stroke-linecap="round" stroke-linejoin="round"/>
</svg>

