<svg width="96" height="92" viewBox="0 0 96 92" fill="none" xmlns="http://www.w3.org/2000/svg">
<path d="M48.632 21.839C48.604 22.3206 48.812 22.7821 49.188 23.079C49.44 23.2797 49.752 23.38 50.06 23.38C50.196 23.38 50.336 23.3599 50.468 23.3158L52.548 22.6978C52.816 22.6175 52.968 22.3366 52.888 22.0718C52.808 21.8029 52.528 21.6545 52.264 21.7307L50.176 22.3527C50.004 22.4049 49.868 22.3326 49.808 22.2845C49.692 22.1922 49.628 22.0517 49.636 21.9073C49.832 19.1584 49.556 17.0076 48.816 15.5108C48.692 15.262 48.392 15.1576 48.14 15.282C47.892 15.4064 47.788 15.7074 47.912 15.9602C48.572 17.2885 48.816 19.2668 48.632 21.839Z" fill="#00B0CA"/>
<path d="M34.82 59.572C34.548 59.5439 34.296 59.7486 34.272 60.0255C34.252 60.2261 32.308 80.3667 32.768 89.187C32.78 89.4558 33.004 89.6645 33.268 89.6645C33.276 89.6645 33.284 89.6645 33.296 89.6645C33.572 89.6485 33.788 89.4117 33.772 89.1348C33.316 80.3908 35.252 60.3264 35.272 60.1218C35.3 59.8449 35.1 59.5961 34.82 59.572Z" fill="#00B0CA"/>
<path d="M95.984 78.0513C95.892 75.0858 95.34 72.1122 94.896 70.1419C94.404 67.9629 94.116 66.9637 93.896 66.5103C89.468 50.1017 81.808 43.4885 76.164 40.8279C71.12 38.4523 66.824 38.7051 65.312 38.8977L64.56 25.5871C67.264 24.9049 68.284 23.6167 68.66 22.6336C69.096 21.518 68.868 20.262 68.116 19.3792C70.004 11.7587 67.404 5.7314 60.78 2.39269C60.664 2.3325 60.576 2.29237 60.52 2.26027C60.48 2.22415 60.432 2.19205 60.38 2.16797C51.424 -1.62017 46.324 0.687227 46.108 0.783535C46.08 0.795574 46.056 0.811625 46.028 0.827677L42.74 3.17922C40.892 3.80924 39.592 4.89672 38.876 6.40957C37.74 8.81328 38.432 11.538 38.708 12.4128C38.216 13.0388 37.044 14.7363 37.536 16.1488C37.788 16.8791 38.424 17.3888 39.424 17.6616C39.304 18.1312 39.164 18.8856 39.6 19.6039C39.988 20.2419 40.72 20.6793 41.828 20.9402C42.296 24.8286 43.432 28.8736 45.976 31.2011C47.424 32.5253 49.196 33.1874 51.272 33.1874C51.676 33.1874 52.092 33.1593 52.516 33.1112C52.98 34.6 53.764 37.9427 52.932 39.2148C52.748 39.4957 52.5 39.6401 52.152 39.6722L52.064 39.6602C49.78 39.3351 45.376 39.0382 41.544 40.7196C38.484 42.0398 35.924 44.4395 34.328 47.4772C32.1 51.6948 27.284 60.3505 25.628 63.316C24.22 57.4653 22.428 51.6065 22.04 50.527L21.844 49.9411C20.572 46.2934 19.148 44.1666 17.608 43.6088C17.964 43.2156 18.176 42.7059 18.176 42.2084C18.52 32.2845 16.736 28.2717 16.632 28.0389C16.632 28.0349 16.632 28.0349 16.628 28.0349C16.624 28.0309 16.62 28.0269 16.616 28.0189C16.588 27.9667 16.556 27.9185 16.512 27.8784C16.496 27.8664 16.476 27.8583 16.46 27.8463C16.424 27.8222 16.388 27.7941 16.348 27.7781C16.316 27.766 16.28 27.766 16.244 27.762C16.216 27.758 16.188 27.746 16.16 27.746H16.156C16.14 27.746 16.128 27.754 16.112 27.758C16.052 27.766 15.996 27.7821 15.944 27.8102C15.7 27.8463 15.472 27.9346 15.268 28.067C15.28 28.0269 15.292 27.9868 15.292 27.9426C15.292 27.6657 15.064 27.441 14.788 27.441C14.688 27.441 4.924 27.4771 3.404 27.445C3.16 27.3848 2.952 27.4892 2.844 27.5413C1.108 28.4924 0.368 30.1938 0.056 31.4539C-0.016 31.7468 0.044 32.0518 0.228 32.2845C0.412 32.5253 0.696 32.6617 1.008 32.6617H1.584C1.032 33.6208 0.232 35.4467 0 38.1634C0 38.1794 0 38.1915 0 38.2075V44.3512C0 45.206 0.832 45.9002 1.852 45.9002H3.684C3.696 45.9403 3.708 45.9764 3.724 46.0166C3.748 46.0888 4.308 47.7622 6.208 49.1386C6.868 49.6161 7.752 50.0936 8.9 50.4267C8.928 50.4387 8.956 50.4508 8.984 50.4628C9.028 50.4789 9.068 50.4829 9.112 50.4869C10.04 50.7357 11.128 50.8962 12.408 50.8962C12.808 50.8962 13.232 50.8761 13.668 50.84C13.72 50.9765 15.2 54.9974 15.248 65.6636C14.92 65.6595 14.196 65.7157 13.616 66.2253C13.104 66.6748 12.836 67.3409 12.824 68.2197C12.824 68.9862 13.032 70.2061 13.064 70.3546C13.236 71.3217 13.668 72.032 14.348 72.4694C14.708 72.6981 15.128 72.8466 15.62 72.9228C15.732 74.3153 16.34 79.3274 19.456 82.0722C20.804 83.26 22.444 83.8619 24.344 83.8619C24.624 83.8619 24.908 83.8499 25.2 83.8218L25.36 83.8057C26.692 83.6813 29.468 83.4285 32.176 78.581C32.312 78.3362 32.224 78.0312 31.984 77.8948C31.744 77.7583 31.436 77.8466 31.3 78.0874C28.856 82.4694 26.436 82.6942 25.272 82.7985L25.108 82.8145C23.136 82.9951 21.46 82.4855 20.128 81.3137C17.42 78.9301 16.784 74.4277 16.644 72.983C17.492 72.9589 18.512 72.7824 19.776 72.4493C20.044 72.3771 20.204 72.1042 20.136 71.8353C20.068 71.5665 19.788 71.4019 19.524 71.4742C18.048 71.8634 15.964 72.2968 14.9 71.6146C14.46 71.3337 14.188 70.8602 14.06 70.162C14.016 69.9373 13.84 68.8337 13.84 68.2238C13.848 67.658 14 67.2406 14.284 66.9878C14.628 66.6828 15.096 66.6668 15.26 66.6708C15.26 66.7751 15.26 66.8754 15.26 66.9798C15.26 67.2567 15.484 67.4854 15.76 67.4894C15.76 67.4894 15.76 67.4894 15.764 67.4894C16.028 67.4894 16.24 67.2807 16.26 67.0199C16.344 67.0881 16.44 67.1363 16.556 67.1403C16.58 67.1403 16.668 67.1443 16.812 67.1443C17.888 67.1443 22.028 67.0079 24.444 64.9773C24.656 64.7968 24.684 64.4798 24.508 64.2671C24.332 64.0544 24.012 64.0263 23.8 64.2029C21.364 66.2534 16.64 66.1331 16.592 66.1331C16.472 66.125 16.36 66.1611 16.272 66.2294C16.276 56.2413 15.072 51.8192 14.712 50.7317C15.312 50.6554 15.94 50.5511 16.604 50.4066C16.876 50.3464 17.048 50.0776 16.988 49.8047C16.928 49.5318 16.664 49.3593 16.388 49.4195C13.344 50.0856 11.064 49.9813 9.364 49.5198C9.364 49.5198 9.364 49.5198 9.36 49.5198C5.944 48.1835 5.576 43.8135 5.552 42.2726C5.552 42.2645 5.552 42.2605 5.552 42.2565C5.548 41.9395 5.56 41.7429 5.56 41.7268C5.56 41.1209 5.68 40.7196 5.9 40.5912C6.1 40.4748 6.432 40.555 6.68 40.6554C6.652 41.6345 6.632 43.039 6.632 43.5808C6.632 46.5101 8.224 47.5976 9.576 47.9949C9.656 48.039 9.744 48.0631 9.832 48.0631C9.96 48.0631 10.088 48.015 10.188 47.9146C10.384 47.718 10.384 47.397 10.188 47.2004C10.104 47.1161 10.008 47.0398 9.848 47.0198C8.364 46.5784 7.644 45.4548 7.644 43.5767C7.644 42.7702 7.684 40.5671 7.72 39.917C7.784 39.2749 8.024 38.7533 8.288 38.6971C8.368 38.681 8.56 38.6489 8.632 38.7091C8.908 38.9459 8.836 40.1899 8.784 41.1931C8.756 41.7027 8.728 42.2324 8.72 42.7661C8.624 44.1867 8.96 45.2702 9.712 45.9885C10.592 46.8232 11.768 46.8833 12.252 46.8713C12.516 46.9596 12.8 46.8231 12.892 46.5583C12.916 46.4821 12.92 46.4098 12.912 46.3336C12.912 46.3215 12.916 46.3095 12.916 46.2935C12.888 46.0567 12.7 45.8881 12.472 45.8601C11.776 45.4628 11.248 43.6088 11.752 39.4676L11.76 39.3953C11.812 39.0382 11.968 38.8054 12.088 38.7372C12.124 38.7172 12.14 38.7212 12.164 38.7332C12.284 38.7894 12.548 39.1465 12.416 41.2252C12.312 43.1313 12.704 44.3592 13.58 44.8809C14.728 45.5631 16.164 44.6923 16.224 44.6562C16.24 44.6482 16.264 44.6321 16.276 44.6201C16.292 44.608 16.64 44.3472 17.196 44.5117C17.912 44.7244 19.344 45.7557 20.912 50.2582L21.108 50.8481C21.5 51.9476 23.332 57.9428 24.744 63.8618C24.764 63.9822 24.82 64.1146 24.94 64.3834C24.964 64.4356 24.988 64.4878 25.008 64.544C24.996 64.7045 25.06 64.857 25.184 64.9613C25.5 65.7398 25.772 66.6026 25.784 67.3811C25.776 67.4132 25.78 67.4493 25.78 67.4814C25.772 68.1997 25.532 68.8417 24.884 69.2631C24.84 69.2912 24.8 69.3273 24.768 69.3674C24.512 69.5119 23.656 69.869 22.936 70.1419C22.676 70.2422 22.548 70.5312 22.644 70.792C22.72 70.9926 22.912 71.117 23.116 71.117C23.176 71.117 23.236 71.105 23.296 71.0849C24.948 70.4509 25.396 70.2101 25.548 70.0295C25.808 69.845 26.012 69.6403 26.18 69.4196L26.708 71.8434C26.76 72.0801 26.968 72.2406 27.2 72.2406C27.236 72.2406 27.272 72.2366 27.308 72.2286C27.58 72.1684 27.752 71.8995 27.692 71.6267L26.784 67.4573C26.784 66.3859 26.412 65.2944 26.104 64.548C27.12 62.7301 32.76 52.6177 35.228 47.9427C36.716 45.1097 39.104 42.8705 41.956 41.6425C45.14 40.242 48.788 40.3022 51.096 40.551C46.764 45.4307 44.152 54.901 43.332 68.7334C42.692 79.524 43.44 89.0987 43.448 89.195C43.468 89.4598 43.688 89.6605 43.948 89.6605C43.96 89.6605 43.976 89.6605 43.988 89.6605C44.264 89.6364 44.472 89.3956 44.448 89.1188C44.42 88.7456 41.608 51.8794 52.2 40.848C53.008 41.4178 55.052 42.6217 57.852 42.6217C59.732 42.6217 61.952 42.0719 64.364 40.4307C64.392 43.8296 64.328 56.0407 62.124 68.288C62.1 68.4164 62.132 68.5408 62.196 68.6451H56.844C56.572 68.6451 56.348 68.8618 56.34 69.1347L56.268 71.7832C56.268 71.7952 56.26 71.8032 56.26 71.8153C56.26 71.8233 56.264 71.8313 56.264 71.8394L55.996 81.8916C55.988 81.9076 55.976 81.9277 55.972 81.9437C55.8 82.5296 55.896 83.0754 56.248 83.5288C56.552 83.9141 57.04 84.207 57.624 84.4277C57.604 84.4999 57.6 84.5762 57.616 84.6524C57.824 85.8041 58.764 86.378 59.86 86.6428C59.82 87.1163 59.984 87.4574 60.164 87.6862C60.444 88.0433 60.876 88.272 61.352 88.4165C61.332 88.7335 61.448 89.1549 63.82 89.6525C63.84 89.6565 63.856 89.6605 63.876 89.6605L76.116 90.8483C76.136 90.8684 76.152 90.8884 76.18 90.9045C76.272 90.9607 78.036 92 79.884 92C80.36 92 80.844 91.9318 81.304 91.7592C82.376 91.3579 83.14 90.4871 83.576 89.1629C83.604 89.0786 83.608 88.9944 83.592 88.9141C83.6 88.874 83.608 88.8218 83.62 88.7576C83.728 88.1998 83.976 86.8876 83.588 85.0377C83.532 84.7648 83.264 84.5922 82.992 84.6484C82.72 84.7046 82.544 84.9735 82.604 85.2463C82.948 86.8956 82.736 88.0273 82.632 88.569C82.608 88.6974 82.584 88.8298 82.584 88.9542C82.244 89.9213 81.708 90.5313 80.956 90.8122C80 91.1693 78.868 90.9326 78.008 90.6316C79.204 89.3194 79.584 87.4494 79.088 85.2022C78.736 83.3563 77.316 81.9157 75.532 81.4421C75.836 81.081 76.52 80.3988 77.5 80.2222C77.78 80.1701 78.072 80.1701 78.364 80.2062C78.448 80.2744 78.552 80.3145 78.668 80.3145C78.684 80.3145 78.696 80.3145 78.712 80.3145L78.844 80.3025C79.352 80.4469 79.876 80.7118 80.412 81.1051C80.472 81.1492 80.544 81.1813 80.616 81.1933C80.932 81.3739 81.984 82.2407 82.104 82.8787C82.152 83.1195 82.36 83.2881 82.596 83.2881C82.628 83.2881 82.66 83.284 82.692 83.28C82.964 83.2279 83.144 82.963 83.092 82.6901C82.872 81.5425 81.316 80.3707 80.916 80.2262C80.872 80.1941 80.824 80.1661 80.78 80.138L84.988 79.7768C85.264 79.7527 85.468 79.5079 85.444 79.231C85.42 78.9542 85.188 78.7415 84.9 78.7736L82.288 78.9983V69.1547C82.288 68.8779 82.064 68.6491 81.784 68.6491H80.8L81.976 57.2325C81.992 57.0921 81.944 56.9476 81.848 56.8433C81.752 56.7389 81.616 56.6747 81.476 56.6747H77.032L66.296 56.0166C66.16 56.0086 66.024 56.0567 65.924 56.149C65.824 56.2413 65.764 56.3738 65.764 56.5102L65.58 68.6451H63.036C63.068 68.5929 63.096 68.5328 63.108 68.4685C65.448 55.4428 65.392 42.4531 65.356 39.913C66.656 39.7445 70.9 39.4435 75.796 41.7669C85.64 46.4379 90.548 57.9428 92.928 66.7711C92.944 66.8233 92.964 66.8714 92.992 66.9156C93.484 68.1636 96.82 80.1179 93.636 85.2825C92.724 86.7632 91.384 87.5216 89.54 87.6099C89.492 87.6139 89.444 87.6219 89.4 87.638C89.004 87.7142 86.452 88.1075 84.868 88.3483C84.592 88.3884 84.404 88.6452 84.448 88.9221C84.484 89.1709 84.7 89.3515 84.944 89.3515C84.968 89.3515 84.996 89.3515 85.02 89.3475C85.02 89.3475 86.18 89.1709 87.336 88.9903C88.464 88.8138 89.132 88.7135 89.528 88.6171C89.54 88.6171 89.556 88.6171 89.568 88.6171V88.6051C89.576 88.6051 89.584 88.6011 89.592 88.6011V88.6171C92.656 88.4767 96.252 86.5224 95.984 78.0513ZM17.172 42.1883C17.172 42.5214 16.98 42.8785 16.672 43.1072C15.908 43.7132 14.816 43.6931 14.804 43.6931C14.796 43.6931 14.792 43.6971 14.784 43.6971C14.656 42.1522 14.348 37.3247 15.312 35.242C15.396 35.0815 15.488 34.937 15.576 34.7926C15.984 34.1305 16.396 33.4483 16.588 31.7267C16.988 33.9338 17.34 37.3448 17.172 42.1883ZM14.792 28.4362C14.808 28.4362 14.824 28.4282 14.84 28.4242C13.996 29.3351 13.592 30.9603 13.452 31.6344H9.564C9.96 30.6754 10.548 29.616 11.44 28.5646C11.472 28.5285 11.488 28.4844 11.508 28.4442C13.26 28.4442 14.64 28.4402 14.792 28.4362ZM6.112 32.3648C6.124 32.3407 6.132 32.3126 6.14 32.2885C6.932 29.8166 8.184 28.6328 8.2 28.6168C8.252 28.5686 8.288 28.5165 8.316 28.4563C8.96 28.4563 9.612 28.4563 10.244 28.4522C8.456 30.8038 7.956 33.1393 7.824 34.4073C7.82 34.4114 7.8 34.4194 7.78 34.4194L5.68 34.4114C5.668 34.3993 5.656 34.3672 5.656 34.3391C5.768 33.6088 5.928 32.9507 6.112 32.3648ZM3.288 28.4362C3.292 28.4362 3.296 28.4362 3.3 28.4362C3.744 28.4482 5.228 28.4522 6.996 28.4522C6.528 29.0421 5.836 30.0895 5.296 31.6344H1.04C1.312 30.5951 1.912 29.2147 3.288 28.4362ZM4.672 45.6835C3.968 43.7332 4.252 43.0751 4.404 42.8825C4.444 42.8303 4.496 42.7942 4.544 42.7661C4.576 43.4323 4.668 44.3392 4.912 45.3103C5.088 46.0166 5.324 46.6626 5.612 47.2445C4.944 46.454 4.7 45.7718 4.672 45.6835ZM13.404 41.2934C13.496 39.8488 13.516 38.2717 12.572 37.8263C12.252 37.6778 11.904 37.6899 11.592 37.8584C11.16 38.0952 10.844 38.6128 10.744 39.2709L10.732 39.3552C10.464 41.5703 10.372 44.1626 11.06 45.6795C10.824 45.5872 10.584 45.4548 10.376 45.2581C9.852 44.7565 9.624 43.9419 9.7 42.8143C9.708 42.2766 9.736 41.7589 9.764 41.2573C9.852 39.6642 9.916 38.5085 9.26 37.9507C8.956 37.6899 8.548 37.6096 8.056 37.718C7.368 37.8544 6.884 38.5566 6.724 39.616C6.332 39.5077 5.832 39.4636 5.384 39.7164C4.82 40.0374 4.532 40.7156 4.532 41.6947C4.532 41.6987 4.532 41.7067 4.532 41.7148C4.224 41.775 3.888 41.9234 3.628 42.2405C3.16 42.8023 3.08 43.6811 3.372 44.897H1.852C1.368 44.897 1.008 44.6121 1.008 44.3592V38.2316C1.28 35.0735 2.38 33.2115 2.76 32.6497H4.98C4.852 33.1313 4.744 33.6529 4.66 34.2147C4.624 34.5398 4.724 34.8568 4.928 35.0895C5.124 35.3102 5.4 35.4306 5.696 35.4306H7.776C8.348 35.4306 8.8 35.0053 8.816 34.4555C8.868 33.994 8.976 33.372 9.196 32.6497H13.48C13.956 32.6497 14.36 32.3086 14.436 31.8592C14.672 30.6754 15.144 29.4836 15.688 29.006C15.732 32.6096 15.216 33.4483 14.716 34.2629C14.616 34.4274 14.516 34.5919 14.408 34.7926C13.34 37.108 13.632 42.0197 13.772 43.7132C13.476 43.2477 13.344 42.417 13.404 41.2934ZM73.62 69.6563V71.3137H57.28L57.324 69.6563H73.62ZM73.624 81.2214C73.012 81.1452 72.296 80.9686 71.616 80.5994C71.58 80.5794 71.548 80.5633 71.508 80.5473C69.06 79.3996 67.752 77.3891 67.26 76.6307C67.048 76.3057 66.852 76.0007 66.456 76.1291C66.44 76.1331 66.424 76.1411 66.412 76.1452C65.688 76.4702 65.26 76.9477 65.128 77.5697C64.944 78.4566 65.404 79.512 66.496 80.7078L66.508 80.7198C66.688 81.0409 66.704 81.2375 66.66 81.3137C66.54 81.5144 65.952 81.6027 65.572 81.5866C62.652 81.5986 58.452 81.6107 57.004 81.5986L57.252 72.3209H73.62V81.2054C73.62 81.2094 73.624 81.2134 73.624 81.2214ZM78.1 85.4069C78.532 87.3531 78.256 88.878 77.284 89.9494L64 88.6613C63.932 88.6452 63.868 88.6332 63.8 88.6171C63.832 88.6131 63.856 88.6091 63.88 88.6051C64.132 88.561 64.296 88.4366 64.364 88.2399C64.416 88.0834 64.388 87.9109 64.292 87.7785C64.196 87.646 64.032 87.5738 63.876 87.5738C63.424 87.5858 63.04 87.6019 62.716 87.63C62.048 87.5858 61.26 87.4333 60.964 87.0762C60.932 87.0361 60.868 86.9598 60.86 86.8073C62.352 86.9518 63.816 86.703 63.932 86.6829C64.188 86.6388 64.368 86.402 64.348 86.1412C64.324 85.8804 64.108 85.6797 63.848 85.6797H60.5C60.436 85.6797 60.376 85.6918 60.32 85.7118C59.744 85.5995 59.24 85.4028 58.928 85.0818C59.48 85.0858 60.368 85.0858 61.796 85.0778C62.664 85.1019 63.34 85.0738 63.528 85.0658C63.8 85.0537 64.016 84.821 64.008 84.5481C64 84.2752 63.784 84.0625 63.5 84.0585C62.996 84.0625 62.404 84.0666 61.804 84.0706C59.872 84.0064 57.656 83.6934 57.044 82.9068C56.976 82.8186 56.936 82.7303 56.916 82.634H57.924C57.96 82.634 57.996 82.6219 58.028 82.6139C59.344 82.6219 61.608 82.6139 65.56 82.5938C65.804 82.6059 67.052 82.6259 67.528 81.8354C67.8 81.382 67.744 80.8242 67.364 80.1741L67.36 80.1781C67.332 80.1299 67.296 80.0778 67.248 80.0256C66.076 78.7415 66.068 78.0232 66.12 77.7744C66.136 77.6941 66.18 77.4814 66.48 77.2647C67.056 78.1476 68.48 80.2423 71.108 81.4662C71.12 81.4702 71.132 81.4783 71.144 81.4823V81.4863C72.304 82.1203 73.528 82.2728 74.352 82.2889C76.18 82.321 77.76 83.6251 78.1 85.4069ZM78.928 79.2832C78.38 79.1548 77.84 79.1307 77.308 79.231C75.86 79.4999 74.94 80.5473 74.628 80.9566V72.3209H81.284V79.0786L78.928 79.2832ZM81.284 71.3097H74.628V69.6523H81.284V71.3097ZM79.792 68.6451H77.036L77.496 57.682H80.924L79.792 68.6451ZM66.764 57.056L76.488 57.6499L76.028 68.6491H66.588L66.764 57.056ZM53.22 40.3343C53.436 40.1859 53.624 39.9973 53.776 39.7645C54.912 38.0269 53.924 34.2749 53.524 32.9507C53.532 32.9507 53.54 32.9467 53.552 32.9467C53.58 32.9426 53.604 32.9346 53.632 32.9226C53.668 32.9146 53.72 32.9065 53.792 32.8905C58.54 31.9996 61.236 29.0261 62.66 26.6866C62.804 26.4498 62.732 26.1368 62.492 25.9924C62.256 25.8479 61.944 25.9201 61.8 26.1609C60.48 28.3238 57.988 31.0767 53.604 31.8993C53.464 31.9274 53.376 31.9434 53.308 31.9635C50.584 32.5093 48.348 31.9996 46.656 30.4547C44.552 28.5285 43.192 24.8808 42.724 19.9008C42.32 15.587 42.7 11.6584 42.78 10.916C42.792 10.7956 42.796 10.7033 42.796 10.6271C42.796 10.5308 42.796 10.5308 42.864 10.4224C42.988 10.2178 43.064 9.98504 43.136 9.76032C43.308 9.22661 43.444 8.80525 44.128 8.59659C44.62 8.44008 45.732 8.92965 46.408 9.351L46.464 9.41922C47.692 10.9361 49.752 13.4682 53.168 13.0188C54.232 12.8703 55.212 13.1191 55.952 13.729C57.168 14.6681 59.144 15.595 61.628 14.6921C61.888 14.5958 62.024 14.3069 61.928 14.0461C61.832 13.7852 61.544 13.6488 61.284 13.7451C59.228 14.4915 57.584 13.713 56.576 12.9425C55.632 12.16 54.372 11.835 53.032 12.0196C50.172 12.3928 48.408 10.2218 47.244 8.78118L47.132 8.64474C47.1 8.60461 47.056 8.5685 47.012 8.53639C46.676 8.3197 44.944 7.26833 43.824 7.62948C42.648 7.98663 42.364 8.86545 42.176 9.44731C42.12 9.62388 42.064 9.79242 42.004 9.89274C41.808 10.2057 41.792 10.3863 41.788 10.607C41.788 10.6592 41.788 10.7194 41.776 10.8037C41.692 11.5902 41.316 15.5148 41.712 19.8647C41.084 19.6721 40.66 19.4113 40.456 19.0782C40.2 18.6568 40.332 18.1552 40.428 17.786C40.496 17.5252 40.64 16.9835 40.144 16.7949C40.116 16.7828 40.088 16.7748 40.06 16.7708C39.18 16.6063 38.648 16.2852 38.488 15.8157C38.156 14.8647 39.22 13.3478 39.656 12.8462C39.776 12.7058 39.812 12.5091 39.748 12.3366C39.736 12.3085 38.62 9.30285 39.788 6.83895C40.392 5.56286 41.516 4.64793 43.132 4.1102C43.18 4.09415 43.224 4.07007 43.264 4.04198L46.572 1.6784C47.032 1.48579 51.796 -0.348093 59.916 3.06284C60.008 3.12705 60.136 3.19126 60.328 3.28756C67.964 7.1359 68.384 13.6528 67.248 18.6809C66.84 18.4843 66.396 18.4201 65.92 18.4883C64.024 18.7612 62.272 21.1569 62.2 21.2612C62.036 21.4859 62.088 21.8029 62.312 21.9675C62.536 22.132 62.852 22.0798 63.016 21.8551C63.448 21.2572 64.844 19.6641 66.064 19.4915C66.444 19.4353 66.772 19.5236 67.068 19.7524C67.804 20.3342 68.072 21.3695 67.72 22.2644C67.412 23.067 66.504 24.1384 63.924 24.6962C63.68 24.7484 63.512 24.9691 63.528 25.2179L64.32 39.2107C59.06 43.1393 54.864 41.3576 53.22 40.3343Z" fill="#00B0CA"/>
<path d="M55.832 23.8736C55.712 23.7973 55.564 23.7773 55.428 23.8174L48.652 25.7476C48.516 25.7877 48.4 25.884 48.336 26.0124C48.272 26.1408 48.268 26.2893 48.324 26.4257C48.832 27.6737 49.912 28.5967 51.232 28.8937C51.508 28.9498 51.784 28.9779 52.056 28.9779C53.936 28.9779 55.596 27.6858 56.016 25.7797C56.144 25.2741 56.156 24.7444 56.06 24.2147C56.036 24.0702 55.952 23.9498 55.832 23.8736ZM55.036 25.5469C54.672 27.2002 53.088 28.2356 51.44 27.9065C50.64 27.7259 49.952 27.2323 49.516 26.5542L55.116 24.957C55.112 25.1537 55.084 25.3503 55.036 25.5469Z" fill="#00B0CA"/>
<path d="M73.432 61.7309C73.208 61.7309 72.984 61.7229 72.76 61.7109C72.548 61.7029 72.336 61.6948 72.124 61.6908V60.3786C72.124 59.9853 71.86 59.7205 71.468 59.7205C71.168 59.7205 70.884 59.7205 70.608 59.6844L70.544 59.6804C70.152 59.6804 69.888 59.9452 69.888 60.3385V61.6868H68.584C68.064 61.6868 67.928 62.076 67.928 62.3088C67.928 62.6138 67.928 62.8987 67.892 63.2197L67.888 63.2759C67.888 63.5608 68.048 63.8979 68.508 63.8979C68.728 63.8979 68.948 63.9059 69.172 63.918C69.388 63.926 69.604 63.934 69.852 63.938V65.2863C69.852 65.808 70.24 65.9445 70.472 65.9445C70.764 65.9445 71.096 65.9445 71.372 65.9806L71.436 65.9846C71.788 65.9846 72.056 65.7197 72.056 65.3626C72.056 65.1379 72.064 64.9252 72.076 64.7085C72.084 64.4798 72.096 64.251 72.096 64.0143H73.404C73.856 64.0143 74.06 63.6932 74.06 63.3923C74.06 63.0913 74.06 62.8064 74.096 62.5255L74.1 62.4653C74.088 61.7831 73.584 61.7309 73.432 61.7309ZM73.048 63.007H72.084C71.416 63.007 71.08 63.3441 71.08 64.0143C71.08 64.239 71.072 64.4517 71.06 64.6684C71.056 64.7607 71.052 64.853 71.048 64.9453C70.984 64.9412 70.916 64.9412 70.852 64.9412V63.8979C70.852 63.3 70.496 62.9308 69.924 62.9308C69.676 62.9308 69.436 62.9228 69.204 62.9107C69.108 62.9067 69.012 62.9027 68.916 62.8987C68.92 62.8305 68.92 62.7663 68.92 62.7021H69.96C70.504 62.7021 70.888 62.3208 70.888 61.7711V60.7237C70.964 60.7277 71.04 60.7277 71.116 60.7317V61.735C71.116 62.3489 71.452 62.7021 72.044 62.7021C72.268 62.7021 72.492 62.7101 72.716 62.7221C72.828 62.7261 72.944 62.7301 73.056 62.7342C73.052 62.8265 73.048 62.9147 73.048 63.007Z" fill="#00B0CA"/>
</svg>
