<svg width="34" height="43" viewBox="0 0 34 43" fill="none" xmlns="http://www.w3.org/2000/svg">
<path d="M16.9328 0C26.3457 0 33.9463 7.8106 33.9463 17.4835C33.9463 22.7647 31.6742 27.49 28.0768 30.6865C28.0768 30.6865 26.4809 32.1875 24.5875 33.6328C22.8834 34.9392 21.4499 35.8565 20.7196 36.6348C17.2844 40.3038 18.8262 42.861 17.0139 43C15.2017 42.861 16.7434 40.3038 13.3083 36.6348C12.578 35.8565 11.1444 34.9392 9.44032 33.6328C8.30429 32.7712 7.27644 31.8817 6.62728 31.298C2.59705 28.1015 0.000385284 23.0983 0.000385284 17.4557C-0.0537109 7.8106 7.54692 0 16.9328 0ZM10.6305 16.0659H10.7657V23.8765H15.418V19.1235H18.4745V23.8765H23.1269V16.0659H23.3162C23.9383 16.0659 24.2359 15.2599 23.749 14.8429L17.4196 9.56173C17.1762 9.36716 16.8246 9.36716 16.5811 9.56173L10.2518 14.8429C9.73786 15.2599 10.0083 16.0659 10.6305 16.0659Z" fill="#E84545"/>
</svg>
