<svg width="14" height="20" viewBox="0 0 14 20" fill="none" xmlns="http://www.w3.org/2000/svg">
<path d="M6.29041 19.67C6.4726 19.88 6.73151 20 7 20C7.26849 20 7.5274 19.88 7.70959 19.66C7.75753 19.62 8.68767 18.54 9.82877 16.93C10.7589 15.63 11.5452 14.37 12.1781 13.18C12.5904 12.41 12.9356 11.67 13.2041 10.97C13.7315 9.61 14 8.38 14 7.3C14 3.27 10.8644 0 7 0C6.03151 0 5.08219 0.21 4.19041 0.61C3.71096 0.83 3.49041 1.43 3.70137 1.93C3.91233 2.43 4.47808 2.66 4.96712 2.44C5.60959 2.15 6.29041 2 7.00959 2C9.80959 2 12.0918 4.38 12.0918 7.3C12.0918 8.12 11.8712 9.1 11.4301 10.22C11.1808 10.84 10.874 11.51 10.5 12.21C9.90548 13.32 9.15753 14.51 8.28493 15.74C7.79589 16.43 7.34521 17.02 7 17.46C5.12055 15.09 1.91781 10.41 1.91781 7.3C1.91781 6.42 2.12877 5.55 2.53151 4.78C2.79041 4.29 2.61781 3.68 2.14795 3.42C1.67808 3.16 1.09315 3.33 0.843836 3.82C0.29726 4.88 0 6.09 0 7.3C0 12.35 6.03151 19.37 6.29041 19.67Z" fill="#9194A7"/>
<path d="M9.39726 7.31C9.39726 8.69071 8.32397 9.81 7 9.81C5.67603 9.81 4.60274 8.69071 4.60274 7.31C4.60274 5.92929 5.67603 4.81 7 4.81C8.32397 4.81 9.39726 5.92929 9.39726 7.31Z" fill="#9194A7"/>
</svg>
