<svg width="60" height="86" viewBox="0 0 60 86" fill="none" xmlns="http://www.w3.org/2000/svg">
<path d="M40.3232 13.1604C38.709 14.7745 36.0571 14.7745 34.443 13.1315L29.4275 8.08724C27.8133 6.47307 27.8133 3.82122 29.4563 2.20705C31.0705 0.592878 33.7224 0.592878 35.3365 2.23587L40.3232 7.28016C41.9373 8.92316 41.9373 11.5462 40.3232 13.1604Z" stroke="#131336" stroke-width="2" stroke-miterlimit="10"/>
<path d="M37.4984 8.60628L35.7977 10.3069C35.2789 10.7969 34.4718 10.7969 33.9818 10.3069L32.2523 8.60628C31.7623 8.08744 31.7623 7.28036 32.2523 6.79034L33.9818 5.06087C34.5006 4.57086 35.3077 4.57086 35.7977 5.06087L37.4984 6.76152C38.0172 7.30918 37.9884 8.11627 37.4984 8.60628Z" fill="#00B0CA"/>
<path d="M33.7511 7.53973C33.8952 7.68385 33.8952 7.94327 33.7511 8.0874C33.607 8.23152 33.3476 8.23152 33.2034 8.0874C33.0593 7.94327 33.0593 7.68385 33.2034 7.53973C33.3476 7.39561 33.607 7.39561 33.7511 7.53973Z" fill="#131336"/>
<path d="M35.2789 6.01239C35.423 6.15651 35.423 6.41593 35.2789 6.56005C35.1347 6.70418 34.8753 6.70418 34.7312 6.56005C34.5871 6.41593 34.5871 6.15651 34.7312 6.01239C34.8753 5.86827 35.1347 5.86827 35.2789 6.01239Z" fill="#131336"/>
<path d="M34.7602 9.47209C34.9671 9.47209 35.1349 9.30432 35.1349 9.09737C35.1349 8.89042 34.9671 8.72266 34.7602 8.72266C34.5532 8.72266 34.3854 8.89042 34.3854 9.09737C34.3854 9.30432 34.5532 9.47209 34.7602 9.47209Z" fill="#131336"/>
<path d="M36.5759 7.30744C36.72 7.45157 36.72 7.71099 36.5759 7.85511C36.4318 7.99923 36.1724 7.99923 36.0283 7.85511C35.8841 7.71099 35.8841 7.45157 36.0283 7.30744C36.1724 7.1345 36.4318 7.1345 36.5759 7.30744Z" fill="#131336"/>
<path d="M35.3366 2.23465L40.3232 7.27893C40.4674 7.42305 40.5827 7.56718 40.698 7.7113C41.9374 6.09713 41.8221 3.76234 40.3521 2.26347C38.8532 0.764597 36.5184 0.649299 34.9042 1.88875C35.0484 2.00405 35.1925 2.11935 35.3366 2.23465Z" stroke="#131336" stroke-width="2" stroke-miterlimit="10"/>
<path d="M34.443 13.131L29.4275 8.08666C29.2834 7.94254 29.1681 7.79842 29.0528 7.6543C27.8134 9.29729 27.9287 11.6321 29.4275 13.131C30.8976 14.6298 33.2324 14.7451 34.8754 13.5057C34.7312 13.3904 34.5871 13.2751 34.443 13.131Z" stroke="#131336" stroke-width="2" stroke-miterlimit="10"/>
<path d="M22.0561 30.9421C21.5382 31.5302 20.8646 32.1007 20.0677 32.6413L9.17225 31.3371C9.6253 30.7741 10.2859 30.1698 11.0698 29.5954L22.0561 30.9421Z" fill="#00B0CA"/>
<path d="M22.9138 28.2425C23.2138 29.0193 22.8718 29.9664 22.0562 30.941C21.5383 31.5291 20.8647 32.0997 20.0677 32.6402C19.504 33.0131 18.8949 33.3648 18.2078 33.7077C17.7995 33.9041 17.3457 34.0793 16.9243 34.242C16.4705 34.4173 16.0361 34.5462 15.6016 34.6751C12.1392 35.7403 9.06991 35.4118 8.457 33.8244C8.18314 33.1151 8.47337 32.2269 9.17232 31.336C9.62537 30.773 10.286 30.1687 11.0699 29.5943C11.6854 29.1626 12.4111 28.7272 13.1954 28.3467C13.6038 28.1502 14.0121 27.9538 14.4659 27.7785C14.9197 27.6033 15.3541 27.4744 15.7886 27.3455C19.2316 26.3266 22.3009 26.6551 22.9138 28.2425Z" stroke="#131336" stroke-width="2" stroke-miterlimit="10"/>
<path d="M22.9136 28.2423L24.1525 31.4509C24.7654 33.0383 22.7133 35.3442 19.4465 36.9161C19.0382 37.1125 18.6298 37.309 18.176 37.4842C17.7222 37.6595 17.2878 37.7884 16.8533 37.9173C13.3779 38.9487 10.3086 38.6202 9.69566 37.0328L8.45679 33.8242" stroke="#131336" stroke-width="2" stroke-miterlimit="10"/>
<path d="M49.5142 44.7141L42.9978 40.768C41.4463 39.8285 40.9536 37.8407 41.8893 36.2955L44.6184 31.7888C45.5385 30.2693 47.5283 29.7848 49.0798 30.7244L55.5962 34.6704C57.1219 35.5943 57.6404 37.5977 56.7203 39.1171L53.9912 43.6239C53.0296 45.1534 51.0399 45.6379 49.5142 44.7141Z" stroke="#131336" stroke-width="2" stroke-miterlimit="10"/>
<path d="M51.5658 35.4394L50.2402 34.6367L47.0293 39.9391L48.3549 40.7418L51.5658 35.4394Z" fill="#00B0CA"/>
<path d="M51.8789 40.1576L52.6816 38.832L46.7164 35.2198L45.9137 36.5454L51.8789 40.1576Z" fill="#00B0CA"/>
<path d="M54.9141 31.4777L52.2248 29.8492C51.5784 29.4577 50.7078 29.6697 50.318 30.3135L49.8033 31.1634L54.8717 34.2325L55.3863 33.3827C55.7762 32.7389 55.5606 31.8692 54.9141 31.4777Z" stroke="#131336" stroke-width="2" stroke-miterlimit="10"/>
<path d="M29.2708 55.2586L26.3377 58.8465C25.3763 60.0225 23.4564 60.5811 21.8618 59.2775C20.2672 57.9739 20.4131 55.965 21.3745 54.789L24.3076 51.2012L29.2708 55.2586Z" fill="#00B0CA"/>
<path d="M31.7619 47.0858L31.742 47.0695C30.3467 45.9288 28.2818 46.1361 27.1574 47.5115L24.208 51.1192L29.2708 55.2581L32.2202 51.6504C33.3446 50.2751 33.1372 48.2101 31.7619 47.0858Z" stroke="#191516" stroke-width="2" stroke-miterlimit="10"/>
<path d="M29.2707 55.2581L26.3376 58.8459C25.3762 60.0219 23.7804 60.3468 22.4597 59.7658C22.2115 59.6627 21.956 59.4871 21.7367 59.3078C20.3252 58.1871 20.1178 56.1221 21.2585 54.7269L24.1916 51.1391L29.2544 55.278L29.2707 55.2581Z" stroke="#191516" stroke-width="2" stroke-miterlimit="10"/>
<rect x="1.20508" y="72" width="5" height="12" fill="#00B0CA"/>
<path d="M47.0807 74.0611C46.46 72.9899 45.2378 72.0466 43.8114 71.5377C42.2949 70.9966 40.8067 71.0288 39.7238 71.6256L34.9233 74.0099C34.2675 72.7858 32.8716 70.7774 30.7712 70.7765H24.317C23.3104 70.7765 22.2986 70.5356 21.3905 70.0795L20.725 69.7457C18.588 68.6731 16.6699 68.3784 14.8617 68.8446C13.0026 69.3238 11.3579 70.5806 9.84474 72.6811H7.50154V71.509C7.50154 70.9998 7.08877 70.5871 6.57957 70.5871H0.921973C0.412767 70.5871 0 70.9998 0 71.509V84.301C0 84.8102 0.412767 85.223 0.921973 85.223H6.57957C7.08877 85.223 7.50154 84.8102 7.50154 84.301V82.888C10.1381 82.7893 12.9471 82.7607 13.4418 82.8845C13.4877 82.8985 13.5346 82.909 13.582 82.9158L27.8774 84.945C28.1716 84.9868 28.4673 85.0075 28.7626 85.0075C29.9021 85.0075 31.0321 84.6999 32.0168 84.1122L46.7556 75.3151C47.1888 75.0564 47.3337 74.4976 47.0807 74.0611ZM5.6576 83.3792H1.84395V72.431H5.6576V83.3792ZM31.0718 82.5287C30.1928 83.0534 29.1508 83.2634 28.1366 83.1193L13.8882 81.0967C12.9298 80.8778 9.6136 80.9615 7.50154 81.0421V74.5251H10.3252C10.6308 74.5251 10.9165 74.3736 11.0881 74.1207C13.5903 70.4327 16.3073 69.5916 19.8981 71.3938L20.5633 71.7275C21.7265 72.3116 23.0244 72.6205 24.3169 72.6205H30.7708C31.9766 72.6209 33.0107 74.2586 33.4627 75.201C33.2169 75.4526 32.8864 75.5983 32.5324 75.5983H23.8908C23.3816 75.5983 22.9688 76.0111 22.9688 76.5203C22.9688 77.0295 23.3816 77.4423 23.8908 77.4423H32.5324C33.6419 77.4423 34.6471 76.8661 35.2275 75.9176L40.5629 73.2675C40.5766 73.2607 40.5902 73.2535 40.6036 73.2459C41.6945 72.6345 43.74 73.195 44.903 74.2732L31.0718 82.5287Z" fill="#131336"/>
<path d="M20.6116 76.1688C20.4609 75.8069 20.087 75.5735 19.695 75.6019C19.3119 75.6298 18.981 75.9001 18.8746 76.2687C18.7683 76.6371 18.911 77.0487 19.2239 77.271C19.5346 77.4917 19.9545 77.4981 20.2724 77.2881C20.6357 77.0478 20.7759 76.5696 20.6116 76.1688Z" fill="#131336"/>
</svg>
