<svg width="105" height="105" viewBox="0 0 105 105" fill="none" xmlns="http://www.w3.org/2000/svg">
<path d="M53.1913 26.074C53.1606 26.6006 53.3881 27.1054 53.7994 27.4302C54.075 27.6496 54.4163 27.7594 54.7531 27.7594C54.9019 27.7594 55.055 27.7374 55.1994 27.6891L57.4744 27.0132C57.7675 26.9254 57.9338 26.6182 57.8463 26.3285C57.7588 26.0345 57.4525 25.8721 57.1638 25.9555L54.88 26.6358C54.6919 26.6928 54.5431 26.6138 54.4775 26.5611C54.3506 26.4602 54.2806 26.3066 54.2894 26.1486C54.5038 23.1421 54.2019 20.7895 53.3925 19.1524C53.2569 18.8803 52.9288 18.7661 52.6531 18.9022C52.3819 19.0383 52.2681 19.3675 52.4038 19.644C53.1256 21.0967 53.3925 23.2606 53.1913 26.074Z" fill="#00B0CA"/>
<path d="M38.0844 67.3444C37.7869 67.3137 37.5113 67.5375 37.485 67.8404C37.4631 68.0598 35.3369 90.0886 35.84 99.7357C35.8531 100.03 36.0981 100.258 36.3869 100.258C36.3956 100.258 36.4044 100.258 36.4175 100.258C36.7194 100.24 36.9556 99.9815 36.9381 99.6787C36.4394 90.1149 38.5569 68.1695 38.5788 67.9457C38.6094 67.6429 38.3906 67.3707 38.0844 67.3444Z" fill="#00B0CA"/>
<path d="M104.983 87.5561C104.882 84.3126 104.278 81.0602 103.793 78.9052C103.254 76.5219 102.939 75.4291 102.699 74.9331C97.8556 56.9862 89.4775 49.753 83.3044 46.843C77.7875 44.2447 73.0888 44.5212 71.435 44.7319L70.6125 30.1733C73.57 29.4272 74.6856 28.0183 75.0969 26.943C75.5738 25.7228 75.3244 24.349 74.5019 23.3835C76.5669 15.0486 73.7231 8.45622 66.4781 4.80451C66.3512 4.73867 66.255 4.69478 66.1938 4.65967C66.15 4.62017 66.0975 4.58506 66.0406 4.55872C56.245 0.415438 50.6669 2.93915 50.4306 3.04449C50.4 3.05766 50.3738 3.07522 50.3431 3.09277L46.7469 5.66477C44.7256 6.35385 43.3038 7.54329 42.5206 9.19797C41.2781 11.827 42.035 14.8072 42.3369 15.764C41.7988 16.4487 40.5169 18.3053 41.055 19.8503C41.3306 20.6491 42.0263 21.2065 43.12 21.5049C42.9888 22.0185 42.8356 22.8436 43.3125 23.6292C43.7369 24.3271 44.5375 24.8055 45.7494 25.0908C46.2613 29.3438 47.5038 33.768 50.2863 36.3137C51.87 37.7621 53.8081 38.4863 56.0788 38.4863C56.5206 38.4863 56.9756 38.4555 57.4394 38.4029C57.9469 40.0312 58.8044 43.6873 57.8944 45.0786C57.6931 45.3859 57.4219 45.5439 57.0413 45.579L56.945 45.5658C54.4469 45.2103 49.63 44.8855 45.4388 46.7245C42.0919 48.1685 39.2919 50.7932 37.5463 54.1157C35.1094 58.7287 29.8419 68.1959 28.0306 71.4394C26.4906 65.0401 24.5306 58.6321 24.1063 57.4514L23.8919 56.8106C22.5006 52.821 20.9431 50.4948 19.2588 49.8847C19.6481 49.4545 19.88 48.8971 19.88 48.3529C20.2563 37.4987 18.305 33.1096 18.1913 32.8551C18.1913 32.8507 18.1913 32.8507 18.1869 32.8507C18.1825 32.8463 18.1781 32.8419 18.1738 32.8331C18.1431 32.7761 18.1081 32.7234 18.06 32.6795C18.0425 32.6663 18.0206 32.6576 18.0031 32.6444C17.9638 32.6181 17.9244 32.5873 17.8806 32.5698C17.8456 32.5566 17.8063 32.5566 17.7669 32.5522C17.7363 32.5478 17.7056 32.5347 17.675 32.5347H17.6706C17.6531 32.5347 17.64 32.5434 17.6225 32.5478C17.5569 32.5566 17.4956 32.5742 17.4388 32.6049C17.1719 32.6444 16.9225 32.741 16.6994 32.8858C16.7125 32.8419 16.7256 32.798 16.7256 32.7497C16.7256 32.4469 16.4763 32.2011 16.1744 32.2011C16.065 32.2011 5.38563 32.2406 3.72313 32.2055C3.45625 32.1397 3.22875 32.2538 3.11063 32.3108C1.21188 33.351 0.4025 35.212 0.06125 36.5902C-0.0175 36.9106 0.048125 37.2441 0.249375 37.4987C0.450625 37.7621 0.76125 37.9113 1.1025 37.9113H1.7325C1.12875 38.9603 0.25375 40.9573 0 43.9287C0 43.9463 0 43.9594 0 43.977V50.6967C0 51.6315 0.91 52.3908 2.02563 52.3908H4.02938C4.0425 52.4347 4.05563 52.4742 4.07313 52.5181C4.09938 52.5971 4.71188 54.4274 6.79 55.9328C7.51188 56.4551 8.47875 56.9774 9.73438 57.3417C9.765 57.3549 9.79563 57.368 9.82625 57.3812C9.87438 57.3988 9.91813 57.4032 9.96625 57.4075C10.9813 57.6797 12.1713 57.8552 13.5713 57.8552C14.0088 57.8552 14.4725 57.8333 14.9494 57.7938C15.0063 57.943 16.625 62.3409 16.6775 74.007C16.3188 74.0026 15.5269 74.0641 14.8925 74.6215C14.3325 75.1131 14.0394 75.8416 14.0263 76.8028C14.0263 77.6412 14.2538 78.9754 14.2888 79.1378C14.4769 80.1956 14.9494 80.9725 15.6931 81.4509C16.0869 81.7011 16.5463 81.8634 17.0844 81.9468C17.2069 83.4698 17.8719 88.9518 21.28 91.9539C22.7544 93.2531 24.5481 93.9115 26.6263 93.9115C26.9325 93.9115 27.2431 93.8983 27.5625 93.8676L27.7375 93.85C29.1944 93.714 32.2306 93.4374 35.1925 88.1354C35.3413 87.8677 35.245 87.5341 34.9825 87.3849C34.72 87.2357 34.3831 87.3322 34.2344 87.5956C31.5613 92.3885 28.9144 92.6342 27.6413 92.7484L27.4619 92.7659C25.305 92.9634 23.4719 92.406 22.015 91.1244C19.0531 88.5173 18.3575 83.5928 18.2044 82.0127C19.1319 81.9864 20.2475 81.7932 21.63 81.4289C21.9231 81.3499 22.0981 81.0515 22.0238 80.7574C21.9494 80.4633 21.6431 80.2834 21.3544 80.3624C19.74 80.7881 17.4606 81.2621 16.2969 80.516C15.8156 80.2088 15.5181 79.6909 15.3781 78.9272C15.33 78.6814 15.1375 77.4744 15.1375 76.8072C15.1463 76.1884 15.3125 75.7319 15.6231 75.4554C15.9994 75.1218 16.5113 75.1043 16.6906 75.1087C16.6906 75.2228 16.6906 75.3325 16.6906 75.4466C16.6906 75.7495 16.9356 75.9996 17.2375 76.004C17.2375 76.004 17.2375 76.004 17.2419 76.004C17.5306 76.004 17.7625 75.7758 17.7844 75.4905C17.8763 75.5651 17.9813 75.6178 18.1081 75.6222C18.1344 75.6222 18.2306 75.6266 18.3881 75.6266C19.565 75.6266 24.0931 75.4773 26.7356 73.2565C26.9675 73.059 26.9981 72.7122 26.8056 72.4796C26.6131 72.247 26.2631 72.2163 26.0313 72.4094C23.3669 74.6522 18.2 74.5205 18.1475 74.5205C18.0163 74.5118 17.8938 74.5513 17.7975 74.6259C17.8019 63.7015 16.485 58.8647 16.0913 57.6753C16.7475 57.5919 17.4344 57.4778 18.1606 57.3198C18.4581 57.2539 18.6463 56.9599 18.5806 56.6614C18.515 56.3629 18.2263 56.1742 17.9244 56.2401C14.595 56.9686 12.1013 56.8545 10.2419 56.3498C10.2419 56.3498 10.2419 56.3498 10.2375 56.3498C6.50125 54.8882 6.09875 50.1085 6.0725 48.4231C6.0725 48.4143 6.0725 48.4099 6.0725 48.4056C6.06813 48.0588 6.08125 47.8438 6.08125 47.8262C6.08125 47.1634 6.2125 46.7245 6.45313 46.5841C6.67188 46.4568 7.035 46.5446 7.30625 46.6543C7.27563 47.7253 7.25375 49.2614 7.25375 49.854C7.25375 53.058 8.995 54.2474 10.4738 54.6819C10.5613 54.7302 10.6575 54.7565 10.7538 54.7565C10.8938 54.7565 11.0338 54.7039 11.1431 54.5942C11.3575 54.3791 11.3575 54.028 11.1431 53.8129C11.0513 53.7207 10.9463 53.6373 10.7713 53.6154C9.14813 53.1326 8.36063 51.9036 8.36063 49.8496C8.36063 48.9674 8.40438 46.5578 8.44375 45.8467C8.51375 45.1445 8.77625 44.5739 9.065 44.5125C9.1525 44.4949 9.3625 44.4598 9.44125 44.5256C9.74313 44.7846 9.66438 46.1452 9.6075 47.2425C9.57688 47.7999 9.54625 48.3792 9.5375 48.963C9.4325 50.5167 9.8 51.7017 10.6225 52.4874C11.585 53.4003 12.8713 53.4662 13.4006 53.453C13.6894 53.5495 14 53.4003 14.1006 53.1106C14.1269 53.0272 14.1313 52.9482 14.1225 52.8649C14.1225 52.8517 14.1269 52.8385 14.1269 52.821C14.0963 52.562 13.8906 52.3777 13.6413 52.3469C12.88 51.9124 12.3025 49.8847 12.8538 45.3552L12.8625 45.2761C12.9194 44.8855 13.09 44.631 13.2213 44.5563C13.2606 44.5344 13.2781 44.5388 13.3044 44.5519C13.4356 44.6134 13.7244 45.004 13.58 47.2776C13.4663 49.3624 13.895 50.7054 14.8531 51.276C16.1088 52.0222 17.6794 51.0697 17.745 51.0302C17.7625 51.0214 17.7887 51.0039 17.8019 50.9907C17.8194 50.9776 18.2 50.6923 18.8081 50.8722C19.5913 51.1048 21.1575 52.2328 22.8725 57.1574L23.0869 57.8026C23.5156 59.0052 25.5194 65.5624 27.0638 72.0363C27.0856 72.168 27.1469 72.3128 27.2781 72.6069C27.3044 72.664 27.3306 72.721 27.3525 72.7825C27.3394 72.958 27.4094 73.1248 27.545 73.2389C27.8906 74.0904 28.1881 75.0341 28.2013 75.8855C28.1925 75.9206 28.1969 75.9602 28.1969 75.9953C28.1881 76.7809 27.9256 77.4832 27.2169 77.944C27.1688 77.9747 27.125 78.0142 27.09 78.0581C26.81 78.2161 25.8738 78.6068 25.0863 78.9052C24.8019 79.0149 24.6619 79.331 24.7669 79.6162C24.85 79.8357 25.06 79.9718 25.2831 79.9718C25.3488 79.9718 25.4144 79.9586 25.48 79.9366C27.2869 79.2432 27.7769 78.9798 27.9431 78.7823C28.2275 78.5804 28.4506 78.3566 28.6344 78.1152L29.2119 80.7662C29.2688 81.0251 29.4963 81.2007 29.75 81.2007C29.7894 81.2007 29.8288 81.1963 29.8681 81.1875C30.1656 81.1217 30.3538 80.8276 30.2881 80.5292L29.295 75.9689C29.295 74.797 28.8881 73.6032 28.5513 72.7868C29.6625 70.7986 35.8313 59.7381 38.5306 54.6249C40.1581 51.5262 42.77 49.0771 45.8894 47.734C49.3719 46.2022 53.3619 46.2681 55.8863 46.5402C51.1481 51.8773 48.2913 62.2355 47.3944 77.3646C46.6944 89.1669 47.5125 99.6392 47.5213 99.7445C47.5431 100.034 47.7838 100.254 48.0681 100.254C48.0813 100.254 48.0988 100.254 48.1119 100.254C48.4138 100.227 48.6413 99.964 48.615 99.6611C48.5844 99.253 45.5088 58.9306 57.0938 46.865C57.9775 47.4882 60.2131 48.805 63.2756 48.805C65.3319 48.805 67.76 48.2037 70.3981 46.4085C70.4288 50.1261 70.3588 63.482 67.9481 76.8775C67.9219 77.0179 67.9569 77.154 68.0269 77.2681H62.1731C61.8756 77.2681 61.6306 77.5051 61.6219 77.8036L61.5431 80.7003C61.5431 80.7135 61.5344 80.7223 61.5344 80.7355C61.5344 80.7442 61.5388 80.753 61.5388 80.7618L61.2456 91.7564C61.2369 91.774 61.2238 91.7959 61.2194 91.8135C61.0312 92.4543 61.1363 93.0512 61.5213 93.5472C61.8538 93.9685 62.3875 94.2889 63.0263 94.5303C63.0044 94.6093 63 94.6927 63.0175 94.7761C63.245 96.0358 64.2731 96.6634 65.4719 96.9531C65.4281 97.471 65.6075 97.8441 65.8044 98.0942C66.1106 98.4849 66.5831 98.735 67.1038 98.8931C67.0819 99.2398 67.2088 99.7006 69.8031 100.245C69.825 100.249 69.8425 100.254 69.8644 100.254L83.2519 101.553C83.2738 101.575 83.2913 101.597 83.3219 101.614C83.4225 101.676 85.3519 102.812 87.3731 102.812C87.8938 102.812 88.4231 102.738 88.9263 102.549C90.0988 102.11 90.9344 101.158 91.4113 99.7094C91.4419 99.6172 91.4463 99.5251 91.4288 99.4373C91.4375 99.3934 91.4463 99.3363 91.4594 99.2661C91.5775 98.656 91.8488 97.2208 91.4244 95.1974C91.3631 94.899 91.07 94.7103 90.7725 94.7717C90.475 94.8332 90.2825 95.1272 90.3481 95.4257C90.7244 97.2296 90.4925 98.4673 90.3788 99.0598C90.3525 99.2003 90.3263 99.3451 90.3263 99.4812C89.9544 100.539 89.3681 101.206 88.5456 101.513C87.5 101.904 86.2619 101.645 85.3213 101.316C86.6294 99.8806 87.045 97.8353 86.5025 95.3774C86.1175 93.3584 84.5644 91.7828 82.6131 91.2648C82.9456 90.8698 83.6938 90.1237 84.7656 89.9306C85.0719 89.8735 85.3913 89.8735 85.7106 89.913C85.8025 89.9876 85.9163 90.0315 86.0431 90.0315C86.0606 90.0315 86.0738 90.0315 86.0913 90.0315L86.2356 90.0183C86.7913 90.1764 87.3644 90.466 87.9506 90.8962C88.0163 90.9444 88.095 90.9796 88.1738 90.9927C88.5194 91.1902 89.67 92.1383 89.8013 92.8361C89.8538 93.0995 90.0813 93.2838 90.3394 93.2838C90.3744 93.2838 90.4094 93.2794 90.4444 93.275C90.7419 93.218 90.9388 92.9283 90.8819 92.6299C90.6413 91.3746 88.9394 90.093 88.5019 89.935C88.4538 89.8998 88.4013 89.8691 88.3531 89.8384L92.9556 89.4434C93.2575 89.417 93.4806 89.1493 93.4544 88.8465C93.4281 88.5436 93.1744 88.311 92.8594 88.3461L90.0025 88.5919V77.8255C90.0025 77.5227 89.7575 77.2725 89.4513 77.2725H88.375L89.6613 64.7856C89.6788 64.632 89.6263 64.4739 89.5213 64.3598C89.4163 64.2457 89.2675 64.1755 89.1144 64.1755H84.2538L72.5113 63.4557C72.3625 63.4469 72.2138 63.4996 72.1044 63.6005C71.995 63.7015 71.9294 63.8463 71.9294 63.9955L71.7281 77.2681H68.9456C68.9806 77.211 69.0113 77.1452 69.0244 77.075C71.5838 62.828 71.5225 48.6206 71.4831 45.8423C72.905 45.658 77.5469 45.3288 82.9019 47.8701C93.6688 52.979 99.0369 65.5624 101.64 75.2184C101.658 75.2755 101.679 75.3281 101.71 75.3764C102.248 76.7414 105.897 89.8165 102.414 95.4652C101.417 97.0848 99.9513 97.9143 97.9344 98.0108C97.8819 98.0152 97.8294 98.024 97.7813 98.0416C97.3481 98.125 94.5569 98.5551 92.8244 98.8184C92.5225 98.8623 92.3169 99.1432 92.365 99.4461C92.4044 99.7182 92.6406 99.9157 92.9075 99.9157C92.9338 99.9157 92.9644 99.9157 92.9906 99.9113C92.9906 99.9113 94.2594 99.7182 95.5238 99.5207C96.7575 99.3276 97.4881 99.2178 97.9213 99.1125C97.9344 99.1125 97.9519 99.1125 97.965 99.1125V99.0993C97.9738 99.0993 97.9825 99.0949 97.9913 99.0949V99.1125C101.343 98.9589 105.276 96.8214 104.983 87.5561ZM18.7819 48.3309C18.7819 48.6952 18.5719 49.0859 18.235 49.336C17.3994 49.9988 16.205 49.9768 16.1919 49.9768C16.1831 49.9768 16.1788 49.9812 16.17 49.9812C16.03 48.2914 15.6931 43.0114 16.7475 40.7335C16.8394 40.5579 16.94 40.3999 17.0363 40.2419C17.4825 39.5177 17.9331 38.7715 18.1431 36.8886C18.5806 39.3026 18.9656 43.0333 18.7819 48.3309ZM16.1788 33.2896C16.1963 33.2896 16.2138 33.2808 16.2313 33.2764C15.3081 34.2727 14.8663 36.0503 14.7131 36.7877H10.4606C10.8938 35.7387 11.5369 34.58 12.5125 33.43C12.5475 33.3905 12.565 33.3423 12.5869 33.2984C14.5031 33.2984 16.0125 33.294 16.1788 33.2896ZM6.685 37.5865C6.69813 37.5602 6.70688 37.5294 6.71563 37.5031C7.58188 34.7994 8.95125 33.5047 8.96875 33.4871C9.02563 33.4344 9.065 33.3774 9.09563 33.3115C9.8 33.3115 10.5131 33.3115 11.2044 33.3071C9.24875 35.8791 8.70188 38.4336 8.5575 39.8205C8.55313 39.8249 8.53125 39.8337 8.50938 39.8337L6.2125 39.8249C6.19938 39.8118 6.18625 39.7766 6.18625 39.7459C6.30875 38.9471 6.48375 38.2273 6.685 37.5865ZM3.59625 33.2896C3.60063 33.2896 3.605 33.2896 3.60938 33.2896C4.095 33.3028 5.71813 33.3071 7.65188 33.3071C7.14 33.9523 6.38313 35.0979 5.7925 36.7877H1.1375C1.435 35.6509 2.09125 34.1411 3.59625 33.2896ZM5.11 52.1538C4.34 50.0207 4.65063 49.3009 4.81688 49.0903C4.86063 49.0332 4.9175 48.9937 4.97 48.963C5.005 49.6916 5.10563 50.6835 5.3725 51.7456C5.565 52.5181 5.82313 53.2248 6.13813 53.8612C5.4075 52.9965 5.14063 52.2504 5.11 52.1538ZM14.6606 47.3522C14.7613 45.7721 14.7831 44.0472 13.7506 43.56C13.4006 43.3976 13.02 43.4108 12.6788 43.5951C12.2063 43.8541 11.8606 44.4203 11.7513 45.1401L11.7381 45.2323C11.445 47.655 11.3444 50.4904 12.0969 52.1494C11.8388 52.0485 11.5763 51.9036 11.3488 51.6886C10.7756 51.1399 10.5263 50.249 10.6094 49.0156C10.6181 48.4275 10.6488 47.8613 10.6794 47.3127C10.7756 45.5702 10.8456 44.3062 10.1281 43.6961C9.79563 43.4108 9.34938 43.323 8.81125 43.4415C8.05875 43.5907 7.52938 44.3588 7.35438 45.5175C6.92563 45.399 6.37875 45.3508 5.88875 45.6273C5.27188 45.9784 4.95688 46.7202 4.95688 47.7911C4.95688 47.7955 4.95688 47.8043 4.95688 47.813C4.62 47.8789 4.2525 48.0413 3.96813 48.388C3.45625 49.0025 3.36875 49.9637 3.68813 51.2936H2.02563C1.49625 51.2936 1.1025 50.9819 1.1025 50.7054V44.0033C1.4 40.5491 2.60313 38.5126 3.01875 37.8981H5.44688C5.30688 38.4248 5.18875 38.9954 5.09688 39.6099C5.0575 39.9654 5.16688 40.3121 5.39 40.5667C5.60438 40.8081 5.90625 40.9397 6.23 40.9397H8.505C9.13063 40.9397 9.625 40.4745 9.6425 39.8732C9.69938 39.3685 9.8175 38.6882 10.0581 37.8981H14.7438C15.2644 37.8981 15.7063 37.525 15.7894 37.0335C16.0475 35.7387 16.5638 34.4351 17.1588 33.9128C17.2069 37.8542 16.6425 38.7715 16.0956 39.6625C15.9863 39.8425 15.8769 40.0224 15.7588 40.2419C14.5906 42.7744 14.91 48.1466 15.0631 49.9988C14.7394 49.4897 14.595 48.5811 14.6606 47.3522ZM80.5219 78.3741V80.1868H62.65L62.6981 78.3741H80.5219ZM80.5263 91.0234C79.8569 90.9401 79.0738 90.7469 78.33 90.3431C78.2906 90.3212 78.2556 90.3036 78.2119 90.2861C75.5344 89.0308 74.1038 86.8319 73.5656 86.0023C73.3338 85.6468 73.1194 85.3133 72.6863 85.4537C72.6688 85.4581 72.6513 85.4669 72.6381 85.4713C71.8463 85.8268 71.3781 86.3491 71.2338 87.0294C71.0325 87.9994 71.5356 89.1537 72.73 90.4616L72.7431 90.4748C72.94 90.8259 72.9575 91.041 72.9094 91.1244C72.7781 91.3438 72.135 91.4404 71.7194 91.4229C68.5256 91.436 63.9319 91.4492 62.3481 91.436L62.6194 81.2885H80.5219V91.0059C80.5219 91.0103 80.5263 91.0147 80.5263 91.0234ZM85.4219 95.6012C85.8944 97.7299 85.5925 99.3978 84.5294 100.57L70 99.1608C69.9256 99.1432 69.8556 99.1301 69.7813 99.1125C69.8163 99.1081 69.8425 99.1037 69.8688 99.0993C70.1444 99.0511 70.3238 98.915 70.3981 98.6999C70.455 98.5288 70.4244 98.34 70.3194 98.1952C70.2144 98.0504 70.035 97.9714 69.8644 97.9714C69.37 97.9845 68.95 98.0021 68.5956 98.0328C67.865 97.9845 67.0031 97.8177 66.6794 97.4271C66.6444 97.3832 66.5744 97.2998 66.5656 97.133C68.1975 97.291 69.7988 97.0189 69.9256 96.997C70.2056 96.9487 70.4025 96.6897 70.3806 96.4044C70.3544 96.1192 70.1181 95.8997 69.8338 95.8997H66.1719C66.1019 95.8997 66.0363 95.9129 65.975 95.9348C65.345 95.8119 64.7938 95.5969 64.4525 95.2457C65.0563 95.2501 66.0275 95.2501 67.5894 95.2413C68.5388 95.2677 69.2781 95.237 69.4838 95.2282C69.7813 95.215 70.0175 94.9604 70.0088 94.662C70 94.3635 69.7638 94.1309 69.4531 94.1265C68.9019 94.1309 68.2544 94.1353 67.5981 94.1397C65.485 94.0695 63.0613 93.7271 62.3919 92.8669C62.3175 92.7703 62.2738 92.6737 62.2519 92.5684H63.3544C63.3938 92.5684 63.4331 92.5552 63.4681 92.5465C64.9075 92.5552 67.3838 92.5465 71.7063 92.5245C71.9731 92.5377 73.3381 92.5596 73.8588 91.695C74.1563 91.199 74.095 90.5889 73.6794 89.8779L73.675 89.8823C73.6444 89.8296 73.605 89.7726 73.5525 89.7155C72.2706 88.311 72.2619 87.5254 72.3188 87.2532C72.3363 87.1655 72.3844 86.9328 72.7125 86.6958C73.3425 87.6614 74.9 89.9525 77.7744 91.2912C77.7875 91.2956 77.8006 91.3043 77.8138 91.3087V91.3131C79.0825 92.0066 80.4213 92.1734 81.3225 92.1909C83.3219 92.2261 85.05 93.6525 85.4219 95.6012ZM86.3275 88.9035C85.7281 88.7631 85.1375 88.7367 84.5556 88.8465C82.9719 89.1405 81.9656 90.2861 81.6244 90.7338V81.2885H88.9044V88.6797L86.3275 88.9035ZM88.9044 80.1824H81.6244V78.3698H88.9044V80.1824ZM87.2725 77.2681H84.2581L84.7613 65.2771H88.5106L87.2725 77.2681ZM73.0231 64.5925L83.6588 65.242L83.1556 77.2725H72.8306L73.0231 64.5925ZM58.2094 46.3032C58.4456 46.1408 58.6513 45.9345 58.8175 45.6799C60.06 43.7795 58.9794 39.6757 58.5419 38.2273C58.5506 38.2273 58.5594 38.2229 58.5725 38.2229C58.6031 38.2185 58.6294 38.2097 58.66 38.1966C58.6994 38.1878 58.7563 38.179 58.835 38.1615C64.0281 37.1871 66.9769 33.9348 68.5344 31.376C68.6919 31.117 68.6131 30.7747 68.3506 30.6166C68.0925 30.4586 67.7513 30.5376 67.5938 30.801C66.15 33.1667 63.4244 36.1776 58.6294 37.0774C58.4762 37.1081 58.38 37.1256 58.3056 37.1476C55.3263 37.7445 52.8806 37.1871 51.03 35.4973C48.7288 33.3905 47.2413 29.4009 46.7294 23.954C46.2875 19.2358 46.7031 14.9389 46.7906 14.1269C46.8038 13.9952 46.8081 13.8943 46.8081 13.8109C46.8081 13.7055 46.8081 13.7055 46.8825 13.587C47.0181 13.3632 47.1013 13.1086 47.18 12.8628C47.3681 12.2791 47.5169 11.8182 48.265 11.59C48.8031 11.4188 50.0194 11.9543 50.7588 12.4152L50.82 12.4898C52.1631 14.1488 54.4163 16.9183 58.1525 16.4268C59.3163 16.2644 60.3881 16.5365 61.1975 17.2036C62.5275 18.2307 64.6888 19.2446 67.4056 18.257C67.69 18.1517 67.8388 17.8357 67.7338 17.5504C67.6288 17.2651 67.3138 17.1159 67.0294 17.2212C64.7806 18.0376 62.9825 17.1861 61.88 16.3434C60.8475 15.4875 59.4694 15.132 58.0038 15.3339C54.8756 15.7421 52.9463 13.3676 51.6731 11.7919L51.5506 11.6427C51.5156 11.5988 51.4675 11.5593 51.4194 11.5242C51.0519 11.2872 49.1575 10.1372 47.9325 10.5322C46.6463 10.9229 46.3356 11.8841 46.13 12.5205C46.0688 12.7136 46.0075 12.898 45.9419 13.0077C45.7275 13.35 45.71 13.5475 45.7056 13.7889C45.7056 13.846 45.7056 13.9118 45.6925 14.004C45.6006 14.8643 45.1894 19.1568 45.6225 23.9145C44.9356 23.7039 44.4719 23.4186 44.2488 23.0543C43.9688 22.5934 44.1131 22.0448 44.2181 21.641C44.2925 21.3557 44.45 20.7632 43.9075 20.5569C43.8769 20.5437 43.8463 20.5349 43.8156 20.5306C42.8531 20.3506 42.2713 19.9995 42.0963 19.486C41.7331 18.4457 42.8969 16.7867 43.3738 16.238C43.505 16.0844 43.5444 15.8694 43.4744 15.6806C43.4613 15.6499 42.2406 12.3625 43.5181 9.6676C44.1788 8.27188 45.4081 7.27117 47.1756 6.68303C47.2281 6.66548 47.2763 6.63914 47.32 6.60842L50.9381 4.02326C51.4413 3.81258 56.6519 1.80677 65.5331 5.53749C65.6338 5.60771 65.7738 5.67794 65.9838 5.78327C74.3356 9.99239 74.795 17.1202 73.5525 22.6198C73.1063 22.4047 72.6206 22.3345 72.1 22.4091C70.0263 22.7075 68.11 25.3278 68.0313 25.4419C67.8519 25.6877 67.9088 26.0345 68.1538 26.2144C68.3988 26.3944 68.7444 26.3373 68.9238 26.0915C69.3963 25.4375 70.9231 23.6951 72.2575 23.5063C72.6731 23.4449 73.0319 23.5415 73.3556 23.7916C74.1606 24.4281 74.4538 25.5604 74.0688 26.5392C73.7319 27.417 72.7388 28.5889 69.9169 29.199C69.65 29.256 69.4663 29.4974 69.4838 29.7696L70.35 45.0742C64.5969 49.3712 60.0075 47.4224 58.2094 46.3032Z" fill="#00B0CA"/>
<path d="M61.0663 28.2992C60.935 28.2158 60.7731 28.1939 60.6244 28.2378L53.2131 30.3489C53.0644 30.3928 52.9375 30.4981 52.8675 30.6386C52.7975 30.779 52.7931 30.9414 52.8544 31.0907C53.41 32.4557 54.5913 33.4652 56.035 33.7899C56.3369 33.8514 56.6388 33.8821 56.9363 33.8821C58.9925 33.8821 60.8081 32.4688 61.2675 30.384C61.4075 29.831 61.4206 29.2516 61.3156 28.6723C61.2894 28.5143 61.1975 28.3826 61.0663 28.2992ZM60.1956 30.1295C59.7975 31.9378 58.065 33.0701 56.2625 32.7102C55.3875 32.5127 54.635 31.9729 54.1581 31.2311L60.2831 29.4843C60.2788 29.6993 60.2481 29.9144 60.1956 30.1295Z" fill="#00B0CA"/>
<path d="M80.3163 69.7057C80.0713 69.7057 79.8263 69.6969 79.5813 69.6838C79.3494 69.675 79.1175 69.6662 78.8856 69.6618V68.2266C78.8856 67.7965 78.5969 67.5068 78.1681 67.5068C77.84 67.5068 77.5294 67.5068 77.2275 67.4673L77.1575 67.4629C76.7288 67.4629 76.44 67.7526 76.44 68.1827V69.6574H75.0138C74.445 69.6574 74.2963 70.0832 74.2963 70.3377C74.2963 70.6713 74.2962 70.9829 74.2569 71.3341L74.2525 71.3955C74.2525 71.7071 74.4275 72.0758 74.9306 72.0758C75.1713 72.0758 75.4119 72.0846 75.6569 72.0978C75.8931 72.1065 76.1294 72.1153 76.4006 72.1197V73.5944C76.4006 74.165 76.825 74.3142 77.0788 74.3142C77.3981 74.3142 77.7613 74.3142 78.0631 74.3537L78.1331 74.3581C78.5181 74.3581 78.8113 74.0685 78.8113 73.6778C78.8113 73.432 78.82 73.1994 78.8331 72.9624C78.8419 72.7122 78.855 72.4621 78.855 72.2031H80.2856C80.78 72.2031 81.0031 71.852 81.0031 71.5228C81.0031 71.1936 81.0031 70.882 81.0425 70.5748L81.0469 70.5089C81.0338 69.7628 80.4825 69.7057 80.3163 69.7057ZM79.8963 71.1014H78.8419C78.1113 71.1014 77.7438 71.4701 77.7438 72.2031C77.7438 72.4489 77.735 72.6815 77.7219 72.9185C77.7175 73.0195 77.7131 73.1204 77.7088 73.2214C77.6388 73.217 77.5644 73.217 77.4944 73.217V72.0758C77.4944 71.4219 77.105 71.0181 76.4794 71.0181C76.2081 71.0181 75.9456 71.0093 75.6919 70.9961C75.5869 70.9917 75.4819 70.9873 75.3769 70.9829C75.3812 70.9083 75.3813 70.8381 75.3813 70.7679H76.5188C77.1138 70.7679 77.5338 70.3509 77.5338 69.7496V68.6041C77.6169 68.6085 77.7 68.6085 77.7831 68.6128V69.7101C77.7831 70.3816 78.1506 70.7679 78.7981 70.7679C79.0431 70.7679 79.2881 70.7767 79.5331 70.7898C79.6556 70.7942 79.7825 70.7986 79.905 70.803C79.9006 70.9039 79.8963 71.0005 79.8963 71.1014Z" fill="#00B0CA"/>
</svg>
