<svg width="40" height="40" viewBox="0 0 40 40" fill="none" xmlns="http://www.w3.org/2000/svg">
<circle cx="20" cy="20" r="20" fill="white"/>
<path d="M25 19.1667H20.8333V15.0001C20.8333 14.5001 20.5 14.1667 20 14.1667C19.5 14.1667 19.1666 14.5001 19.1666 15.0001V19.1667H15C14.5 19.1667 14.1666 19.5001 14.1666 20.0001C14.1666 20.5001 14.5 20.8334 15 20.8334H19.1666V25.0001C19.1666 25.5001 19.5 25.8334 20 25.8334C20.5 25.8334 20.8333 25.5001 20.8333 25.0001V20.8334H25C25.5 20.8334 25.8333 20.5001 25.8333 20.0001C25.8333 19.5001 25.5 19.1667 25 19.1667Z" fill="#00B0CA"/>
</svg>
