<svg width="32" height="32" viewBox="0 0 32 32" fill="none" xmlns="http://www.w3.org/2000/svg">
<path d="M26.6041 13.7629H19.7551V5.40525C19.7551 4.069 18.6902 3 17.3591 3H6.39593C5.06486 3 4 4.069 4 5.40525V25.5948C4 26.931 5.06486 28 6.39593 28H17.3591C18.6902 28 19.7551 26.931 19.7551 25.5948V24.9145H26.6041C27.9351 24.9145 29 23.8455 29 22.5092V16.1681C29 14.8319 27.9109 13.7629 26.6041 13.7629ZM27.0639 19.0107V22.5092C27.0639 22.7765 26.8461 22.9951 26.5799 22.9951H19.7551V19.0107H27.0639ZM27.0639 16.1681V17.0671H19.7551V15.6822H26.6041C26.8461 15.6822 27.0639 15.9009 27.0639 16.1681ZM17.8432 5.40525V25.5948C17.8432 25.862 17.6254 26.0807 17.3591 26.0807H6.39593C6.12972 26.0807 5.91191 25.862 5.91191 25.5948V5.40525C5.91191 5.138 6.12972 4.91934 6.39593 4.91934H17.3591C17.6254 4.91934 17.8432 5.138 17.8432 5.40525Z" fill="#0D1436"/>
<path d="M9.92889 16.6057C9.85629 16.2656 9.66268 15.9983 9.37226 15.8282C9.08185 15.6582 8.74303 15.6096 8.42841 15.7068C7.79917 15.9011 7.46035 16.5571 7.65397 17.1888C7.82337 17.699 8.2832 18.0148 8.79143 18.0148C8.91244 18.0148 9.03344 17.9905 9.13025 17.9662C9.68688 17.7962 10.0257 17.2131 9.92889 16.6057Z" fill="#452FBA"/>
<path d="M14.7692 18.0148C14.8902 18.0148 15.0112 17.9905 15.108 17.9662C15.6888 17.7719 16.0276 17.2131 15.9308 16.6057C15.8582 16.2656 15.6646 15.9983 15.3742 15.8282C15.0838 15.6582 14.745 15.6096 14.4304 15.7068C13.8011 15.9011 13.4623 16.5571 13.6559 17.1888C13.8011 17.699 14.261 18.0148 14.7692 18.0148Z" fill="#452FBA"/>
<path d="M12.9289 16.6057C12.8563 16.2656 12.6627 15.9983 12.3723 15.8282C12.0818 15.6582 11.743 15.6096 11.4284 15.7068C10.7992 15.9011 10.4604 16.5571 10.654 17.1888C10.8234 17.699 11.2832 18.0148 11.7914 18.0148C11.9124 18.0148 12.0334 17.9905 12.1302 17.9662C12.6869 17.7962 13.0499 17.2131 12.9289 16.6057Z" fill="#452FBA"/>
<path d="M9.92889 19.7151C9.85629 19.3749 9.66268 19.1077 9.37226 18.9376C9.08185 18.7675 8.74303 18.719 8.42841 18.8161C7.79917 19.0105 7.46035 19.6665 7.65397 20.2982C7.82337 20.8084 8.2832 21.1242 8.79143 21.1242C8.91244 21.1242 9.03344 21.0999 9.13025 21.0756C9.68688 20.9055 10.0257 20.3225 9.92889 19.7151Z" fill="#452FBA"/>
<path d="M15.9308 19.7151C15.8582 19.3749 15.6646 19.1077 15.3742 18.9376C15.0838 18.7675 14.745 18.719 14.4304 18.8161C13.8011 19.0105 13.4623 19.6665 13.6559 20.2982C13.8253 20.8084 14.2852 21.1242 14.7934 21.1242C14.9144 21.1242 15.0354 21.0999 15.1322 21.0756C15.713 20.9055 16.0519 20.3225 15.9308 19.7151Z" fill="#452FBA"/>
<path d="M12.9289 19.7151C12.8563 19.3749 12.6627 19.1077 12.3723 18.9376C12.0818 18.7675 11.743 18.719 11.4284 18.8161C10.7992 19.0105 10.4604 19.6665 10.654 20.2982C10.8234 20.8084 11.2832 21.1242 11.7914 21.1242C11.9124 21.1242 12.0334 21.0999 12.1302 21.0756C12.6869 20.9055 13.0499 20.3225 12.9289 19.7151Z" fill="#452FBA"/>
<path d="M9.92889 22.8254C9.85629 22.4853 9.66268 22.218 9.37226 22.048C9.08185 21.8779 8.74303 21.8293 8.42841 21.9265C7.79917 22.1208 7.46035 22.7768 7.65397 23.4085C7.82337 23.9187 8.2832 24.2346 8.79143 24.2346C8.91244 24.2346 9.03344 24.2103 9.13025 24.186C9.68688 24.0159 10.0257 23.4328 9.92889 22.8254Z" fill="#452FBA"/>
<path d="M15.9308 22.8254C15.8582 22.4853 15.6646 22.218 15.3742 22.048C15.0838 21.8779 14.745 21.8293 14.4304 21.9265C13.8011 22.1208 13.4623 22.7768 13.6559 23.4085C13.8253 23.9187 14.2852 24.2346 14.7934 24.2346C14.9144 24.2346 15.0354 24.2103 15.1322 24.186C15.713 24.0159 16.0519 23.4328 15.9308 22.8254Z" fill="#452FBA"/>
<path d="M12.9289 22.8254C12.8563 22.4853 12.6627 22.218 12.3723 22.048C12.0818 21.8779 11.743 21.8293 11.4284 21.9265C10.7992 22.1208 10.4604 22.7768 10.654 23.4085C10.8234 23.9187 11.2832 24.2346 11.7914 24.2346C11.9124 24.2346 12.0334 24.2103 12.1302 24.186C12.6869 24.0159 13.0499 23.4328 12.9289 22.8254Z" fill="#452FBA"/>
<path d="M15.085 7.20312H8.72009C8.26027 7.20312 7.87305 7.59185 7.87305 8.05347V13.1555C7.87305 13.6171 8.26027 14.0058 8.72009 14.0058H15.085C15.5449 14.0058 15.9321 13.6171 15.9321 13.1555V8.05347C15.9321 7.59185 15.5449 7.20312 15.085 7.20312Z" fill="#452FBA"/>
</svg>
