<svg width="105" height="105" viewBox="0 0 105 105" fill="none" xmlns="http://www.w3.org/2000/svg">
<path d="M73.0909 69.9914C73.0909 61.8663 79.697 55.2571 87.8182 55.2571C91.2121 55.2571 94.3333 56.4092 96.8485 58.3495V27.8805C96.8485 24.1212 93.8182 21.0894 90.0606 21.0894H39.5454C38.3939 21.0894 36.4545 20.665 36.4242 21.6655C36.3636 24.6972 30.7879 24.5759 30.8485 21.5442C30.8485 20.8772 29.6061 21.0894 28.9091 21.0894H8.78788C5.0303 21.0894 2 24.1212 2 27.8805V38.2491C8.15151 38.2491 13.1212 43.2211 13.1212 49.3755C13.1212 55.53 8.15151 60.502 2 60.502V69.8398C2 73.5991 5.0303 76.6309 8.78788 76.6309H28.9091C29.6061 76.6309 30.8788 76.8128 30.8485 76.1761C30.7879 73.3263 36.3636 73.205 36.4242 76.0548C36.4545 77.0553 38.4242 76.6309 39.5454 76.6309H74.6667C73.6667 74.6299 73.0909 72.3561 73.0909 69.9914ZM33.2424 68.8999C31.7273 68.8999 30.4848 67.6569 30.4848 66.1411C30.4848 64.6252 31.7273 63.3822 33.2424 63.3822C34.7576 63.3822 36 64.6252 36 66.1411C36 67.6872 34.7879 68.8999 33.2424 68.8999ZM33.2424 57.3793C31.7273 57.3793 30.4848 56.1363 30.4848 54.6205C30.4848 53.1046 31.7273 51.8616 33.2424 51.8616C34.7576 51.8616 36 53.1046 36 54.6205C36 56.1363 34.7879 57.3793 33.2424 57.3793ZM33.2424 45.8284C31.7273 45.8284 30.4848 44.5854 30.4848 43.0695C30.4848 41.5537 31.7273 40.3106 33.2424 40.3106C34.7576 40.3106 36 41.5537 36 43.0695C36 44.6157 34.7879 45.8284 33.2424 45.8284ZM33.2424 34.3078C31.7273 34.3078 30.4848 33.0648 30.4848 31.5489C30.4848 30.0331 31.7273 28.79 33.2424 28.79C34.7576 28.79 36 30.0331 36 31.5489C36 33.0648 34.7879 34.3078 33.2424 34.3078Z" stroke="#00B0CA" stroke-miterlimit="10"/>
<path d="M87.8191 84.7253C95.9527 84.7253 102.546 78.1286 102.546 69.9911C102.546 61.8536 95.9527 55.2568 87.8191 55.2568C79.6854 55.2568 73.0918 61.8536 73.0918 69.9911C73.0918 78.1286 79.6854 84.7253 87.8191 84.7253Z" stroke="#00B0CA" stroke-miterlimit="10"/>
<path d="M82.0605 64.2314L93.5757 75.7217" stroke="#00B0CA" stroke-miterlimit="10" stroke-linecap="round"/>
<path d="M82.0605 75.7217L93.5757 64.2314" stroke="#00B0CA" stroke-miterlimit="10" stroke-linecap="round"/>
</svg>
