<svg width="230" height="106" viewBox="0 0 230 106" fill="none" xmlns="http://www.w3.org/2000/svg">
<path fill-rule="evenodd" clip-rule="evenodd" d="M32.2896 22.7343C34.1252 20.6639 36.3394 19.1318 38.9583 18.3711C42.1836 17.4343 45.8413 17.7288 49.9347 19.4656L49.9622 19.4782L51.0037 19.9938C51.0223 20.003 51.0404 20.0133 51.0577 20.0247C52.2029 20.7758 53.2364 21.6905 54.163 22.7325C55.1057 23.7926 55.8892 24.9267 56.523 26.0612C56.7388 26.4473 56.9221 26.8072 57.0741 27.1326L57.0739 27.1327L57.0878 27.162C57.0833 27.1522 57.0787 27.1425 57.0741 27.1326L57.2468 27.0702C60.6082 25.8726 63.6009 25.7989 66.2288 26.6977L66.3272 26.7319C68.6235 27.5413 70.535 29.055 72.0949 31.0624C72.9308 32.138 73.6129 33.2879 74.1542 34.4379C74.3439 34.8409 74.5026 35.2157 74.6319 35.5531L74.6479 35.5953L74.6985 35.5899C77.8708 35.2594 80.5486 35.6456 82.7644 36.6548L82.8712 36.7042C84.8353 37.6227 86.3645 39.0022 87.5087 40.7146C88.2706 41.855 88.817 43.0738 89.1847 44.2925C89.3136 44.7196 89.4111 45.117 89.4816 45.4749C89.5147 45.6428 89.5369 45.7757 89.5503 45.8692L89.56 45.9426C89.5951 46.2388 89.3573 46.4987 89.0512 46.4987H5.09911C0.0621209 46.4987 -1.92116 40.1154 2.28962 37.418C4.73561 35.8422 7.90337 35.1698 11.8166 35.5941L11.819 35.5943L11.8742 35.4514C11.9821 35.1757 12.1089 34.8767 12.2555 34.559L12.3114 34.439C12.8517 33.2895 13.5332 32.1402 14.3687 31.0652C15.9269 29.0602 17.8376 27.5479 20.1341 26.7385C22.8195 25.7921 25.89 25.8643 29.3502 27.1178L29.3916 27.1329L29.4246 27.0622C29.5529 26.7899 29.7024 26.4946 29.8738 26.181L29.939 26.0625C30.5696 24.9282 31.3499 23.7943 32.2896 22.7343ZM50.5108 20.8692L49.513 20.3753L49.3941 20.3253C45.5701 18.7291 42.2032 18.4705 39.2516 19.3278C36.8368 20.0292 34.7817 21.4512 33.0655 23.3869C32.1775 24.3885 31.4378 25.4635 30.8405 26.538C30.6318 26.9134 30.4561 27.2614 30.3125 27.5726C30.2793 27.6446 30.2495 27.711 30.2231 27.7714L30.1861 27.8575L30.1477 27.9504C30.0458 28.2114 29.7439 28.3401 29.478 28.236C26.0355 26.8887 23.0544 26.7711 20.4832 27.6773C18.3909 28.4147 16.633 29.806 15.186 31.6679C14.3991 32.6804 13.7544 33.7677 13.2434 34.8549C13.0647 35.2349 12.9157 35.5872 12.7952 35.9023L12.7749 35.956C12.7551 36.0085 12.7369 36.0578 12.7204 36.1037L12.6895 36.191L12.6477 36.3139C12.5647 36.5294 12.3393 36.663 12.1023 36.633C8.23248 36.1433 5.17435 36.7567 2.85421 38.2514C-0.506247 40.4041 1.07744 45.5013 5.09969 45.5013H88.4426L88.4111 45.3585C88.363 45.1486 88.3054 44.9257 88.2374 44.692L88.2024 44.5743C87.8612 43.4432 87.3541 42.3122 86.6507 41.2593C85.6043 39.6933 84.2141 38.4393 82.4284 37.6041C80.2708 36.595 77.6036 36.2308 74.3648 36.6332C74.1179 36.6638 73.8841 36.5172 73.8106 36.2856L73.7637 36.1487C73.7534 36.1196 73.7424 36.089 73.7306 36.0568L73.6727 35.9024C73.5518 35.587 73.4025 35.2345 73.2236 34.8542C72.7115 33.7663 72.0661 32.6783 71.2787 31.665C69.83 29.8008 68.0712 28.408 65.9791 27.6706C63.4083 26.7643 60.4294 26.8839 56.991 28.2357C56.7254 28.3401 56.4235 28.2121 56.321 27.9516L56.2823 27.8586C56.2649 27.8178 56.2456 27.7735 56.2244 27.726L56.1549 27.5736C56.0104 27.2622 55.8336 26.9141 55.6238 26.5386C55.0232 25.4637 54.2802 24.3883 53.3892 23.3863C52.5192 22.4079 51.5523 21.5521 50.4861 20.8528L50.5108 20.8692ZM172.726 45.5399C174.562 43.4696 176.776 41.9375 179.395 41.1768C182.62 40.24 186.278 40.5345 190.371 42.2713L190.399 42.2839L191.44 42.7994C191.459 42.8087 191.477 42.819 191.494 42.8304C192.639 43.5815 193.673 44.4962 194.6 45.5382C195.542 46.5983 196.326 47.7324 196.96 48.8669C197.175 49.253 197.359 49.6129 197.511 49.9383L197.51 49.9384L197.524 49.9677C197.52 49.9579 197.515 49.9481 197.511 49.9383L197.683 49.8759C201.045 48.6783 204.037 48.6045 206.665 49.5033L206.764 49.5375C209.06 50.347 210.972 51.8607 212.531 53.8681C213.367 54.9436 214.049 56.0935 214.591 57.2436C214.78 57.6466 214.939 58.0214 215.068 58.3588L215.084 58.401L215.135 58.3956C218.307 58.0651 220.985 58.4512 223.201 59.4605L223.308 59.5098C225.272 60.4284 226.801 61.8078 227.945 63.5203C228.707 64.6606 229.254 65.8794 229.621 67.0982C229.75 67.5253 229.848 67.9227 229.918 68.2806C229.951 68.4485 229.973 68.5813 229.987 68.6748L229.997 68.7482C230.032 69.0445 229.794 69.3044 229.488 69.3044H145.536C140.499 69.3044 138.515 62.921 142.726 60.2237C145.172 58.6479 148.34 57.9755 152.253 58.3997L152.256 58.4L152.311 58.257C152.419 57.9814 152.545 57.6823 152.692 57.3647L152.748 57.2447C153.288 56.0952 153.97 54.9459 154.805 53.8709C156.363 51.8659 158.274 50.3536 160.571 49.5442C163.256 48.5978 166.327 48.67 169.787 49.9235L169.828 49.9385L169.861 49.8678C169.989 49.5956 170.139 49.3003 170.31 48.9866L170.376 48.8682C171.006 47.7338 171.786 46.5999 172.726 45.5399ZM190.947 43.6749L189.95 43.1809L189.831 43.1309C186.007 41.5347 182.64 41.2761 179.688 42.1334C177.273 42.8348 175.218 44.2569 173.502 46.1925C172.614 47.1942 171.874 48.2691 171.277 49.3437C171.068 49.7191 170.893 50.067 170.749 50.3783C170.728 50.4237 170.709 50.4669 170.69 50.5078C170.68 50.5317 170.669 50.5548 170.66 50.577L170.623 50.6632L170.584 50.7561C170.482 51.017 170.18 51.1458 169.915 51.0417C166.472 49.6944 163.491 49.5768 160.92 50.4829C158.827 51.2203 157.07 52.6117 155.623 54.4735C154.836 55.4861 154.191 56.5734 153.68 57.6605C153.501 58.0406 153.352 58.3929 153.232 58.708L153.211 58.7616C153.192 58.8142 153.173 58.8635 153.157 58.9094L153.126 58.9966L153.084 59.1195C153.001 59.3351 152.776 59.4687 152.539 59.4387C148.669 58.949 145.611 59.5624 143.291 61.0571C139.93 63.2098 141.514 68.307 145.536 68.307H228.879L228.848 68.1642C228.8 67.9542 228.742 67.7314 228.674 67.4977L228.639 67.38C228.298 66.2489 227.791 65.1178 227.087 64.065C226.041 62.499 224.651 61.2449 222.865 60.4098C220.707 59.4007 218.04 59.0364 214.801 59.4388C214.554 59.4695 214.321 59.3229 214.247 59.0913L214.2 58.9544C214.19 58.9253 214.179 58.8946 214.167 58.8625L214.109 58.7081C213.988 58.3927 213.839 58.0402 213.66 57.6599C213.148 56.572 212.503 55.4839 211.715 54.4707C210.267 52.6064 208.508 51.2137 206.416 50.4762C203.845 49.57 200.866 49.6896 197.428 51.0414C197.162 51.1458 196.86 51.0178 196.758 50.7573L196.719 50.6643C196.701 50.6235 196.682 50.5792 196.661 50.5317L196.591 50.3792C196.447 50.0679 196.27 49.7198 196.06 49.3443C195.46 48.2693 194.717 47.194 193.826 46.1919C192.956 45.2136 191.989 44.3578 190.923 43.6585L190.947 43.6749Z" fill="#511E84"/>
<path d="M131.731 30.8485H128.225V16.3603C128.225 9.54075 122.706 4.01229 115.894 4.01229C109.081 4.01229 103.59 9.56932 103.59 16.3603V30.8222H100.058V16.3603C100.058 7.61123 107.16 0.5 115.894 0.5C124.629 0.5 131.731 7.61123 131.731 16.3603V30.8485Z" fill="white" stroke="#511E84"/>
<path d="M139.187 53.9899C139.187 54.9662 138.397 55.7579 137.422 55.7579H94.3933C93.4184 55.7579 92.6279 54.9662 92.6279 53.9899V25.9926C92.6279 25.0162 93.4184 24.2246 94.3933 24.2246H137.422C138.397 24.2246 139.187 25.0162 139.187 25.9926V53.9899Z" fill="#511E84"/>
<path d="M119.767 35.2549C119.767 33.1175 118.055 31.4023 115.92 31.4023C113.786 31.4023 112.073 33.1175 112.073 35.2549C112.073 36.5215 112.679 37.6562 113.628 38.3423L112.416 47.0502H119.425L118.213 38.3423C119.135 37.6298 119.767 36.5215 119.767 35.2549Z" fill="white"/>
<path d="M58.7642 49.5781H173.305C176.071 49.5781 178.285 51.8211 178.285 54.5654V82.8002C178.285 85.5709 176.045 87.7874 173.305 87.7874H58.7642C56.0239 87.7874 53.7842 85.5445 53.7842 82.8002V54.5654C53.7842 51.7947 56.0239 49.5781 58.7642 49.5781Z" fill="#00B0CA"/>
<path d="M78.1577 62.878L74.258 68.0236V68.1028L80.4501 67.2848V70.0819L74.258 69.343V69.4222L78.2104 74.3567L75.6281 75.8344L73.1513 70.0819H73.0723L70.411 75.8871L68.0659 74.4094L71.9656 69.3958V69.3166L65.8789 70.1082V67.2848L71.9129 68.0764V67.9972L68.0395 62.9836L70.5427 61.5322L73.0986 67.2584H73.1777L75.6808 61.5059L78.1577 62.878Z" fill="white"/>
<path d="M99.6059 62.878L95.7062 68.0236V68.1028L101.898 67.2848V70.0819L95.7062 69.343V69.4222L99.6586 74.3567L97.0764 75.8344L94.5996 70.0819H94.5205L91.8592 75.8871L89.5141 74.4094L93.4138 69.3958V69.3166L87.3271 70.1082V67.2848L93.3611 68.0764V67.9972L89.4878 62.9836L91.991 61.5322L94.5469 67.2584H94.6259L97.1291 61.5059L99.6059 62.878Z" fill="white"/>
<path d="M121.028 62.878L117.128 68.0236V68.1028L123.32 67.2848V70.0819L117.128 69.343V69.4222L121.081 74.3567L118.498 75.8344L116.021 70.0819H115.942L113.281 75.8871L110.936 74.4094L114.836 69.3958V69.3166L108.749 70.1082V67.2848L114.783 68.0764V67.9972L110.91 62.9836L113.413 61.5322L115.969 67.2584H116.048L118.551 61.5059L121.028 62.878Z" fill="white"/>
<path d="M142.476 62.878L138.576 68.0236V68.1028L144.768 67.2848V70.0819L138.576 69.343V69.4222L142.529 74.3567L139.947 75.8344L137.47 70.0819H137.391L134.729 75.8871L132.384 74.4094L136.284 69.3958V69.3166L130.197 70.1082V67.2848L136.231 68.0764V67.9972L132.358 62.9836L134.861 61.5322L137.417 67.2584H137.496L139.999 61.5059L142.476 62.878Z" fill="white"/>
<path d="M163.898 62.878L159.998 68.0236V68.1028L166.19 67.2848V70.0819L159.998 69.343V69.4222L163.951 74.3567L161.368 75.8344L158.892 70.0819H158.813L156.151 75.8871L153.806 74.4094L157.706 69.3958V69.3166L151.619 70.1082V67.2848L157.653 68.0764V67.9972L153.78 62.9836L156.283 61.5322L158.839 67.2584H158.918L161.421 61.5059L163.898 62.878Z" fill="white"/>
<path fill-rule="evenodd" clip-rule="evenodd" d="M96.0327 76.8731C98.4769 77.6337 100.543 79.1659 102.256 81.2362C103.134 82.2962 103.862 83.4301 104.45 84.5645L104.511 84.6829C104.671 84.9966 104.811 85.2919 104.93 85.5641L104.961 85.6348L105 85.6198C108.229 84.3663 111.095 84.2941 113.601 85.2405C115.744 86.0498 117.527 87.5621 118.982 89.5672C119.761 90.6422 120.397 91.7915 120.902 92.941L120.954 93.061C121.091 93.3786 121.209 93.6777 121.31 93.9533L121.361 94.0963L121.363 94.096C125.016 93.6718 127.972 94.3442 130.255 95.92C134.185 98.6173 132.334 105.001 127.633 105.001H49.2823C48.9965 105.001 48.7746 104.741 48.8074 104.445L48.8164 104.371C48.8289 104.278 48.8497 104.145 48.8805 103.977C48.9464 103.619 49.0373 103.222 49.1576 102.794C49.5008 101.576 50.0107 100.357 50.7218 99.2166C51.7896 97.5041 53.2169 96.1247 55.0499 95.2061L55.1496 95.1568C57.2175 94.1475 59.7166 93.7614 62.6772 94.0919L62.7245 94.0973L62.7394 94.0551C62.8601 93.7177 63.0082 93.3429 63.1852 92.9399C63.6904 91.7898 64.3271 90.6399 65.1071 89.5644C66.5629 87.557 68.347 86.0433 70.49 85.2338L70.5819 85.1996C73.0344 84.3008 75.8275 84.3746 78.9645 85.5721L79.1259 85.6347L79.1129 85.664C79.2572 85.3309 79.4326 84.9609 79.64 84.5632C80.2315 83.4287 80.9628 82.2946 81.8426 81.2345C82.7074 80.1925 83.6719 79.2778 84.7406 78.5267C84.7568 78.5153 84.7737 78.505 84.7911 78.4957L85.7631 77.9802L85.7888 77.9675C89.609 76.2308 93.0227 75.9363 96.0327 76.8731Z" fill="white"/>
<path d="M96.0327 76.8731L96.1813 76.3957V76.3957L96.0327 76.8731ZM102.256 81.2362L102.642 80.9175L102.256 81.2362ZM104.45 84.5645L104.894 84.3342L104.895 84.3358L104.45 84.5645ZM104.511 84.6829L104.956 84.4542L104.957 84.4558L104.511 84.6829ZM104.93 85.5641L105.388 85.3629L105.389 85.3642L104.93 85.5641ZM104.961 85.6348L105.143 86.1007L104.695 86.2751L104.503 85.8347L104.961 85.6348ZM105 85.6198L104.818 85.1539L104.819 85.1536L105 85.6198ZM113.601 85.2405L113.778 84.7727L113.601 85.2405ZM118.982 89.5672L118.577 89.8607L118.982 89.5672ZM120.902 92.941L121.36 92.7401L121.36 92.7417L120.902 92.941ZM120.954 93.061L121.412 92.8616L121.413 92.8632L120.954 93.061ZM121.31 93.9533L121.779 93.7818L121.78 93.7839L121.31 93.9533ZM121.361 94.0963L121.424 94.5923L121.027 94.643L120.891 94.2658L121.361 94.0963ZM121.363 94.096L121.3 93.6L121.306 93.5993L121.363 94.096ZM130.255 95.92L129.972 96.3322L129.971 96.3315L130.255 95.92ZM48.8074 104.445L48.3104 104.39L48.3111 104.383L48.8074 104.445ZM48.8164 104.371L48.3202 104.31L48.3208 104.305L48.8164 104.371ZM48.8805 103.977L49.3723 104.067L48.8805 103.977ZM49.1576 102.794L48.6763 102.659L49.1576 102.794ZM50.7218 99.2166L51.1461 99.4811L50.7218 99.2166ZM55.0499 95.2061L54.8259 94.7591L54.8282 94.7579L55.0499 95.2061ZM55.1496 95.1568L54.9279 94.7086L54.9303 94.7074L55.1496 95.1568ZM62.6772 94.0919L62.7327 93.5949L62.7344 93.5951L62.6772 94.0919ZM62.7245 94.0973L63.196 94.2637L63.0633 94.6396L62.6674 94.594L62.7245 94.0973ZM62.7394 94.0551L62.268 93.8886L62.2686 93.8867L62.7394 94.0551ZM63.1852 92.9399L62.7275 92.7388L63.1852 92.9399ZM65.1071 89.5644L64.7024 89.2708L65.1071 89.5644ZM70.49 85.2338L70.3134 84.7661L70.3157 84.7652L70.49 85.2338ZM70.5819 85.1996L70.4075 84.731L70.4098 84.7302L70.5819 85.1996ZM78.9645 85.5721L79.1429 85.105L79.1452 85.1059L78.9645 85.5721ZM79.1259 85.6347L79.3065 85.1684L79.7947 85.3576L79.5833 85.8366L79.1259 85.6347ZM79.1129 85.664L79.5703 85.8659L78.6541 85.4652L79.1129 85.664ZM79.64 84.5632L79.1966 84.332L79.64 84.5632ZM81.8426 81.2345L81.4578 80.9152L81.8426 81.2345ZM84.7406 78.5267L84.4531 78.1176L84.7406 78.5267ZM84.7911 78.4957L85.0254 78.9374V78.9374L84.7911 78.4957ZM85.7631 77.9802L85.5288 77.5385L85.5355 77.5349L85.5424 77.5315L85.7631 77.9802ZM85.7888 77.9675L85.5681 77.5189L85.5749 77.5155L85.5818 77.5124L85.7888 77.9675ZM96.1813 76.3957C98.7355 77.1906 100.88 78.7878 102.642 80.9175L101.871 81.555C100.207 79.5439 98.2183 78.0769 95.8842 77.3505L96.1813 76.3957ZM102.642 80.9175C103.544 82.0074 104.291 83.1715 104.894 84.3342L104.006 84.7947C103.433 83.6887 102.724 82.585 101.871 81.555L102.642 80.9175ZM104.895 84.3358L104.956 84.4542L104.067 84.9116L104.006 84.7932L104.895 84.3358ZM104.957 84.4558C105.121 84.7777 105.264 85.0816 105.388 85.3629L104.473 85.7653C104.357 85.5021 104.221 85.2155 104.066 84.9101L104.957 84.4558ZM105.389 85.3642L105.419 85.4349L104.503 85.8347L104.472 85.764L105.389 85.3642ZM104.78 85.1689L104.818 85.1539L105.181 86.0857L105.143 86.1007L104.78 85.1689ZM104.819 85.1536C108.139 83.8649 111.134 83.7744 113.778 84.7727L113.424 85.7083C111.056 84.8138 108.319 84.8676 105.181 86.0859L104.819 85.1536ZM113.778 84.7727C116.032 85.624 117.888 87.2082 119.386 89.2736L118.577 89.8607C117.166 87.916 115.457 86.4757 113.424 85.7083L113.778 84.7727ZM119.386 89.2736C120.189 90.3807 120.843 91.5618 121.36 92.7401L120.444 93.1419C119.952 92.0212 119.333 90.9036 118.577 89.8607L119.386 89.2736ZM121.36 92.7417L121.412 92.8617L120.495 93.2603L120.443 93.1403L121.36 92.7417ZM121.413 92.8632C121.553 93.1893 121.675 93.497 121.779 93.7818L120.84 94.1249C120.743 93.8583 120.628 93.568 120.495 93.2587L121.413 92.8632ZM121.78 93.7839L121.832 93.9268L120.891 94.2658L120.839 94.1228L121.78 93.7839ZM121.298 93.6003L121.3 93.6L121.427 94.592L121.424 94.5923L121.298 93.6003ZM121.306 93.5993C125.051 93.1643 128.136 93.8497 130.539 95.5085L129.971 96.3315C127.808 94.8386 124.98 94.1793 121.421 94.5927L121.306 93.5993ZM130.538 95.5077C132.707 96.9969 133.27 99.5039 132.661 101.611C132.051 103.719 130.244 105.501 127.633 105.501V104.501C129.722 104.501 131.191 103.091 131.7 101.333C132.209 99.5738 131.732 97.5404 129.972 96.3322L130.538 95.5077ZM127.633 105.501H49.2823V104.501H127.633V105.501ZM49.2823 105.501C48.6753 105.501 48.2475 104.958 48.3104 104.39L49.3044 104.499C49.3039 104.504 49.3044 104.506 49.3048 104.507C49.3052 104.509 49.3058 104.509 49.3056 104.509C49.3055 104.509 49.3037 104.507 49.2991 104.505C49.2939 104.502 49.2877 104.501 49.2823 104.501V105.501ZM48.3111 104.383L48.3202 104.31L49.3127 104.432L49.3036 104.506L48.3111 104.383ZM48.3208 104.305C48.3346 104.202 48.3567 104.061 48.3888 103.886L49.3723 104.067C49.3426 104.229 49.3232 104.353 49.312 104.437L48.3208 104.305ZM48.3888 103.886C48.4575 103.513 48.552 103.1 48.6763 102.659L49.6389 102.93C49.5227 103.343 49.4352 103.725 49.3723 104.067L48.3888 103.886ZM48.6763 102.659C49.0309 101.4 49.5587 100.137 50.2975 98.952L51.1461 99.4811C50.4628 100.577 49.9708 101.751 49.6389 102.93L48.6763 102.659ZM50.2975 98.952C51.4089 97.1698 52.9023 95.7231 54.8259 94.7591L55.2739 95.6531C53.5315 96.5263 52.1704 97.8385 51.1461 99.4811L50.2975 98.952ZM54.8282 94.7579L54.9279 94.7086L55.3713 95.605L55.2715 95.6543L54.8282 94.7579ZM54.9303 94.7074C57.0999 93.6486 59.6979 93.2562 62.7327 93.5949L62.6218 94.5888C59.7354 94.2666 57.3351 94.6465 55.3689 95.6061L54.9303 94.7074ZM62.7344 93.5951L62.7817 93.6006L62.6674 94.594L62.6201 94.5886L62.7344 93.5951ZM62.2531 93.9309L62.268 93.8886L63.2109 94.2215L63.196 94.2637L62.2531 93.9309ZM62.2686 93.8867C62.3934 93.5379 62.5459 93.1521 62.7275 92.7388L63.643 93.141C63.4706 93.5336 63.3268 93.8975 63.2103 94.2234L62.2686 93.8867ZM62.7275 92.7388C63.2453 91.56 63.8991 90.3784 64.7024 89.2708L65.5119 89.8579C64.7551 90.9014 64.1356 92.0197 63.643 93.141L62.7275 92.7388ZM64.7024 89.2708C66.2018 87.2032 68.0592 85.6175 70.3134 84.7661L70.6667 85.7016C68.6347 86.4691 66.924 87.9108 65.5119 89.8579L64.7024 89.2708ZM70.3157 84.7652L70.4075 84.731L70.7562 85.6682L70.6644 85.7024L70.3157 84.7652ZM70.4098 84.7302C72.9968 83.7821 75.9162 83.8733 79.1429 85.105L78.7862 86.0393C75.7388 84.8759 73.072 84.8196 70.7539 85.6691L70.4098 84.7302ZM79.1452 85.1059L79.3065 85.1684L78.9452 86.1009L78.7839 86.0384L79.1452 85.1059ZM79.5833 85.8366L79.5703 85.8659L78.6555 85.462L78.6685 85.4327L79.5833 85.8366ZM78.6541 85.4652C78.8034 85.1206 78.984 84.7399 79.1966 84.332L80.0833 84.7943C79.8812 85.182 79.7111 85.5411 79.5717 85.8627L78.6541 85.4652ZM79.1966 84.332C79.8029 83.1692 80.5533 82.0051 81.4578 80.9152L82.2274 81.5538C81.3723 82.5841 80.6602 83.6881 80.0833 84.7943L79.1966 84.332ZM81.4578 80.9152C82.3474 79.8433 83.3439 78.8972 84.4531 78.1176L85.0281 78.9357C83.9999 79.6584 83.0674 80.5416 82.2274 81.5538L81.4578 80.9152ZM84.4531 78.1176C84.4863 78.0943 84.5209 78.073 84.5568 78.054L85.0254 78.9374C85.0264 78.9369 85.0273 78.9363 85.0281 78.9357L84.4531 78.1176ZM84.5568 78.054L85.5288 77.5385L85.9974 78.4219L85.0254 78.9374L84.5568 78.054ZM85.5424 77.5315L85.5681 77.5189L86.0095 78.4162L85.9838 78.4288L85.5424 77.5315ZM85.5818 77.5124C89.4873 75.7368 93.0289 75.4146 96.1813 76.3957L95.8842 77.3505C93.0164 76.458 89.7307 76.7247 85.9957 78.4227L85.5818 77.5124Z" fill="#511E84"/>
</svg>
