<svg width="167" height="77" viewBox="0 0 167 77" fill="none" xmlns="http://www.w3.org/2000/svg">
<path fill-rule="evenodd" clip-rule="evenodd" d="M23.3716 16.455C24.7001 14.9564 26.3028 13.8474 28.1984 13.2969C30.5329 12.6188 33.1804 12.8319 36.1432 14.089L36.1631 14.0982L36.917 14.4713C36.9305 14.478 36.9435 14.4855 36.9561 14.4937C37.785 15.0374 38.533 15.6995 39.2037 16.4537C39.886 17.221 40.4532 18.0419 40.9119 18.863C41.0681 19.1425 41.2008 19.403 41.3108 19.6385L41.3107 19.6386L41.3207 19.6598C41.3174 19.6527 41.3141 19.6456 41.3108 19.6385L41.4358 19.5933C43.8688 18.7265 46.035 18.6731 47.937 19.3237L48.0083 19.3484C49.6703 19.9343 51.054 21.03 52.183 22.4829C52.788 23.2614 53.2818 24.0937 53.6736 24.9262C53.8108 25.2179 53.9257 25.4892 54.0193 25.7334L54.0309 25.7639L54.0675 25.76C56.3637 25.5208 58.3019 25.8003 59.9057 26.5308L59.983 26.5665C61.4046 27.2314 62.5115 28.2298 63.3397 29.4693C63.8912 30.2947 64.2866 31.1769 64.5528 32.059C64.6461 32.3682 64.7166 32.6558 64.7677 32.9149C64.7916 33.0364 64.8077 33.1325 64.8174 33.2002L64.8244 33.2533C64.8498 33.4678 64.6777 33.6559 64.4561 33.6559H3.69079C0.0449628 33.6559 -1.39055 29.0356 1.65725 27.0832C3.42768 25.9426 5.72054 25.4559 8.55294 25.763L8.55474 25.7632L8.59468 25.6597C8.67277 25.4602 8.76457 25.2437 8.87064 25.0138L8.91109 24.927C9.30222 24.095 9.79547 23.2631 10.4002 22.485C11.528 21.0337 12.911 19.9391 14.5733 19.3533C16.517 18.6683 18.7395 18.7205 21.244 19.6278L21.2739 19.6387L21.2978 19.5875C21.3907 19.3905 21.4989 19.1767 21.6229 18.9497L21.6702 18.864C22.1266 18.0429 22.6913 17.2222 23.3716 16.455ZM36.5602 15.1053L35.838 14.7478L35.7519 14.7116C32.9841 13.5563 30.5471 13.3691 28.4107 13.9896C26.6629 14.4973 25.1753 15.5266 23.9331 16.9277C23.2904 17.6527 22.7549 18.4307 22.3226 19.2085C22.1716 19.4802 22.0444 19.7321 21.9405 19.9573C21.9165 20.0094 21.8949 20.0575 21.8758 20.1012L21.8489 20.1635L21.8212 20.2308C21.7474 20.4197 21.5289 20.5128 21.3364 20.4375C18.8447 19.4623 16.687 19.3772 14.8259 20.0331C13.3115 20.5668 12.0391 21.5739 10.9918 22.9215C10.4222 23.6544 9.95558 24.4414 9.58566 25.2283C9.45635 25.5034 9.34852 25.7584 9.2613 25.9865L9.24657 26.0253C9.23223 26.0633 9.21909 26.099 9.20714 26.1322L9.18479 26.1954L9.15452 26.2843C9.0944 26.4404 8.93132 26.5371 8.75972 26.5153C5.95873 26.1609 3.74522 26.6049 2.06589 27.6868C-0.366448 29.2449 0.779839 32.9343 3.69118 32.9343H64.0156L63.9928 32.8309C63.958 32.679 63.9163 32.5177 63.8671 32.3485L63.8418 32.2633C63.5948 31.4446 63.2278 30.626 62.7186 29.8639C61.9612 28.7304 60.955 27.8227 59.6624 27.2182C58.1008 26.4878 56.1703 26.2242 53.8259 26.5155C53.6472 26.5377 53.478 26.4315 53.4248 26.2639L53.3909 26.1648C53.3834 26.1437 53.3754 26.1215 53.3669 26.0983L53.325 25.9865C53.2375 25.7582 53.1295 25.5031 52.9999 25.2278C52.6293 24.4404 52.1621 23.6528 51.5922 22.9195C50.5436 21.5701 49.2706 20.562 47.7563 20.0282C45.8955 19.3723 43.7394 19.4589 41.2506 20.4373C41.0584 20.5129 40.8398 20.4202 40.7657 20.2316L40.7377 20.1643C40.7251 20.1348 40.7111 20.1028 40.6957 20.0683L40.6455 19.958C40.5409 19.7327 40.4129 19.4807 40.261 19.2089C39.8263 18.4308 39.2886 17.6525 38.6436 16.9272C38.0139 16.2191 37.314 15.5996 36.5423 15.0935L36.5602 15.1053ZM125.021 32.9623C126.35 31.4637 127.952 30.3547 129.848 29.8042C132.182 29.1261 134.83 29.3393 137.793 30.5964L137.812 30.6055L138.566 30.9787C138.58 30.9853 138.593 30.9928 138.605 31.0011C139.434 31.5447 140.182 32.2068 140.853 32.961C141.535 33.7283 142.103 34.5492 142.561 35.3703C142.717 35.6498 142.85 35.9103 142.96 36.1458L142.96 36.1459L142.97 36.1671C142.967 36.16 142.963 36.1529 142.96 36.1458L143.085 36.1006C145.518 35.2338 147.684 35.1804 149.586 35.831L149.658 35.8557C151.32 36.4416 152.703 37.5373 153.832 38.9902C154.437 39.7687 154.931 40.6011 155.323 41.4335C155.46 41.7252 155.575 41.9965 155.669 42.2407L155.68 42.2712L155.717 42.2673C158.013 42.0281 159.951 42.3076 161.555 43.0381L161.632 43.0738C163.054 43.7387 164.161 44.7371 164.989 45.9766C165.541 46.802 165.936 47.6842 166.202 48.5663C166.295 48.8755 166.366 49.1631 166.417 49.4222C166.441 49.5437 166.457 49.6399 166.467 49.7075L166.474 49.7607C166.499 49.9751 166.327 50.1632 166.105 50.1632H105.34C101.694 50.1632 100.259 45.5429 103.307 43.5905C105.077 42.4499 107.37 41.9632 110.202 42.2703L110.204 42.2705L110.244 42.167C110.322 41.9675 110.414 41.751 110.52 41.5211L110.56 41.4343C110.952 40.6023 111.445 39.7704 112.05 38.9923C113.177 37.541 114.56 36.4464 116.223 35.8606C118.166 35.1756 120.389 35.2278 122.893 36.1351L122.923 36.146L122.947 36.0948C123.04 35.8978 123.148 35.684 123.272 35.457L123.32 35.3713C123.776 34.5502 124.341 33.7295 125.021 32.9623ZM138.209 31.6128L137.487 31.2553L137.401 31.2191C134.633 30.0637 132.196 29.8766 130.06 30.4971C128.312 31.0047 126.825 32.0341 125.582 33.4351C124.94 34.1601 124.404 34.9382 123.972 35.7159C123.821 35.9876 123.694 36.2395 123.59 36.4648C123.566 36.5169 123.544 36.5649 123.525 36.6086L123.498 36.671L123.47 36.7382C123.397 36.9271 123.178 37.0203 122.986 36.9449C120.494 35.9698 118.336 35.8846 116.475 36.5405C114.961 37.0743 113.688 38.0813 112.641 39.429C112.072 40.1618 111.605 40.9489 111.235 41.7358C111.106 42.0108 110.998 42.2658 110.911 42.4939L110.896 42.5327C110.882 42.5707 110.868 42.6064 110.856 42.6397L110.834 42.7028L110.804 42.7918C110.744 42.9478 110.581 43.0445 110.409 43.0228C107.608 42.6683 105.395 43.1123 103.715 44.1942C101.283 45.7523 102.429 49.4417 105.34 49.4417H165.665L165.642 49.3384C165.607 49.1864 165.566 49.0251 165.516 48.856L165.491 48.7708C165.244 47.9521 164.877 47.1334 164.368 46.3713C163.611 45.2378 162.604 44.3302 161.312 43.7257C159.75 42.9953 157.82 42.7316 155.475 43.0229C155.297 43.0451 155.127 42.939 155.074 42.7714L155.04 42.6722C155.033 42.6512 155.025 42.629 155.016 42.6057L154.974 42.494C154.887 42.2657 154.779 42.0105 154.649 41.7353C154.279 40.9478 153.811 40.1603 153.242 39.4269C152.193 38.0775 150.92 37.0694 149.406 36.5357C147.545 35.8797 145.389 35.9663 142.9 36.9447C142.708 37.0203 142.489 36.9277 142.415 36.7391L142.387 36.6718C142.374 36.6422 142.36 36.6102 142.345 36.5758L142.295 36.4655C142.19 36.2401 142.062 35.9882 141.91 35.7163C141.476 34.9383 140.938 34.1599 140.293 33.4346C139.663 32.7265 138.963 32.1071 138.192 31.6009L138.209 31.6128Z" fill="#452FBA"/>
<path d="M95.2097 22.1904H92.9484V11.8418C92.9484 6.82961 88.8918 2.76604 83.8851 2.76604C78.8763 2.76604 74.8409 6.85089 74.8409 11.8418V22.1713H72.5605V11.8418C72.5605 5.58516 77.6394 0.5 83.8851 0.5C90.1309 0.5 95.2097 5.58516 95.2097 11.8418V22.1904Z" fill="white" stroke="#452FBA"/>
<path d="M100.745 39.0776C100.745 39.7843 100.173 40.3573 99.4671 40.3573H68.3227C67.6171 40.3573 67.0449 39.7843 67.0449 39.0776V18.8129C67.0449 18.1062 67.6171 17.5332 68.3227 17.5332H99.4671C100.173 17.5332 100.745 18.1062 100.745 18.8129V39.0776Z" fill="#452FBA"/>
<path d="M86.6891 25.5171C86.6891 23.97 85.4494 22.7285 83.9046 22.7285C82.3598 22.7285 81.1201 23.97 81.1201 25.5171C81.1201 26.4338 81.5588 27.2551 82.2454 27.7517L81.3681 34.0546H86.4412L85.5639 27.7517C86.2314 27.236 86.6891 26.4338 86.6891 25.5171Z" fill="white"/>
<path d="M42.5338 35.8848H125.439C127.442 35.8848 129.044 37.5082 129.044 39.4946V59.9312C129.044 61.9367 127.423 63.541 125.439 63.541H42.5338C40.5503 63.541 38.9292 61.9176 38.9292 59.9312V39.4946C38.9292 37.4891 40.5503 35.8848 42.5338 35.8848Z" fill="#00BF8E"/>
<path d="M56.5706 45.5098L53.748 49.2342V49.2915L58.2299 48.6994V50.724L53.748 50.1892V50.2465L56.6087 53.8181L54.7397 54.8877L52.9469 50.724H52.8897L50.9635 54.9259L49.2661 53.8563L52.0887 50.2274V50.1701L47.6831 50.7431V48.6994L52.0506 49.2724V49.2151L49.247 45.5862L51.0588 44.5357L52.9088 48.6803H52.966L54.7778 44.5166L56.5706 45.5098Z" fill="white"/>
<path d="M72.095 45.5098L69.2724 49.2342V49.2915L73.7543 48.6994V50.724L69.2724 50.1892V50.2465L72.1332 53.8181L70.2641 54.8877L68.4714 50.724H68.4141L66.4879 54.9259L64.7905 53.8563L67.6131 50.2274V50.1701L63.2075 50.7431V48.6994L67.575 49.2724V49.2151L64.7714 45.5862L66.5832 44.5357L68.4332 48.6803H68.4904L70.3023 44.5166L72.095 45.5098Z" fill="white"/>
<path d="M87.6004 45.5098L84.7778 49.2342V49.2915L89.2596 48.6994V50.724L84.7778 50.1892V50.2465L87.6385 53.8181L85.7695 54.8877L83.9767 50.724H83.9195L81.9933 54.9259L80.2959 53.8563L83.1185 50.2274V50.1701L78.7129 50.7431V48.6994L83.0804 49.2724V49.2151L80.2768 45.5862L82.0886 44.5357L83.9386 48.6803H83.9958L85.8076 44.5166L87.6004 45.5098Z" fill="white"/>
<path d="M103.125 45.5098L100.303 49.2342V49.2915L104.785 48.6994V50.724L100.303 50.1892V50.2465L103.163 53.8181L101.294 54.8877L99.5016 50.724H99.4444L97.5182 54.9259L95.8208 53.8563L98.6434 50.2274V50.1701L94.2378 50.7431V48.6994L98.6053 49.2724V49.2151L95.8017 45.5862L97.6135 44.5357L99.4635 48.6803H99.5207L101.333 44.5166L103.125 45.5098Z" fill="white"/>
<path d="M118.631 45.5098L115.808 49.2342V49.2915L120.29 48.6994V50.724L115.808 50.1892V50.2465L118.669 53.8181L116.8 54.8877L115.007 50.724H114.95L113.024 54.9259L111.326 53.8563L114.149 50.2274V50.1701L109.743 50.7431V48.6994L114.111 49.2724V49.2151L111.307 45.5862L113.119 44.5357L114.969 48.6803H115.026L116.838 44.5166L118.631 45.5098Z" fill="white"/>
<path fill-rule="evenodd" clip-rule="evenodd" d="M69.5093 55.6416C71.2784 56.1922 72.7741 57.3011 74.0141 58.7997C74.6489 59.5669 75.176 60.3876 75.6019 61.2087L75.646 61.2944C75.7618 61.5215 75.8628 61.7352 75.9494 61.9323L75.9717 61.9834L75.9997 61.9725C78.3371 61.0652 80.4113 61.013 82.2253 61.698C83.7766 62.2838 85.0673 63.3784 86.1199 64.8297C86.6843 65.6078 87.1446 66.4397 87.5097 67.2717L87.5474 67.3585C87.6464 67.5885 87.7321 67.8049 87.805 68.0044L87.8422 68.1079L87.8439 68.1077C90.4873 67.8007 92.6272 68.2873 94.2795 69.4279C97.1239 71.3803 95.7842 76.0006 92.3816 76.0006H35.6708C35.464 76.0006 35.3034 75.8125 35.3271 75.5981L35.3336 75.5449C35.3427 75.4773 35.3577 75.3811 35.38 75.2596C35.4277 75.0005 35.4935 74.7129 35.5806 74.4038C35.829 73.5216 36.1981 72.6394 36.7128 71.814C37.4857 70.5745 38.5187 69.5761 39.8455 68.9112L39.9176 68.8755C41.4144 68.145 43.2233 67.8655 45.3662 68.1047L45.4005 68.1086L45.4113 68.0781C45.4986 67.8339 45.6058 67.5626 45.7339 67.2709C46.0996 66.4385 46.5604 65.6062 47.125 64.8277C48.1787 63.3747 49.47 62.2791 51.0212 61.6932L51.0877 61.6684C52.8628 61.0179 54.8845 61.0713 57.1551 61.9381L57.2719 61.9833L57.2625 62.0045C57.367 61.7634 57.4939 61.4956 57.644 61.2077C58.0722 60.3866 58.6015 59.5657 59.2383 58.7984C59.8642 58.0442 60.5624 57.3821 61.3359 56.8385C61.3477 56.8302 61.3598 56.8228 61.3724 56.8161L62.076 56.4429L62.0946 56.4338C64.8597 55.1767 67.3306 54.9635 69.5093 55.6416Z" fill="white"/>
<path d="M69.5093 55.6416L69.6579 55.1642L69.5093 55.6416ZM74.0141 58.7997L74.3993 58.4809L74.0141 58.7997ZM75.6019 61.2087L76.0457 60.9784L76.0465 60.98L75.6019 61.2087ZM75.646 61.2944L76.0906 61.0657L76.0914 61.0673L75.646 61.2944ZM75.9494 61.9323L76.4071 61.7311L76.4077 61.7324L75.9494 61.9323ZM75.9717 61.9834L76.1532 62.4493L75.7055 62.6237L75.5134 62.1833L75.9717 61.9834ZM75.9997 61.9725L75.8182 61.5066L75.8188 61.5064L75.9997 61.9725ZM82.2253 61.698L82.4019 61.2302L82.2253 61.698ZM86.1199 64.8297L85.7152 65.1233L86.1199 64.8297ZM87.5097 67.2717L87.9675 67.0708L87.9682 67.0724L87.5097 67.2717ZM87.5474 67.3585L88.006 67.1592L88.0067 67.1608L87.5474 67.3585ZM87.805 68.0044L88.2746 67.8329L88.2754 67.835L87.805 68.0044ZM87.8422 68.1079L87.9055 68.6039L87.5078 68.6547L87.3718 68.2774L87.8422 68.1079ZM87.8439 68.1077L87.7806 67.6117L87.7862 67.6111L87.8439 68.1077ZM94.2795 69.4279L93.9966 69.8402L93.9955 69.8394L94.2795 69.4279ZM35.3271 75.5981L34.8301 75.5431L34.8308 75.5369L35.3271 75.5981ZM35.3336 75.5449L34.8374 75.4837L34.838 75.4788L35.3336 75.5449ZM35.38 75.2596L35.8718 75.35L35.38 75.2596ZM35.5806 74.4038L35.0993 74.2682L35.5806 74.4038ZM36.7128 71.814L37.137 72.0786L36.7128 71.814ZM39.8455 68.9112L39.6214 68.4642L39.6238 68.463L39.8455 68.9112ZM39.9176 68.8755L39.696 68.4273L39.6983 68.4262L39.9176 68.8755ZM45.3662 68.1047L45.4217 67.6078L45.4233 67.608L45.3662 68.1047ZM45.4005 68.1086L45.8719 68.2751L45.7393 68.6509L45.3433 68.6054L45.4005 68.1086ZM45.4113 68.0781L44.9398 67.9116L44.9404 67.9097L45.4113 68.0781ZM45.7339 67.2709L45.2761 67.0698L45.7339 67.2709ZM47.125 64.8277L46.7202 64.5341L47.125 64.8277ZM51.0212 61.6932L50.8445 61.2254L50.8468 61.2246L51.0212 61.6932ZM51.0877 61.6684L50.9133 61.1998L50.9156 61.199L51.0877 61.6684ZM57.1551 61.9381L57.3335 61.4709L57.3358 61.4718L57.1551 61.9381ZM57.2719 61.9833L57.4526 61.5171L57.9408 61.7062L57.7293 62.1852L57.2719 61.9833ZM57.2625 62.0045L57.72 62.2064L56.8038 61.8057L57.2625 62.0045ZM57.644 61.2077L57.2007 60.9766L57.644 61.2077ZM59.2383 58.7984L58.8535 58.4791L59.2383 58.7984ZM61.3359 56.8385L61.0484 56.4294L61.3359 56.8385ZM61.3724 56.8161L61.6067 57.2578V57.2578L61.3724 56.8161ZM62.076 56.4429L61.8417 56.0012L61.8484 55.9976L61.8553 55.9943L62.076 56.4429ZM62.0946 56.4338L61.8739 55.9851L61.8807 55.9818L61.8876 55.9786L62.0946 56.4338ZM69.6579 55.1642C71.537 55.749 73.1103 56.9231 74.3993 58.4809L73.6288 59.1184C72.438 57.6792 71.0198 56.6353 69.3607 56.119L69.6579 55.1642ZM74.3993 58.4809C75.0589 59.2781 75.6051 60.129 76.0457 60.9785L75.1581 61.4389C74.7469 60.6463 74.2389 59.8557 73.6288 59.1184L74.3993 58.4809ZM76.0465 60.98L76.0906 61.0657L75.2014 61.5231L75.1573 61.4374L76.0465 60.98ZM76.0914 61.0673C76.2114 61.3025 76.3165 61.5249 76.4071 61.7311L75.4917 62.1335C75.409 61.9455 75.3122 61.7404 75.2006 61.5216L76.0914 61.0673ZM76.4077 61.7324L76.43 61.7835L75.5134 62.1833L75.4911 62.1321L76.4077 61.7324ZM75.7902 61.5175L75.8182 61.5066L76.1812 62.4384L76.1532 62.4493L75.7902 61.5175ZM75.8188 61.5064C78.2469 60.5639 80.4505 60.4933 82.4019 61.2302L82.0486 62.1658C80.3721 61.5327 78.4273 61.5666 76.1806 62.4386L75.8188 61.5064ZM82.4019 61.2302C84.0642 61.858 85.4283 63.0245 86.5247 64.5361L85.7152 65.1233C84.7063 63.7323 83.489 62.7097 82.0486 62.1658L82.4019 61.2302ZM86.5247 64.5361C87.1123 65.3464 87.5899 66.21 87.9675 67.0708L87.0518 67.4726C86.6994 66.6694 86.2562 65.8692 85.7152 65.1233L86.5247 64.5361ZM87.9682 67.0724L88.006 67.1592L87.0889 67.5579L87.0511 67.471L87.9682 67.0724ZM88.0067 67.1608C88.1093 67.3991 88.1984 67.6243 88.2746 67.8329L87.3353 68.176C87.2657 67.9855 87.1836 67.7778 87.0882 67.5563L88.0067 67.1608ZM88.2754 67.835L88.3126 67.9385L87.3718 68.2774L87.3346 68.1739L88.2754 67.835ZM87.779 67.6119L87.7806 67.6117L87.9072 68.6037L87.9055 68.6039L87.779 67.6119ZM87.7862 67.6111C90.523 67.2932 92.791 67.7929 94.5636 69.0164L93.9955 69.8394C92.4634 68.7818 90.4517 68.3082 87.9016 68.6044L87.7862 67.6111ZM94.5625 69.0157C96.1893 70.1323 96.6085 72.0123 96.1535 73.5853C95.6982 75.1593 94.3437 76.5006 92.3816 76.5006V75.5006C93.8221 75.5006 94.8388 74.5318 95.1929 73.3075C95.5473 72.0822 95.2141 70.6759 93.9966 69.8402L94.5625 69.0157ZM92.3816 76.5006H35.6708V75.5006H92.3816V76.5006ZM35.6708 76.5006C35.1428 76.5006 34.7763 76.03 34.8301 75.5431L35.8241 75.653C35.8305 75.595 35.7852 75.5006 35.6708 75.5006V76.5006ZM34.8308 75.5369L34.8374 75.4837L35.8299 75.6062L35.8233 75.6593L34.8308 75.5369ZM34.838 75.4788C34.8484 75.4015 34.8647 75.2971 34.8883 75.1692L35.8718 75.35C35.8506 75.4651 35.837 75.553 35.8292 75.6111L34.838 75.4788ZM34.8883 75.1692C34.9388 74.8944 35.0082 74.5918 35.0993 74.2682L36.0619 74.5393C35.9789 74.834 35.9165 75.1066 35.8718 75.35L34.8883 75.1692ZM35.0993 74.2682C35.359 73.3458 35.7461 72.4194 36.2885 71.5495L37.137 72.0786C36.6501 72.8595 36.299 73.6974 36.0619 74.5393L35.0993 74.2682ZM36.2885 71.5495C37.1049 70.2402 38.2041 69.1745 39.6215 68.4642L40.0695 69.3582C38.8333 69.9777 37.8664 70.9089 37.137 72.0786L36.2885 71.5495ZM39.6238 68.463L39.696 68.4273L40.1393 69.3237L40.0671 69.3594L39.6238 68.463ZM39.6983 68.4262C41.2968 67.646 43.2046 67.3603 45.4217 67.6078L45.3107 68.6016C43.2421 68.3707 41.532 68.644 40.1369 69.3249L39.6983 68.4262ZM45.4233 67.608L45.4576 67.6119L45.3433 68.6054L45.3091 68.6014L45.4233 67.608ZM44.929 67.9422L44.9398 67.9116L45.8827 68.2445L45.8719 68.2751L44.929 67.9422ZM44.9404 67.9097C45.0319 67.6541 45.1435 67.3719 45.2761 67.0698L46.1917 67.472C46.0681 67.7533 45.9653 68.0137 45.8821 68.2464L44.9404 67.9097ZM45.2761 67.0698C45.6544 66.2086 46.1324 65.3447 46.7202 64.5341L47.5297 65.1212C46.9884 65.8676 46.5447 66.6683 46.1917 67.472L45.2761 67.0698ZM46.7202 64.5341C47.8176 63.021 49.1823 61.8533 50.8445 61.2254L51.1979 62.1609C49.7578 62.7049 48.5398 63.7285 47.5297 65.1212L46.7202 64.5341ZM50.8468 61.2246L50.9133 61.1998L51.262 62.137L51.1956 62.1618L50.8468 61.2246ZM50.9156 61.199C52.8252 60.4991 54.9732 60.5699 57.3335 61.4709L56.9768 62.4052C54.7958 61.5726 52.9004 61.5366 51.2597 62.1379L50.9156 61.199ZM57.3358 61.4718L57.4526 61.5171L57.0913 62.4495L56.9745 62.4043L57.3358 61.4718ZM57.7293 62.1852L57.72 62.2064L56.8051 61.8026L56.8145 61.7814L57.7293 62.1852ZM56.8038 61.8057C56.9132 61.5532 57.0453 61.2746 57.2007 60.9766L58.0874 61.4389C57.9426 61.7167 57.8208 61.9737 57.7213 62.2033L56.8038 61.8057ZM57.2007 60.9766C57.6436 60.1272 58.192 59.2762 58.8535 58.4791L59.6231 59.1177C59.011 59.8553 58.5008 60.646 58.0874 61.4389L57.2007 60.9766ZM58.8535 58.4791C59.5042 57.6951 60.2343 57.0015 61.0484 56.4294L61.6234 57.2475C60.8904 57.7627 60.2242 58.3934 59.6231 59.1177L58.8535 58.4791ZM61.0484 56.4294C61.0771 56.4092 61.1071 56.3908 61.1382 56.3744L61.6067 57.2578C61.6126 57.2547 61.6182 57.2512 61.6234 57.2475L61.0484 56.4294ZM61.1382 56.3744L61.8417 56.0012L62.3103 56.8846L61.6067 57.2578L61.1382 56.3744ZM61.8553 55.9943L61.8739 55.9851L62.3153 56.8824L62.2967 56.8916L61.8553 55.9943ZM61.8876 55.9786C64.738 54.6828 67.3368 54.4418 69.6579 55.1642L69.3607 56.119C67.3243 55.4852 64.9814 55.6706 62.3015 56.8889L61.8876 55.9786Z" fill="#452FBA"/>
</svg>
