<svg width="184" height="101" viewBox="0 0 184 101" fill="none" xmlns="http://www.w3.org/2000/svg">
<path fill-rule="evenodd" clip-rule="evenodd" d="M39.1146 0.527933C36.4852 1.29509 34.2621 2.84029 32.4192 4.92829C31.4756 5.9973 30.6922 7.14089 30.0592 8.28491L29.9936 8.40439C29.8216 8.72071 29.6714 9.01852 29.5427 9.29309L29.5095 9.36438L29.468 9.3492C25.9939 8.08504 22.911 8.01223 20.2149 8.9667C17.9092 9.78295 15.9908 11.3081 14.4263 13.3303C13.5875 14.4144 12.9033 15.5736 12.3608 16.7328L12.3047 16.8539C12.1575 17.1742 12.0302 17.4758 11.9219 17.7538L11.8665 17.898L11.864 17.8977C7.93508 17.4699 4.75461 18.148 2.2988 19.7373C-1.92887 22.4576 0.0623701 28.8954 5.11957 28.8954H89.4085C89.7159 28.8954 89.9546 28.6333 89.9193 28.3345L89.9096 28.2605C89.8962 28.1662 89.8738 28.0322 89.8406 27.8629C89.7698 27.5019 89.672 27.1011 89.5426 26.6704C89.1734 25.4412 88.6248 24.212 87.8598 23.062C86.7111 21.3349 85.1756 19.9437 83.2037 19.0173L83.0964 18.9676C80.8718 17.9497 78.1833 17.5602 74.9982 17.8935L74.9474 17.899L74.9313 17.8564C74.8016 17.5162 74.6422 17.1382 74.4517 16.7318C73.9083 15.5719 73.2234 14.4122 72.3842 13.3274C70.818 11.303 68.8988 9.77631 66.5933 8.95996L66.4945 8.92549C63.8561 8.01901 60.8513 8.09341 57.4765 9.30118L57.3029 9.36422L57.3168 9.39378C57.1616 9.05787 56.9729 8.68473 56.7498 8.28359C56.1134 7.13942 55.3268 5.99568 54.3803 4.92653C53.45 3.87564 52.4123 2.95313 51.2626 2.19562C51.2452 2.18414 51.227 2.17372 51.2083 2.16441L50.1626 1.64447L50.135 1.63173C46.0252 -0.119854 42.3528 -0.416841 39.1146 0.527933ZM49.7117 2.54889L50.7135 3.04703L50.6887 3.03049C51.7591 3.73578 52.7299 4.59886 53.6034 5.58554C54.498 6.59612 55.244 7.68065 55.847 8.76476C56.0576 9.14352 56.2351 9.49457 56.3802 9.80857L56.4499 9.96228C56.4713 10.0102 56.4906 10.0549 56.5081 10.096L56.5469 10.1898C56.6498 10.4526 56.953 10.5817 57.2196 10.4764C60.6719 9.11303 63.6627 8.99243 66.2439 9.90638C68.3443 10.6501 70.1102 12.0548 71.5647 13.9349C72.3552 14.9568 73.0033 16.0541 73.5173 17.1513C73.697 17.5348 73.8469 17.8904 73.9682 18.2084L74.0264 18.3642C74.0382 18.3966 74.0493 18.4275 74.0597 18.4568L74.1067 18.5949C74.1805 18.8285 74.4153 18.9763 74.6631 18.9454C77.915 18.5396 80.5929 18.9069 82.7591 19.9246C84.552 20.7669 85.9478 22.0316 86.9983 23.611C87.7046 24.6728 88.2137 25.8136 88.5563 26.9543L88.5914 27.073C88.6597 27.3087 88.7176 27.5334 88.7658 27.7452L88.7974 27.8892H5.12015C1.08176 27.8892 -0.508278 22.7485 2.86566 20.5775C5.19511 19.07 8.26551 18.4514 12.1508 18.9453C12.3889 18.9755 12.6151 18.8408 12.6985 18.6234L12.7404 18.4994L12.7714 18.4114C12.788 18.3651 12.8063 18.3154 12.8261 18.2624L12.8466 18.2084C12.9676 17.8905 13.1171 17.5352 13.2965 17.152C13.8096 16.0555 14.4569 14.9589 15.247 13.9378C16.6997 12.06 18.4647 10.6568 20.5654 9.91315C23.1469 8.99925 26.14 9.11786 29.5962 10.4767C29.8633 10.5816 30.1664 10.4518 30.2687 10.1886L30.3072 10.0949L30.3444 10.0081C30.3709 9.94712 30.4008 9.88018 30.4342 9.80759C30.5783 9.49371 30.7547 9.14279 30.9642 8.76418C31.5639 7.68048 32.3066 6.59636 33.1982 5.58617C34.9212 3.63403 36.9846 2.19982 39.4091 1.49246C42.3726 0.62784 45.7529 0.888659 49.5923 2.49844L49.7117 2.54889Z" fill="#511E84"/>
<path fill-rule="evenodd" clip-rule="evenodd" d="M90.6931 74.7697C90.9197 74.6022 91.2422 74.6461 91.4135 74.8678C91.5847 75.0895 91.5398 75.4051 91.3132 75.5726C90.4734 76.1935 89.701 76.9145 88.9948 77.7161C88.1095 78.7209 87.3717 79.7992 86.7757 80.8771C86.5882 81.216 86.4274 81.5326 86.2926 81.8202L86.2486 81.9149C86.2072 82.0052 86.171 82.0867 86.1402 82.1587L86.0977 82.2598C86.0913 82.2754 86.0867 82.2868 86.084 82.2939C85.9816 82.557 85.6786 82.6868 85.4116 82.5818C81.9553 81.2231 78.9623 81.1044 76.3808 82.0183C74.2801 82.762 72.5151 84.1652 71.0623 86.043C70.2723 87.0641 69.625 88.1607 69.1119 89.2572C68.9504 89.6021 68.8131 89.9244 68.6991 90.2171L68.6619 90.3136C68.6409 90.3687 68.6216 90.4206 68.6039 90.4692L68.5305 90.6794L68.5239 90.6998C68.4501 90.9339 68.2146 91.082 67.9662 91.0505C64.0809 90.5566 61.0105 91.1752 58.6819 92.6821C55.3528 94.8339 56.8712 99.8919 60.8152 99.9928L60.9355 99.9944H144.595L144.587 99.9562C144.534 99.7146 144.468 99.4547 144.388 99.18L144.353 99.0614C144.01 97.9217 143.5 96.782 142.793 95.7211C140.651 92.5055 137.2 90.6738 132.067 90.9199C131.783 90.9335 131.542 90.7195 131.528 90.4419C131.514 90.1644 131.733 89.9283 132.017 89.9147C137.525 89.6507 141.318 91.664 143.655 95.1716C144.42 96.3206 144.97 97.5487 145.34 98.7767C145.47 99.2071 145.568 99.6074 145.639 99.9681L145.666 100.111C145.693 100.258 145.71 100.369 145.718 100.439C145.752 100.728 145.53 100.983 145.238 101L145.207 101.001H60.9355C55.8831 101.001 53.9008 94.5664 58.1147 91.8426C60.5413 90.2723 63.6754 89.5915 67.5399 89.9883L67.6824 90.0034L67.6981 89.9623C67.8146 89.6562 67.9551 89.3196 68.1206 88.9592L68.1767 88.8382C68.7192 87.6789 69.4034 86.5198 70.2422 85.4356C71.8067 83.4135 73.7251 81.8883 76.0308 81.072C78.6928 80.1296 81.7318 80.1887 85.1521 81.4071L85.3255 81.4697L85.3575 81.4011C85.4855 81.128 85.6348 80.8317 85.8059 80.5171L85.871 80.3982C86.5004 79.2601 87.2788 78.1225 88.2158 77.059C88.9678 76.2055 89.7926 75.4355 90.6931 74.7697Z" fill="#511E84"/>
<path fill-rule="evenodd" clip-rule="evenodd" d="M133.192 29.8131C136.395 28.8787 140.022 29.1589 144.077 30.8597L144.212 30.9169L144.24 30.9296L145.286 31.4496C145.304 31.4589 145.322 31.4693 145.34 31.4808C146.49 32.2383 147.527 33.1608 148.458 34.2117C149.404 35.2808 150.191 36.4246 150.827 37.5687C151.028 37.9298 151.201 38.2681 151.347 38.5771L151.38 38.6494L151.422 38.634C154.851 37.3807 157.899 37.2924 160.572 38.2106L160.671 38.2451C162.976 39.0615 164.895 40.5881 166.462 42.6126C167.301 43.6973 167.986 44.857 168.529 46.0169C168.7 46.3827 168.847 46.7255 168.969 47.0384L169.025 47.1842L169.076 47.1787C172.261 46.8454 174.949 47.2349 177.174 48.2527L177.281 48.3025C179.253 49.2289 180.788 50.6201 181.937 52.3471C182.702 53.4972 183.251 54.7264 183.62 55.9555C183.749 56.3863 183.847 56.7871 183.918 57.148L183.945 57.2907C183.972 57.4385 183.988 57.5496 183.997 57.6196C184.031 57.9085 183.809 58.163 183.516 58.1797L183.486 58.1805H133.156C132.872 58.1805 132.642 57.9552 132.642 57.6774C132.642 57.4094 132.856 57.1903 133.126 57.175L133.156 57.1742L182.874 57.174L182.866 57.1349C182.813 56.8931 182.748 56.633 182.668 56.358L182.633 56.2393C182.29 55.0986 181.781 53.9579 181.075 52.896C180.025 51.3167 178.629 50.0519 176.836 49.2096C174.67 48.192 171.992 47.8246 168.74 48.2304C168.502 48.2601 168.277 48.1255 168.194 47.9087L168.151 47.7847C168.123 47.7013 168.087 47.6038 168.045 47.4934C167.924 47.1754 167.774 46.8198 167.594 46.4363C167.08 45.3391 166.432 44.2418 165.641 43.2199C164.187 41.3398 162.421 39.9351 160.321 39.1914C157.739 38.2774 154.749 38.3981 151.296 39.7614C151.039 39.8629 150.748 39.7465 150.635 39.5025L150.585 39.381L150.547 39.2941C150.521 39.2332 150.491 39.1662 150.457 39.0936C150.312 38.7796 150.134 38.4285 149.924 38.0498C149.321 36.9657 148.575 35.8811 147.68 34.8706C146.845 33.9268 145.92 33.0961 144.904 32.4084L144.79 32.332L143.788 31.8339L143.669 31.7835C139.874 30.1922 136.527 29.919 133.588 30.7481L133.486 30.7775C131.061 31.4848 128.998 32.919 127.275 34.8712C126.383 35.8814 125.641 36.9655 125.041 38.0492C124.831 38.4278 124.655 38.7787 124.511 39.0926L124.463 39.1972C124.449 39.2306 124.434 39.2626 124.421 39.2931L124.349 39.4651C124.347 39.4684 124.346 39.4713 124.345 39.4737C124.243 39.7368 123.94 39.8666 123.673 39.7617C120.217 38.4029 117.224 38.2843 114.642 39.1982C112.541 39.9418 110.777 41.345 109.324 43.2228C108.534 44.244 107.886 45.3406 107.373 46.437C107.212 46.7819 107.075 47.1042 106.96 47.3969L106.923 47.4934C106.902 47.5485 106.883 47.6005 106.865 47.649L106.792 47.8592L106.785 47.8796C106.711 48.1138 106.476 48.2619 106.228 48.2303C102.342 47.7364 99.2719 48.355 96.9435 49.8618C96.7066 50.0151 96.3876 49.9515 96.2309 49.7197C96.0742 49.4879 96.1392 49.1757 96.3761 49.0224C98.8027 47.4521 101.937 46.7713 105.801 47.1681L105.944 47.1832L105.959 47.1421C106.076 46.8361 106.216 46.4994 106.382 46.139L106.438 46.018C106.981 44.8587 107.665 43.6996 108.504 42.6154C110.068 40.5933 111.987 39.0681 114.292 38.2519C116.954 37.3095 119.993 37.3685 123.414 38.5869L123.587 38.6495L123.62 38.5783C123.749 38.3037 123.899 38.0059 124.071 37.6895L124.136 37.5701C124.77 36.4261 125.553 35.2825 126.497 34.2134C128.339 32.1254 130.563 30.5802 133.192 29.8131Z" fill="#511E84"/>
<path fill-rule="evenodd" clip-rule="evenodd" d="M115.02 50.1461C115.946 50.1461 116.872 50.1964 117.763 50.2971V20.4757C117.763 18.832 116.392 17.4902 114.712 17.4902H34.7427C33.0628 17.4902 31.6914 18.832 31.6914 20.4757V67.0024C31.6914 68.6461 33.0628 69.9879 34.7427 69.9879H91.2953C93.0953 58.7504 103.021 50.1461 115.02 50.1461Z" fill="#00B0CA"/>
<path fill-rule="evenodd" clip-rule="evenodd" d="M115.273 18.6192C115.497 18.4489 115.82 18.489 115.994 18.7086C116.162 18.9198 116.13 19.2201 115.928 19.3943L115.903 19.4145L76.6314 49.2011C75.5204 50.051 74.0211 50.0644 72.8993 49.2428L72.8454 49.2024L33.5723 19.4145C33.3478 19.2443 33.3069 18.9282 33.4809 18.7086C33.6482 18.4974 33.9533 18.4523 34.1761 18.6005L34.2024 18.6192L73.4772 48.4083C74.2188 48.9756 75.201 48.9869 75.9538 48.4411L75.9996 48.407L115.273 18.6192Z" fill="#511E84"/>
<path fill-rule="evenodd" clip-rule="evenodd" d="M56.9271 36.4002C57.1308 36.2065 57.4564 36.211 57.6544 36.4102C57.8444 36.6015 57.8478 36.9028 57.6676 37.0979L57.6441 37.1218L32.9763 60.5864C32.7726 60.7801 32.447 60.7756 32.2491 60.5764C32.059 60.3851 32.0556 60.0838 32.2358 59.8887L32.2593 59.8648L56.9271 36.4002Z" fill="#511E84"/>
<path fill-rule="evenodd" clip-rule="evenodd" d="M92.0248 36.4099C92.215 36.2188 92.5227 36.2073 92.727 36.3782L92.752 36.4005L107.872 50.808C108.075 51.0019 108.079 51.3205 107.881 51.5196C107.691 51.7107 107.383 51.7222 107.179 51.5513L107.154 51.529L92.0344 37.1215C91.8309 36.9276 91.8266 36.609 92.0248 36.4099Z" fill="#511E84"/>
<path fill-rule="evenodd" clip-rule="evenodd" d="M115.019 49.6426C101.471 49.6426 90.4883 60.3883 90.4883 73.6439C90.4883 86.8995 101.471 97.6452 115.019 97.6452C128.567 97.6452 139.55 86.8995 139.55 73.6439C139.55 60.3883 128.567 49.6426 115.019 49.6426ZM115.019 50.6494C127.999 50.6494 138.521 60.9446 138.521 73.6444C138.521 86.3441 127.999 96.6393 115.019 96.6393C102.039 96.6393 91.5171 86.3441 91.5171 73.6444C91.5171 60.9446 102.039 50.6494 115.019 50.6494Z" fill="#511E84"/>
<path d="M105.243 69.5997C105.243 68.464 105.611 67.3144 106.346 66.1507C107.081 64.9871 108.142 64.0337 109.541 63.2766C110.955 62.5055 112.595 62.127 114.462 62.127C116.201 62.127 117.742 62.4494 119.071 63.0803C120.4 63.7112 121.432 64.5805 122.153 65.674C122.874 66.7676 123.242 67.9593 123.242 69.2492C123.242 70.2586 123.029 71.1419 122.619 71.913C122.209 72.6701 121.715 73.329 121.149 73.8898C120.584 74.4366 119.551 75.376 118.081 76.6798C117.671 77.0444 117.346 77.3668 117.105 77.6472C116.865 77.9276 116.681 78.18 116.554 78.4183C116.441 78.6567 116.342 78.881 116.271 79.1193C116.201 79.3577 116.102 79.7643 115.974 80.3391C115.748 81.5729 115.027 82.1897 113.825 82.1897C113.203 82.1897 112.68 81.9935 112.256 81.5869C111.832 81.1803 111.62 80.5774 111.62 79.7783C111.62 78.7829 111.775 77.9136 112.086 77.1846C112.397 76.4555 112.807 75.8106 113.33 75.2498C113.854 74.703 114.546 74.0441 115.423 73.2729C116.186 72.6 116.752 72.1093 117.091 71.7588C117.431 71.4223 117.728 71.0437 117.954 70.6231C118.194 70.2025 118.307 69.7539 118.307 69.2632C118.307 68.3098 117.954 67.5107 117.233 66.8517C116.512 66.1928 115.593 65.8703 114.462 65.8703C113.147 65.8703 112.171 66.2068 111.549 66.8658C110.927 67.5247 110.39 68.5061 109.965 69.7819C109.555 71.1279 108.778 71.8008 107.647 71.8008C106.968 71.8008 106.403 71.5625 105.95 71.0998C105.469 70.6512 105.243 70.1465 105.243 69.5997ZM114.037 89.1718C113.302 89.1718 112.666 88.9334 112.115 88.4708C111.563 87.9941 111.294 87.3491 111.294 86.4939C111.294 85.7368 111.563 85.1059 112.086 84.6012C112.609 84.0825 113.26 83.8301 114.037 83.8301C114.801 83.8301 115.437 84.0825 115.946 84.6012C116.469 85.1199 116.724 85.7509 116.724 86.4939C116.724 87.3211 116.455 87.9801 115.918 88.4567C115.366 88.9334 114.744 89.1718 114.037 89.1718Z" fill="#511E84"/>
</svg>
