<svg width="162" height="75" viewBox="0 0 162 75" fill="none" xmlns="http://www.w3.org/2000/svg">
<path fill-rule="evenodd" clip-rule="evenodd" d="M22.7132 14.455C24.0044 12.9564 25.5619 11.8474 27.4041 11.2969C29.6728 10.6188 32.2457 10.832 35.1251 12.089L35.1445 12.0982L35.8771 12.4713C35.8902 12.478 35.9029 12.4855 35.9151 12.4937C36.7206 13.0374 37.4476 13.6995 38.0994 14.4537C38.7625 15.221 39.3136 16.0419 39.7595 16.863C39.9112 17.1425 40.0402 17.403 40.1471 17.6385L40.147 17.6386L40.1568 17.6598C40.1536 17.6527 40.1504 17.6456 40.1471 17.6385L40.2686 17.5933C42.6331 16.7265 44.7382 16.6731 46.5867 17.3237L46.6559 17.3484C48.2712 17.9343 49.6158 19.03 50.7131 20.4829C51.301 21.2614 51.7809 22.0938 52.1616 22.9262C52.2951 23.2179 52.4067 23.4892 52.4976 23.7334L52.5089 23.7639L52.5445 23.76C54.776 23.5208 56.6596 23.8003 58.2182 24.5308L58.2934 24.5665C59.6749 25.2314 60.7506 26.2298 61.5555 27.4693C62.0914 28.2947 62.4758 29.1769 62.7344 30.059C62.8251 30.3682 62.8937 30.6558 62.9433 30.9149C62.9665 31.0364 62.9822 31.1325 62.9916 31.2002L62.9984 31.2533C63.0231 31.4678 62.8558 31.6559 62.6405 31.6559H3.58683C0.0436971 31.6559 -1.35138 27.0356 1.61056 25.0832C3.33113 23.9426 5.5594 23.4559 8.31201 23.763L8.31376 23.7632L8.35258 23.6597C8.42847 23.4602 8.51768 23.2437 8.62077 23.0138L8.66008 22.927C9.04019 22.095 9.51954 21.2631 10.1072 20.485C11.2033 19.0337 12.5474 17.9391 14.1628 17.3533C16.0517 16.6683 18.2116 16.7205 20.6455 17.6278L20.6747 17.6387L20.6979 17.5875C20.7881 17.3905 20.8933 17.1767 21.0138 16.9497L21.0598 16.864C21.5033 16.0429 22.0522 15.2222 22.7132 14.455ZM35.5303 13.1053L34.8285 12.7478L34.7448 12.7116C32.0549 11.5563 29.6866 11.3691 27.6104 11.9896C25.9118 12.4973 24.4661 13.5266 23.259 14.9277C22.6343 15.6527 22.114 16.4307 21.6938 17.2085C21.5471 17.4802 21.4235 17.7321 21.3225 17.9573C21.2991 18.0094 21.2782 18.0575 21.2596 18.1012L21.2335 18.1635L21.2065 18.2308C21.1348 18.4197 20.9225 18.5129 20.7354 18.4375C18.3139 17.4623 16.217 17.3772 14.4083 18.0331C12.9366 18.5668 11.7 19.5739 10.6822 20.9215C10.1287 21.6544 9.67516 22.4414 9.31566 23.2283C9.18999 23.5034 9.0852 23.7584 9.00044 23.9865L8.98612 24.0253C8.97219 24.0633 8.95942 24.099 8.9478 24.1322L8.92608 24.1954L8.89666 24.2843C8.83823 24.4404 8.67975 24.5371 8.51298 24.5154C5.79089 24.1609 3.63974 24.6049 2.00771 25.6868C-0.356108 27.2449 0.757889 30.9343 3.58722 30.9343H62.2123L62.1902 30.8309C62.1564 30.679 62.1159 30.5177 62.068 30.3485L62.0434 30.2633C61.8034 29.4447 61.4467 28.626 60.9519 27.8639C60.2159 26.7304 59.238 25.8227 57.9818 25.2182C56.4642 24.4878 54.588 24.2242 52.3097 24.5155C52.1361 24.5377 51.9716 24.4315 51.9199 24.2639L51.887 24.1648C51.8797 24.1437 51.8719 24.1216 51.8636 24.0983L51.8229 23.9865C51.7379 23.7583 51.6329 23.5031 51.507 23.2278C51.1468 22.4404 50.6928 21.6529 50.1389 20.9195C49.1199 19.5701 47.8827 18.562 46.4111 18.0282C44.6027 17.3723 42.5073 17.4589 40.0886 18.4373C39.9018 18.5129 39.6894 18.4202 39.6173 18.2317L39.5901 18.1643C39.5779 18.1348 39.5643 18.1028 39.5494 18.0684L39.5006 17.958C39.3989 17.7327 39.2745 17.4807 39.1269 17.2089C38.7045 16.4309 38.1819 15.6525 37.5551 14.9272C36.9431 14.2191 36.263 13.5997 35.513 13.0935L35.5303 13.1053ZM121.499 30.9623C122.79 29.4637 124.348 28.3548 126.19 27.8042C128.459 27.1261 131.032 27.3393 133.911 28.5964L133.93 28.6055L134.663 28.9787C134.676 28.9854 134.689 28.9928 134.701 29.0011C135.507 29.5447 136.234 30.2068 136.885 30.961C137.548 31.7283 138.1 32.5492 138.545 33.3703C138.697 33.6498 138.826 33.9103 138.933 34.1459L138.933 34.1459L138.943 34.1671C138.94 34.16 138.936 34.153 138.933 34.1459L139.055 34.1007C141.419 33.2339 143.524 33.1805 145.373 33.831L145.442 33.8558C147.057 34.4417 148.402 35.5373 149.499 36.9903C150.087 37.7688 150.567 38.6011 150.948 39.4335C151.081 39.7252 151.193 39.9965 151.284 40.2407L151.295 40.2712L151.331 40.2673C153.562 40.0281 155.446 40.3076 157.004 41.0381L157.079 41.0738C158.461 41.7387 159.537 42.7372 160.341 43.9766C160.877 44.802 161.262 45.6842 161.52 46.5664C161.611 46.8755 161.68 47.1631 161.729 47.4222C161.752 47.5437 161.768 47.6399 161.778 47.7075L161.784 47.7607C161.809 47.9751 161.642 48.1632 161.426 48.1632H102.373C98.8297 48.1632 97.4346 43.5429 100.397 41.5905C102.117 40.4499 104.345 39.9633 107.098 40.2703L107.1 40.2705L107.139 40.167C107.214 39.9675 107.304 39.7511 107.407 39.5211L107.446 39.4343C107.826 38.6023 108.306 37.7704 108.893 36.9923C109.989 35.541 111.333 34.4464 112.949 33.8606C114.838 33.1756 116.998 33.2278 119.432 34.1351L119.461 34.146L119.484 34.0949C119.574 33.8978 119.679 33.6841 119.8 33.457L119.846 33.3713C120.289 32.5502 120.838 31.7295 121.499 30.9623ZM134.316 29.6128L133.614 29.2553L133.531 29.2191C130.841 28.0638 128.473 27.8766 126.396 28.4971C124.698 29.0048 123.252 30.0341 122.045 31.4351C121.42 32.1601 120.9 32.9382 120.48 33.7159C120.333 33.9877 120.209 34.2395 120.108 34.4648C120.089 34.5086 120.071 34.5496 120.055 34.5876L120.046 34.6087L120.019 34.671L119.992 34.7383C119.921 34.9271 119.708 35.0203 119.521 34.945C117.1 33.9698 115.003 33.8846 113.194 34.5405C111.722 35.0743 110.486 36.0813 109.468 37.429C108.915 38.1619 108.461 38.9489 108.102 39.7358C107.976 40.0108 107.871 40.2658 107.786 40.4939L107.772 40.5327C107.766 40.5506 107.759 40.568 107.753 40.5848C107.746 40.6038 107.74 40.6221 107.734 40.6397L107.712 40.7028L107.683 40.7918C107.624 40.9478 107.466 41.0445 107.299 41.0228C104.577 40.6683 102.426 41.1123 100.794 42.1942C98.4298 43.7523 99.5438 47.4417 102.373 47.4417H160.998L160.976 47.3384C160.942 47.1864 160.902 47.0251 160.854 46.856L160.829 46.7708C160.589 45.9521 160.233 45.1334 159.738 44.3714C159.002 43.2379 158.024 42.3302 156.768 41.7257C155.25 40.9953 153.374 40.7316 151.096 41.0229C150.922 41.0451 150.758 40.939 150.706 40.7714L150.673 40.6723C150.67 40.6629 150.666 40.6533 150.663 40.6435C150.659 40.6312 150.654 40.6187 150.65 40.6057L150.609 40.494C150.524 40.2657 150.419 40.0105 150.293 39.7353C149.933 38.9478 149.479 38.1603 148.925 37.4269C147.906 36.0776 146.669 35.0695 145.197 34.5357C143.389 33.8797 141.293 33.9663 138.875 34.9448C138.688 35.0203 138.475 34.9277 138.403 34.7391L138.376 34.6718C138.364 34.6422 138.35 34.6102 138.335 34.5758L138.286 34.4655C138.185 34.2401 138.06 33.9882 137.913 33.7164C137.49 32.9383 136.968 32.1599 136.341 31.4347C135.729 30.7265 135.049 30.1071 134.299 29.6009L134.316 29.6128Z" fill="#452FBA"/>
<path d="M94.0841 29.2985H90.9218V15.5514C90.9218 9.06897 85.8195 3.78918 79.4928 3.78918C73.1639 3.78918 68.088 9.09627 68.088 15.5514V29.2735H64.9014V15.5514C64.9014 7.23494 71.4583 0.5 79.4928 0.5C87.5272 0.5 94.0841 7.23494 94.0841 15.5514V29.2985Z" fill="white" stroke="#452FBA"/>
<path d="M101.01 51.319C101.01 52.247 100.28 52.9995 99.3796 52.9995H59.6308C58.7302 52.9995 58 52.247 58 51.319V24.7059C58 23.7779 58.7302 23.0254 59.6308 23.0254H99.3796C100.28 23.0254 101.01 23.7779 101.01 24.7059V51.319Z" fill="#452FBA"/>
<path d="M83.0714 33.5107C83.0714 31.479 81.4892 29.8486 79.5176 29.8486C77.546 29.8486 75.9639 31.479 75.9639 33.5107C75.9639 34.7147 76.5237 35.7933 77.4 36.4454L76.2803 44.7228H82.755L81.6353 36.4454C82.4872 35.7682 83.0714 34.7147 83.0714 33.5107Z" fill="white"/>
<circle cx="101" cy="53" r="16" fill="#00BF8E"/>
<path d="M96.2002 53.121L99.6594 56.6083L106.413 49.7998" stroke="white" stroke-width="2"/>
<path fill-rule="evenodd" clip-rule="evenodd" d="M67.5514 53.6416C69.2706 54.1922 70.7242 55.3011 71.9293 56.7997C72.5462 57.5669 73.0585 58.3876 73.4724 59.2087L73.5152 59.2944C73.6278 59.5215 73.7259 59.7352 73.8101 59.9323L73.8318 59.9834L73.859 59.9725C76.1305 59.0652 78.1463 59.013 79.9092 59.698C81.4168 60.2838 82.6712 61.3784 83.6941 62.8297C84.2426 63.6078 84.69 64.4397 85.0447 65.2717L85.0814 65.3585C85.1776 65.5885 85.2609 65.8049 85.3317 66.0044L85.3679 66.1079L85.3696 66.1077C87.9385 65.8007 90.0181 66.2873 91.6239 67.4279C94.3882 69.3803 93.0862 74.0006 89.7795 74.0006H34.6661C34.4651 74.0006 34.309 73.8125 34.3321 73.5981L34.3384 73.545C34.3472 73.4773 34.3618 73.3811 34.3835 73.2596C34.4298 73.0005 34.4938 72.7129 34.5784 72.4038C34.8198 71.5216 35.1785 70.6394 35.6787 69.814C36.4298 68.5746 37.4338 67.5761 38.7232 66.9112L38.7933 66.8755C40.2479 66.145 42.0059 65.8655 44.0884 66.1047L44.1217 66.1087L44.1322 66.0781C44.217 65.8339 44.3212 65.5626 44.4457 65.2709C44.8011 64.4385 45.2489 63.6062 45.7976 62.8277C46.8217 61.3747 48.0766 60.2791 49.5841 59.6932L49.6487 59.6684C51.3739 59.0179 53.3385 59.0713 55.5452 59.9381L55.6587 59.9833L55.6496 60.0045C55.7511 59.7634 55.8745 59.4956 56.0204 59.2077C56.4365 58.3866 56.9509 57.5657 57.5697 56.7984C58.178 56.0442 58.8565 55.3821 59.6083 54.8385C59.6197 54.8302 59.6315 54.8228 59.6437 54.8161L60.3275 54.4429L60.3455 54.4338C63.0328 53.1767 65.434 52.9635 67.5514 53.6416Z" fill="white"/>
<path d="M67.5514 53.6416L67.7039 53.1654L67.5514 53.6416ZM71.9293 56.7997L72.3189 56.4864L71.9293 56.7997ZM73.4724 59.2087L73.9189 58.9836L73.9196 58.9851L73.4724 59.2087ZM73.5152 59.2944L73.9625 59.0709L73.9633 59.0724L73.5152 59.2944ZM73.8101 59.9323L74.2699 59.7358L74.2704 59.7371L73.8101 59.9323ZM73.8318 59.9834L74.0178 60.4475L73.5627 60.6299L73.3714 60.1785L73.8318 59.9834ZM73.859 59.9725L73.6729 59.5084L73.6735 59.5082L73.859 59.9725ZM79.9092 59.698L80.0903 59.232L79.9092 59.698ZM83.6941 62.8297L83.2854 63.1178L83.6941 62.8297ZM85.0447 65.2717L85.5047 65.0756L85.5053 65.0771L85.0447 65.2717ZM85.0814 65.3585L85.542 65.164L85.5426 65.1655L85.0814 65.3585ZM85.3317 66.0044L85.8029 65.8372L85.8036 65.8392L85.3317 66.0044ZM85.3679 66.1079L85.433 66.6037L85.0302 66.6566L84.896 66.2732L85.3679 66.1079ZM85.3696 66.1077L85.3045 65.6119L85.3102 65.6112L85.3696 66.1077ZM91.6239 67.4279L91.3354 67.8363L91.3343 67.8356L91.6239 67.4279ZM34.3321 73.5981L33.8349 73.5446L33.8356 73.5386L34.3321 73.5981ZM34.3384 73.545L33.842 73.4854L33.8426 73.4806L34.3384 73.545ZM34.3835 73.2596L34.8757 73.3476L34.3835 73.2596ZM34.5784 72.4038L34.0962 72.2718L34.5784 72.4038ZM35.6787 69.814L36.1063 70.0732L35.6787 69.814ZM38.7232 66.9112L38.494 66.4668L38.4964 66.4656L38.7232 66.9112ZM38.7933 66.8755L38.5665 66.4299L38.5689 66.4287L38.7933 66.8755ZM44.0884 66.1047L44.1455 65.608L44.1472 65.6082L44.0884 66.1047ZM44.1217 66.1087L44.5946 66.2709L44.4637 66.6526L44.0629 66.6052L44.1217 66.1087ZM44.1322 66.0781L43.6592 65.9158L43.6599 65.914L44.1322 66.0781ZM44.4457 65.2709L43.9859 65.0746L44.4457 65.2709ZM45.7976 62.8277L45.3889 62.5396L45.7976 62.8277ZM49.5841 59.6932L49.403 59.2271L49.4053 59.2262L49.5841 59.6932ZM49.6487 59.6684L49.4699 59.2015L49.4723 59.2006L49.6487 59.6684ZM55.5452 59.9381L55.7281 59.4727L55.7304 59.4736L55.5452 59.9381ZM55.6587 59.9833L55.8439 59.5189L56.3205 59.7089L56.1182 60.1804L55.6587 59.9833ZM55.6496 60.0045L56.1091 60.2017L55.1888 59.8105L55.6496 60.0045ZM56.0204 59.2077L55.5744 58.9817L56.0204 59.2077ZM57.5697 56.7984L57.1805 56.4845L57.5697 56.7984ZM59.6083 54.8385L59.3153 54.4333L59.6083 54.8385ZM59.6437 54.8161L59.8833 55.255V55.255L59.6437 54.8161ZM60.3275 54.4429L60.0879 54.004L60.0947 54.0003L60.1017 53.9968L60.3275 54.4429ZM60.3455 54.4338L60.1197 53.9877L60.1266 53.9842L60.1337 53.9809L60.3455 54.4338ZM67.7039 53.1654C69.5353 53.7519 71.0662 54.9285 72.3189 56.4864L71.5396 57.113C70.3823 55.6737 69.006 54.6324 67.3989 54.1178L67.7039 53.1654ZM72.3189 56.4864C72.96 57.2836 73.4908 58.1345 73.9189 58.9836L73.0259 59.4338C72.6261 58.6408 72.1324 57.8502 71.5396 57.113L72.3189 56.4864ZM73.9196 58.9851L73.9625 59.0709L73.068 59.518L73.0251 59.4323L73.9196 58.9851ZM73.9633 59.0724C74.0798 59.3076 74.1819 59.5298 74.2699 59.7358L73.3503 60.1287C73.2699 59.9405 73.1757 59.7353 73.0672 59.5165L73.9633 59.0724ZM74.2704 59.7371L74.2921 59.7883L73.3714 60.1785L73.3497 60.1274L74.2704 59.7371ZM73.6458 59.5193L73.6729 59.5084L74.045 60.4366L74.0178 60.4475L73.6458 59.5193ZM73.6735 59.5082C76.0377 58.5639 78.1866 58.4922 80.0903 59.232L79.7281 60.1641C78.106 59.5338 76.2233 59.5666 74.0444 60.4369L73.6735 59.5082ZM80.0903 59.232C81.7105 59.8615 83.0376 61.0305 84.1028 62.5416L83.2854 63.1178C82.3047 61.7264 81.1231 60.7061 79.7281 60.1641L80.0903 59.232ZM84.1028 62.5416C84.6739 63.3518 85.1378 64.2152 85.5047 65.0756L84.5848 65.4678C84.2421 64.6642 83.8113 63.8637 83.2854 63.1178L84.1028 62.5416ZM85.5053 65.0771L85.542 65.164L84.6208 65.5531L84.5841 65.4663L85.5053 65.0771ZM85.5426 65.1655C85.6423 65.4037 85.7289 65.6287 85.8029 65.8372L84.8605 66.1717C84.7928 65.9811 84.7129 65.7732 84.6201 65.5515L85.5426 65.1655ZM85.8036 65.8392L85.8398 65.9427L84.896 66.2732L84.8598 66.1697L85.8036 65.8392ZM85.3028 65.6122L85.3045 65.612L85.4346 66.6035L85.433 66.6037L85.3028 65.6122ZM85.3102 65.6112C87.9759 65.2926 90.1865 65.7937 91.9134 67.0203L91.3343 67.8356C89.8497 66.781 87.9011 66.3087 85.4289 66.6042L85.3102 65.6112ZM91.9123 67.0195C93.497 68.1388 93.8997 70.0161 93.4596 71.5817C93.0192 73.1484 91.7031 74.5006 89.7795 74.5006V73.5006C91.1625 73.5006 92.1508 72.5426 92.4969 71.3111C92.8434 70.0785 92.515 68.6695 91.3354 67.8363L91.9123 67.0195ZM89.7795 74.5006H34.6661V73.5006H89.7795V74.5006ZM34.6661 74.5006C34.1294 74.5006 33.7844 74.0151 33.8349 73.5446L34.8292 73.6515C34.8323 73.6227 34.8237 73.5892 34.7998 73.5605C34.7753 73.5309 34.7282 73.5006 34.6661 73.5006V74.5006ZM33.8356 73.5386L33.842 73.4854L34.8349 73.6045L34.8285 73.6576L33.8356 73.5386ZM33.8426 73.4806C33.8526 73.4036 33.8685 73.2994 33.8913 73.1716L34.8757 73.3476C34.8551 73.4628 34.8418 73.5509 34.8343 73.6093L33.8426 73.4806ZM33.8913 73.1716C33.9403 72.8973 34.0077 72.595 34.0962 72.2718L35.0607 72.5357C34.9799 72.8308 34.9193 73.1038 34.8757 73.3476L33.8913 73.1716ZM34.0962 72.2718C34.3483 71.3504 34.7241 70.4245 35.2511 69.5549L36.1063 70.0732C35.6329 70.8544 35.2914 71.6928 35.0607 72.5357L34.0962 72.2718ZM35.2511 69.5549C36.0442 68.2462 37.1132 67.1789 38.494 66.4668L38.9523 67.3556C37.7544 67.9733 36.8155 68.9029 36.1063 70.0732L35.2511 69.5549ZM38.4964 66.4656L38.5665 66.4299L39.0201 67.3211L38.9499 67.3568L38.4964 66.4656ZM38.5689 66.4287C40.1269 65.6463 41.9863 65.36 44.1455 65.608L44.0313 66.6014C42.0254 66.371 40.3689 66.6437 39.0177 67.3223L38.5689 66.4287ZM44.1472 65.6082L44.1804 65.6121L44.0629 66.6052L44.0297 66.6013L44.1472 65.6082ZM43.6487 65.9464L43.6592 65.9158L44.6051 66.2403L44.5946 66.2709L43.6487 65.9464ZM43.6599 65.914C43.7486 65.6585 43.857 65.3765 43.9859 65.0746L44.9056 65.4672C44.7854 65.7487 44.6854 66.0093 44.6045 66.2422L43.6599 65.914ZM43.9859 65.0746C44.3533 64.2139 44.8177 63.3502 45.3889 62.5396L46.2063 63.1157C45.6802 63.8622 45.2489 64.6631 44.9056 65.4672L43.9859 65.0746ZM45.3889 62.5396C46.4551 61.0269 47.7827 59.8568 49.403 59.2271L49.7652 60.1592C48.3705 60.7013 47.1883 61.7225 46.2063 63.1157L45.3889 62.5396ZM49.4053 59.2262L49.4699 59.2015L49.8275 60.1354L49.7629 60.1601L49.4053 59.2262ZM49.4723 59.2006C51.3352 58.4981 53.4298 58.5699 55.728 59.4727L55.3624 60.4034C53.2473 59.5726 51.4125 59.5377 49.8251 60.1363L49.4723 59.2006ZM55.7304 59.4736L55.8439 59.5189L55.4735 60.4477L55.3601 60.4025L55.7304 59.4736ZM56.1182 60.1804L56.1091 60.2017L55.1901 59.8074L55.1992 59.7862L56.1182 60.1804ZM55.1888 59.8105C55.2951 59.5581 55.4234 59.2797 55.5744 58.9817L56.4664 59.4337C56.3256 59.7116 56.2072 59.9688 56.1104 60.1986L55.1888 59.8105ZM55.5744 58.9817C56.0046 58.1326 56.5375 57.2818 57.1805 56.4845L57.9589 57.1123C57.3642 57.8497 56.8683 58.6405 56.4664 59.4337L55.5744 58.9817ZM57.1805 56.4845C57.813 55.7004 58.523 55.0062 59.3153 54.4333L59.9013 55.2436C59.19 55.758 58.5431 56.3881 57.9589 57.1123L57.1805 56.4845ZM59.3153 54.4333C59.3436 54.4128 59.3733 54.394 59.4042 54.3772L59.8833 55.255C59.8897 55.2515 59.8957 55.2477 59.9013 55.2436L59.3153 54.4333ZM59.4042 54.3772L60.0879 54.004L60.567 54.8818L59.8833 55.255L59.4042 54.3772ZM60.1017 53.9968L60.1197 53.9877L60.5713 54.8799L60.5533 54.889L60.1017 53.9968ZM60.1337 53.9809C62.9075 52.6833 65.4403 52.4405 67.7039 53.1654L67.3989 54.1178C65.4277 53.4865 63.158 53.6701 60.5574 54.8867L60.1337 53.9809Z" fill="#452FBA"/>
</svg>
