<svg width="103" height="115" viewBox="0 0 103 115" fill="none" xmlns="http://www.w3.org/2000/svg">
<path d="M102.025 113.9L66.1117 78.2439C58.0415 70.2331 44.9578 70.2331 36.8875 78.2439L0.974609 113.9L102.018 113.9V47.6604M86.9343 27.7811L102.018 42.7708L59.0166 73.153M31.149 12.8102L36.8813 7.10883C44.614 -0.568524 56.9538 -0.889464 65.074 6.14602M0.974609 42.7708L16.4025 27.3846M0.974609 42.7708V106.493M0.974609 42.7708L43.9763 73.153M30.9052 29.6438H72.0878M30.9052 37.2645H72.0878M30.9052 44.8852H72.0878M30.9052 50.939H60.5232M16.4025 48.1072V11.709C16.4025 11.709 29.4486 15.0127 53.0718 10.293C76.6949 5.57336 86.6343 10.293 86.6343 10.293V53.6386" stroke="#00B0CA" stroke-width="1.5" stroke-miterlimit="10" stroke-linecap="round" stroke-linejoin="round"/>
</svg>
