<svg width="107" height="131" viewBox="0 0 107 131" fill="none" xmlns="http://www.w3.org/2000/svg">
<path fill-rule="evenodd" clip-rule="evenodd" d="M26.5283 1.22811C22.6702 1.22811 19.5455 4.32713 19.5455 8.15353V64.7231C19.5455 64.9829 19.3331 65.1936 19.0711 65.1936C18.8091 65.1936 18.5967 64.9829 18.5967 64.7231V8.15353C18.5967 3.80743 22.1462 0.287109 26.5283 0.287109H80.4623C84.8444 0.287109 88.3939 3.80743 88.3939 8.15353V17.343C88.3939 17.6028 88.1815 17.8135 87.9195 17.8135C87.6575 17.8135 87.4451 17.6028 87.4451 17.343V8.15353C87.4451 4.32713 84.3204 1.22811 80.4623 1.22811H26.5283Z" fill="#00B0CA"/>
<path fill-rule="evenodd" clip-rule="evenodd" d="M87.9195 99.0688C88.1815 99.0688 88.3939 99.2795 88.3939 99.5393V122.846C88.3939 127.192 84.8444 130.712 80.4623 130.712H26.5283C22.1462 130.712 18.5967 127.192 18.5967 122.846V108.784C18.5967 108.524 18.8091 108.314 19.0711 108.314C19.3331 108.314 19.5455 108.524 19.5455 108.784V122.846C19.5455 126.672 22.6702 129.771 26.5283 129.771H80.4623C84.3204 129.771 87.4451 126.672 87.4451 122.846V99.5393C87.4451 99.2795 87.6575 99.0688 87.9195 99.0688Z" fill="#00B0CA"/>
<path fill-rule="evenodd" clip-rule="evenodd" d="M21.5889 17.3337C21.5889 17.0739 21.8013 16.8632 22.0633 16.8632H87.9195C88.1815 16.8632 88.3939 17.0739 88.3939 17.3337C88.3939 17.5936 88.1815 17.8042 87.9195 17.8042H22.0633C21.8013 17.8042 21.5889 17.5936 21.5889 17.3337Z" fill="#00B0CA"/>
<path fill-rule="evenodd" clip-rule="evenodd" d="M18.5967 108.784C18.5967 108.524 18.8091 108.314 19.0711 108.314H84.862C85.124 108.314 85.3364 108.524 85.3364 108.784C85.3364 109.044 85.124 109.255 84.862 109.255H19.0711C18.8091 109.255 18.5967 109.044 18.5967 108.784Z" fill="#00B0CA"/>
<path fill-rule="evenodd" clip-rule="evenodd" d="M53.4953 114.256C50.5655 114.256 48.1904 116.612 48.1904 119.518C48.1904 122.423 50.5655 124.779 53.4953 124.779C56.4251 124.779 58.8002 122.423 58.8002 119.518C58.8002 116.612 56.4251 114.256 53.4953 114.256ZM47.2416 119.518C47.2416 116.092 50.0415 113.315 53.4953 113.315C56.9491 113.315 59.749 116.092 59.749 119.518C59.749 122.943 56.9491 125.72 53.4953 125.72C50.0415 125.72 47.2416 122.943 47.2416 119.518Z" fill="#00B0CA"/>
<path fill-rule="evenodd" clip-rule="evenodd" d="M53.2184 31.272C53.3839 31.1541 53.6067 31.1541 53.7722 31.272C56.7427 33.3893 60.3845 34.6412 64.3175 34.6412C65.5982 34.6412 66.8518 34.506 68.0602 34.2537C68.2027 34.224 68.351 34.2607 68.4626 34.3534C68.5741 34.4461 68.6367 34.5845 68.6321 34.7288C68.228 47.6206 62.1351 58.5169 53.6888 62.259C53.5657 62.3135 53.4249 62.3135 53.3018 62.259C44.8555 58.5169 38.7627 47.6207 38.3492 34.7291C38.3445 34.5849 38.4069 34.4465 38.5183 34.3538C38.6298 34.261 38.7779 34.2241 38.9204 34.2536C40.1387 34.5061 41.3925 34.6412 42.6731 34.6412C46.6153 34.6412 50.2478 33.3894 53.2184 31.272ZM53.4953 32.2298C50.4219 34.3401 46.7002 35.5822 42.6731 35.5822C41.5326 35.5822 40.4131 35.4804 39.3205 35.2884C39.886 47.6009 45.7193 57.7442 53.4953 61.3126C61.2712 57.7442 67.1043 47.6011 67.6612 35.289C66.575 35.4806 65.4566 35.5822 64.3175 35.5822C60.2996 35.5822 56.5693 34.3401 53.4953 32.2298ZM60.2975 41.7514C60.5023 41.9135 60.5359 42.2095 60.3726 42.4127L53.4281 51.0474C53.3439 51.152 53.2188 51.2162 53.0841 51.2238C52.9493 51.2313 52.8177 51.1816 52.7222 51.0871L48.9936 47.3984C48.8081 47.2149 48.8077 46.917 48.9927 46.733C49.1778 46.549 49.4781 46.5487 49.6636 46.7322L53.0169 50.0496L59.6308 41.8259C59.7942 41.6227 60.0927 41.5894 60.2975 41.7514Z" fill="#00B0CA"/>
<path fill-rule="evenodd" clip-rule="evenodd" d="M0.625 75.5026C0.625 72.0722 3.42826 69.2818 6.89735 69.2818V69.7523V70.2228C3.95326 70.2228 1.57379 72.591 1.57379 75.5026V88.2421C1.57379 91.3843 4.13919 93.9287 7.30749 93.9287H100.103C103.047 93.9287 105.426 91.5605 105.426 88.6488V75.5026C105.426 72.5827 103.038 70.2228 100.103 70.2228H6.89831C6.89831 70.2228 6.89735 70.2228 6.89735 69.7523C6.89735 69.2818 6.89831 69.2818 6.89831 69.2818H100.103C103.561 69.2818 106.375 72.062 106.375 75.5026V88.6488C106.375 92.0792 103.572 94.8697 100.103 94.8697H7.30749C3.61519 94.8697 0.625 91.904 0.625 88.2421V75.5026Z" fill="#00B0CA"/>
<path fill-rule="evenodd" clip-rule="evenodd" d="M12.337 77.7298C12.564 77.6 12.8541 77.6772 12.985 77.9022L14.8625 81.1296L16.74 77.9022C16.871 77.6772 17.1611 77.6 17.388 77.7298C17.615 77.8597 17.6928 78.1474 17.5619 78.3725L15.6812 81.6052H19.444C19.706 81.6052 19.9184 81.8159 19.9184 82.0757C19.9184 82.3356 19.706 82.5462 19.444 82.5462H15.6866L17.5619 85.7697C17.6928 85.9947 17.615 86.2825 17.388 86.4123C17.1611 86.5422 16.871 86.465 16.74 86.2399L14.8625 83.0126L12.985 86.2399C12.8541 86.465 12.564 86.5422 12.337 86.4123C12.1101 86.2825 12.0323 85.9947 12.1632 85.7697L14.0384 82.5462H10.2904C10.0283 82.5462 9.81596 82.3356 9.81596 82.0757C9.81596 81.8159 10.0283 81.6052 10.2904 81.6052H14.0438L12.1632 78.3725C12.0323 78.1474 12.1101 77.8597 12.337 77.7298ZM58.5901 77.7298C58.8171 77.6 59.1072 77.6772 59.2381 77.9022L61.1156 81.1296L62.9931 77.9022C63.1241 77.6772 63.4142 77.6 63.6411 77.7298C63.8681 77.8597 63.9459 78.1474 63.815 78.3725L61.9343 81.6052H65.6971C65.9591 81.6052 66.1715 81.8159 66.1715 82.0757C66.1715 82.3356 65.9591 82.5462 65.6971 82.5462H61.9397L63.815 85.7697C63.9459 85.9947 63.8681 86.2825 63.6411 86.4123C63.4142 86.5422 63.1241 86.465 62.9931 86.2399L61.1156 83.0126L59.2381 86.2399C59.1072 86.465 58.8171 86.5422 58.5901 86.4123C58.3632 86.2825 58.2854 85.9947 58.4163 85.7697L60.2915 82.5462H56.5341C56.2721 82.5462 56.0597 82.3356 56.0597 82.0757C56.0597 81.8159 56.2721 81.6052 56.5341 81.6052H60.2969L58.4163 78.3725C58.2854 78.1474 58.3632 77.8597 58.5901 77.7298ZM74.185 77.7298C74.4119 77.6 74.702 77.6772 74.8329 77.9022L76.7104 81.1296L78.588 77.9022C78.7189 77.6772 79.009 77.6 79.236 77.7298C79.4629 77.8597 79.5407 78.1474 79.4098 78.3725L77.5292 81.6052H81.2919C81.5539 81.6052 81.7663 81.8159 81.7663 82.0757C81.7663 82.3356 81.5539 82.5462 81.2919 82.5462H77.5345L79.4098 85.7697C79.5407 85.9947 79.4629 86.2825 79.236 86.4123C79.009 86.5422 78.7189 86.465 78.588 86.2399L76.7104 83.0126L74.8329 86.2399C74.702 86.465 74.4119 86.5422 74.185 86.4123C73.958 86.2825 73.8802 85.9947 74.0111 85.7697L75.8864 82.5462H72.1289C71.8669 82.5462 71.6545 82.3356 71.6545 82.0757C71.6545 81.8159 71.8669 81.6052 72.1289 81.6052H75.8917L74.0111 78.3725C73.8802 78.1474 73.958 77.8597 74.185 77.7298ZM89.6026 77.7298C89.8296 77.6 90.1197 77.6772 90.2506 77.9022L92.1281 81.1296L94.0057 77.9022C94.1366 77.6772 94.4267 77.6 94.6536 77.7298C94.8806 77.8597 94.9584 78.1474 94.8275 78.3725L92.9469 81.6052H96.7003C96.9623 81.6052 97.1747 81.8159 97.1747 82.0757C97.1747 82.3356 96.9623 82.5462 96.7003 82.5462H92.9522L94.8275 85.7697C94.9584 85.9947 94.8806 86.2825 94.6536 86.4123C94.4267 86.5422 94.1366 86.465 94.0057 86.2399L92.1281 83.0126L90.2506 86.2399C90.1197 86.465 89.8296 86.5422 89.6026 86.4123C89.3757 86.2825 89.2979 85.9947 89.4288 85.7697L91.304 82.5462H87.5466C87.2846 82.5462 87.0722 82.3356 87.0722 82.0757C87.0722 81.8159 87.2846 81.6052 87.5466 81.6052H91.3094L89.4288 78.3725C89.2979 78.1474 89.3757 77.8597 89.6026 77.7298ZM27.8289 77.73C28.0558 77.6 28.3459 77.6769 28.4771 77.9019L30.3595 81.1311L32.2418 77.9019C32.373 77.6769 32.6632 77.6 32.89 77.73C33.1168 77.8601 33.1944 78.1479 33.0632 78.3729L31.179 81.6052H34.9363C35.1983 81.6052 35.4107 81.8159 35.4107 82.0757C35.4107 82.3356 35.1983 82.5462 34.9363 82.5462H31.1844L33.0632 85.7693C33.1944 85.9943 33.1168 86.2821 32.89 86.4121C32.6632 86.5422 32.373 86.4652 32.2418 86.2403L30.3595 83.0111L28.4771 86.2403C28.3459 86.4652 28.0558 86.5422 27.8289 86.4121C27.6021 86.2821 27.5246 85.9943 27.6557 85.7693L29.5345 82.5462H25.7826C25.5206 82.5462 25.3082 82.3356 25.3082 82.0757C25.3082 81.8159 25.5206 81.6052 25.7826 81.6052H29.5399L27.6557 78.3729C27.5246 78.1479 27.6021 77.8601 27.8289 77.73ZM43.3212 77.73C43.548 77.6 43.8382 77.6769 43.9693 77.9019L45.8517 81.1311L47.7341 77.9019C47.8653 77.6769 48.1554 77.6 48.3823 77.73C48.6091 77.8601 48.6866 78.1479 48.5555 78.3729L46.6713 81.6052H50.4286C50.6906 81.6052 50.903 81.8159 50.903 82.0757C50.903 82.3356 50.6906 82.5462 50.4286 82.5462H46.6767L48.5555 85.7693C48.6866 85.9943 48.6091 86.2821 48.3823 86.4121C48.1554 86.5422 47.8653 86.4652 47.7341 86.2403L45.8517 83.0111L43.9693 86.2403C43.8382 86.4652 43.548 86.5422 43.3212 86.4121C43.0944 86.2821 43.0168 85.9943 43.148 85.7693L45.0268 82.5462H41.2749C41.0129 82.5462 40.8005 82.3356 40.8005 82.0757C40.8005 81.8159 41.0129 81.6052 41.2749 81.6052H45.0322L43.148 78.3729C43.0168 78.1479 43.0944 77.8601 43.3212 77.73Z" fill="#00B0CA"/>
<path fill-rule="evenodd" clip-rule="evenodd" d="M87.9195 16.854C88.1815 16.854 88.3939 17.0646 88.3939 17.3245V64.7231C88.3939 64.9829 88.1815 65.1936 87.9195 65.1936C87.6575 65.1936 87.4451 64.9829 87.4451 64.7231V17.3245C87.4451 17.0646 87.6575 16.854 87.9195 16.854Z" fill="#00B0CA"/>
<path fill-rule="evenodd" clip-rule="evenodd" d="M19.0712 99.0688C19.3332 99.0688 19.5456 99.2795 19.5456 99.5393V108.84C19.5456 109.1 19.3332 109.31 19.0712 109.31C18.8092 109.31 18.5968 109.1 18.5968 108.84V99.5393C18.5968 99.2795 18.8092 99.0688 19.0712 99.0688Z" fill="#00B0CA"/>
</svg>
