<svg width="21" height="19" viewBox="0 0 21 19" fill="none" xmlns="http://www.w3.org/2000/svg">
<path d="M17.2364 1.8009H14.6818V0.90045C14.6818 0.405203 14.2727 0 13.7727 0C13.2727 0 12.8636 0.405203 12.8636 0.90045V1.8009H7.40909V0.90045C7.40909 0.405203 7 0 6.5 0C6 0 5.59091 0.405203 5.59091 0.90045V1.8009H2.52727C1.18182 1.8009 0 2.90845 0 4.16908C0 4.66433 0.409091 5.06953 0.909091 5.06953C1.40909 5.06953 1.81818 4.66433 1.81818 4.16908C1.81818 3.98899 2.08182 3.6018 2.52727 3.6018H5.59091V4.61931C5.59091 5.11456 6 5.51976 6.5 5.51976C7 5.51976 7.40909 5.11456 7.40909 4.61931V3.6018H12.8636V4.61931C12.8636 5.11456 13.2727 5.51976 13.7727 5.51976C14.2727 5.51976 14.6818 5.11456 14.6818 4.61931V3.6018H17.2364C17.7818 3.6018 18.1818 3.89895 18.1818 4.16908V15.6318C18.1818 15.902 17.7818 16.1991 17.2364 16.1991H2.76364C2.21818 16.1991 1.81818 15.902 1.81818 15.6318V8.78839H15.1C15.6 8.78839 16.0091 8.38319 16.0091 7.88794C16.0091 7.3927 15.6 6.98749 15.1 6.98749H0.909091C0.409091 6.98749 0 7.3927 0 7.88794V15.6408C0 16.9465 1.23636 18.009 2.76364 18.009H17.2455C18.7636 18.009 20.0091 16.9465 20.0091 15.6408V4.16908C20 2.86343 18.7636 1.8009 17.2364 1.8009Z" fill="#00B0CA"/>
</svg>
