<svg width="24" height="24" viewBox="0 0 24 24" fill="none" xmlns="http://www.w3.org/2000/svg">
<path d="M2 12C2 17.51 6.49 22 12 22C17.51 22 22 17.51 22 12C22 6.49 17.51 2 12 2C10.14 2 8.33 2.51 6.76 3.48C6.29 3.77 6.14 4.39 6.43 4.86C6.72 5.33 7.34 5.47 7.81 5.19C9.07 4.41 10.52 4 12 4C16.41 4 20 7.59 20 12C20 16.41 16.41 20 12 20C7.59 20 4 16.41 4 12C4 10.94 4.2 9.92 4.6 8.96C4.81 8.45 4.57 7.86 4.06 7.65C3.55 7.44 2.96 7.68 2.75 8.19C2.25 9.4 2 10.68 2 12Z" fill="#00B0CA"/>
<path d="M12 13H16C16.55 13 17 12.55 17 12C17 11.45 16.55 11 16 11H13V6.06C13 5.51 12.55 5.06 12 5.06C11.45 5.06 11 5.51 11 6.06V12C11 12.55 11.45 13 12 13Z" fill="#00B0CA"/>
</svg>
