<svg width="16" height="16" viewBox="0 0 16 16" fill="none" xmlns="http://www.w3.org/2000/svg">
<path d="M4.25454 14C4.12726 14 4.00605 13.9657 3.89696 13.8914C3.70908 13.7657 3.61817 13.5486 3.65454 13.3314L4.31514 9.69714L1.51514 7.12571C1.35151 6.97714 1.2909 6.74857 1.36363 6.54286C1.43635 6.33714 1.62423 6.18286 1.85454 6.15428L5.72726 5.62286L7.4606 2.32C7.55757 2.12571 7.76969 2 7.99999 2C8.23029 2 8.44241 2.12571 8.54544 2.32L10.2788 5.62286L14.1515 6.15428C14.3818 6.18286 14.5697 6.33714 14.6424 6.54286C14.7151 6.74857 14.6545 6.97714 14.4909 7.13143L11.6909 9.70286L12.3515 13.3371C12.3879 13.5543 12.297 13.7657 12.1091 13.8971C11.9212 14.0286 11.6788 14.04 11.4727 13.9429L8.00605 12.2286L4.53938 13.9429C4.44847 13.9771 4.35151 14 4.25454 14Z" fill="#00B0CA"/>
</svg>
