<svg width="16" height="16" viewBox="0 0 16 16" fill="none" xmlns="http://www.w3.org/2000/svg">
<path fill-rule="evenodd" clip-rule="evenodd" d="M4.31514 9.69714L3.65454 13.3314C3.61817 13.5486 3.70908 13.7657 3.89696 13.8914C4.00605 13.9657 4.12726 14 4.25454 14C4.35151 14 4.44847 13.9771 4.53938 13.9429L8.00605 12.2286L11.4727 13.9429C11.6788 14.04 11.9212 14.0286 12.1091 13.8971C12.297 13.7657 12.3879 13.5543 12.3515 13.3371L11.6909 9.70286L14.4909 7.13143C14.6545 6.97714 14.7151 6.74857 14.6424 6.54286C14.5697 6.33714 14.3818 6.18286 14.1515 6.15428L10.2788 5.62286L8.54544 2.32C8.44241 2.12571 8.23029 2 7.99999 2C7.76969 2 7.55757 2.12571 7.4606 2.32L5.72726 5.62286L1.85454 6.15428C1.62423 6.18286 1.43635 6.33714 1.36363 6.54286C1.2909 6.74857 1.35151 6.97714 1.51514 7.12571L4.31514 9.69714ZM8.00302 3.86339L6.53148 6.6674L3.24444 7.11845L5.61752 9.29781L5.05402 12.3979L8.00605 10.9381L10.9503 12.394L10.3885 9.30353L12.767 7.1192L9.47456 6.6674L8.00302 3.86339Z" fill="#00B0CA"/>
</svg>
