<svg width="160" height="128" viewBox="0 0 160 128" fill="none" xmlns="http://www.w3.org/2000/svg">
<path opacity="0.11" d="M80.0001 104.554C96.9835 104.554 110.751 90.8387 110.751 73.9199C110.751 57.0011 96.9835 43.2856 80.0001 43.2856C63.0167 43.2856 49.249 57.0011 49.249 73.9199C49.249 90.8387 63.0167 104.554 80.0001 104.554Z" fill="#2626BC"/>
<path d="M128.436 64.1702H120.932C119.882 59.8051 118.15 55.7014 115.868 51.9897L121.168 46.6836C122.348 45.5074 122.348 43.5731 121.168 42.3708L111.643 32.8825C110.463 31.7063 108.521 31.7063 107.314 32.8825L101.988 38.1625C98.2619 35.8884 94.1425 34.1633 89.7608 33.1177V25.6683C89.7608 23.9954 88.3964 22.6362 86.7171 22.6362H73.257C71.5778 22.6362 70.2134 23.9954 70.2134 25.6683V33.1439C65.8316 34.1894 61.7122 35.9146 57.9864 38.1886L52.6601 32.9086C51.4793 31.7324 49.5377 31.7324 48.3308 32.9086L38.8326 42.3708C37.6519 43.547 37.6519 45.4812 38.8326 46.6836L44.1327 51.9897C41.85 55.7014 40.1182 59.8051 39.0687 64.1702H31.5646C29.8854 64.1702 28.521 65.5294 28.521 67.2023V80.6113C28.521 82.2842 29.8854 83.6434 31.5646 83.6434H39.0687C40.1182 88.0085 41.85 92.1122 44.1327 95.8239L38.8326 101.13C37.6519 102.306 37.6519 104.24 38.8326 105.443L48.357 114.931C49.5377 116.107 51.4793 116.107 52.6863 114.931L58.0126 109.651C61.7385 111.925 65.8578 113.65 70.2396 114.696V122.171C70.2396 123.844 71.604 125.203 73.2832 125.203H86.7434C88.4226 125.203 89.787 123.844 89.787 122.171V114.696C94.1688 113.65 98.2881 111.925 102.014 109.651L107.34 114.931C108.521 116.107 110.463 116.107 111.67 114.931L121.194 105.443C122.375 104.267 122.375 102.332 121.194 101.13L115.894 95.8239C118.177 92.1122 119.908 88.0085 120.958 83.6434H128.462C130.141 83.6434 131.506 82.2842 131.506 80.6113V67.2023C131.479 65.5294 130.115 64.1702 128.436 64.1702ZM80.0002 104.554C63.0241 104.554 49.2491 90.8314 49.2491 73.9199C49.2491 57.0083 63.0241 43.2856 80.0002 43.2856C96.9762 43.2856 110.751 56.9821 110.751 73.9199C110.751 90.8576 96.9762 104.554 80.0002 104.554Z" fill="#00B0CA"/>
<path d="M100.571 96.6863C98.9965 98.0978 97.291 99.3525 95.4543 100.398C93.2503 101.679 90.8364 102.698 88.3176 103.404C86.3497 103.953 84.3031 104.319 82.2041 104.449C82.965 92.2167 87.0057 82.8853 91.886 82.8853C95.638 82.8853 98.9178 88.4789 100.571 96.6863Z" fill="white"/>
<path d="M56.8055 44.0952V94.0197C61.0298 98.8553 66.7235 102.332 73.2043 103.795V44.0691C73.2043 42.4485 74.0701 40.9848 75.4608 40.1483C81.2594 36.6719 85.1951 30.3726 85.3525 23.2368C85.5624 13.0428 78.2157 4.49549 68.4814 2.82263C67.1957 2.61352 66.2249 3.94658 66.8284 5.07053L73.0731 16.859C73.8865 18.375 73.283 20.257 71.7612 21.0673L59.2456 27.628C57.7238 28.4383 55.8347 27.8371 55.0213 26.3211L49.0128 14.9509C48.383 13.7746 46.6776 13.8792 46.179 15.1077C45.2082 17.4863 44.6572 20.074 44.6572 22.7924C44.6572 30.1896 48.6192 36.6458 54.549 40.1745C55.9134 41.0109 56.8055 42.4747 56.8055 44.0952Z" fill="white"/>
<path d="M95.4277 85.1594H88.291V47.5201C88.291 46.3177 88.5796 45.1415 89.1569 44.0698L90.8886 40.8025C91.3084 40.0183 92.4366 40.0183 92.8302 40.8025L94.5619 44.0698C95.1129 45.1415 95.4277 46.3177 95.4277 47.5201V85.1594Z" fill="white"/>
<path d="M97.2909 87.8771H86.4283C84.6179 87.8771 83.1748 86.4133 83.1748 84.6359C83.1748 82.8324 84.6441 81.3948 86.4283 81.3948H97.2909C99.1013 81.3948 100.544 82.8585 100.544 84.6359C100.544 86.4133 99.1013 87.8771 97.2909 87.8771Z" fill="#00B0CA"/>
<path d="M128.436 62.6014H122.139C121.168 58.9682 119.698 55.4918 117.809 52.2245L122.27 47.7809C124.08 45.9774 124.08 43.076 122.27 41.2725L120.564 39.5735C119.961 38.9723 118.964 38.9723 118.36 39.5735C117.757 40.1746 117.757 41.1679 118.36 41.7691L120.066 43.4681C120.354 43.7556 120.512 44.1216 120.512 44.5136C120.512 44.9057 120.354 45.2716 120.066 45.5592L114.739 50.8653C114.215 51.3619 114.136 52.1722 114.503 52.7734C116.76 56.4066 118.387 60.3535 119.384 64.5095C119.541 65.2153 120.171 65.7119 120.905 65.7119H128.41C129.223 65.7119 129.905 66.3654 129.905 67.2018V80.6108C129.905 81.4211 129.249 82.1007 128.41 82.1007H120.905C120.171 82.1007 119.541 82.5974 119.384 83.3031C118.387 87.4591 116.76 91.3799 114.503 95.0393C114.136 95.6404 114.215 96.4507 114.739 96.9474L120.066 102.253C120.643 102.829 120.643 103.77 120.066 104.345L110.541 113.833C110.253 114.12 109.885 114.277 109.492 114.277C109.098 114.277 108.731 114.12 108.442 113.833L103.116 108.527C102.617 108.03 101.804 107.926 101.201 108.291C97.5535 110.539 93.5916 112.16 89.4197 113.153C88.7113 113.31 88.2128 113.937 88.2128 114.669V122.145C88.2128 122.955 87.5306 123.635 86.7172 123.635H73.257C72.4437 123.635 71.7615 122.955 71.7615 122.145V114.669C71.7615 113.937 71.2629 113.31 70.5545 113.153C66.3827 112.16 62.4207 110.539 58.7736 108.291C58.1701 107.926 57.3567 108.004 56.8582 108.527L51.5319 113.833C51.2433 114.12 50.8759 114.277 50.4824 114.277C50.0888 114.277 49.7215 114.12 49.4328 113.833L39.9084 104.345C39.3312 103.77 39.3312 102.829 39.9084 102.253L45.2347 96.9474C45.7595 96.4507 45.8382 95.6404 45.4709 95.0393C43.2144 91.406 41.5876 87.4591 40.5906 83.3031C40.4332 82.5974 39.8034 82.1007 39.0688 82.1007H31.5647C30.7513 82.1007 30.0691 81.4473 30.0691 80.6108V67.2018C30.0691 66.3915 30.7251 65.7119 31.5647 65.7119H39.0688C39.8034 65.7119 40.4332 65.2153 40.5906 64.5095C41.5876 60.3535 43.2144 56.4328 45.4709 52.7734C45.8382 52.1722 45.7595 51.3619 45.2347 50.8653L39.9084 45.5592C39.6198 45.2716 39.4624 44.9057 39.4624 44.5136C39.4624 44.1216 39.6198 43.7556 39.9084 43.4681L47.465 35.9402C49.1442 38.1358 51.2433 40.0178 53.7096 41.5077C54.6542 42.0566 55.2052 43.0237 55.2052 44.0954V53.2177C50.3249 58.9943 47.6486 66.3392 47.6486 73.8933C47.6486 91.6413 62.1583 106.096 79.974 106.096C97.7897 106.096 112.299 91.6413 112.299 73.8933C112.299 62.6014 106.553 52.3813 96.9238 46.474C96.7926 45.3762 96.4778 44.3045 95.953 43.3113L94.2213 40.044C93.749 39.1814 92.8569 38.6325 91.8599 38.6325C90.8628 38.6325 89.9707 39.1814 89.4984 40.044L88.0816 42.7362C85.4578 42.0566 82.729 41.7168 80.0002 41.7168C78.5309 41.7168 77.0616 41.8214 75.5922 42.0043C75.7759 41.7952 76.012 41.6384 76.2482 41.4816C82.4929 37.7176 86.4023 31.3137 86.8484 24.1779C87.6093 24.2563 88.2128 24.8837 88.2128 25.6417V33.1173C88.2128 33.8491 88.7113 34.4765 89.4197 34.6333C93.5916 35.6266 97.5535 37.2471 101.201 39.4951C101.463 39.6519 101.725 39.7303 102.014 39.7303C102.408 39.7303 102.827 39.5735 103.116 39.2859L108.442 33.9798C109.02 33.4048 109.964 33.4048 110.541 33.9798L112.142 35.5743C112.745 36.1755 113.742 36.1755 114.346 35.5743C114.949 34.9731 114.949 33.9798 114.346 33.3787L112.745 31.7842C110.935 29.9807 108.023 29.9807 106.212 31.7842L101.752 36.2277C98.4719 34.3458 94.9822 32.9082 91.3351 31.9149V25.6417C91.3351 23.1324 89.3148 21.0936 86.8221 21.0413C86.4548 16.5716 84.7231 12.2849 81.8369 8.80851C78.5047 4.83546 73.8605 2.16934 68.7441 1.28063C67.5634 1.07153 66.3827 1.54202 65.6742 2.50914C64.9658 3.47626 64.8871 4.73091 65.4381 5.77645L71.6828 17.5649C71.8664 17.9308 71.9189 18.349 71.7877 18.7411C71.6565 19.1332 71.3941 19.473 71.0268 19.656L58.5112 26.269C58.1439 26.452 57.7241 26.5042 57.3305 26.3735C56.9369 26.2429 56.5958 25.9815 56.4122 25.6155L50.3774 14.2453C49.8002 13.1736 48.6982 12.5202 47.465 12.5986C46.2318 12.6509 45.1823 13.4089 44.71 14.5328C43.6342 17.1467 43.0832 19.9435 43.0832 22.7926C43.0832 26.5565 44.0278 30.1375 45.7595 33.2741L37.7306 41.2725C35.9202 43.076 35.9202 45.9774 37.7306 47.7809L42.1911 52.2245C40.302 55.4918 38.8589 58.9682 37.8618 62.6014H31.5647C29.0196 62.6014 26.9468 64.6664 26.9468 67.2018V80.6108C26.9468 83.1463 29.0196 85.2112 31.5647 85.2112H37.8618C38.8326 88.8445 40.302 92.3209 42.1911 95.5882L37.7306 100.032C35.9202 101.835 35.9202 104.737 37.7306 106.54L47.2551 116.028C48.1209 116.891 49.2754 117.388 50.5086 117.388C51.7418 117.388 52.8963 116.917 53.7621 116.028L58.2226 111.585C61.5024 113.467 64.992 114.904 68.6391 115.898V122.171C68.6391 124.706 70.7119 126.771 73.257 126.771H86.7172C89.2623 126.771 91.3351 124.706 91.3351 122.171V115.898C94.9822 114.931 98.4719 113.467 101.752 111.585L106.212 116.028C107.078 116.891 108.232 117.388 109.466 117.388C110.699 117.388 111.853 116.917 112.719 116.028L122.244 106.54C124.054 104.737 124.054 101.835 122.244 100.032L117.783 95.5882C119.672 92.3209 121.115 88.8445 122.112 85.2112H128.41C130.955 85.2112 133.027 83.1463 133.027 80.6108V67.2018C133.054 64.6664 130.981 62.6014 128.436 62.6014ZM55.2315 58.5238V89.2888C52.424 84.8191 50.7972 79.5653 50.7972 73.9194C50.7972 68.4565 52.3715 63.1242 55.2315 58.5238ZM97.2911 82.9372C98.2357 82.9372 98.9966 83.6952 98.9966 84.6362C98.9966 85.5771 98.2357 86.3352 97.2911 86.3352H86.4286C85.484 86.3352 84.7231 85.5771 84.7231 84.6362C84.7231 83.6952 85.484 82.9372 86.4286 82.9372H97.2911ZM87.0583 89.4456H96.6877C97.5535 91.3015 98.2882 93.5755 98.8392 96.1109C94.6936 99.6135 89.5509 101.992 83.8835 102.724C84.382 97.4963 85.484 92.8436 87.0583 89.4456ZM109.203 73.9194C109.203 81.5257 106.265 88.4262 101.463 93.6278C100.991 91.8504 100.44 90.2037 99.81 88.7399C101.201 87.9035 102.119 86.3874 102.119 84.6362C102.119 81.9962 99.9674 79.8267 97.2911 79.8267H97.0025V50.2641C104.664 55.727 109.203 64.405 109.203 73.9194ZM90.548 44.775L91.8861 42.2657L93.2242 44.775C93.6703 45.6114 93.9064 46.5524 93.9064 47.4934V79.8267H89.892V47.4934C89.8658 46.5524 90.1019 45.6114 90.548 44.775ZM47.6224 15.7091L53.6309 27.0793C54.8379 29.3533 57.6716 30.242 59.9543 29.0397L72.4699 22.4789C74.7526 21.2765 75.6447 18.4536 74.4378 16.1796L68.2193 4.36497C72.6011 5.12299 76.5893 7.42317 79.4492 10.8473C82.3354 14.2976 83.8835 18.715 83.7785 23.2369C83.6473 29.667 80.2364 35.4959 74.6477 38.8677C72.7585 39.9917 71.6303 41.9521 71.6303 44.1216V94.2812C71.6303 95.1438 72.3387 95.8496 73.2046 95.8496C74.0704 95.8496 74.7788 95.1438 74.7788 94.2812V45.2978C76.5106 44.9841 78.2685 44.8273 80.0265 44.8273C82.3879 44.8273 84.6968 45.1148 86.9533 45.6637C86.8221 46.2649 86.7434 46.8922 86.7434 47.5196V79.8528H86.4548C83.8048 79.8528 81.627 81.9962 81.627 84.6623C81.627 86.3874 82.5716 87.9035 83.9359 88.766C82.3092 92.5561 81.181 97.5224 80.7349 103.011C80.4988 103.011 80.2364 103.011 80.0002 103.011C71.4204 103.011 63.7064 99.2998 58.3538 93.4187V44.0954C58.3538 41.9782 57.1993 39.9655 55.3364 38.8416C49.6165 35.4175 46.2056 29.4317 46.2056 22.7926C46.2056 20.3356 46.6778 17.957 47.6224 15.7091Z" fill="#511E84"/>
</svg>
