<svg width="24" height="24" viewBox="0 0 24 24" fill="none" xmlns="http://www.w3.org/2000/svg">
<path d="M15.625 5.20801V7.29134" stroke="#ED7C59" stroke-linecap="round" stroke-linejoin="round"/>
<path d="M15.625 11.458V13.5413" stroke="#ED7C59" stroke-linecap="round" stroke-linejoin="round"/>
<path d="M15.625 17.708V19.7913" stroke="#ED7C59" stroke-linecap="round" stroke-linejoin="round"/>
<path d="M19.7917 5.20801H5.20833C4.6558 5.20801 4.12589 5.4275 3.73519 5.8182C3.34449 6.2089 3.125 6.73881 3.125 7.29134V10.4163C3.67753 10.4163 4.20744 10.6358 4.59814 11.0265C4.98884 11.4172 5.20833 11.9471 5.20833 12.4997C5.20833 13.0522 4.98884 13.5821 4.59814 13.9728C4.20744 14.3635 3.67753 14.583 3.125 14.583V17.708C3.125 18.2605 3.34449 18.7904 3.73519 19.1811C4.12589 19.5718 4.6558 19.7913 5.20833 19.7913H19.7917C20.3442 19.7913 20.8741 19.5718 21.2648 19.1811C21.6555 18.7904 21.875 18.2605 21.875 17.708V14.583C21.3225 14.583 20.7926 14.3635 20.4019 13.9728C20.0112 13.5821 19.7917 13.0522 19.7917 12.4997C19.7917 11.9471 20.0112 11.4172 20.4019 11.0265C20.7926 10.6358 21.3225 10.4163 21.875 10.4163V7.29134" stroke="#E26D3A" stroke-linecap="round" stroke-linejoin="round"/>
</svg>
