<svg width="105" height="105" viewBox="0 0 105 105" fill="none" xmlns="http://www.w3.org/2000/svg">
<path d="M76.5888 68.1056C76.5105 68.2281 76.3871 68.3147 76.2454 68.3466C76.1037 68.3786 75.9551 68.3533 75.8319 68.2762L51.9531 53.2394V31.9375C51.9531 31.7925 52.0107 31.6534 52.1133 31.5508C52.2159 31.4482 52.355 31.3906 52.5 31.3906C52.645 31.3906 52.7841 31.4482 52.8867 31.5508C52.9893 31.6534 53.0469 31.7925 53.0469 31.9375V52.6356L76.4181 67.3487C76.5406 67.427 76.6272 67.5503 76.6591 67.6921C76.6911 67.8338 76.6658 67.9824 76.5888 68.1056ZM3.20687 39.06C3.34553 39.1008 3.49469 39.085 3.62176 39.0162C3.74883 38.9473 3.84347 38.8309 3.885 38.6925C10.1544 17.9375 30.135 3.40375 52.4694 3.40375C74.8038 3.40375 94.7888 17.9375 101.063 38.6925C101.096 38.8049 101.164 38.9036 101.258 38.9738C101.352 39.044 101.466 39.0819 101.583 39.0819C101.635 39.0904 101.688 39.0904 101.741 39.0819C101.879 39.0394 101.996 38.9439 102.065 38.8161C102.133 38.6884 102.149 38.5386 102.108 38.3994C98.913 28.035 92.4712 18.9721 83.7331 12.5475C74.6581 5.9098 63.7063 2.33203 52.4628 2.33203C41.2193 2.33203 30.2675 5.9098 21.1925 12.5475C12.4544 18.9721 6.01266 28.035 2.8175 38.3994C2.78396 38.5385 2.80583 38.6852 2.8785 38.8085C2.95116 38.9318 3.06892 39.022 3.20687 39.06ZM101.618 65.94C101.549 65.9191 101.477 65.9121 101.405 65.9193C101.333 65.9265 101.264 65.9478 101.201 65.9819C101.137 66.0161 101.081 66.0624 101.036 66.1183C100.99 66.1742 100.956 66.2385 100.936 66.3075C94.6969 87.0844 74.8125 101.596 52.5831 101.596C30.3538 101.596 10.4738 87.0844 4.235 66.3075C4.19323 66.1683 4.09785 66.0513 3.96986 65.9824C3.84187 65.9135 3.69174 65.8982 3.5525 65.94C3.41326 65.9818 3.29632 66.0771 3.2274 66.2051C3.15848 66.3331 3.14323 66.4833 3.185 66.6225C6.35569 76.972 12.7605 86.0326 21.4594 92.4744C30.4783 99.1136 41.384 102.695 52.5831 102.695C63.7823 102.695 74.6879 99.1136 83.7069 92.4744C92.4084 86.0352 98.8139 76.9737 101.981 66.6225C102.024 66.4838 102.009 66.3341 101.941 66.2061C101.873 66.0781 101.757 65.9824 101.618 65.94ZM6.71125 66.9375C6.77556 66.9687 6.84541 66.9869 6.91678 66.9911C6.98815 66.9952 7.05964 66.9852 7.12713 66.9616C7.19462 66.938 7.25678 66.9013 7.31005 66.8537C7.36331 66.806 7.40663 66.7482 7.4375 66.6837C7.46881 66.6191 7.48709 66.5489 7.49129 66.4772C7.49548 66.4055 7.48552 66.3337 7.46195 66.2659C7.43839 66.198 7.40169 66.1355 7.35396 66.0818C7.30622 66.0282 7.24839 65.9844 7.18375 65.9531L3.2725 64.0719C3.14314 64.0116 2.99557 64.0035 2.86037 64.0491C2.72516 64.0947 2.61269 64.1906 2.54625 64.3169L0.643124 68.0794C0.606951 68.1436 0.584232 68.2144 0.576353 68.2877C0.568474 68.361 0.5756 68.4351 0.597297 68.5055C0.618994 68.5759 0.654807 68.6411 0.702552 68.6973C0.750296 68.7534 0.808971 68.7992 0.874999 68.8319C0.938941 68.8649 1.00882 68.8849 1.08057 68.8907C1.15232 68.8965 1.2245 68.8879 1.2929 68.8655C1.36131 68.8431 1.42458 68.8073 1.47902 68.7603C1.53346 68.7132 1.57798 68.6557 1.61 68.5912L3.2725 65.3056L6.71125 66.9375ZM104.125 36.8769C104.062 36.8432 103.992 36.8225 103.921 36.8157C103.849 36.8089 103.777 36.8163 103.708 36.8374C103.64 36.8586 103.576 36.893 103.52 36.9388C103.465 36.9846 103.419 37.0409 103.386 37.1044L101.828 40.0137L98.8444 38.2637C98.7196 38.1895 98.5705 38.1678 98.4298 38.2035C98.2891 38.2392 98.1683 38.3293 98.0941 38.4541C98.0198 38.5788 97.9981 38.7279 98.0338 38.8686C98.0695 39.0093 98.1596 39.1301 98.2844 39.2044L101.784 41.265C101.87 41.3139 101.966 41.3396 102.064 41.3394C102.112 41.3458 102.161 41.3458 102.209 41.3394C102.28 41.3185 102.346 41.2838 102.404 41.2373C102.462 41.1908 102.51 41.1333 102.546 41.0681L104.37 37.6556C104.409 37.5894 104.435 37.5156 104.444 37.439C104.452 37.3625 104.445 37.2849 104.422 37.2113C104.399 37.1378 104.36 37.07 104.309 37.0124C104.258 36.9547 104.195 36.9085 104.125 36.8769ZM92.75 52.5C92.7373 63.1521 88.4998 73.3642 80.9672 80.8959C73.4346 88.4277 63.2221 92.664 52.57 92.6756H52.5C41.8448 92.6756 31.6259 88.4428 24.0915 80.9084C16.5572 73.3741 12.3244 63.1552 12.3244 52.5C12.3244 41.8448 16.5572 31.6259 24.0915 24.0915C31.6259 16.5571 41.8448 12.3244 52.5 12.3244H52.5875C63.2366 12.3406 73.4446 16.579 80.9734 24.1102C88.5022 31.6415 92.7373 41.8509 92.75 52.5ZM91.6475 53.0469H84C83.855 53.0469 83.7159 52.9893 83.6133 52.8867C83.5107 52.7841 83.4531 52.645 83.4531 52.5C83.4531 52.355 83.5107 52.2159 83.6133 52.1133C83.7159 52.0107 83.855 51.9531 84 51.9531H91.6606C91.5066 41.7678 87.3863 32.0442 80.1756 24.849C72.965 17.6539 63.2325 13.5546 53.0469 13.4225V23.625C53.0469 23.77 52.9893 23.9091 52.8867 24.0117C52.7841 24.1143 52.645 24.1719 52.5 24.1719C52.355 24.1719 52.2159 24.1143 52.1133 24.0117C52.0107 23.9091 51.9531 23.77 51.9531 23.625V13.4269C41.7977 13.6018 32.1083 17.7195 24.9341 24.9093C17.7598 32.0991 13.663 41.7973 13.51 51.9531H20.3438C20.4888 51.9531 20.6279 52.0107 20.7304 52.1133C20.833 52.2159 20.8906 52.355 20.8906 52.5C20.8906 52.645 20.833 52.7841 20.7304 52.8867C20.6279 52.9893 20.4888 53.0469 20.3438 53.0469H13.51C13.663 63.2027 17.7598 72.9009 24.9341 80.0907C32.1083 87.2805 41.7977 91.3982 51.9531 91.5731V80.5C51.9531 80.355 52.0107 80.2159 52.1133 80.1133C52.2159 80.0107 52.355 79.9531 52.5 79.9531C52.645 79.9531 52.7841 80.0107 52.8867 80.1133C52.9893 80.2159 53.0469 80.355 53.0469 80.5V91.5775C63.2325 91.4454 72.965 87.3461 80.1756 80.1509C87.3863 72.9558 91.5066 63.2322 91.6606 53.0469H91.6475Z" fill="#03AEC8"/>
</svg>
