<svg width="105" height="105" viewBox="0 0 105 105" fill="none" xmlns="http://www.w3.org/2000/svg">
<path fill-rule="evenodd" clip-rule="evenodd" d="M7.19949 52.3768C7.26671 27.36 27.6062 7.13237 52.6231 7.19949C60.052 7.22193 67.0536 9.02574 73.2314 12.2126C73.2614 12.2281 73.2922 12.2405 73.3235 12.2499C73.3629 12.271 73.4157 12.2995 73.4813 12.3353C73.6405 12.4221 73.8744 12.5514 74.1706 12.7204C74.763 13.0585 75.604 13.5547 76.595 14.1854C78.5789 15.4483 81.154 17.2446 83.5359 19.385C84.123 19.9126 84.6963 20.4593 85.2449 21.0223C85.0961 21.1938 84.9536 21.3669 84.8173 21.5415C82.6582 24.3077 82.1038 27.3926 82.4475 30.0518C82.7882 32.6879 84.0214 34.9636 85.5186 36.0941C86.2718 36.6629 87.1433 36.9763 88.0177 36.8094C88.9016 36.6406 89.6531 36.0074 90.2124 34.9683C91.8313 31.9612 91.5449 28.9301 90.2538 26.1317C89.4205 24.3254 88.1651 22.6046 86.72 21.0205C88.7925 18.9784 92.0153 17.1786 96.8325 16.0618C97.1215 15.9948 97.3014 15.7062 97.2344 15.4172C97.1674 15.1282 96.8788 14.9483 96.5898 15.0153C91.6416 16.1625 88.227 18.034 85.9819 20.2393C85.4229 19.6671 84.8429 19.1151 84.254 18.5859C81.813 16.3924 79.1852 14.5607 77.1719 13.2792C76.1642 12.6377 75.3081 12.1326 74.703 11.7873C74.4004 11.6147 74.1604 11.4819 73.9955 11.392C73.913 11.347 73.8493 11.3128 73.8059 11.2896L73.7562 11.2632L73.7432 11.2563L73.7381 11.2537C73.7052 11.2364 73.6712 11.2229 73.6368 11.2131C67.3322 7.97763 60.1941 6.148 52.6262 6.12517C27.0159 6.05636 6.19399 26.7636 6.12517 52.3739C6.05636 77.9842 26.7636 98.8062 52.374 98.875C77.9842 98.9438 98.8062 78.2366 98.875 52.6262C98.8758 52.3296 98.6359 52.0884 98.3393 52.0876C98.0426 52.0868 97.8015 52.3267 97.8007 52.6233C97.7335 77.6403 77.3939 97.8679 52.3768 97.8007C27.3599 97.7335 7.13227 77.3939 7.19949 52.3768ZM85.6642 22.2025C85.767 22.0708 85.874 21.9397 85.9852 21.8093C87.3501 23.3147 88.5127 24.9223 89.2783 26.5817C90.464 29.1518 90.6884 31.8179 89.2664 34.4591C88.8083 35.3103 88.2881 35.664 87.8162 35.7541C87.3347 35.846 86.7663 35.6901 86.166 35.2368C84.9559 34.3231 83.8269 32.3431 83.513 29.9141C83.202 27.5081 83.7004 24.7185 85.6642 22.2025Z" fill="#00B0CA"/>
<path d="M73.7381 11.2537L73.7333 11.2629C73.7382 11.2537 73.7381 11.2536 73.7381 11.2537Z" fill="#00B0CA"/>
<path d="M55.958 36.7745C56.0287 36.4863 55.8524 36.1955 55.5643 36.1248C55.2761 36.0541 54.9853 36.2304 54.9146 36.5185C54.2472 39.239 53.2659 43.5772 53.4459 47.2536C53.5359 49.0905 53.9179 50.8348 54.8387 52.1334C55.7833 53.4657 57.2508 54.2668 59.3457 54.2729C63.4973 54.285 66.924 51.4332 69.5832 48.193C71.6814 45.6363 73.3793 42.7378 74.6258 40.6097L74.6264 40.6087C74.9644 40.0316 75.2692 39.5112 75.5398 39.0697C75.6949 38.8168 75.6155 38.486 75.3626 38.331C75.1096 38.176 74.7789 38.2554 74.6239 38.5083C74.3373 38.9759 74.0206 39.5164 73.6736 40.1085C72.4274 42.2351 70.7904 45.0285 68.7527 47.5115C66.1391 50.6961 62.9908 53.2092 59.3488 53.1986C57.5667 53.1934 56.4398 52.5342 55.7151 51.5121C54.9666 50.4563 54.6047 48.9521 54.5189 47.2011C54.3476 43.7017 55.2877 39.5066 55.958 36.7745Z" fill="#00B0CA"/>
<path d="M43.5971 37.3257C43.6873 37.0431 43.5314 36.7409 43.2488 36.6506C42.9662 36.5603 42.664 36.7162 42.5737 36.9988C40.6996 42.8653 38.5118 45.7493 36.7324 47.1439C34.9596 48.5334 33.5681 48.4658 33.1994 48.3869C32.584 48.2543 31.8002 47.7186 31.3501 46.1523C30.8938 44.5644 30.8041 41.9708 31.6075 37.8837C31.6647 37.5926 31.4751 37.3102 31.184 37.253C30.8929 37.1958 30.6105 37.3854 30.5533 37.6765C29.7356 41.8365 29.7933 44.6247 30.3176 46.449C30.8479 48.2944 31.8775 49.2014 32.9738 49.4373L32.9745 49.4375C33.6659 49.5854 35.3804 49.5685 37.3951 47.9895C39.4034 46.4155 41.6849 43.3112 43.5971 37.3257Z" fill="#00B0CA"/>
<path d="M65.169 69.0725C68.7644 72.9079 70.3754 77.7753 70.5279 80.2175C70.5464 80.5136 70.3213 80.7686 70.0252 80.7871C69.7291 80.8056 69.4741 80.5806 69.4556 80.2845C69.319 78.0959 67.8126 73.4635 64.3852 69.8072C60.9907 66.186 55.7135 63.5202 47.9588 65.1777L47.9561 65.1783C44.9439 65.8059 35.649 68.5296 31.4522 82.1998C31.3652 82.4834 31.0647 82.6427 30.7811 82.5556C30.4975 82.4686 30.3381 82.1681 30.4252 81.8845C34.7753 67.715 44.489 64.8035 47.7357 64.1269C55.8906 62.3842 61.541 65.2021 65.169 69.0725Z" fill="#00B0CA"/>
</svg>
