<svg width="50" height="50" viewBox="0 0 50 50" fill="none" xmlns="http://www.w3.org/2000/svg">
<circle cx="25" cy="25" r="25" fill="#00BF8E"/>
<path d="M31.7077 24.4L27.6301 20.227C27.5617 20.156 27.4815 20.099 27.3916 20.06C27.3027 20.021 27.2069 20.001 27.1092 20C27.0125 19.999 26.9158 20.018 26.8259 20.056C26.736 20.094 26.6549 20.149 26.5855 20.22C26.5171 20.29 26.4633 20.374 26.4262 20.466C26.3891 20.557 26.3705 20.656 26.3715 20.755C26.3725 20.855 26.392 20.953 26.4301 21.044C26.4682 21.136 26.5239 21.219 26.5933 21.288L29.4876 24.25H16.7475C16.6498 24.248 16.5531 24.266 16.4622 24.303C16.3723 24.34 16.2892 24.395 16.2199 24.465C16.1505 24.535 16.0948 24.618 16.0577 24.71C16.0195 24.802 16 24.901 16 25C16 25.1 16.0195 25.199 16.0577 25.291C16.0948 25.382 16.1505 25.466 16.2199 25.536C16.2892 25.605 16.3723 25.66 16.4622 25.697C16.5531 25.734 16.6498 25.752 16.7475 25.75H29.4876L26.5933 28.713C26.5239 28.782 26.4682 28.865 26.4301 28.956C26.392 29.047 26.3725 29.146 26.3715 29.245C26.3705 29.344 26.3891 29.443 26.4262 29.535C26.4633 29.627 26.5171 29.71 26.5855 29.781C26.6549 29.851 26.736 29.907 26.8259 29.944C26.9158 29.982 27.0125 30.001 27.1092 30C27.2069 30 27.3027 29.979 27.3916 29.94C27.4815 29.901 27.5617 29.844 27.6301 29.773L31.7097 25.598C31.7947 25.532 31.864 25.448 31.9149 25.352C31.9647 25.256 31.993 25.149 31.9989 25.041C32.0048 24.932 31.9872 24.823 31.9481 24.722C31.908 24.62 31.8474 24.529 31.7702 24.454C31.7507 24.435 31.7292 24.417 31.7077 24.4Z" fill="white"/>
</svg>
