<svg width="48" height="48" viewBox="0 0 48 48" fill="none" xmlns="http://www.w3.org/2000/svg">
<circle cx="24" cy="24" r="24" fill="white"/>
<path d="M21 33C22.1046 33 23 32.1046 23 31C23 29.8954 22.1046 29 21 29C19.8954 29 19 29.8954 19 31C19 32.1046 19.8954 33 21 33Z" stroke="#00B0CA" stroke-width="2" stroke-linecap="round" stroke-linejoin="round"/>
<path d="M29 33C30.1046 33 31 32.1046 31 31C31 29.8954 30.1046 29 29 29C27.8954 29 27 29.8954 27 31C27 32.1046 27.8954 33 29 33Z" stroke="#00B0CA" stroke-width="2" stroke-linecap="round" stroke-linejoin="round"/>
<path d="M15 15H17L19 27C19.2157 27.6135 19.6249 28.1402 20.166 28.501C20.7071 28.8617 21.3507 29.0368 22 29H29C29.6493 29.0368 30.2929 28.8617 30.834 28.501C31.3751 28.1402 31.7843 27.6135 32 27L33 20L22 20" stroke="#00B0CA" stroke-width="2" stroke-linecap="round" stroke-linejoin="round"/>
</svg>
