<svg width="44" height="56" viewBox="0 0 44 56" fill="none" xmlns="http://www.w3.org/2000/svg">
<g opacity="0.5">
<path d="M21.0002 49.0001C23.5775 49.0001 25.6668 46.9107 25.6668 44.3334C25.6668 41.7561 23.5775 39.6667 21.0002 39.6667C18.4228 39.6667 16.3335 41.7561 16.3335 44.3334C16.3335 46.9107 18.4228 49.0001 21.0002 49.0001Z" stroke="#F2F2F2" stroke-width="2" stroke-linecap="round" stroke-linejoin="round"/>
<path d="M39.6667 49.0001C42.244 49.0001 44.3333 46.9107 44.3333 44.3334C44.3333 41.7561 42.244 39.6667 39.6667 39.6667C37.0893 39.6667 35 41.7561 35 44.3334C35 46.9107 37.0893 49.0001 39.6667 49.0001Z" stroke="#F2F2F2" stroke-width="2" stroke-linecap="round" stroke-linejoin="round"/>
<path d="M7 7H11.6667L16.3333 35C16.8367 36.4314 17.7915 37.6606 19.0541 38.5023C20.3166 39.3439 21.8184 39.7526 23.3333 39.6667H39.6667C41.1816 39.7526 42.6834 39.3439 43.9459 38.5023C45.2085 37.6606 46.1633 36.4314 46.6667 35L49 18.6667L23.3333 18.6667" stroke="#F2F2F2" stroke-width="2" stroke-linecap="round" stroke-linejoin="round"/>
</g>
</svg>
