<svg fill="none" height="24" viewBox="0 0 24 24" width="24" xmlns="http://www.w3.org/2000/svg"><g stroke="#9194a7" stroke-linecap="round" stroke-linejoin="round" stroke-width="2"><path d="m9 21c1.1046 0 2-.8954 2-2s-.8954-2-2-2c-1.10457 0-2 .8954-2 2s.89543 2 2 2z"/><path d="m17 21c1.1046 0 2-.8954 2-2s-.8954-2-2-2-2 .8954-2 2 .8954 2 2 2z"/><path d="m3 3h2l2 12c.21572.6135.62494 1.1402 1.16602 1.501.54108.3607 1.18473.5358 1.83398.499h7c.6493.0368 1.2929-.1383 1.834-.499.5411-.3608.9503-.8875 1.166-1.501l1-7h-11"/></g></svg>