<svg width="80" height="80" viewBox="0 0 80 80" fill="none" xmlns="http://www.w3.org/2000/svg">
<path d="M78.9875 61.1452C78.3799 60.5378 77.4685 60.1329 76.5572 60.1329H31.595C31.19 60.1329 30.7849 60.0316 30.4811 59.7279C30.1773 59.5255 29.9748 59.1205 29.8735 58.7156L22.1773 25.7134C21.8735 24.3974 21.1646 23.1825 20.0507 22.3727C19.038 21.5628 17.6203 21.0566 16.3038 21.0566H3.44305C2.53165 21.0566 1.72152 21.3603 1.01266 22.069C0.405064 22.6764 0 23.5875 0 24.4986C0 25.4097 0.405064 26.2196 1.01266 26.9282C1.62026 27.5356 2.53165 27.9405 3.44305 27.9405H14.481C14.8861 27.9405 15.2912 28.0418 15.595 28.3455C15.8988 28.5479 16.1013 28.9529 16.2026 29.3578L23.4937 60.3353C23.8988 62.2588 25.0127 63.8785 26.5317 65.0933C28.0507 66.3081 29.9748 66.9155 31.8988 66.9155H35.3419L34.5317 67.8266C33.6203 68.839 32.9115 70.155 32.7089 71.5723C32.5064 72.9895 32.7089 74.4068 33.2153 75.7228C33.8229 77.0389 34.7343 78.1525 35.9495 78.8611C38.3798 80.3796 41.5191 80.3796 43.9495 78.8611C45.1647 78.0512 46.0761 77.0389 46.6837 75.7228C47.2913 74.4068 47.4938 72.9895 47.19 71.5723C46.9875 70.155 46.3799 68.839 45.3672 67.8266L44.5571 67.0167H61.266L60.6584 67.8266C59.747 68.839 59.1394 70.155 58.8356 71.5723C58.6331 72.9895 58.8356 74.4068 59.3419 75.7228C59.9495 77.0389 60.8609 78.1525 62.0761 78.8611C64.5065 80.3796 67.6457 80.3796 70.0761 78.8611C71.2913 78.0512 72.2027 77.0389 72.8103 75.7228C73.4179 74.4068 73.6204 72.9895 73.3166 71.5723C73.1141 70.155 72.5065 68.839 71.4938 67.8266L70.6837 67.0167H76.4559C77.3673 67.0167 78.1774 66.713 78.8863 66.0044C79.4939 65.397 79.8989 64.4859 79.8989 63.5748C79.8989 62.6637 79.5951 61.7526 78.9875 61.1452ZM45.7723 72.6858C45.7723 73.7994 45.4685 74.913 44.7596 75.8241C44.152 76.7352 43.2406 77.5451 42.228 77.95C41.5191 78.2537 40.8102 78.3549 40.0001 78.3549C39.595 78.3549 39.2912 78.3549 38.8862 78.2537C37.7722 78.0512 36.7596 77.4438 35.9495 76.7352C35.1393 75.9253 34.633 74.913 34.4305 73.7994C34.2279 72.6858 34.3292 71.5723 34.7343 70.4587C35.1393 69.4464 35.9495 68.5352 36.8609 67.9278C37.7722 67.3204 38.8862 66.9155 40.0001 66.9155C41.5191 66.9155 42.9368 67.5229 44.0507 68.6365C45.1647 69.6488 45.7723 71.1673 45.7723 72.6858ZM71.8989 72.6858C71.8989 73.7994 71.5951 74.913 70.8863 75.8241C70.1774 76.7352 69.3673 77.5451 68.3546 77.95C67.6457 78.2537 66.9369 78.3549 66.1267 78.3549C65.7217 78.3549 65.4179 78.3549 65.0128 78.2537C63.8989 78.0512 62.8862 77.4438 62.0761 76.7352C61.266 75.9253 60.7596 74.913 60.5571 73.7994C60.3546 72.6858 60.4558 71.5723 60.8609 70.4587C61.266 69.3451 62.0761 68.5352 62.9875 67.9278C63.8989 67.3204 65.0128 66.9155 66.1267 66.9155C67.6457 66.9155 69.0635 67.5229 70.1774 68.6365C71.2913 69.6488 71.8989 71.1673 71.8989 72.6858ZM77.8736 64.7896C77.5698 65.0933 77.0635 65.2958 76.5572 65.2958H31.8988C30.2786 65.2958 28.7596 64.7896 27.5444 63.7773C26.3292 62.7649 25.4178 61.4489 25.114 59.8292L17.8228 28.8516C17.6203 28.143 17.2152 27.4344 16.6076 26.9282C15.8988 26.5233 15.1899 26.3208 14.3798 26.3208H3.44305C2.93672 26.3208 2.53165 26.1183 2.12659 25.8146C1.82279 25.5109 1.62026 25.0048 1.62026 24.4986C1.62026 23.9924 1.82279 23.5875 2.12659 23.1825C2.43039 22.8788 2.93672 22.6764 3.44305 22.6764H16.2026C17.2152 22.6764 18.1266 22.9801 18.9368 23.5875C19.7469 24.1949 20.2532 25.106 20.4557 26.0171L28.152 59.0193C28.3545 59.7279 28.7596 60.4366 29.3672 60.9427C29.9748 61.4489 30.6836 61.6514 31.4937 61.6514H76.4559C76.9622 61.6514 77.3673 61.8538 77.7723 62.1575C78.0761 62.4612 78.2787 62.9674 78.2787 63.4736C78.2787 63.9797 78.1774 64.4859 77.8736 64.7896Z" fill="#00BF8E"/>
<path d="M66.1267 74.1031C66.9097 74.1031 67.5444 73.4686 67.5444 72.6858C67.5444 71.9031 66.9097 71.2686 66.1267 71.2686C65.3437 71.2686 64.709 71.9031 64.709 72.6858C64.709 73.4686 65.3437 74.1031 66.1267 74.1031Z" fill="#00BF8E"/>
<path d="M40.0002 74.1031C40.7832 74.1031 41.418 73.4686 41.418 72.6858C41.418 71.9031 40.7832 71.2686 40.0002 71.2686C39.2173 71.2686 38.5825 71.9031 38.5825 72.6858C38.5825 73.4686 39.2173 74.1031 40.0002 74.1031Z" fill="#00BF8E"/>
<path d="M66.7466 13.6978C66.4399 10.2382 64.8041 6.98819 62.3504 4.68176C59.8967 2.37534 56.5229 1.01245 53.149 1.01245C49.7752 1.01245 46.5035 2.2705 43.9476 4.68176C41.3916 6.98819 39.8581 10.2382 39.5514 13.6978C39.2446 17.1574 40.1648 20.6171 42.2095 23.4477C44.2543 26.2783 47.2192 28.1654 50.5931 28.7944C50.6953 28.7944 50.7975 28.8992 50.8998 28.8992C51.002 29.0041 51.1042 29.1089 51.1042 29.2137L53.149 33.4072L55.1938 29.2137C55.296 29.1089 55.296 29.0041 55.3982 28.8992C55.5005 28.7944 55.6027 28.7944 55.7049 28.7944C59.0788 28.1654 62.0437 26.1735 64.0884 23.4477C66.1332 20.6171 67.1556 17.1574 66.7466 13.6978Z" fill="#452FBA"/>
<path d="M33.0126 56.1847C33.1138 56.2859 33.3164 56.3872 33.5189 56.3872H72.7089C72.9114 56.3872 73.1139 56.2859 73.2152 56.1847C73.3165 56.0835 73.4177 55.881 73.519 55.7798L80 27.0294C80 26.9282 80 26.8269 80 26.6245C80 26.5232 79.8988 26.422 79.7975 26.3208C79.6962 26.2195 79.595 26.1183 79.4937 26.1183C79.3924 26.0171 79.2912 26.0171 79.1899 26.0171H63.5949L64.405 25.2072C66.3291 22.9801 67.6456 20.348 68.1519 17.4122C68.6582 14.4764 68.2532 11.5406 67.038 8.90857C65.7215 6.27649 63.7974 4.04935 61.3671 2.42961C58.8354 0.80987 56 0 53.0632 0C50.1265 0 47.2911 0.80987 44.7594 2.42961C42.329 4.04935 40.405 6.27649 39.1898 9.0098C37.9746 11.6419 37.5695 14.6789 38.0759 17.5134C38.5822 20.4492 39.7974 23.0813 41.8227 25.3084L42.6328 26.1183H26.9366C26.8353 26.1183 26.7341 26.1183 26.6328 26.2195C26.5315 26.3208 26.4303 26.3208 26.329 26.422C26.2277 26.5232 26.2277 26.6245 26.1265 26.7257C26.1265 26.8269 26.1265 26.9282 26.1265 27.1306L32.6075 55.7798C32.7088 55.881 32.81 56.0835 33.0126 56.1847ZM52.2531 54.7674H44.6582L43.6455 47.2761H52.3544V54.7674H52.2531ZM52.2531 45.6564H43.3417L42.1265 36.8491H52.2531V45.6564ZM61.5696 54.7674H53.9746V47.2761H62.6835L61.5696 54.7674ZM53.8734 45.6564V36.8491H64L62.7848 45.6564H53.8734ZM72 54.7674H63.0886L64.1012 47.2761H73.7215L72 54.7674ZM66.8354 27.6368H78.1772L76.4557 35.1281H65.8228L66.8354 27.6368ZM76.1519 36.8491L74.1266 45.6564H64.405L65.6202 36.8491H76.1519ZM65.2152 27.6368L64.2025 35.1281H53.6708L56.3038 29.8639L56.5063 29.7627C58.2278 29.3578 59.8481 28.6491 61.3671 27.6368L61.4683 27.5356H65.2152V27.6368ZM42.2278 23.2838C40.2025 20.5504 39.2911 17.2097 39.5949 13.869C39.8987 10.5283 41.5189 7.39006 43.9493 5.16292C46.4809 2.93578 49.7215 1.61974 53.0632 1.61974C56.405 1.61974 59.6455 2.83454 62.1772 5.16292C64.7088 7.49129 66.2278 10.5283 66.5316 13.869C66.8354 17.2097 65.924 20.5504 63.8987 23.2838C61.8734 26.0171 58.9367 27.8393 55.5949 28.4467C55.4936 28.4467 55.3924 28.5479 55.2911 28.5479C55.1898 28.6491 55.0886 28.7504 55.0886 28.8516L53.0632 32.901L51.0379 28.8516C50.9367 28.7504 50.9367 28.6491 50.8354 28.5479C50.7341 28.4467 50.6329 28.4467 50.5316 28.4467C47.1898 27.8393 44.2531 25.9158 42.2278 23.2838ZM44.5569 27.6368L44.6582 27.738C46.1771 28.7504 47.7974 29.459 49.5189 29.8639L49.7215 29.9652L52.3544 35.2293H41.924L40.9113 27.738H44.5569V27.6368ZM27.9493 27.6368H39.2911L40.3037 35.1281H29.6708L27.9493 27.6368ZM30.0758 36.8491H40.6075L41.8227 45.6564H32.1012L30.0758 36.8491ZM42.0252 47.2761L43.0379 54.7674H34.1265L32.405 47.2761H42.0252Z" fill="#00BF8E"/>
</svg>
