<svg width="62" height="56" viewBox="0 0 62 56" fill="none" xmlns="http://www.w3.org/2000/svg">
<mask id="mask0" mask-type="alpha" maskUnits="userSpaceOnUse" x="0" y="0" width="62" height="56">
<g opacity="0.5">
<path d="M22.9156 48.9998C25.7281 48.9998 28.008 46.9105 28.008 44.3332C28.008 41.7558 25.7281 39.6665 22.9156 39.6665C20.1032 39.6665 17.8232 41.7558 17.8232 44.3332C17.8232 46.9105 20.1032 48.9998 22.9156 48.9998Z" stroke="#0050B5" stroke-width="2" stroke-linecap="round" stroke-linejoin="round"/>
<path d="M43.2853 48.9998C46.0977 48.9998 48.3777 46.9105 48.3777 44.3332C48.3777 41.7558 46.0977 39.6665 43.2853 39.6665C40.4728 39.6665 38.1929 41.7558 38.1929 44.3332C38.1929 46.9105 40.4728 48.9998 43.2853 48.9998Z" stroke="#0050B5" stroke-width="2" stroke-linecap="round" stroke-linejoin="round"/>
<path d="M7.63867 7H12.7311L17.8235 35C18.3727 36.4314 19.4147 37.6606 20.7924 38.5023C22.1701 39.3439 23.8089 39.7526 25.4621 39.6667H43.2855C44.9386 39.7526 46.5774 39.3439 47.9551 38.5023C49.3328 37.6606 50.3748 36.4314 50.9241 35L53.4703 18.6667L25.4621 18.6667" stroke="#0050B5" stroke-width="2" stroke-linecap="round" stroke-linejoin="round"/>
</g>
</mask>
<g mask="url(#mask0)">
<rect y="-1" width="45.8316" height="57" fill="#0050B5"/>
</g>
</svg>
