<svg width="15" height="18" viewBox="0 0 15 18" fill="none" xmlns="http://www.w3.org/2000/svg">
<path fill-rule="evenodd" clip-rule="evenodd" d="M7.5 0C5.46 0 3.79 1.653 3.75 3.686V3.75V4.375H0.63C0.46 4.375 0.3 4.441 0.18 4.558C0.07 4.675 0 4.834 0 5V8.75V11.875C0 13.123 0 14.068 0.08 14.832C0.17 15.595 0.35 16.229 0.81 16.688C1.27 17.148 1.91 17.331 2.67 17.417C3.40501 17.5002 4.31774 17.5001 5.50768 17.5H5.50772L5.63 17.5H9.38L9.4627 17.5H9.46278C10.6624 17.5 11.587 17.5001 12.33 17.416C13.1 17.33 13.73 17.146 14.19 16.686C14.65 16.226 14.83 15.592 14.92 14.829C15 14.066 15 13.121 15 11.875V8.75V5C15 4.834 14.93 4.675 14.82 4.558C14.7 4.441 14.54 4.375 14.38 4.375H11.25V3.75V3.679C11.21 1.649 9.54 0 7.5 0ZM7.5 1.25C8.89 1.25 10 2.363 10 3.75V4.375H5V3.75C5 2.363 6.11 1.25 7.5 1.25ZM3.75 5.625H1.25V8.75V11.875C1.25 13.122 1.25 14.049 1.33 14.691C1.4 15.333 1.53 15.638 1.7 15.804C1.86 15.971 2.17 16.102 2.81 16.174C3.45 16.246 4.38 16.25 5.62 16.25H9.37C10.62 16.25 11.55 16.247 12.19 16.174C12.83 16.102 13.14 15.97 13.3 15.803C13.47 15.636 13.6 15.332 13.67 14.69C13.75 14.048 13.75 13.121 13.75 11.875V8.75V5.625H11.25V6.875C11.25 6.958 11.24 7.04 11.2 7.117C11.17 7.194 11.13 7.264 11.07 7.323C11.01 7.382 10.94 7.428 10.87 7.46C10.79 7.492 10.71 7.509 10.62 7.509C10.54 7.509 10.46 7.492 10.38 7.46C10.31 7.428 10.24 7.382 10.18 7.323C10.12 7.264 10.08 7.194 10.04 7.117C10.01 7.04 10 6.958 10 6.875V5.625H5V6.875C5 6.958 4.99 7.04 4.95 7.117C4.92 7.194 4.88 7.264 4.82 7.323C4.76 7.382 4.69 7.428 4.62 7.46C4.54 7.492 4.46 7.509 4.37 7.509C4.29 7.509 4.21 7.492 4.13 7.46C4.06 7.428 3.99 7.382 3.93 7.323C3.87 7.264 3.83 7.194 3.79 7.117C3.76 7.04 3.75 6.958 3.75 6.875V5.625Z" fill="#0C0D34"/>
</svg>
