<svg width="35" height="35" viewBox="0 0 35 35" fill="none" xmlns="http://www.w3.org/2000/svg">
<circle cx="17.5" cy="17.5" r="17.5" fill="#E6F6F9"/>
<path d="M25.8661 26.6339C26.3543 27.122 27.1457 27.122 27.6339 26.6339C28.122 26.1457 28.122 25.3543 27.6339 24.8661L19.7678 17L27.6339 9.13389C28.122 8.64573 28.122 7.85427 27.6339 7.36612C27.1457 6.87796 26.3543 6.87796 25.8661 7.36612L18 15.2322L10.1339 7.36612C9.64573 6.87796 8.85427 6.87796 8.36612 7.36612C7.87796 7.85427 7.87796 8.64573 8.36612 9.13388L16.2322 17L8.36612 24.8661C7.87796 25.3543 7.87796 26.1457 8.36612 26.6339C8.85427 27.122 9.64573 27.122 10.1339 26.6339L18 18.7678L25.8661 26.6339Z" fill="#9194A7"/>
</svg>
