<svg width="40" height="40" viewBox="0 0 40 40" fill="none" xmlns="http://www.w3.org/2000/svg">
<path d="M0 8C0 3.58172 3.58172 0 8 0H32C36.4183 0 40 3.58172 40 8V32C40 36.4183 36.4183 40 32 40H8C3.58172 40 0 36.4183 0 32V8Z" fill="white"/>
<path d="M27.8661 29.6339C28.3543 30.122 29.1457 30.122 29.6339 29.6339C30.122 29.1457 30.122 28.3543 29.6339 27.8661L21.7678 20L29.6339 12.1339C30.122 11.6457 30.122 10.8543 29.6339 10.3661C29.1457 9.87796 28.3543 9.87796 27.8661 10.3661L20 18.2322L12.1339 10.3661C11.6457 9.87796 10.8543 9.87796 10.3661 10.3661C9.87796 10.8543 9.87796 11.6457 10.3661 12.1339L18.2322 20L10.3661 27.8661C9.87796 28.3543 9.87796 29.1457 10.3661 29.6339C10.8543 30.122 11.6457 30.122 12.1339 29.6339L20 21.7678L27.8661 29.6339Z" fill="#00B0CA"/>
</svg>
