<svg width="14" height="14" viewBox="0 0 14 14" fill="none" xmlns="http://www.w3.org/2000/svg">
<path d="M12.2447 13.4232C12.5702 13.7487 13.0978 13.7487 13.4232 13.4232C13.7487 13.0978 13.7487 12.5702 13.4232 12.2447L8.17916 7.00065L13.4232 1.75657C13.7487 1.43114 13.7487 0.9035 13.4232 0.578063C13.0978 0.252626 12.5702 0.252626 12.2447 0.578063L7.00065 5.82214L1.75657 0.578062C1.43114 0.252625 0.9035 0.252625 0.578063 0.578062C0.252626 0.903499 0.252626 1.43114 0.578063 1.75657L5.82214 7.00065L0.578062 12.2447C0.252625 12.5702 0.252625 13.0978 0.578062 13.4232C0.903499 13.7487 1.43114 13.7487 1.75657 13.4232L7.00065 8.17916L12.2447 13.4232Z" fill="#131336"/>
</svg>
