<svg width="46" height="46" viewBox="0 0 46 46" fill="none" xmlns="http://www.w3.org/2000/svg">
<path d="M0 0H30C38.8366 0 46 7.16344 46 16V46H16C7.16344 46 0 38.8366 0 30V0Z" fill="white"/>
<path d="M30.8661 32.6339C31.3543 33.122 32.1457 33.122 32.6339 32.6339C33.122 32.1457 33.122 31.3543 32.6339 30.8661L24.7678 23L32.6339 15.1339C33.122 14.6457 33.122 13.8543 32.6339 13.3661C32.1457 12.878 31.3543 12.878 30.8661 13.3661L23 21.2322L15.1339 13.3661C14.6457 12.878 13.8543 12.878 13.3661 13.3661C12.878 13.8543 12.878 14.6457 13.3661 15.1339L21.2322 23L13.3661 30.8661C12.878 31.3543 12.878 32.1457 13.3661 32.6339C13.8543 33.122 14.6457 33.122 15.1339 32.6339L23 24.7678L30.8661 32.6339Z" fill="#00B0CA"/>
</svg>
