<svg width="34" height="34" viewBox="0 0 34 34" fill="none" xmlns="http://www.w3.org/2000/svg">
<circle cx="17" cy="17" r="17" fill="#E6EEF8"/>
<path d="M22.2442 23.4226C22.5697 23.748 23.0973 23.748 23.4228 23.4226C23.7482 23.0971 23.7482 22.5695 23.4228 22.2441L18.1787 17L23.4228 11.7559C23.7482 11.4305 23.7482 10.9028 23.4228 10.5774C23.0973 10.252 22.5697 10.252 22.2442 10.5774L17.0002 15.8215L11.7561 10.5774C11.4306 10.252 10.903 10.252 10.5776 10.5774C10.2521 10.9028 10.2521 11.4305 10.5776 11.7559L15.8217 17L10.5776 22.2441C10.2521 22.5695 10.2521 23.0971 10.5776 23.4226C10.903 23.748 11.4306 23.748 11.7561 23.4226L17.0002 18.1785L22.2442 23.4226Z" fill="#9194A7"/>
</svg>

