<svg width="262" height="131" viewBox="0 0 262 131" fill="none" xmlns="http://www.w3.org/2000/svg">
<path fill-rule="evenodd" clip-rule="evenodd" d="M159.52 82.6845H155.525C154.295 82.6845 153.297 81.6827 153.297 80.4497V75.5332L147.104 77.0436L148.764 83.5784C150.515 107.498 119.091 110.118 117.908 84.2103L98.4385 88.988V88.9726L85.7305 91.7468L94.1974 125.638L111.838 121.369C114.266 126.085 116.048 129.353 116.048 129.353H170.492L159.52 82.6845Z" fill="#511E84"/>
<path fill-rule="evenodd" clip-rule="evenodd" d="M21.7798 30.4375C26.5328 30.4971 30.8227 31.1151 34.6878 32.2437C34.9322 32.3151 35.0727 32.5717 35.0015 32.8169C34.9303 33.0621 34.6745 33.203 34.43 33.1316C30.7771 32.0649 26.7291 31.4632 22.2498 31.3702L22.1347 31.3679L22.1114 31.4732C22.0287 31.8514 21.9457 32.2924 21.8682 32.7914C21.2533 36.7478 21.3457 41.3345 22.634 46.1301C22.7003 46.3767 22.5547 46.6304 22.3088 46.6969C22.063 46.7633 21.81 46.6173 21.7438 46.3707C20.4344 41.4964 20.3262 36.8354 20.9351 32.7931L20.9572 32.649C21.0377 32.1309 21.1241 31.6714 21.2108 31.2751L21.2365 31.1597C21.249 31.1041 21.2612 31.0519 21.2728 31.0029L21.3227 30.8028C21.3253 30.7926 21.3277 30.784 21.3296 30.7771C21.3852 30.5744 21.5702 30.4349 21.7798 30.4375Z" fill="#00B0CA"/>
<path fill-rule="evenodd" clip-rule="evenodd" d="M34.0741 32.5608C34.1189 32.3094 34.3584 32.1421 34.609 32.187C34.8597 32.2319 35.0265 32.4721 34.9817 32.7235C34.0976 37.6866 34.1695 42.5148 35.0729 47.2429C35.1208 47.4937 34.957 47.736 34.7069 47.784C34.4569 47.8321 34.2153 47.6677 34.1674 47.4169C33.2432 42.5802 33.1696 37.6382 34.0741 32.5608Z" fill="#00B0CA"/>
<path fill-rule="evenodd" clip-rule="evenodd" d="M48.8284 4.51628C48.9692 4.35682 49.2003 4.31439 49.3882 4.41351L49.4632 4.45399C49.5223 4.48623 49.5916 4.52478 49.6708 4.56966L49.81 4.64914C49.9772 4.74545 50.1615 4.8543 50.3617 4.97575L50.4485 5.02857C51.2818 5.53734 52.2092 6.15099 53.2072 6.87091C56.0557 8.92575 58.9034 11.4217 61.5616 14.3702C63.2148 16.204 64.7436 18.1604 66.1225 20.241C66.2635 20.4536 66.2059 20.7406 65.9938 20.882C65.7818 21.0233 65.4957 20.9656 65.3547 20.7529C64.0017 18.7115 62.5011 16.7911 60.8778 14.9905C58.2659 12.0933 55.4669 9.64007 52.6689 7.62163C51.7371 6.9495 50.8694 6.37268 50.086 5.89013L49.9691 5.81845C49.7704 5.69714 49.5876 5.58833 49.4216 5.49197L49.2744 5.40732L49.2728 5.40918C41.2694 14.5545 36.6705 23.5902 35.0325 32.4518L34.9832 32.723C34.9385 32.9744 34.699 33.1418 34.4484 33.0969C34.1977 33.052 34.0308 32.8118 34.0756 32.5604C35.7166 23.3472 40.4826 13.9731 48.8284 4.51628Z" fill="#00B0CA"/>
<path fill-rule="evenodd" clip-rule="evenodd" d="M90.1807 40.1533C95.5686 37.8821 101.829 37.6647 109.006 39.8595C109.215 39.9234 109.351 40.1257 109.331 40.3438L109.322 40.4371L109.299 40.6395L109.273 40.8564C109.243 41.1011 109.205 41.3751 109.16 41.6765C109.002 42.7266 108.785 43.8956 108.497 45.154C107.675 48.7498 106.458 52.3461 104.766 55.7067C104.651 55.9346 104.373 56.0261 104.146 55.9109C103.919 55.7958 103.828 55.5177 103.943 55.2898C105.598 52.002 106.792 48.475 107.598 44.9474C107.881 43.7127 108.094 42.5666 108.248 41.539L108.279 41.3286C108.304 41.1575 108.326 40.9967 108.345 40.8467L108.371 40.6341L108.32 40.6189C101.589 38.6403 95.739 38.8594 90.6937 40.9409L90.5379 41.0058C86.2808 42.8004 82.7377 45.8641 79.8484 49.8443C78.1585 52.1722 76.7968 54.6688 75.7356 57.1654C75.3644 58.0387 75.0574 58.8491 74.8111 59.5755L74.7559 59.74C74.7027 59.9003 74.6556 60.0474 74.6144 60.1806L74.561 60.357L74.5266 60.4759C74.459 60.722 74.2052 60.8667 73.9598 60.7988C73.7143 60.731 73.5702 60.4765 73.6378 60.2303L73.677 60.0943C73.6877 60.058 73.6996 60.0185 73.7126 59.9758L73.7556 59.8365C73.8082 59.6686 73.869 59.4819 73.9382 59.2777C74.1917 58.5301 74.5069 57.6981 74.8875 56.8027C75.9744 54.2457 77.369 51.6887 79.1031 49.3C82.0849 45.1924 85.7547 42.0191 90.1807 40.1533Z" fill="#00B0CA"/>
<path fill-rule="evenodd" clip-rule="evenodd" d="M82.4337 6.35332C82.6094 6.24727 82.8338 6.27037 82.9844 6.41002L83.0345 6.45741L83.1342 6.55406C83.2373 6.65516 83.3545 6.77304 83.4846 6.90758L83.5412 6.96626C83.9761 7.41885 84.4598 7.9559 84.98 8.5758C86.4633 10.3433 87.9455 12.4227 89.3285 14.8012C90.8042 17.3392 92.0795 20.0733 93.0949 22.9959C93.1787 23.237 93.0517 23.5006 92.8113 23.5847C92.5708 23.6687 92.308 23.5413 92.2242 23.3002C91.229 20.4356 89.9788 17.7552 88.5321 15.2671C87.1768 12.9363 85.7252 10.8998 84.2746 9.17129L84.0864 8.94875C83.6824 8.47492 83.3036 8.05538 82.9568 7.69106L82.8773 7.60796C82.8224 7.55078 82.7698 7.49662 82.7196 7.44551L82.6051 7.3299L82.4316 7.43579C74.7467 12.1381 68.6891 17.3988 64.1249 23.1342L63.9842 23.3117C59.8526 28.5477 57.0166 34.1039 55.3314 39.892C55.26 40.1371 55.004 40.2778 54.7596 40.2062C54.5152 40.1346 54.375 39.8779 54.4463 39.6328C58.136 26.9602 67.0871 15.6167 82.4337 6.35332Z" fill="#00B0CA"/>
<path fill-rule="evenodd" clip-rule="evenodd" d="M74.13 25.8429C79.6483 32.5138 82.825 38.8705 83.94 44.903C83.9865 45.1541 83.8211 45.3953 83.5708 45.4419C83.3205 45.4884 83.0799 45.3226 83.0335 45.0715C81.9705 39.3207 78.9665 33.237 73.743 26.8263L73.6472 26.7092L73.474 26.7928C73.3487 26.8537 73.2145 26.9197 73.0716 26.9909L72.8961 27.0788L72.6221 27.2176C71.8369 27.6182 70.9748 28.0808 70.0536 28.6035C67.1115 30.2727 64.1694 32.206 61.4255 34.3787C55.8557 38.789 51.8343 43.6003 50.0198 48.7148C47.7826 55.0206 49.0191 61.4906 54.4168 68.1055C54.5781 68.3031 54.5491 68.5944 54.352 68.7562C54.155 68.9179 53.8646 68.8888 53.7033 68.6912C48.1048 61.8301 46.8036 55.0217 49.1511 48.4048C51.0336 43.0988 55.1604 38.1613 60.8542 33.6529C63.6383 31.4484 66.619 29.4896 69.5997 27.7986L69.9267 27.6142C70.846 27.0988 71.7039 26.6442 72.4826 26.2523L72.6616 26.1626C72.8365 26.0755 72.999 25.9958 73.1483 25.9236L73.3413 25.8311L73.5847 25.7171C73.774 25.631 73.9973 25.6825 74.13 25.8429Z" fill="#00B0CA"/>
<path fill-rule="evenodd" clip-rule="evenodd" d="M22.1647 46.0673C32.5155 45.1534 41.7972 48.1925 49.9613 54.155C53.0992 56.4467 55.9449 59.085 58.4953 61.9436C60.4102 64.0899 62.0202 66.2013 63.3247 68.1561C63.4663 68.3683 63.4096 68.6554 63.198 68.7975C62.9864 68.9395 62.7001 68.8826 62.5585 68.6704C61.2769 66.75 59.6928 64.6726 57.8083 62.5603C55.2992 59.748 52.5009 57.1536 49.4186 54.9025C41.4244 49.0641 32.3582 46.0956 22.2456 46.9885C21.992 47.0109 21.7683 46.8228 21.7459 46.5685C21.7236 46.3141 21.9111 46.0897 22.1647 46.0673Z" fill="#00B0CA"/>
<path fill-rule="evenodd" clip-rule="evenodd" d="M22.1653 46.0672C22.4189 46.0452 22.6423 46.2337 22.6642 46.4881C22.6861 46.7425 22.4982 46.9665 22.2445 46.9885C19.4387 47.2313 16.5271 47.7933 13.5139 48.68L13.3031 48.7426L13.391 48.9249C13.4283 49.0017 13.4674 49.0813 13.5084 49.1638L13.6367 49.4194C14.1052 50.3435 14.6756 51.3743 15.3501 52.4852C17.2789 55.6613 19.654 58.8382 22.4941 61.8022C25.2409 64.6688 28.2852 67.1846 31.6356 69.2523C31.8524 69.3861 31.9201 69.6709 31.7866 69.8884C31.6532 70.1059 31.3693 70.1737 31.1524 70.0399C27.7325 67.9293 24.6281 65.3639 21.8293 62.443C18.9396 59.4272 16.5247 56.197 14.5627 52.9662C13.8755 51.8346 13.2938 50.7831 12.8149 49.8385L12.7256 49.6614C12.6244 49.4589 12.5331 49.2717 12.4518 49.1003L12.3845 48.9574C12.3593 48.9036 12.3364 48.8538 12.3155 48.8082L12.2431 48.6469L12.2393 48.6381C12.1302 48.3855 12.2641 48.0938 12.5263 48.0126C15.856 46.9814 19.0709 46.335 22.1653 46.0672Z" fill="#00B0CA"/>
<path fill-rule="evenodd" clip-rule="evenodd" d="M98.1611 67.9199C99.6281 67.9199 100.823 69.1014 100.85 70.5664L100.85 70.6171V78.7701C100.85 80.2415 99.6722 81.4397 98.2116 81.4668L98.1611 81.4672L94.5644 81.4671L92.2642 91.6032C92.2097 91.8433 91.9781 91.9968 91.739 91.9567L91.7124 91.9514C91.473 91.8967 91.32 91.6644 91.36 91.4246L91.3652 91.3979L93.747 80.9022C93.7927 80.701 93.9654 80.5556 94.1686 80.5433L94.1965 80.5425H98.1611C99.1208 80.5425 99.9038 79.772 99.9277 78.8151L99.9282 78.7701V70.6171C99.9282 69.6545 99.16 68.8692 98.2059 68.8452L98.1611 68.8447H89.9708C89.7162 68.8447 89.5098 68.6376 89.5098 68.3823C89.5098 68.136 89.7017 67.9348 89.9437 67.9207L89.9708 67.9199H98.1611Z" fill="#511E84"/>
<path fill-rule="evenodd" clip-rule="evenodd" d="M68.7189 67.9355C68.9735 67.9355 69.1799 68.1426 69.1799 68.3979C69.1799 68.6442 68.988 68.8454 68.746 68.8595L68.7189 68.8603H33.3454C32.3857 68.8603 31.6027 69.6308 31.5788 70.5877L31.5782 70.6327V78.7857C31.5782 79.7483 32.3465 80.5336 33.3005 80.5576L33.3454 80.5581H37.0487C37.2545 80.5581 37.4341 80.6947 37.4912 80.8908L37.4982 80.9179L48.5466 129.59C48.6032 129.839 48.4477 130.086 48.1995 130.143C47.9601 130.198 47.7218 130.055 47.6544 129.821L47.6477 129.795L36.6808 81.4829H33.3454C31.8783 81.4829 30.6837 80.3014 30.6567 78.8364L30.6562 78.7857V70.6327C30.6562 69.1613 31.8342 67.9631 33.2949 67.936L33.3454 67.9355H68.7189Z" fill="#511E84"/>
<path fill-rule="evenodd" clip-rule="evenodd" d="M98.6241 89.0118L98.6528 89.0284L138.944 114.32C139.298 114.542 139.198 115.084 138.789 115.165L137.328 115.461C136.803 115.568 136.226 115.686 135.599 115.816L133.892 116.171C131.812 116.607 129.565 117.086 127.184 117.603C118.687 119.452 110.19 121.423 102.234 123.44L101.652 123.588C93.7464 125.601 86.8129 127.552 81.1253 129.402L80.5533 129.589C80.0805 129.745 79.6171 129.9 79.1634 130.053C78.9221 130.135 78.6605 130.005 78.5791 129.763C78.4976 129.521 78.6271 129.259 78.8683 129.177L79.4205 128.991C79.8845 128.836 80.358 128.68 80.8409 128.523L81.2557 128.388C86.8857 126.571 93.6927 124.661 101.426 122.692C109.366 120.67 117.86 118.692 126.366 116.835L127.558 116.576C130.014 116.044 132.323 115.553 134.446 115.111L136.74 114.637L137.473 114.488L98.3254 89.9139L97.7636 90.0455C97.5216 90.1026 97.2566 90.1656 96.97 90.2344L96.4347 90.3634C95.347 90.6268 94.1576 90.922 92.8882 91.2459C88.6571 92.3255 84.4013 93.5012 80.3956 94.7327C80.1522 94.8075 79.8944 94.6703 79.8197 94.4261C79.7451 94.182 79.882 93.9234 80.1254 93.8486C83.9859 92.6617 88.0753 91.5272 92.1515 90.4802L92.6609 90.3497C94.0049 90.0068 95.2595 89.6959 96.3994 89.4208L97.3659 89.1895L98.3059 88.9696C98.414 88.9449 98.5269 88.9601 98.6241 89.0118Z" fill="#511E84"/>
<path fill-rule="evenodd" clip-rule="evenodd" d="M82.7282 53.3477C85.323 52.4914 87.945 52.5858 90.5899 53.7337L92.5471 54.6008C98.6615 57.3162 101.793 58.8521 103.924 60.3376L103.988 60.3827C105.392 61.3703 106.154 62.239 106.203 63.094C106.259 64.086 105.397 64.7966 103.71 65.2916L103.636 65.313C101.421 65.9454 98.0147 67.8611 93.7652 70.7494C92.8317 71.3839 91.8671 72.059 90.8768 72.7694C88.5154 74.4635 86.1162 76.2792 83.8046 78.095L83.3828 78.4271C82.8753 78.8277 82.3978 79.2081 81.9545 79.5642L81.4507 79.9705L80.953 80.375L80.9568 80.9894L80.9596 81.6543C80.972 85.1186 80.9486 89.017 80.8648 92.7572L80.8451 93.5879C80.7335 98.0386 80.544 101.521 80.2605 103.695L80.2406 103.845C79.7052 107.88 78.6387 112.229 77.4053 115.669C77.3192 115.909 77.0551 116.034 76.8155 115.948C76.576 115.861 76.4516 115.597 76.5377 115.356C77.7276 112.038 78.7624 107.845 79.2981 103.934L79.3462 103.576C79.6341 101.367 79.8256 97.7407 79.9348 93.0968L79.951 92.3748C80.0281 88.7549 80.0496 85.0029 80.0376 81.6575L80.0295 80.1613C80.0282 80.0216 80.0901 79.8888 80.1977 79.8L80.73 79.3657L81.0214 79.1298C81.6415 78.6291 82.3365 78.0747 83.0935 77.4791L83.2361 77.367C85.5575 75.5435 87.9671 73.7199 90.3404 72.0173C91.3368 71.3025 92.3077 70.623 93.248 69.9839L93.6352 69.7218C97.6977 66.9839 100.978 65.1482 103.242 64.4652L103.517 64.3844C104.787 64.0031 105.306 63.5695 105.282 63.1469C105.255 62.6702 104.644 61.9736 103.459 61.1398L103.334 61.0526C101.355 59.6855 98.4164 58.2308 92.8931 55.7665L90.3226 54.6258C87.853 53.528 85.4315 53.4291 83.016 54.2262C80.0239 55.2114 78.0341 56.551 75.8461 59.108L75.765 59.2033C73.8147 61.504 72.0157 64.2347 67.4119 71.7367L66.9766 72.4466L66.9652 72.4642C58.6952 84.6825 53.1555 98.4609 51.3927 110.124C49.7415 121.05 51.7133 128.399 56.5043 129.221C56.7553 129.264 56.9239 129.503 56.881 129.754C56.8381 130.006 56.5998 130.175 56.3489 130.132C50.8653 129.192 48.7628 121.355 50.4812 109.986C52.2472 98.3006 57.7453 84.5528 65.9529 72.3152L66.1983 71.9507L66.9007 70.8058C71.2852 63.669 73.0716 60.9654 75.001 58.6771L75.0626 58.6043C77.3919 55.8564 79.5369 54.3985 82.7282 53.3477Z" fill="#511E84"/>
<path fill-rule="evenodd" clip-rule="evenodd" d="M111.042 48.3926L111.069 48.3936C111.323 48.4104 111.516 48.6306 111.499 48.8854C111.084 55.1996 111.837 63.7062 113.183 70.9484C113.229 71.1994 113.064 71.4408 112.814 71.4876C112.563 71.5344 112.323 71.3688 112.276 71.1178C110.918 63.806 110.158 55.2266 110.579 48.8245C110.595 48.5788 110.8 48.3907 111.042 48.3926Z" fill="#511E84"/>
<path fill-rule="evenodd" clip-rule="evenodd" d="M148.627 56.8444C148.65 56.59 148.874 56.4021 149.127 56.4247C150.554 56.5516 151.917 56.9589 152.991 57.7655C154.489 58.8902 155.196 60.6451 154.876 63.0654C154.585 65.2342 153.501 66.5883 151.816 67.1868C150.543 67.6392 149.02 67.6336 147.399 67.3104C147.149 67.2607 146.987 67.0173 147.036 66.7668C147.086 66.5163 147.329 66.3537 147.578 66.4034C149.051 66.6971 150.419 66.7021 151.508 66.3151C152.865 65.8331 153.717 64.7693 153.962 62.9431C154.239 60.8503 153.665 59.4268 152.439 58.5057C151.525 57.8199 150.317 57.4589 149.046 57.3458C148.792 57.3232 148.605 57.0987 148.627 56.8444Z" fill="#511E84"/>
<path fill-rule="evenodd" clip-rule="evenodd" d="M146.144 73.282C146.382 73.2212 146.624 73.3581 146.697 73.5898L146.705 73.6159L149.21 83.4797C149.216 83.506 149.221 83.5329 149.223 83.56C149.635 89.1909 148.256 93.9612 145.417 97.4616C142.814 100.67 139.101 102.63 135.092 103.009C131.07 103.39 127.064 102.151 123.92 99.457C120.481 96.5099 118.245 92.0053 117.603 86.2655C117.574 86.0117 117.756 85.7829 118.009 85.7544C118.262 85.7259 118.49 85.9086 118.519 86.1624C119.136 91.677 121.265 95.9651 124.519 98.7539C127.471 101.284 131.23 102.446 135.005 102.089C138.77 101.732 142.257 99.8921 144.701 96.878C147.36 93.5999 148.672 89.1209 148.314 83.7895L148.306 83.6681L145.811 73.8442C145.751 73.6055 145.887 73.363 146.118 73.2895L146.144 73.282Z" fill="#511E84"/>
<path fill-rule="evenodd" clip-rule="evenodd" d="M141.87 57.4878C141.629 57.4684 141.413 57.6401 141.378 57.8806L141.068 59.9441L140.918 60.938C140.751 62.0402 140.584 63.131 140.422 64.1728L140.217 65.4896C140.013 66.781 139.835 67.8849 139.688 68.7628L139.576 69.4183L139.368 69.3702C139.255 69.3441 139.134 69.3171 139.007 69.2893L138.911 69.2683C137.982 69.0674 136.908 68.8667 135.701 68.6796C131.126 67.9699 125.999 67.6455 120.528 67.921L120.155 67.9545L119.759 67.9929C119.524 68.0162 119.275 68.042 119.013 68.0703C117.984 68.1817 116.954 68.3106 115.981 68.4562L115.718 68.4964C114.019 68.7588 112.68 69.0471 111.817 69.367C111.618 69.4407 111.495 69.6409 111.519 69.8523L111.542 70.0447L111.566 70.2259C111.583 70.3499 111.602 70.4849 111.624 70.6304L111.638 70.7189C111.741 71.4016 111.876 72.1615 112.044 72.9797C112.524 75.318 113.179 77.657 114.037 79.8441C115.171 82.7333 116.574 85.1369 118.285 86.8924C120.89 89.5642 124.789 90.6389 129.188 90.2217C133.043 89.8562 136.963 88.338 139.48 86.2968C143.85 82.7541 144.919 81.1006 145.954 76.7743L146.009 76.5439C146.3 75.2844 146.721 72.9784 147.241 69.8603L147.419 68.781L147.537 68.0592C147.856 66.1026 148.185 64.0148 148.508 61.9193L148.764 60.2481L149.02 58.5566C149.06 58.2917 148.867 58.0486 148.601 58.0272L141.87 57.4878ZM142.226 58.4439L148.035 58.9095L147.683 61.2193L147.476 62.5622C147.253 63.9986 147.029 65.424 146.807 66.7981L146.549 68.3927L146.353 69.5788C145.813 72.8252 145.378 75.2041 145.088 76.4292L145.01 76.7576C144.526 78.7508 144.137 79.8241 143.447 80.9292L143.41 80.9885C142.557 82.3333 141.225 83.6931 138.901 85.5777C136.529 87.5006 132.781 88.9521 129.101 89.3011C124.957 89.6941 121.332 88.6949 118.945 86.2459C117.331 84.5906 115.987 82.2892 114.895 79.5055C114.059 77.3727 113.417 75.0832 112.947 72.793C112.782 71.9912 112.651 71.2469 112.549 70.5795L112.512 70.3287L112.482 70.1171L112.541 70.099C113.336 69.856 114.472 69.6245 115.858 69.4103C116.806 69.2638 117.818 69.1334 118.835 69.0202L119.112 68.9897C119.414 68.957 119.7 68.9277 119.964 68.9018L120.394 68.861L120.582 68.844L120.574 68.8445C125.979 68.5724 131.044 68.8929 135.56 69.5934C136.692 69.769 137.704 69.9563 138.585 70.1441L138.716 70.1723C139.003 70.2342 139.256 70.292 139.474 70.3446L139.72 70.4051L139.824 70.4322C140.085 70.5023 140.349 70.3342 140.397 70.068L140.476 69.6258C140.629 68.7456 140.826 67.5404 141.058 66.0701L141.285 64.6265L141.431 63.6838C141.546 62.9411 141.662 62.1781 141.779 61.4078L142.167 58.8365L142.226 58.4439Z" fill="#511E84"/>
<path fill-rule="evenodd" clip-rule="evenodd" d="M148.21 60.5221C148.21 60.5221 151.422 53.8641 152.359 48.3773C153.25 43.2297 150.546 38.0512 145.721 36.0938C141.679 34.4447 140.358 34.9841 140.358 34.9841C140.358 34.9841 142.755 30.6996 136.516 24.396C134.319 22.1766 131.276 20.9436 128.157 21.0207C120.52 21.2211 118.138 27.6942 118.138 27.6942C118.138 27.6942 109.994 12.6057 93.2136 21.4831C91.5233 22.377 89.6025 24.8738 88.6959 26.5691C83.1333 36.7874 101.342 48.963 110.839 49.9494C121.273 51.0282 127.819 49.7336 131 46.9594C128.618 48.6239 132.89 63.9282 148.21 60.5221Z" fill="#511E84"/>
<path fill-rule="evenodd" clip-rule="evenodd" d="M119.996 63.451C120.325 63.4674 120.581 63.74 120.58 64.0666L120.58 64.0973L120.132 73.1144L122.696 72.2806C123.009 72.1789 123.344 72.3422 123.46 72.6469L123.47 72.6769C123.572 72.9906 123.409 73.3267 123.105 73.4429L123.075 73.4535L119.664 74.5632C119.263 74.6934 118.857 74.3912 118.859 73.9747L118.86 73.9461L119.352 64.0361C119.368 63.7063 119.64 63.45 119.966 63.4502L119.996 63.451Z" fill="#511E84"/>
<path fill-rule="evenodd" clip-rule="evenodd" d="M125.784 55.373C127.338 55.036 128.704 55.3667 129.836 56.1209C130.123 56.3121 130.373 56.5173 130.586 56.7239L130.649 56.786C130.748 56.8859 130.821 56.9678 130.866 57.0247C131.077 57.291 131.034 57.6788 130.768 57.8911C130.503 58.1033 130.116 58.0594 129.905 57.7932C129.882 57.7647 129.824 57.6996 129.731 57.6099C129.57 57.4535 129.378 57.2956 129.156 57.148C128.284 56.5673 127.249 56.3167 126.044 56.5782C125.712 56.6501 125.385 56.4387 125.313 56.1059C125.241 55.7731 125.452 55.445 125.784 55.373Z" fill="#511E84"/>
<path fill-rule="evenodd" clip-rule="evenodd" d="M115.597 53.0494C116.193 52.9271 116.809 52.9597 117.4 53.0855L117.496 53.1067C117.648 53.142 117.767 53.1767 117.845 53.2035C118.167 53.3139 118.338 53.6645 118.228 53.9866C118.121 54.2986 117.79 54.4694 117.477 54.3794L117.411 54.3586C117.401 54.3558 117.39 54.3526 117.378 54.349C117.31 54.3297 117.232 54.3101 117.145 54.2916C116.706 54.1981 116.25 54.1739 115.843 54.2573C115.267 54.3757 114.859 54.6928 114.624 55.3034C114.501 55.621 114.146 55.7791 113.829 55.6564C113.512 55.5338 113.355 55.1768 113.477 54.8592C113.871 53.837 114.628 53.2483 115.597 53.0494Z" fill="#511E84"/>
<path fill-rule="evenodd" clip-rule="evenodd" d="M131.138 75.8723C130.601 75.1326 125.361 78.8161 127.404 79.1551C129.448 79.4788 132.291 77.4598 131.138 75.8723Z" fill="#511E84"/>
<path fill-rule="evenodd" clip-rule="evenodd" d="M109.165 75.1946L129.065 68.4441C129.065 68.4441 131.723 67.4269 131.631 63.9591C131.538 60.4914 127.19 59.1968 127.19 59.1968L105.969 56.1914L109.165 75.1946Z" fill="#00B0CA"/>
<path fill-rule="evenodd" clip-rule="evenodd" d="M87.8661 75.1946L107.766 68.4441C107.766 68.4441 110.424 67.4269 110.332 63.9591C110.24 60.4914 105.891 59.1968 105.891 59.1968L95.6262 59.8749L84.6699 56.1914L87.8661 75.1946Z" fill="#00B0CA"/>
<path fill-rule="evenodd" clip-rule="evenodd" d="M105.768 75.811C111.191 75.811 115.588 71.4017 115.588 65.9626C115.588 60.5235 111.191 56.1143 105.768 56.1143C100.345 56.1143 95.9492 60.5235 95.9492 65.9626C95.9492 71.4017 100.345 75.811 105.768 75.811Z" fill="#511E84"/>
<path fill-rule="evenodd" clip-rule="evenodd" d="M84.3172 75.9497C89.7402 75.9497 94.1364 71.5404 94.1364 66.1013C94.1364 60.6622 89.7402 56.2529 84.3172 56.2529C78.8942 56.2529 74.498 60.6622 74.498 66.1013C74.498 71.5404 78.8942 75.9497 84.3172 75.9497Z" fill="#511E84"/>
<path fill-rule="evenodd" clip-rule="evenodd" d="M97.8391 49.4857L98.0337 49.4447C100.401 48.9537 102.766 48.731 103.729 48.8754C104.928 49.0506 105.165 50.1928 104.371 51.297C103.594 52.3775 101.974 53.3895 99.7413 54.0751C99.4978 54.1499 99.24 54.0125 99.1655 53.7684C99.091 53.5242 99.2279 53.2656 99.4713 53.1909C101.527 52.5597 102.978 51.6531 103.623 50.7558C104.052 50.1607 104 49.8613 103.619 49.7941L103.595 49.7903C102.75 49.6635 100.426 49.8858 98.1233 50.3706L98.0312 50.3901C95.0684 51.0231 92.4648 51.9874 90.745 53.2089C90.5373 53.3565 90.2495 53.3072 90.1024 53.0988C89.9553 52.8904 90.0044 52.6018 90.2122 52.4542C92.0528 51.1469 94.7646 50.1426 97.8391 49.4857Z" fill="#511E84"/>
<path fill-rule="evenodd" clip-rule="evenodd" d="M92.8416 52.6137C95.0664 52.0666 98.1388 52.6199 101.548 53.9439L101.667 53.9904C104.283 55.0176 106.913 56.4653 107.776 57.2768L107.805 57.3045C108.336 57.8093 108.4 58.4831 107.952 59.0152C107.566 59.4731 106.846 59.7719 105.915 59.8704C103.78 60.0965 100.821 59.2994 97.4885 57.3808L97.3761 57.3157L97.274 57.25L97.1896 57.1972C97.145 57.1697 97.0966 57.1405 97.0447 57.1099C96.7965 56.9635 96.5227 56.8169 96.2322 56.6803C95.625 56.3947 95.0303 56.1928 94.4861 56.1103C94.2155 56.0693 93.9634 56.0591 93.7332 56.0814C93.4798 56.1059 93.2545 55.9197 93.2301 55.6656C93.2056 55.4114 93.3912 55.1854 93.6446 55.1609C93.9548 55.1309 94.282 55.1442 94.6238 55.196C95.2675 55.2935 95.9425 55.5227 96.6236 55.843C96.9417 55.9926 97.2405 56.1526 97.5121 56.3128L97.6271 56.3816C97.7099 56.4318 97.7769 56.4743 97.8266 56.5068L97.8495 56.522L97.9471 56.5786C101.088 58.3865 103.833 59.1373 105.753 58.9574L105.818 58.9508C106.534 58.875 107.039 58.6655 107.247 58.4185C107.364 58.2794 107.359 58.1637 107.191 57.995L107.168 57.9727C106.439 57.267 103.873 55.8498 101.331 54.8515C98.0363 53.5576 95.0816 53.015 93.0611 53.5118C92.8138 53.5726 92.5642 53.4208 92.5036 53.1728C92.443 52.9248 92.5943 52.6745 92.8416 52.6137Z" fill="#511E84"/>
<path fill-rule="evenodd" clip-rule="evenodd" d="M88.1966 52.5799C90.4245 52.0913 93.472 52.6649 96.8339 53.9798L96.9541 54.0271C99.5428 55.0509 102.13 56.4769 102.981 57.2765L103.01 57.3042C103.542 57.809 103.605 58.4828 103.157 59.0148C102.771 59.4728 102.052 59.7716 101.121 59.8701C98.9854 60.0962 96.0268 59.2991 92.694 57.3805L92.5815 57.3154L92.4794 57.2497L92.3951 57.1969C92.3504 57.1694 92.302 57.1402 92.2502 57.1096C92.002 56.9632 91.7281 56.8166 91.4376 56.6799C90.8305 56.3944 90.2357 56.1925 89.6915 56.11C89.4209 56.069 89.1689 56.0588 88.9386 56.0811C88.6852 56.1056 88.46 55.9194 88.4355 55.6652C88.411 55.4111 88.5967 55.1851 88.8501 55.1606C89.1603 55.1306 89.4874 55.1438 89.8293 55.1957C90.4729 55.2932 91.148 55.5224 91.8291 55.8427C92.1471 55.9923 92.4459 56.1523 92.7176 56.3125L92.8325 56.3813C92.9153 56.4315 92.9824 56.474 93.0321 56.5065L93.055 56.5217L93.1525 56.5783C96.293 58.3862 99.038 59.1369 100.958 58.9571L101.024 58.9505C101.74 58.8747 102.245 58.6652 102.453 58.4182C102.57 58.2791 102.564 58.1634 102.396 57.9948L102.373 57.9725C101.656 57.2783 99.1317 55.8823 96.6159 54.8874L96.3813 54.7956C93.2213 53.574 90.377 53.0483 88.3935 53.4833C88.1448 53.5378 87.8991 53.3798 87.8447 53.1304C87.7903 52.8809 87.9479 52.6344 88.1966 52.5799Z" fill="#511E84"/>
<path fill-rule="evenodd" clip-rule="evenodd" d="M83.0567 53.2467C85.2066 52.2129 88.483 52.61 92.3009 54.0196L92.4849 54.0882C95.2772 55.1404 98.1703 56.7096 99.0624 57.5663C99.5938 58.0712 99.657 58.7449 99.209 59.277C98.8234 59.7349 98.1036 60.0337 97.1726 60.1322C95.0374 60.3583 92.0788 59.5612 88.746 57.6426L88.6335 57.5775L88.5314 57.5118L88.447 57.459C88.4024 57.4315 88.354 57.4023 88.3021 57.3717C88.054 57.2253 87.7801 57.0787 87.4896 56.9421C86.8825 56.6565 86.2877 56.4546 85.7435 56.3721C85.4729 56.3311 85.2208 56.3209 84.9906 56.3432C84.7372 56.3677 84.5119 56.1816 84.4875 55.9274C84.463 55.6732 84.6486 55.4473 84.9021 55.4227C85.2123 55.3927 85.5394 55.406 85.8812 55.4578C86.5249 55.5553 87.2 55.7845 87.881 56.1048C88.1991 56.2544 88.4979 56.4144 88.7695 56.5746L88.8845 56.6434C88.9673 56.6937 89.0343 56.7361 89.084 56.7687L89.1069 56.7838L89.2045 56.8404C92.345 58.6484 95.09 59.3991 97.01 59.2192L97.0758 59.2126C97.7918 59.1368 98.2966 58.9273 98.5046 58.6803C98.6268 58.5352 98.6156 58.4155 98.4266 58.2359L98.3718 58.185C97.5077 57.4056 94.7253 55.9105 92.0709 54.9202L91.9824 54.8874C88.3804 53.5575 85.3155 53.186 83.4553 54.0805C83.2257 54.1909 82.9504 54.0938 82.8403 53.8635C82.7303 53.6332 82.8271 53.3571 83.0567 53.2467Z" fill="#511E84"/>
<path fill-rule="evenodd" clip-rule="evenodd" d="M163.63 7.89719C167.926 7.09028 172.124 9.65871 173.066 13.6653L173.094 13.7871L176.136 27.9355C176.19 28.1852 176.032 28.4312 175.783 28.485C175.543 28.5369 175.306 28.3912 175.242 28.1569L175.235 28.1305L172.193 13.983C171.417 10.4096 167.662 8.08081 163.8 8.80612C159.976 9.52436 157.497 12.9391 158.197 16.4696L158.219 16.5766L162.767 37.6913C162.821 37.9409 162.663 38.187 162.414 38.2409C162.174 38.2929 161.938 38.1472 161.873 37.913L161.866 37.8866L157.318 16.7722C156.433 12.6795 159.272 8.71587 163.63 7.89719Z" fill="#511E84"/>
<path fill-rule="evenodd" clip-rule="evenodd" d="M180.726 7.99823C180.857 3.83503 184.581 0.561711 189.006 0.692249C193.404 0.821493 196.875 4.21106 196.817 8.31543L196.323 29.0615C196.317 29.3168 196.105 29.5188 195.851 29.5127C195.605 29.5068 195.409 29.3096 195.401 29.0666L195.401 29.0394L195.893 8.41436C196.007 4.77819 192.926 1.73259 188.979 1.61658C185.088 1.50178 181.828 4.3316 181.652 7.91866L181.648 8.02759L181.033 27.3391C181.025 27.5943 180.812 27.7946 180.557 27.7864C180.312 27.7786 180.118 27.5798 180.111 27.3367L180.111 27.3096L180.726 7.99823Z" fill="#511E84"/>
<path fill-rule="evenodd" clip-rule="evenodd" d="M203.372 13.756C204.256 9.68067 208.495 7.05186 212.835 7.86692C217.146 8.67662 219.976 12.5817 219.173 16.6192L219.147 16.7416L214.829 36.7928C214.776 37.0424 214.53 37.2011 214.282 37.1472C214.042 37.0952 213.886 36.8645 213.923 36.6243L213.928 36.5976L218.246 16.5456C219.018 12.9891 216.523 9.50049 212.665 8.77585C208.842 8.0578 205.124 10.3331 204.294 13.8584L204.27 13.9656L200.659 28.5764C200.597 28.8242 200.347 28.9753 200.1 28.9139C199.862 28.8546 199.713 28.6194 199.758 28.3804L199.764 28.3539L203.372 13.756Z" fill="#511E84"/>
<path fill-rule="evenodd" clip-rule="evenodd" d="M222.531 28.1227C224.523 24.4056 229.336 22.9041 233.304 24.7471C237.251 26.5805 238.881 31.0374 236.971 34.7516L236.912 34.8639L217.98 70.2195C217.86 70.4445 217.581 70.5289 217.356 70.4081C217.14 70.2917 217.054 70.0275 217.156 69.8072L217.168 69.782L236.1 34.4263C237.846 31.1677 236.43 27.2185 232.916 25.5862C229.419 23.9619 225.186 25.2554 223.397 28.4625L223.343 28.5603L218.534 37.5456C218.413 37.7706 218.134 37.8551 217.909 37.7343C217.693 37.618 217.607 37.3537 217.709 37.1334L217.721 37.1082L222.531 28.1227Z" fill="#511E84"/>
<path fill-rule="evenodd" clip-rule="evenodd" d="M154.493 61.7943C154.709 61.678 154.976 61.7521 155.103 61.9586L155.117 61.983L159.266 69.7354C159.387 69.9604 159.302 70.2406 159.078 70.3614C158.862 70.4777 158.595 70.4037 158.468 70.1971L158.454 70.1727L154.305 62.4204C154.184 62.1954 154.269 61.9151 154.493 61.7943Z" fill="#511E84"/>
<path fill-rule="evenodd" clip-rule="evenodd" d="M143.162 24.7471C147.09 22.9225 151.846 24.3759 153.873 28.012L153.934 28.1228L159.62 38.7418C159.74 38.9668 159.656 39.2471 159.432 39.3679C159.216 39.4843 158.948 39.4103 158.821 39.2038L158.807 39.1793L153.122 28.5605C151.365 25.2819 147.081 23.9454 143.549 25.5862C140.07 27.2022 138.648 31.0889 140.314 34.3283L140.365 34.4263L152.628 57.3134C152.748 57.5384 152.664 57.8187 152.44 57.9396C152.224 58.056 151.957 57.982 151.83 57.7756L151.816 57.7511L139.553 34.8641C137.551 31.1277 139.175 26.5991 143.162 24.7471Z" fill="#511E84"/>
<path fill-rule="evenodd" clip-rule="evenodd" d="M178.103 26.65C182.226 26.1268 185.999 29.5867 186.607 34.3555L186.624 34.5004L188.321 49.428L191.57 34.425C192.567 29.7632 196.632 27.0036 200.679 28.264L200.802 28.3034C204.812 29.6332 207.237 34.4156 206.3 39.0418L206.27 39.1819L203.308 52.8828L208.781 40.8347C210.702 36.5933 215.244 35.052 218.944 37.3763L219.056 37.448C222.689 39.8182 224.097 45.0853 222.262 49.3045L222.205 49.432L212.77 70.2384C212.665 70.4709 212.392 70.5736 212.16 70.4679C211.936 70.3659 211.833 70.1074 211.921 69.8806L211.931 69.8556L221.366 49.0494C223.102 45.2165 221.832 40.362 218.553 38.2231C215.352 36.1347 211.413 37.4085 209.672 41.1048L209.62 41.2176L202.367 57.1846C202.142 57.68 201.406 57.4445 201.492 56.9222L201.497 56.8949L205.37 38.9855C206.288 34.7586 204.093 30.3689 200.512 29.1814C197.011 28.0203 193.442 30.3735 192.499 34.4947L192.471 34.6201L188.63 52.3595C188.521 52.8609 187.808 52.8346 187.725 52.3426L187.721 52.3137L185.708 34.605C185.214 30.2431 181.838 27.1082 178.218 27.5674C174.634 28.022 172.074 31.8398 172.504 36.1418L172.518 36.2724L174.608 54.505C174.668 55.0344 173.941 55.224 173.731 54.7508L173.72 54.7248L169.141 42.8729C167.589 38.858 163.649 37.0089 160.345 38.6946C157.032 40.3845 155.546 44.9723 157.031 48.9829L157.077 49.1042L165.098 69.849C165.19 70.0871 165.073 70.3549 164.835 70.4473C164.606 70.5363 164.35 70.4296 164.249 70.2084L164.239 70.1834L156.218 49.4385C154.493 44.9766 156.137 39.8035 159.927 37.8704C163.709 35.9408 168.171 37.9981 169.947 42.4045L170 42.5387L173.281 51.0305L171.602 36.3776C171.058 31.5968 173.889 27.2647 177.978 26.6669L178.103 26.65Z" fill="#00B0CA"/>
<path fill-rule="evenodd" clip-rule="evenodd" d="M220.509 69.5693C221.977 69.5693 223.171 70.7508 223.198 72.2158L223.199 72.2665V80.4503C223.199 81.9218 222.021 83.12 220.56 83.147L220.509 83.1475H217.14L210.862 109.87C210.806 110.11 210.573 110.262 210.335 110.22L210.308 110.214C210.069 110.158 209.918 109.924 209.96 109.685L209.965 109.658L216.327 82.5791C216.374 82.3793 216.546 82.2357 216.748 82.2236L216.775 82.2227H220.509C221.469 82.2227 222.252 81.4522 222.276 80.4953L222.277 80.4503V72.2665C222.277 71.3039 221.508 70.5186 220.554 70.4946L220.509 70.4941H155.509C154.55 70.4941 153.767 71.2646 153.743 72.2215L153.742 72.2665V80.4503C153.742 81.4129 154.511 82.1982 155.465 82.2222L155.509 82.2227H159.505C159.709 82.2227 159.888 82.3577 159.946 82.5522L159.953 82.5791L171.002 129.617C171.06 129.866 170.907 130.115 170.659 130.173C170.42 130.23 170.181 130.088 170.111 129.855L170.104 129.829L159.14 83.1475H155.509C154.042 83.1475 152.848 81.966 152.821 80.501L152.82 80.4503V72.2665C152.82 70.795 153.998 69.5968 155.459 69.5698L155.509 69.5693H220.509Z" fill="#511E84"/>
<path fill-rule="evenodd" clip-rule="evenodd" d="M198.754 102.434C199.79 101.99 200.547 102.112 201.287 102.771C201.458 102.923 201.626 103.099 201.841 103.344L201.975 103.5C202.101 103.649 202.496 104.112 202.64 104.276C203.29 105.014 203.907 105.6 204.687 106.172C204.795 106.251 204.906 106.33 205.018 106.406L205.166 106.506C206.01 107.072 206.704 107.457 208.24 108.249L208.818 108.547C209.559 108.931 210.003 109.172 210.507 109.468C212.42 110.592 213.941 111.865 215.445 113.743C215.604 113.942 215.572 114.233 215.374 114.393C215.175 114.553 214.885 114.521 214.726 114.322C213.326 112.573 211.921 111.386 210.154 110.333L209.944 110.21C209.478 109.939 209.041 109.703 208.317 109.328L207.553 108.934C206.082 108.172 205.403 107.786 204.5 107.171C204.378 107.088 204.259 107.004 204.143 106.919C203.34 106.33 202.698 105.728 202.039 104.99L201.882 104.812C201.664 104.56 201.237 104.057 201.239 104.059L201.153 103.96C200.959 103.738 200.813 103.586 200.675 103.463C200.202 103.042 199.824 102.98 199.118 103.283C198.586 103.514 198.471 104.057 198.786 105.039C199.088 105.978 199.763 107.181 200.742 108.59C200.888 108.799 200.837 109.088 200.628 109.234C200.419 109.38 200.132 109.328 199.986 109.119C198.959 107.64 198.245 106.369 197.909 105.322C197.466 103.943 197.687 102.897 198.754 102.434Z" fill="#511E84"/>
<path fill-rule="evenodd" clip-rule="evenodd" d="M183.624 105.387L183.792 105.38C185.441 105.323 188.069 105.452 190.659 105.813C194.508 106.348 197.969 107.322 200.707 108.818C200.93 108.94 201.013 109.221 200.891 109.445C200.769 109.669 200.489 109.752 200.266 109.63C197.682 108.218 194.389 107.281 190.714 106.754L190.533 106.729C187.909 106.363 185.245 106.241 183.667 106.311C182.749 106.355 182.522 107.036 183.268 108.094C183.415 108.302 183.366 108.591 183.158 108.738C182.95 108.886 182.663 108.836 182.515 108.628C181.384 107.024 181.903 105.47 183.624 105.387Z" fill="#511E84"/>
<path fill-rule="evenodd" clip-rule="evenodd" d="M180.614 107.931C181.909 107.831 184.8 108.16 187.784 108.793C191.514 109.583 195.052 110.746 197.858 112.22C198.084 112.339 198.171 112.618 198.053 112.845C197.934 113.071 197.656 113.158 197.43 113.04C194.708 111.609 191.247 110.472 187.593 109.697L187.286 109.633C184.491 109.06 181.832 108.765 180.684 108.853C179.266 108.96 179.548 110.905 182.013 112.886C182.212 113.045 182.244 113.336 182.084 113.536C181.925 113.735 181.635 113.767 181.436 113.607C179.98 112.437 179.105 111.164 178.944 110.053C178.774 108.881 179.439 108.02 180.614 107.931Z" fill="#511E84"/>
<path fill-rule="evenodd" clip-rule="evenodd" d="M182.255 112.708C184.807 112.582 191.543 114.149 196.388 116.324C196.62 116.428 196.724 116.701 196.62 116.935C196.516 117.168 196.243 117.272 196.011 117.168C193.56 116.068 190.753 115.151 187.988 114.493L187.751 114.437C185.384 113.887 183.254 113.585 182.302 113.632C181.596 113.67 181.244 114.202 181.393 115.104C181.582 116.248 182.536 117.632 184.158 118.892C184.359 119.049 184.396 119.339 184.24 119.541C184.084 119.743 183.794 119.78 183.593 119.623C181.801 118.23 180.715 116.654 180.484 115.255C180.25 113.844 180.956 112.778 182.255 112.708Z" fill="#511E84"/>
<path fill-rule="evenodd" clip-rule="evenodd" d="M184.972 117.566C186.716 117.352 191.641 118.593 196.114 120.449C196.35 120.547 196.461 120.817 196.364 121.053C196.267 121.289 195.997 121.401 195.762 121.303L195.501 121.196C191.236 119.457 186.594 118.298 185.082 118.484C184.566 118.546 184.36 118.751 184.38 119.103C184.41 119.612 184.868 120.359 185.75 121.195C188.028 123.356 192.479 125.616 198.775 127.507C199.019 127.581 199.157 127.838 199.084 128.083C199.011 128.328 198.754 128.467 198.51 128.393C192.089 126.464 187.514 124.141 185.116 121.867C184.08 120.884 183.505 119.948 183.46 119.156C183.41 118.276 184.006 117.681 184.972 117.566Z" fill="#511E84"/>
<path fill-rule="evenodd" clip-rule="evenodd" d="M200.673 108.654L200.7 108.655C206.684 109.03 211.713 110.759 215.298 113.47C218.569 115.943 220.417 119.105 220.407 122.101C220.398 125.187 218.429 127.729 214.884 129.012C210.988 130.423 205.414 130.282 198.521 128.396C198.276 128.329 198.131 128.075 198.198 127.829C198.265 127.582 198.518 127.437 198.764 127.504C205.488 129.344 210.876 129.48 214.571 128.142C217.767 126.986 219.477 124.777 219.485 122.098C219.494 119.42 217.798 116.518 214.743 114.208C211.309 111.612 206.453 109.942 200.642 109.578C200.388 109.562 200.195 109.343 200.211 109.088C200.226 108.842 200.43 108.653 200.673 108.654Z" fill="#511E84"/>
<path fill-rule="evenodd" clip-rule="evenodd" d="M260.939 129.353C261.193 129.353 261.4 129.56 261.4 129.815C261.4 130.061 261.208 130.262 260.966 130.276L260.939 130.277H1.00006C0.745456 130.277 0.539062 130.07 0.539062 129.815C0.539062 129.569 0.730977 129.367 0.972969 129.353L1.00006 129.353H260.939Z" fill="#511E84"/>
</svg>
