<svg width="14" height="18" viewBox="0 0 14 18" fill="none" xmlns="http://www.w3.org/2000/svg">
<path d="M8.90016 2.33341H5.10849C4.65016 2.33341 4.27516 1.95841 4.27516 1.50008C4.27516 1.04175 4.65016 0.666748 5.10849 0.666748H8.90016C9.35849 0.666748 9.73349 1.04175 9.73349 1.50008C9.73349 1.95841 9.35849 2.33341 8.90016 2.33341Z" fill="#00B0CA"/>
<path d="M12.8335 3.20008C13.2918 3.20008 13.6668 3.57508 13.6668 4.03342C13.6668 4.49175 13.2918 4.86675 12.8335 4.86675V14.8667C12.8335 16.2417 11.7085 17.3667 10.3335 17.3667H3.66683C2.29183 17.3667 1.16683 16.2417 1.16683 14.8667V7.33341C1.16683 6.87507 1.54183 6.50007 2.00016 6.50007C2.4585 6.50007 2.8335 6.87507 2.8335 7.33341V14.8667C2.8335 15.3251 3.2085 15.7001 3.66683 15.7001H10.3335C10.7918 15.7001 11.1668 15.3251 11.1668 14.8667V4.86675H1.16683C0.708496 4.86675 0.333496 4.49175 0.333496 4.03342C0.333496 3.57508 0.708496 3.20008 1.16683 3.20008H12.8335Z" fill="#00B0CA"/>
</svg>
