<svg width="24" height="24" viewBox="0 0 24 24" fill="none" xmlns="http://www.w3.org/2000/svg">
<path d="M11.2904 21.67C11.4726 21.88 11.7315 22 12 22C12.2685 22 12.5274 21.88 12.7096 21.66C12.7575 21.62 13.6877 20.54 14.8288 18.93C15.7589 17.63 16.5452 16.37 17.1781 15.18C17.5904 14.41 17.9356 13.67 18.2041 12.97C18.7315 11.61 19 10.38 19 9.3C19 5.27 15.8644 2 12 2C11.0315 2 10.0822 2.21 9.19041 2.61C8.71096 2.83 8.49041 3.43 8.70137 3.93C8.91233 4.43 9.47808 4.66 9.96712 4.44C10.6096 4.15 11.2904 4 12.0096 4C14.8096 4 17.0918 6.38 17.0918 9.3C17.0918 10.12 16.8712 11.1 16.4301 12.22C16.1808 12.84 15.874 13.51 15.5 14.21C14.9055 15.32 14.1575 16.51 13.2849 17.74C12.7959 18.43 12.3452 19.02 12 19.46C10.1205 17.09 6.91781 12.41 6.91781 9.3C6.91781 8.42 7.12877 7.55 7.53151 6.78C7.79041 6.29 7.61781 5.68 7.14795 5.42C6.67808 5.16 6.09315 5.33 5.84384 5.82C5.29726 6.88 5 8.09 5 9.3C5 14.35 11.0315 21.37 11.2904 21.67Z" fill="#00B0CA"/>
<path d="M14.3973 9.31C14.3973 10.6907 13.324 11.81 12 11.81C10.676 11.81 9.60274 10.6907 9.60274 9.31C9.60274 7.92929 10.676 6.81 12 6.81C13.324 6.81 14.3973 7.92929 14.3973 9.31Z" fill="#00B0CA"/>
</svg>
