<svg width="68" height="68" viewBox="0 0 68 68" fill="none" xmlns="http://www.w3.org/2000/svg">
<circle opacity="0.07" cx="34" cy="34" r="28" fill="#23212B"/>
<circle opacity="0.07" cx="34" cy="34" r="33.5" stroke="#23212B"/>
<path d="M33.2904 43.67C33.4726 43.88 33.7315 44 34 44C34.2685 44 34.5274 43.88 34.7096 43.66C34.7575 43.62 35.6877 42.54 36.8288 40.93C37.7589 39.63 38.5452 38.37 39.1781 37.18C39.5904 36.41 39.9356 35.67 40.2041 34.97C40.7315 33.61 41 32.38 41 31.3C41 27.27 37.8644 24 34 24C33.0315 24 32.0822 24.21 31.1904 24.61C30.711 24.83 30.4904 25.43 30.7014 25.93C30.9123 26.43 31.4781 26.66 31.9671 26.44C32.6096 26.15 33.2904 26 34.0096 26C36.8096 26 39.0918 28.38 39.0918 31.3C39.0918 32.12 38.8712 33.1 38.4301 34.22C38.1808 34.84 37.874 35.51 37.5 36.21C36.9055 37.32 36.1575 38.51 35.2849 39.74C34.7959 40.43 34.3452 41.02 34 41.46C32.1205 39.09 28.9178 34.41 28.9178 31.3C28.9178 30.42 29.1288 29.55 29.5315 28.78C29.7904 28.29 29.6178 27.68 29.1479 27.42C28.6781 27.16 28.0932 27.33 27.8438 27.82C27.2973 28.88 27 30.09 27 31.3C27 36.35 33.0315 43.37 33.2904 43.67Z" fill="#908BA7"/>
<path d="M36.3973 31.31C36.3973 32.6907 35.324 33.81 34 33.81C32.676 33.81 31.6027 32.6907 31.6027 31.31C31.6027 29.9293 32.676 28.81 34 28.81C35.324 28.81 36.3973 29.9293 36.3973 31.31Z" fill="#908BA7"/>
</svg>
