<svg width="18" height="14" viewBox="0 0 18 14" fill="none" xmlns="http://www.w3.org/2000/svg">
<path d="M0 1C0 0.447715 0.460507 0 1.02857 0H16.9714C17.5395 0 18 0.447715 18 1C18 1.55228 17.5395 2 16.9714 2H1.02857C0.460507 2 0 1.55228 0 1Z" fill="#9194A7"/>
<path d="M0 7C0 6.44772 0.460507 6 1.02857 6H16.9714C17.5395 6 18 6.44772 18 7C18 7.55228 17.5395 8 16.9714 8H1.02857C0.460507 8 0 7.55228 0 7Z" fill="#9194A7"/>
<path d="M1.02857 12C0.460507 12 0 12.4477 0 13C0 13.5523 0.460507 14 1.02857 14H16.9714C17.5395 14 18 13.5523 18 13C18 12.4477 17.5395 12 16.9714 12H1.02857Z" fill="#9194A7"/>
</svg>
