<svg width="20" height="20" viewBox="0 0 20 20" fill="none" xmlns="http://www.w3.org/2000/svg">
<path d="M9.24205 0.384904C10.0307 -0.153974 11.0705 -0.124625 11.8282 0.457897L19.1212 6.06418C19.6748 6.48977 20 7.15321 20 7.85719V17.7491C20 18.9922 19.0051 20 17.7778 20H2.22222C0.994924 20 0 18.9922 0 17.7491V9.87092C0 9.24935 0.497461 8.74547 1.11111 8.74547C1.72476 8.74547 2.22222 9.24935 2.22222 9.87092V17.7491H17.7778V7.85719L10.4848 2.25091L3.61485 6.94523C3.10613 7.29284 2.41553 7.15692 2.07235 6.64163C1.72917 6.12635 1.86336 5.42684 2.37208 5.07923L9.24205 0.384904Z" fill="#00B0CA"/>
</svg>
