<svg width="32" height="32" viewBox="0 0 32 32" fill="none" xmlns="http://www.w3.org/2000/svg">
<circle cx="16" cy="16" r="16" fill="#452FBA"/>
<path d="M17.232 24H11.7427C9.67897 24 8 22.3177 8 20.25V11.75C8 9.68225 9.67897 8 11.7427 8H20.2261C22.2898 8 23.9688 9.68225 23.9688 11.75V14.9062C23.9359 15.7355 22.7539 15.7349 22.7212 14.9062V11.75C22.7212 10.3715 21.6019 9.25 20.2261 9.25H11.7427C10.3669 9.25 9.24756 10.3715 9.24756 11.75V20.25C9.24756 21.6285 10.3669 22.75 11.7427 22.75H17.232C18.0596 22.783 18.059 23.9673 17.232 24ZM16.4582 13.5029L18.3904 11.5669C18.634 11.3228 18.634 10.9271 18.3904 10.6831C18.1468 10.439 17.7518 10.439 17.5082 10.6831L15.576 12.6191C15.4579 12.7374 15.3005 12.8014 15.1337 12.8021C14.9667 12.8018 14.8099 12.7362 14.6922 12.6174L12.778 10.6848C12.5354 10.4397 12.1404 10.4382 11.8959 10.6814C11.6514 10.9246 11.6498 11.3203 11.8925 11.5653L13.8067 13.4979C14.1597 13.8543 14.6301 14.0511 15.1314 14.0521H15.1351C15.6348 14.0521 16.1046 13.8571 16.4582 13.5029ZM11.5943 18.3763L12.9341 17.0149C13.651 16.2864 13.6489 15.1032 12.9295 14.3772L11.5927 13.0284C11.35 12.7835 10.955 12.7821 10.7105 13.0252C10.4661 13.2685 10.4647 13.6642 10.7074 13.9091L12.0442 15.258C12.284 15.5 12.2847 15.8944 12.0458 16.1372L10.7059 17.4986C10.464 17.7444 10.4668 18.1401 10.7121 18.3825C10.8336 18.5026 10.9919 18.5625 11.1501 18.5625C11.3112 18.5625 11.4722 18.5003 11.5943 18.3763ZM21.9656 23.3665C23.3156 21.6496 24 20.3399 24 19.4737C24 17.6272 22.5029 16.125 20.6628 16.125C18.8226 16.125 17.3255 17.6272 17.3255 19.4737C17.3255 20.3399 18.01 21.6496 19.3599 23.3666C19.6764 23.7691 20.1513 24 20.6628 24C21.1742 24 21.6491 23.7691 21.9656 23.3665ZM21.4756 22.9798H21.4759H21.4756ZM22.7524 19.4737C22.7524 19.8953 22.2883 20.9362 20.9856 22.593C20.8155 22.8039 20.5103 22.8042 20.3399 22.593C19.0373 20.9362 18.5731 19.8953 18.5731 19.4737C18.5731 18.3165 19.5105 17.375 20.6628 17.375C21.815 17.375 22.7524 18.3165 22.7524 19.4737ZM11.7739 21.5C11.2262 21.5033 10.9395 20.8247 11.3328 20.433L20.4088 11.3393C20.6524 11.0952 21.0474 11.0952 21.291 11.3393C21.5346 11.5834 21.5346 11.9791 21.291 12.2232L12.215 21.3169C12.0932 21.4389 11.9335 21.5 11.7739 21.5ZM19.883 19.4062C19.883 19.8377 20.2321 20.1875 20.6628 20.1875C21.6971 20.1463 21.6968 18.666 20.6628 18.625C20.2321 18.625 19.883 18.9748 19.883 19.4062Z" fill="white"/>
</svg>
