<svg width="40" height="40" viewBox="0 0 40 40" fill="none" xmlns="http://www.w3.org/2000/svg">
<rect width="40" height="40" rx="8" fill="#9385E0"/>
<path fill-rule="evenodd" clip-rule="evenodd" d="M10 18.6801C10 19.1133 10 19.5631 10 19.9963V21.2958C10 22.3288 10 23.3784 10 24.4113C10 25.7608 10.4162 26.9604 11.2818 27.9933C12.3971 29.3095 13.8121 29.9759 15.5433 29.9926C18.4065 30.0093 21.2698 29.9926 24.133 29.9926H24.4493C25.781 29.9926 26.9796 29.5761 27.995 28.7097C29.3101 27.5935 29.976 26.1773 29.9926 24.4446C30.0092 21.629 29.9926 18.7967 29.9926 15.9811V15.5313C29.9926 14.1984 29.5764 12.9989 28.7108 11.9826C27.5788 10.6831 26.1306 10.0167 24.3993 10C22.1853 10 19.9547 10 17.7407 10C17.0249 10 16.2924 10 15.5766 10C15.1105 10 14.6611 10.05 14.2116 10.1666C13.013 10.4665 12.0309 11.0829 11.2485 12.0326C10.3829 13.0822 10 14.2984 10 15.6479C10 16.6642 10 17.6638 10 18.6801ZM21.2365 28.2099H19.9713H18.5064C17.5409 28.2099 16.5754 28.2099 15.5933 28.2099C14.8275 28.2099 14.1284 28.0433 13.4791 27.6101C12.4471 26.9271 11.8644 25.9608 11.7645 24.7279C11.7812 24.528 11.7812 24.3114 11.7812 24.1114C11.7812 22.6953 11.7812 21.2792 11.7812 19.863C11.7812 18.4469 11.7812 17.0307 11.7812 15.6146C11.7812 14.4484 12.1807 13.4654 13.063 12.699C13.7788 12.0659 14.6278 11.766 15.5766 11.766C16.2591 11.766 16.9583 11.766 17.6408 11.766C19.9047 11.766 22.152 11.766 24.3993 11.766C25.9974 11.7827 27.1627 12.5324 27.8618 13.9652C28.1115 14.465 28.1948 15.0148 28.1948 15.5646C28.1948 16.3476 28.1948 17.114 28.1948 17.8971C28.1948 20.0463 28.1948 22.2121 28.1948 24.3613C28.1948 25.9608 27.4457 27.127 26.0307 27.8434C25.5147 28.11 24.9487 28.1933 24.366 28.1933C23.3173 28.2099 22.2852 28.2099 21.2365 28.2099ZM19.988 14.8482C22.8179 14.8482 25.1318 17.164 25.1318 19.9963C25.1318 22.8286 22.8013 25.1611 19.9713 25.1444C17.1414 25.1277 14.8275 22.8119 14.8442 19.9963C14.8442 17.164 17.1581 14.8482 19.988 14.8482ZM23.3672 19.9963C23.3672 18.147 21.869 16.6309 20.0046 16.6142C18.1568 16.6142 16.642 18.1137 16.6254 19.9796C16.6254 21.829 18.1236 23.3451 19.988 23.3617C21.8358 23.3784 23.3506 21.8623 23.3672 19.9963ZM24.0498 14.6316C24.0498 15.348 24.6324 15.9311 25.3482 15.9311C26.064 15.9311 26.6466 15.3647 26.6466 14.6483C26.6633 13.9485 26.0474 13.3488 25.3482 13.3488C24.6324 13.3488 24.0498 13.9319 24.0498 14.6316Z" fill="white"/>
</svg>
