<svg width="133" height="22" viewBox="0 0 133 22" fill="none" xmlns="http://www.w3.org/2000/svg">
<path d="M114.531 8.48668C113.443 7.47644 111.902 6.7356 110.338 6.7356C108.231 6.7356 106.395 7.76829 105.693 9.13773V7.18459H101.999C101.568 7.18459 101.229 7.63359 101.229 8.06014V20.8116C101.229 21.2382 101.568 21.5525 101.999 21.5525H106.191V14.0318C106.191 12.146 107.052 10.9337 108.729 10.9337C110.316 10.9337 111.154 12.0338 111.154 13.8971V21.5525H115.12C115.551 21.5525 116.14 21.2382 116.14 20.8116V12.8869C116.14 10.9786 115.619 9.49693 114.531 8.48668Z" fill="#00BF8E"/>
<path d="M29.7775 7.96888C29.7775 7.54233 29.4376 7.18313 29.007 7.18313L25.2905 7.16068V8.53012C24.1121 7.40763 22.6618 6.86884 20.9622 6.86884C18.9 6.86884 17.2004 7.56478 15.8633 9.00157C14.5263 10.4159 13.8691 12.2119 13.8691 14.3671C13.8691 16.5223 14.5263 18.3407 15.8633 19.7999C17.2004 21.2592 18.9 22 20.9622 22C22.6391 22 24.1121 21.4612 25.2905 20.3836C25.2905 20.7877 25.2905 21.5735 25.2905 21.5735H29.007C29.4376 21.5735 29.7775 21.2592 29.7775 20.8326C29.7775 20.8102 29.7775 7.96888 29.7775 7.96888ZM24.2481 16.7917C23.5909 17.4427 22.7978 17.7795 21.846 17.7795C20.8942 17.7795 20.101 17.4427 19.4439 16.7917C18.8093 16.1406 18.4921 15.3324 18.4921 14.3895C18.4921 13.4691 18.8093 12.7058 19.4439 12.0323C20.0784 11.3588 20.8715 11.0445 21.846 11.0445C22.7978 11.0445 23.5909 11.3813 24.2481 12.0323C24.9053 12.6833 25.2225 13.4691 25.2225 14.3895C25.2225 15.3324 24.9053 16.1406 24.2481 16.7917Z" fill="#00BF8E"/>
<path d="M83.4171 7.94836C83.4171 7.52181 83.0772 7.16261 82.6466 7.16261H78.9302V8.48715C77.7518 7.36466 76.3014 6.82587 74.6018 6.82587C72.5396 6.82587 70.84 7.52181 69.503 8.9586C68.166 10.3729 67.5088 12.1689 67.5088 14.3241C67.5088 16.4793 68.166 18.2977 69.503 19.757C70.84 21.2162 72.5396 21.9571 74.6018 21.9571C76.2788 21.9571 77.7518 21.4183 78.9302 20.3407C78.9302 20.7448 78.9302 21.553 78.9302 21.553H82.624C83.0545 21.553 83.3945 21.2162 83.3945 20.7897C83.4171 20.7897 83.4171 7.94836 83.4171 7.94836ZM77.8877 16.7711C77.2306 17.4222 76.4374 17.7589 75.4856 17.7589C74.5338 17.7589 73.7407 17.4222 73.0835 16.7711C72.449 16.1201 72.1317 15.3119 72.1317 14.369C72.1317 13.4486 72.449 12.6853 73.0835 12.0118C73.718 11.3383 74.5112 11.024 75.4856 11.024C76.4374 11.024 77.2306 11.3607 77.8877 12.0118C78.5449 12.6628 78.8622 13.4486 78.8622 14.369C78.8622 15.3119 78.5449 16.1201 77.8877 16.7711Z" fill="#00BF8E"/>
<path d="M133 7.96984C133 7.5433 132.66 7.1841 132.23 7.1841H128.513V8.50864C127.335 7.38615 125.862 6.84735 124.185 6.84735C122.123 6.84735 120.423 7.5433 119.086 8.98009C117.749 10.3944 117.092 12.1904 117.092 14.3456C117.092 16.5008 117.749 18.3192 119.086 19.7785C120.423 21.2377 122.123 21.9785 124.185 21.9785C125.862 21.9785 127.335 21.4397 128.513 20.3622V21.552H132.23C132.66 21.552 133 21.2152 133 20.7887C133 20.8111 133 7.96984 133 7.96984ZM127.471 16.7702C126.814 17.4212 126.02 17.758 125.069 17.758C124.117 17.758 123.324 17.4212 122.667 16.7702C122.032 16.1191 121.715 15.3109 121.715 14.368C121.715 13.4476 122.032 12.6843 122.667 12.0108C123.301 11.3373 124.094 11.023 125.069 11.023C126.02 11.023 126.814 11.3598 127.471 12.0108C128.128 12.6619 128.445 13.4476 128.445 14.368C128.445 15.3109 128.128 16.1191 127.471 16.7702Z" fill="#00BF8E"/>
<path d="M64.7213 8.32895C63.5656 7.29626 61.5487 6.75746 59.8718 6.75746C57.7869 6.75746 55.838 7.58811 54.7729 9.1596C54.0251 7.58811 52.6881 6.77991 50.7392 6.75746C48.8809 6.73501 46.9774 7.70036 46.1616 9.18205V7.18401C46.1616 7.18401 42.4678 7.16156 42.4678 7.18401C42.0372 7.18401 41.6973 7.52076 41.6973 7.9473V20.8111C41.6973 21.2376 42.0372 21.5519 42.4678 21.5519H46.6601V13.6945C46.6601 11.8985 47.6346 10.8658 49.1302 10.8658C50.6032 10.8658 51.623 11.9883 51.623 13.6945V21.5519H56.5858V13.6945C56.5858 11.8985 57.4923 10.9107 59.0786 10.9107C60.4836 10.9107 61.5487 11.8985 61.5487 13.6945V21.5519H65.7411C66.1716 21.5519 66.5116 21.2152 66.5116 20.7886V12.8414C66.5116 10.8658 65.8997 9.33919 64.7213 8.32895Z" fill="#00BF8E"/>
<path d="M39.0912 6.7807C37.4369 6.7807 36.4171 7.52154 35.5107 8.93588V7.16235H31.5449C31.1143 7.16235 30.7744 7.52154 30.7744 7.92564V20.7894C30.7744 21.2159 31.1143 21.5527 31.5449 21.5527H35.7373V15.3565C35.7373 12.5952 36.7117 11.2033 38.8419 11.2033C39.4537 11.2033 40.0883 11.3156 40.7681 11.5401L41.1307 7.16235C40.5868 6.9154 39.7257 6.7807 39.0912 6.7807Z" fill="#00BF8E"/>
<path d="M13.9141 3.47899C13.9141 3.05245 13.5742 2.7157 13.1436 2.7157H0.770489C0.339922 2.7157 0 3.05245 0 3.47899V20.8103C0 21.2368 0.339922 21.5511 0.770489 21.5511H4.96286V14.3672H12.917V10.6405C12.917 10.2139 12.5771 9.8772 12.1465 9.8772H4.96286V7.20567H13.8915V3.47899H13.9141Z" fill="#00BF8E"/>
<path d="M100.254 8.05804C100.254 7.63149 99.9366 7.1825 99.506 7.1825H95.7895V13.8725C95.7895 14.8603 95.5856 15.7808 94.9511 16.4543C94.3165 17.1502 93.3421 17.487 92.3223 17.487C91.3252 17.487 90.4868 17.1278 89.8522 16.4543C89.2177 15.7808 88.8325 14.8379 88.8325 13.8501V7.1825H85.252C84.7534 7.1825 84.3682 7.58659 84.3682 8.05804V13.9174C84.3682 18.834 87.3142 21.9096 92.345 21.9096C97.3758 21.9096 100.254 18.8115 100.254 13.8725C100.254 13.895 100.254 8.05804 100.254 8.05804Z" fill="#A8DE3B"/>
<path fill-rule="evenodd" clip-rule="evenodd" d="M95.7901 7.18395H88.833V3.61442C88.8557 2.62663 89.1729 1.70619 89.8074 1.03269C90.442 0.359197 91.3258 0 92.3229 0C93.3426 0 94.2491 0.359197 94.8836 1.03269C95.5181 1.70619 95.7901 2.62663 95.7901 3.61442V7.18395Z" fill="#00BF8E"/>
</svg>
