<svg width="85" height="18" viewBox="0 0 85 18" fill="none" xmlns="http://www.w3.org/2000/svg">
<path fill-rule="evenodd" clip-rule="evenodd" d="M48.3029 10.7533C46.3376 10.7533 44.746 12.2691 44.746 14.1401V17.5133H51.8445V10.7533H48.3029ZM34.0508 7.3673V0.60791H41.1487V3.98371C41.1487 5.85265 39.5583 7.3673 37.5962 7.3673H34.0508Z" fill="#C2DF0A"/>
<path fill-rule="evenodd" clip-rule="evenodd" d="M9.71139 13.2954C13.0393 13.2954 14.1563 10.6233 14.1563 8.98612C14.1563 6.95183 12.683 4.70621 9.68298 4.70621C6.64465 4.70621 5.30495 7.13261 5.30495 9.04929C5.30495 10.6233 6.51746 13.2954 9.71139 13.2954ZM19.4578 17.4246H14.1563V15.5989H14.0921C13.1976 17.2399 10.9942 18 8.91473 18C3.29168 18 0 13.8102 0 8.98612C0 3.45967 4.18776 0 8.91473 0C11.822 0 13.4537 1.3376 14.0921 2.37063H14.1563V0.577501H19.4578V17.4246Z" fill="#00B0CA"/>
<path fill-rule="evenodd" clip-rule="evenodd" d="M75.2545 13.2954C78.5752 13.2954 79.6945 10.6233 79.6945 8.98612C79.6945 6.95183 78.2239 4.70621 75.2239 4.70621C72.1865 4.70621 70.8422 7.13261 70.8422 9.04929C70.8422 10.6233 72.0566 13.2954 75.2545 13.2954ZM84.9998 17.4246H79.6945V15.5989H79.628C78.7372 17.2399 76.5301 18 74.455 18C68.8326 18 65.542 13.8102 65.542 8.98612C65.542 3.45967 69.7238 0 74.455 0C77.3638 0 78.9906 1.3376 79.628 2.37063H79.6945V0.577501H84.9998V17.4246Z" fill="#00B0CA"/>
<path fill-rule="evenodd" clip-rule="evenodd" d="M37.6802 10.7313H34.0538C33.7597 12.7011 32.4283 13.2995 31.0762 13.2995C28.2245 13.2995 28.2245 11.0816 28.2245 9.92674V0.60791H22.9141V10.6874C22.9141 12.9923 23.099 14.2076 24.5109 15.877C26.0795 17.7566 28.6393 17.9998 29.7262 17.9998C30.9892 17.9998 32.9701 17.8397 34.1156 16.0591V17.4731H41.2198V13.9929C41.2198 12.1844 39.6017 10.7313 37.6802 10.7313Z" fill="#00B0CA"/>
<path fill-rule="evenodd" clip-rule="evenodd" d="M48.3468 7.39122H51.9698C52.2625 5.42154 53.5953 4.82637 54.9495 4.82637C57.8005 4.82637 57.8005 7.04453 57.8005 8.19496V17.5135H63.1104V7.4373C63.1104 5.13135 62.9244 3.91399 61.5139 2.24455C59.9427 0.364352 57.3831 0.121582 56.2943 0.121582C55.0365 0.121582 53.0531 0.282135 51.9068 2.06544V0.647867H44.8047V4.13044C44.8047 5.93861 46.4236 7.39389 48.3468 7.39122Z" fill="#00B0CA"/>
</svg>
