<svg width="20" height="16" viewBox="0 0 20 16" fill="none" xmlns="http://www.w3.org/2000/svg">
    <path fill="currentColor" d="M2.79091 16H17.2364C18.7636 16 20 14.7911 20 13.2978V2.70222C20 1.20889 18.7636 0 17.2364 0H2.79091C1.25455 0 0 1.20889 0 2.70222V8.37333C0 8.86222 0.409091 9.26222 0.909091 9.26222C1.40909 9.26222 1.81818 8.86222 1.81818 8.37333V2.70222C1.81818 2.20444 2.26364 1.77778 2.79091 1.77778H17.2364C17.7545 1.77778 18.1818 2.19556 18.1818 2.70222V13.2978C18.1818 13.8044 17.7545 14.2222 17.2364 14.2222H2.79091C2.26364 14.2222 1.81818 13.7956 1.81818 13.2978V12.4267C1.81818 11.9378 1.40909 11.5378 0.909091 11.5378C0.409091 11.5378 0 11.9378 0 12.4267V13.2978C0 14.7911 1.25455 16 2.79091 16Z"/>
    <path fill="currentColor" d="M9.47271 8.71112C9.62726 8.82667 9.80908 8.88 9.99999 8.88C10.1909 8.88 10.3727 8.82667 10.5363 8.72001L16.4818 4.53334C16.8909 4.24001 16.9818 3.68889 16.6909 3.28889C16.4 2.88889 15.8273 2.8 15.4182 3.08445L9.99999 6.89778L4.59089 3.08445C4.1818 2.8 3.60908 2.88889 3.31817 3.28889C3.01817 3.68 3.10908 4.24001 3.51817 4.52445L9.47271 8.71112Z"/>
</svg>
