<svg width="99" height="99" viewBox="0 0 99 99" fill="none" xmlns="http://www.w3.org/2000/svg">
<path d="M20.6125 20.206H47.6055C48.1275 20.206 48.5529 19.6646 48.5529 19.0072V13.3998C48.5529 12.7423 48.1275 12.2009 47.6055 12.2009H20.6125C20.0904 12.2009 19.665 12.7423 19.665 13.3998V19.0072C19.665 19.6646 20.0904 20.206 20.6125 20.206Z" fill="#00BF8E"/>
<path d="M55.6486 42.249C55.6486 41.4755 55.552 40.7021 55.3973 39.9673C55.2812 40.006 55.1459 40.0253 55.0105 40.0253H42.3842C41.6301 40.0253 41.0307 39.4259 41.0307 38.6718C41.0307 37.9177 41.6301 37.3183 42.3842 37.3183H54.4111C53.4637 35.5781 52.0135 34.1085 50.1959 33.1611C46.8314 31.3822 44.7238 27.8824 44.7238 24.0732V22.9324H23.493V24.0732C23.493 27.8824 21.3854 31.3822 18.0209 33.1611C14.6564 34.94 12.5488 38.4398 12.5488 42.2683V43.6412H55.668V42.249H55.6486ZM38.1883 38.9425C38.1689 39.0392 38.1496 39.1166 38.1109 39.1939C38.0723 39.2712 38.0336 39.3486 37.9756 39.4259C37.9176 39.5033 37.8789 39.5613 37.8016 39.6386C37.5502 39.89 37.2021 40.0253 36.8541 40.0253C36.5061 40.0253 36.158 39.89 35.9066 39.6386C35.8486 39.5806 35.7906 39.5033 35.7326 39.4259C35.6746 39.3486 35.6359 39.2712 35.5973 39.1939C35.5586 39.1166 35.5393 39.0199 35.5199 38.9425C35.5006 38.8652 35.5006 38.7685 35.5006 38.6718C35.5006 38.5751 35.5199 38.4978 35.5199 38.4011C35.5393 38.3044 35.5586 38.2271 35.5973 38.1498C35.6359 38.0724 35.6746 37.9951 35.7326 37.9177C35.7906 37.8404 35.8293 37.7824 35.9066 37.705C35.9646 37.647 36.042 37.589 36.1193 37.531C36.1967 37.473 36.274 37.4343 36.3514 37.415C36.4287 37.3763 36.5254 37.357 36.6027 37.3376C36.7768 37.299 36.9508 37.299 37.1248 37.3376C37.2021 37.357 37.2988 37.3763 37.3762 37.415C37.4535 37.4537 37.5309 37.4923 37.6082 37.531C37.6855 37.589 37.7436 37.647 37.8209 37.705C37.8789 37.763 37.9369 37.8404 37.9949 37.9177C38.0529 37.9951 38.0916 38.0724 38.1303 38.1498C38.1689 38.2271 38.1883 38.3238 38.2076 38.4011C38.227 38.4978 38.227 38.5751 38.227 38.6718C38.227 38.7685 38.2076 38.8652 38.1883 38.9425Z" fill="#452FBA"/>
<path d="M12.5298 78.8133C12.5298 79.8768 12.7425 80.9016 13.1292 81.8684C13.5159 82.8352 14.1153 83.7053 14.8501 84.4594C16.339 85.9482 18.3692 86.799 20.4769 86.799H47.6632C48.7267 86.799 49.7514 86.5863 50.7182 86.1996C51.6657 85.8129 52.5552 85.2135 53.3093 84.4787C54.7981 82.9898 55.6489 80.9596 55.6489 78.8519V76.0869H12.5298V78.8133Z" fill="#452FBA"/>
<path d="M12.5298 73.3411H55.6489V46.3481H12.5298V73.3411ZM24.8854 55.7841H30.0288V50.6407H38.1499V55.7841H43.3126V63.9052H38.1692V69.0486H30.0481V63.9052H24.9048V55.7841H24.8854Z" fill="#00BF8E"/>
<path d="M74.9076 61.1982C68.5268 61.1982 63.3447 66.3803 63.3447 72.7611C63.3447 79.142 68.5268 84.324 74.9076 84.324C77.6146 84.324 80.0896 83.3959 82.0619 81.8297C82.0619 81.8297 82.0426 81.8297 82.0426 81.8104L72.3166 72.0844C71.7945 71.5623 71.7945 70.6922 72.3166 70.1701C72.8387 69.648 73.7088 69.648 74.2309 70.1701L83.9568 79.8961C83.9568 79.8961 83.9568 79.9154 83.9762 79.9154C85.523 77.9432 86.4705 75.4682 86.4705 72.7611C86.4705 66.3609 81.2885 61.1982 74.9076 61.1982ZM71.6205 69.4547C71.3691 69.7061 71.0211 69.8414 70.673 69.8414C70.5764 69.8414 70.499 69.8414 70.4023 69.8221C70.3057 69.8027 70.2283 69.7834 70.151 69.7447C70.0736 69.7061 69.9963 69.6674 69.9189 69.6287C69.8416 69.5707 69.7836 69.532 69.7062 69.4547C69.4549 69.2033 69.3195 68.8553 69.3195 68.5072C69.3195 68.4105 69.3195 68.3332 69.3389 68.2365C69.3582 68.1398 69.3775 68.0625 69.4162 67.9852C69.4549 67.9078 69.4936 67.8305 69.5322 67.7531C69.5902 67.6758 69.6289 67.6178 69.7062 67.5404C69.7643 67.4824 69.8416 67.4244 69.9189 67.3664C69.9963 67.3084 70.0736 67.2697 70.151 67.2504C70.2283 67.2117 70.325 67.1924 70.4023 67.173C70.5764 67.1344 70.7504 67.1344 70.9244 67.173C71.0211 67.1924 71.0984 67.2117 71.1758 67.2504C71.2531 67.2891 71.3305 67.3277 71.4078 67.3664C71.4852 67.4244 71.5432 67.4631 71.6205 67.5404C71.6785 67.5984 71.7365 67.6758 71.7945 67.7531C71.8525 67.8305 71.8912 67.9078 71.9105 67.9852C71.9492 68.0625 71.9686 68.1592 71.9879 68.2365C72.0072 68.3139 72.0072 68.4105 72.0072 68.5072C72.0072 68.8553 71.8719 69.2033 71.6205 69.4547Z" fill="#452FBA"/>
</svg>
