<svg width="250" height="250" viewBox="0 0 250 250" fill="none" xmlns="http://www.w3.org/2000/svg">
<rect width="250" height="250" fill="white"/>
<path opacity="0.1" d="M219.768 162.056C219.57 162.207 219.391 162.358 219.193 162.509C218.479 163.069 217.725 163.565 216.951 163.996C212.865 166.324 207.846 167.487 202.927 168.263C191.937 170.009 180.709 170.354 169.541 170.677C139.349 171.582 109.078 172.488 78.9461 170.397C67.044 169.578 54.884 168.199 44.0927 163.996C42.5455 163.393 41.0379 162.724 39.5501 162.013C36.5547 160.548 33.6585 158.759 31.2583 156.625C28.9969 154.621 27.1719 152.336 26.0808 149.707C23.7996 144.276 25.0097 138.155 27.6083 132.831C28.6795 130.676 29.9094 128.607 31.2583 126.624C33.2618 123.629 35.4835 120.698 37.5069 117.702C44.7077 107.033 49.3892 93.5418 42.7438 82.6148C40.8395 79.4681 38.0822 76.7095 36.515 73.4335C34.5314 69.2308 34.6901 64.5755 35.305 60.0496C35.3843 59.4677 35.4637 58.9073 35.5629 58.347C36.6341 51.6442 38.6773 44.4027 44.9259 40.2215C51.4324 35.868 60.6565 36.0835 68.7103 37.6353C81.2472 40.0707 92.7923 45.1354 104.476 49.7045C116.16 54.2736 128.38 58.4547 141.214 58.9073C152.561 59.2953 165.772 56.3426 173.29 48.6269C180.59 41.1267 194.337 40.5664 204.236 45.0923C211.04 48.1958 216.098 53.7994 218.241 60.0927C218.677 61.3643 218.995 62.6574 219.173 63.9936C219.352 65.2221 219.391 66.4506 219.332 67.6791C219.292 68.2825 219.252 68.886 219.173 69.4895C217.527 81.9036 205.605 91.7098 198.364 102.788C194.833 108.197 192.334 114.706 194.754 120.547C198.463 129.448 211.357 132.616 219.153 139.233C220.621 140.439 221.911 141.883 222.982 143.5C226.79 149.384 225.402 157.358 219.768 162.056Z" fill="#B8BCD5"/>
<path d="M145.067 95.6016H73.7739V143.623H145.067V95.6016Z" fill="#D4E1F2" stroke="#9194A7" stroke-width="4" stroke-miterlimit="10"/>
<path d="M137.736 157.02H81.1055C77.0605 157.02 73.7739 153.735 73.7739 149.691V88.7789C73.7739 84.7349 77.0605 81.4492 81.1055 81.4492H137.609C141.654 81.4492 144.941 84.7349 144.941 88.7789V149.691C145.067 153.735 141.781 157.02 137.736 157.02Z" stroke="#9194A7" stroke-width="4" stroke-miterlimit="10"/>
<path d="M134.955 72.3527H83.7603C79.7153 72.3527 76.4287 69.067 76.4287 65.0231V59.0835C76.4287 55.0396 79.7153 51.7539 83.7603 51.7539H134.955C139 51.7539 142.287 55.0396 142.287 59.0835V65.0231C142.413 69.067 139.126 72.3527 134.955 72.3527Z" fill="#D4E1F2" stroke="#9194A7" stroke-width="4" stroke-miterlimit="10"/>
<path d="M134.196 72.3555H84.645V81.328H134.196V72.3555Z" stroke="#9194A7" stroke-width="4" stroke-miterlimit="10"/>
<path d="M111.823 112.793H104.87V105.843C104.87 104.074 103.48 102.684 101.71 102.684H96.4011C94.6314 102.684 93.241 104.074 93.241 105.843V112.793H86.2886C84.5189 112.793 83.1284 114.184 83.1284 115.953V121.26C83.1284 123.03 84.5189 124.42 86.2886 124.42H93.241V131.37C93.241 133.14 94.6314 134.53 96.4011 134.53H101.71C103.48 134.53 104.87 133.14 104.87 131.37V124.42H111.823C113.592 124.42 114.983 123.03 114.983 121.26V115.953C115.109 114.31 113.592 112.793 111.823 112.793Z" fill="white" stroke="#9194A7" stroke-width="4" stroke-miterlimit="10"/>
<path d="M168.077 134.882V120.445" stroke="#D62121" stroke-width="4" stroke-miterlimit="10"/>
<path d="M168.077 120.445H162.489C158.53 120.445 155.271 123.705 155.271 127.664C155.271 131.622 158.53 134.882 162.489 134.882H168.077V120.445Z" fill="#D4E1F2" stroke="#9194A7" stroke-width="4" stroke-miterlimit="10"/>
<path d="M168.077 134.882H173.665C177.624 134.882 180.884 131.622 180.884 127.664C180.884 123.705 177.624 120.445 173.665 120.445H168.077V134.882Z" stroke="#9194A7" stroke-width="4" stroke-miterlimit="10"/>
<path d="M161.378 94.4451L167.791 107.379" stroke="#D62121" stroke-width="4" stroke-miterlimit="10"/>
<path d="M167.791 107.381L172.798 104.898C176.344 103.14 177.816 98.7709 176.058 95.2245C174.299 91.6782 169.931 90.2058 166.384 91.9643L161.378 94.4469L167.791 107.381Z" fill="#D4E1F2" stroke="#9194A7" stroke-width="4" stroke-miterlimit="10"/>
<path d="M161.378 94.4451L156.371 96.9277C152.825 98.6862 151.352 103.055 153.111 106.601C154.869 110.148 159.238 111.62 162.784 109.861L167.791 107.379L161.378 94.4451Z" stroke="#9194A7" stroke-width="4" stroke-miterlimit="10"/>
<path d="M34.9142 199.315V211.069H32.9863V199.315H34.9142Z" fill="#9194A7"/>
<path d="M48.7252 201.598C49.458 201.598 50.1119 201.75 50.6869 202.055C51.2731 202.359 51.7297 202.81 52.0567 203.408C52.3949 204.005 52.564 204.727 52.564 205.572V211.069H50.653V205.86C50.653 205.026 50.4445 204.389 50.0273 203.949C49.6102 203.498 49.0408 203.272 48.3193 203.272C47.5977 203.272 47.0228 203.498 46.5943 203.949C46.1772 204.389 45.9686 205.026 45.9686 205.86V211.069H44.0577V205.86C44.0577 205.026 43.8491 204.389 43.4319 203.949C43.0148 203.498 42.4454 203.272 41.7239 203.272C41.0024 203.272 40.4274 203.498 39.999 203.949C39.5818 204.389 39.3732 205.026 39.3732 205.86V211.069H37.4454V201.75H39.3732V202.816C39.6889 202.433 40.0891 202.134 40.5739 201.92C41.0587 201.705 41.5773 201.598 42.1298 201.598C42.8739 201.598 43.539 201.756 44.1253 202.072C44.7116 202.387 45.1625 202.844 45.4782 203.442C45.7601 202.878 46.1997 202.433 46.7973 202.106C47.3948 201.767 48.0374 201.598 48.7252 201.598Z" fill="#9194A7"/>
<path d="M54.3746 206.367C54.3746 205.431 54.5662 204.603 54.9496 203.881C55.3442 203.16 55.874 202.602 56.5392 202.207C57.2157 201.801 57.9598 201.598 58.7715 201.598C59.5043 201.598 60.1413 201.745 60.6825 202.038C61.2349 202.32 61.6746 202.675 62.0016 203.103V201.75H63.9464V211.069H62.0016V209.682C61.6746 210.122 61.2293 210.488 60.6656 210.781C60.1019 211.074 59.4592 211.221 58.7377 211.221C57.9372 211.221 57.2044 211.018 56.5392 210.612C55.874 210.195 55.3442 209.62 54.9496 208.887C54.5662 208.143 54.3746 207.303 54.3746 206.367ZM62.0016 206.401C62.0016 205.758 61.8663 205.2 61.5957 204.727C61.3364 204.253 60.9925 203.893 60.5641 203.645C60.1357 203.396 59.6734 203.272 59.1774 203.272C58.6813 203.272 58.2191 203.396 57.7907 203.645C57.3622 203.881 57.0127 204.236 56.7422 204.71C56.4829 205.172 56.3532 205.725 56.3532 206.367C56.3532 207.01 56.4829 207.574 56.7422 208.058C57.0127 208.543 57.3622 208.915 57.7907 209.174C58.2303 209.423 58.6926 209.547 59.1774 209.547C59.6734 209.547 60.1357 209.423 60.5641 209.174C60.9925 208.926 61.3364 208.566 61.5957 208.092C61.8663 207.607 62.0016 207.044 62.0016 206.401Z" fill="#9194A7"/>
<path d="M70.2329 201.598C70.9544 201.598 71.5914 201.745 72.1438 202.038C72.7075 202.32 73.1472 202.675 73.4629 203.103V201.75H75.4077V211.221C75.4077 212.078 75.2273 212.839 74.8665 213.504C74.5058 214.18 73.9815 214.71 73.2938 215.093C72.6173 215.477 71.8056 215.668 70.8586 215.668C69.5959 215.668 68.5474 215.37 67.7131 214.772C66.8788 214.186 66.4053 213.385 66.2925 212.371H68.2035C68.3501 212.856 68.6601 213.244 69.1336 213.538C69.6184 213.842 70.1934 213.994 70.8586 213.994C71.6365 213.994 72.2622 213.757 72.7357 213.284C73.2205 212.81 73.4629 212.123 73.4629 211.221V209.665C73.136 210.105 72.6906 210.477 72.1269 210.781C71.5745 211.074 70.9431 211.221 70.2329 211.221C69.4211 211.221 68.677 211.018 68.0006 210.612C67.3354 210.195 66.8055 209.62 66.4109 208.887C66.0276 208.143 65.8359 207.303 65.8359 206.367C65.8359 205.431 66.0276 204.603 66.4109 203.881C66.8055 203.16 67.3354 202.602 68.0006 202.207C68.677 201.801 69.4211 201.598 70.2329 201.598ZM73.4629 206.401C73.4629 205.758 73.3276 205.2 73.057 204.727C72.7977 204.253 72.4539 203.893 72.0254 203.645C71.597 203.396 71.1348 203.272 70.6387 203.272C70.1427 203.272 69.6804 203.396 69.252 203.645C68.8236 203.881 68.4741 204.236 68.2035 204.71C67.9442 205.172 67.8145 205.725 67.8145 206.367C67.8145 207.01 67.9442 207.574 68.2035 208.058C68.4741 208.543 68.8236 208.915 69.252 209.174C69.6917 209.423 70.1539 209.547 70.6387 209.547C71.1348 209.547 71.597 209.423 72.0254 209.174C72.4539 208.926 72.7977 208.566 73.057 208.092C73.3276 207.607 73.4629 207.044 73.4629 206.401Z" fill="#9194A7"/>
<path d="M86.4801 206.181C86.4801 206.531 86.4575 206.846 86.4124 207.128H79.2928C79.3492 207.872 79.6254 208.47 80.1214 208.921C80.6175 209.372 81.2263 209.597 81.9479 209.597C82.9851 209.597 83.7179 209.163 84.1463 208.295H86.2264C85.9446 209.152 85.4316 209.857 84.6875 210.409C83.9547 210.95 83.0415 211.221 81.9479 211.221C81.0572 211.221 80.2567 211.023 79.5465 210.629C78.8475 210.223 78.295 209.659 77.8892 208.938C77.4946 208.205 77.2973 207.359 77.2973 206.401C77.2973 205.443 77.4889 204.603 77.8722 203.881C78.2668 203.148 78.8136 202.585 79.5126 202.19C80.2229 201.796 81.0347 201.598 81.9479 201.598C82.8272 201.598 83.6108 201.79 84.2985 202.173C84.9863 202.557 85.5218 203.098 85.9051 203.797C86.2884 204.484 86.4801 205.279 86.4801 206.181ZM84.4676 205.572C84.4564 204.862 84.2027 204.293 83.7066 203.864C83.2106 203.436 82.5961 203.222 81.8633 203.222C81.1981 203.222 80.6288 203.436 80.1553 203.864C79.6818 204.281 79.3999 204.851 79.3097 205.572H84.4676Z" fill="#9194A7"/>
<path d="M93.0786 201.598C93.8115 201.598 94.4654 201.75 95.0403 202.055C95.6266 202.359 96.0832 202.81 96.4102 203.408C96.7371 204.005 96.9006 204.727 96.9006 205.572V211.069H94.9896V205.86C94.9896 205.026 94.781 204.389 94.3639 203.949C93.9468 203.498 93.3774 203.272 92.6559 203.272C91.9343 203.272 91.3593 203.498 90.9309 203.949C90.5138 204.389 90.3052 205.026 90.3052 205.86V211.069H88.3773V201.75H90.3052V202.816C90.6209 202.433 91.0211 202.134 91.5059 201.92C92.002 201.705 92.5262 201.598 93.0786 201.598Z" fill="#9194A7"/>
<path d="M108.454 201.598C109.187 201.598 109.841 201.75 110.416 202.055C111.002 202.359 111.459 202.81 111.786 203.408C112.112 204.005 112.276 204.727 112.276 205.572V211.069H110.365V205.86C110.365 205.026 110.156 204.389 109.739 203.949C109.322 203.498 108.753 203.272 108.031 203.272C107.31 203.272 106.735 203.498 106.306 203.949C105.889 204.389 105.681 205.026 105.681 205.86V211.069H103.753V201.75H105.681V202.816C105.996 202.433 106.396 202.134 106.881 201.92C107.377 201.705 107.902 201.598 108.454 201.598Z" fill="#9194A7"/>
<path d="M118.777 211.221C117.898 211.221 117.103 211.023 116.392 210.629C115.682 210.223 115.124 209.659 114.718 208.938C114.312 208.205 114.109 207.359 114.109 206.401C114.109 205.454 114.318 204.614 114.735 203.881C115.152 203.148 115.722 202.585 116.443 202.19C117.165 201.796 117.971 201.598 118.861 201.598C119.752 201.598 120.558 201.796 121.28 202.19C122.001 202.585 122.571 203.148 122.988 203.881C123.405 204.614 123.614 205.454 123.614 206.401C123.614 207.348 123.399 208.188 122.971 208.921C122.542 209.654 121.956 210.223 121.212 210.629C120.479 211.023 119.668 211.221 118.777 211.221ZM118.777 209.547C119.273 209.547 119.735 209.428 120.164 209.191C120.603 208.955 120.958 208.6 121.229 208.126C121.5 207.652 121.635 207.077 121.635 206.401C121.635 205.725 121.505 205.155 121.246 204.693C120.987 204.219 120.643 203.864 120.214 203.628C119.786 203.391 119.324 203.272 118.828 203.272C118.332 203.272 117.869 203.391 117.441 203.628C117.024 203.864 116.691 204.219 116.443 204.693C116.195 205.155 116.071 205.725 116.071 206.401C116.071 207.404 116.325 208.182 116.832 208.735C117.351 209.276 117.999 209.547 118.777 209.547Z" fill="#9194A7"/>
<path d="M129.27 206.367C129.27 205.431 129.461 204.603 129.845 203.881C130.239 203.16 130.769 202.602 131.434 202.207C132.111 201.801 132.86 201.598 133.684 201.598C134.292 201.598 134.89 201.734 135.476 202.004C136.074 202.263 136.547 202.613 136.897 203.053V198.554H138.841V211.069H136.897V209.665C136.581 210.116 136.141 210.488 135.578 210.781C135.025 211.074 134.388 211.221 133.667 211.221C132.855 211.221 132.111 211.018 131.434 210.612C130.769 210.195 130.239 209.62 129.845 208.887C129.461 208.143 129.27 207.303 129.27 206.367ZM136.897 206.401C136.897 205.758 136.761 205.2 136.491 204.727C136.231 204.253 135.888 203.893 135.459 203.645C135.031 203.396 134.569 203.272 134.072 203.272C133.576 203.272 133.114 203.396 132.686 203.645C132.257 203.881 131.908 204.236 131.637 204.71C131.378 205.172 131.248 205.725 131.248 206.367C131.248 207.01 131.378 207.574 131.637 208.058C131.908 208.543 132.257 208.915 132.686 209.174C133.125 209.423 133.588 209.547 134.072 209.547C134.569 209.547 135.031 209.423 135.459 209.174C135.888 208.926 136.231 208.566 136.491 208.092C136.761 207.607 136.897 207.044 136.897 206.401Z" fill="#9194A7"/>
<path d="M142.354 200.516C142.005 200.516 141.712 200.398 141.475 200.161C141.238 199.924 141.12 199.631 141.12 199.281C141.12 198.932 141.238 198.639 141.475 198.402C141.712 198.165 142.005 198.047 142.354 198.047C142.693 198.047 142.98 198.165 143.217 198.402C143.454 198.639 143.572 198.932 143.572 199.281C143.572 199.631 143.454 199.924 143.217 200.161C142.98 200.398 142.693 200.516 142.354 200.516ZM143.302 201.75V211.069H141.374V201.75H143.302Z" fill="#9194A7"/>
<path d="M149.215 211.221C148.482 211.221 147.823 211.091 147.236 210.832C146.661 210.561 146.205 210.2 145.866 209.749C145.528 209.287 145.348 208.774 145.325 208.211H147.321C147.355 208.605 147.541 208.938 147.879 209.208C148.228 209.468 148.662 209.597 149.181 209.597C149.722 209.597 150.139 209.496 150.433 209.293C150.737 209.079 150.889 208.808 150.889 208.481C150.889 208.132 150.72 207.872 150.382 207.703C150.055 207.534 149.531 207.348 148.809 207.145C148.11 206.953 147.541 206.767 147.101 206.587C146.661 206.407 146.278 206.13 145.951 205.758C145.635 205.386 145.478 204.896 145.478 204.287C145.478 203.791 145.624 203.34 145.917 202.934C146.21 202.517 146.627 202.19 147.169 201.953C147.721 201.717 148.352 201.598 149.063 201.598C150.122 201.598 150.974 201.869 151.616 202.41C152.27 202.94 152.62 203.667 152.665 204.592H150.737C150.703 204.174 150.534 203.842 150.23 203.594C149.925 203.346 149.514 203.222 148.995 203.222C148.488 203.222 148.099 203.318 147.828 203.509C147.558 203.701 147.422 203.955 147.422 204.27C147.422 204.518 147.513 204.727 147.693 204.896C147.873 205.065 148.093 205.2 148.352 205.302C148.612 205.392 148.995 205.51 149.502 205.657C150.179 205.837 150.731 206.023 151.16 206.215C151.599 206.395 151.977 206.666 152.293 207.027C152.608 207.388 152.772 207.867 152.783 208.464C152.783 208.994 152.637 209.468 152.343 209.885C152.05 210.302 151.633 210.629 151.092 210.866C150.562 211.102 149.936 211.221 149.215 211.221Z" fill="#9194A7"/>
<path d="M156.794 203.12C157.121 202.692 157.566 202.331 158.13 202.038C158.694 201.745 159.331 201.598 160.041 201.598C160.853 201.598 161.591 201.801 162.257 202.207C162.933 202.602 163.463 203.16 163.846 203.881C164.23 204.603 164.421 205.431 164.421 206.367C164.421 207.303 164.23 208.143 163.846 208.887C163.463 209.62 162.933 210.195 162.257 210.612C161.591 211.018 160.853 211.221 160.041 211.221C159.331 211.221 158.7 211.08 158.147 210.798C157.595 210.505 157.144 210.144 156.794 209.716V215.499H154.866V201.75H156.794V203.12ZM162.459 206.367C162.459 205.725 162.324 205.172 162.054 204.71C161.794 204.236 161.445 203.881 161.005 203.645C160.577 203.396 160.114 203.272 159.618 203.272C159.134 203.272 158.671 203.396 158.232 203.645C157.803 203.893 157.454 204.253 157.183 204.727C156.924 205.2 156.794 205.758 156.794 206.401C156.794 207.044 156.924 207.607 157.183 208.092C157.454 208.566 157.803 208.926 158.232 209.174C158.671 209.423 159.134 209.547 159.618 209.547C160.114 209.547 160.577 209.423 161.005 209.174C161.445 208.915 161.794 208.543 162.054 208.058C162.324 207.574 162.459 207.01 162.459 206.367Z" fill="#9194A7"/>
<path d="M170.369 211.221C169.49 211.221 168.695 211.023 167.985 210.629C167.275 210.223 166.717 209.659 166.311 208.938C165.905 208.205 165.702 207.359 165.702 206.401C165.702 205.454 165.911 204.614 166.328 203.881C166.745 203.148 167.314 202.585 168.036 202.19C168.757 201.796 169.563 201.598 170.454 201.598C171.345 201.598 172.151 201.796 172.872 202.19C173.594 202.585 174.163 203.148 174.58 203.881C174.997 204.614 175.206 205.454 175.206 206.401C175.206 207.348 174.992 208.188 174.563 208.921C174.135 209.654 173.549 210.223 172.805 210.629C172.072 211.023 171.26 211.221 170.369 211.221ZM170.369 209.547C170.866 209.547 171.328 209.428 171.756 209.191C172.196 208.955 172.551 208.6 172.822 208.126C173.092 207.652 173.227 207.077 173.227 206.401C173.227 205.725 173.098 205.155 172.838 204.693C172.579 204.219 172.235 203.864 171.807 203.628C171.378 203.391 170.916 203.272 170.42 203.272C169.924 203.272 169.462 203.391 169.033 203.628C168.616 203.864 168.284 204.219 168.036 204.693C167.788 205.155 167.664 205.725 167.664 206.401C167.664 207.404 167.917 208.182 168.425 208.735C168.943 209.276 169.592 209.547 170.369 209.547Z" fill="#9194A7"/>
<path d="M181.813 201.598C182.546 201.598 183.2 201.75 183.775 202.055C184.361 202.359 184.818 202.81 185.145 203.408C185.472 204.005 185.635 204.727 185.635 205.572V211.069H183.724V205.86C183.724 205.026 183.516 204.389 183.098 203.949C182.681 203.498 182.112 203.272 181.39 203.272C180.669 203.272 180.094 203.498 179.665 203.949C179.248 204.389 179.04 205.026 179.04 205.86V211.069H177.112V201.75H179.04V202.816C179.355 202.433 179.756 202.134 180.24 201.92C180.737 201.705 181.261 201.598 181.813 201.598Z" fill="#9194A7"/>
<path d="M189.075 200.516C188.726 200.516 188.433 200.398 188.196 200.161C187.959 199.924 187.841 199.631 187.841 199.281C187.841 198.932 187.959 198.639 188.196 198.402C188.433 198.165 188.726 198.047 189.075 198.047C189.413 198.047 189.701 198.165 189.938 198.402C190.174 198.639 190.293 198.932 190.293 199.281C190.293 199.631 190.174 199.924 189.938 200.161C189.701 200.398 189.413 200.516 189.075 200.516ZM190.022 201.75V211.069H188.094V201.75H190.022Z" fill="#9194A7"/>
<path d="M194.481 203.137C194.808 202.686 195.253 202.32 195.817 202.038C196.392 201.745 197.029 201.598 197.728 201.598C198.551 201.598 199.295 201.796 199.96 202.19C200.626 202.585 201.15 203.148 201.533 203.881C201.917 204.603 202.108 205.431 202.108 206.367C202.108 207.303 201.917 208.143 201.533 208.887C201.15 209.62 200.62 210.195 199.944 210.612C199.278 211.018 198.54 211.221 197.728 211.221C197.007 211.221 196.364 211.08 195.8 210.798C195.248 210.516 194.808 210.155 194.481 209.716V211.069H192.553V198.554H194.481V203.137ZM200.146 206.367C200.146 205.725 200.011 205.172 199.741 204.71C199.481 204.236 199.132 203.881 198.692 203.645C198.264 203.396 197.801 203.272 197.305 203.272C196.821 203.272 196.358 203.396 195.919 203.645C195.49 203.893 195.141 204.253 194.87 204.727C194.611 205.2 194.481 205.758 194.481 206.401C194.481 207.044 194.611 207.607 194.87 208.092C195.141 208.566 195.49 208.926 195.919 209.174C196.358 209.423 196.821 209.547 197.305 209.547C197.801 209.547 198.264 209.423 198.692 209.174C199.132 208.915 199.481 208.543 199.741 208.058C200.011 207.574 200.146 207.01 200.146 206.367Z" fill="#9194A7"/>
<path d="M205.943 198.554V211.069H204.015V198.554H205.943Z" fill="#9194A7"/>
<path d="M217.014 206.181C217.014 206.531 216.991 206.846 216.946 207.128H209.827C209.883 207.872 210.159 208.47 210.655 208.921C211.151 209.372 211.76 209.597 212.482 209.597C213.519 209.597 214.252 209.163 214.68 208.295H216.76C216.478 209.152 215.965 209.857 215.221 210.409C214.488 210.95 213.575 211.221 212.482 211.221C211.591 211.221 210.791 211.023 210.08 210.629C209.381 210.223 208.829 209.659 208.423 208.938C208.028 208.205 207.831 207.359 207.831 206.401C207.831 205.443 208.023 204.603 208.406 203.881C208.801 203.148 209.347 202.585 210.046 202.19C210.757 201.796 211.568 201.598 212.482 201.598C213.361 201.598 214.145 201.79 214.832 202.173C215.52 202.557 216.056 203.098 216.439 203.797C216.822 204.484 217.014 205.279 217.014 206.181ZM215.001 205.572C214.99 204.862 214.737 204.293 214.24 203.864C213.744 203.436 213.13 203.222 212.397 203.222C211.732 203.222 211.163 203.436 210.689 203.864C210.216 204.281 209.934 204.851 209.843 205.572H215.001Z" fill="#9194A7"/>
</svg>
