<svg width="15" height="15" viewBox="0 0 15 15" fill="none" xmlns="http://www.w3.org/2000/svg">
<path d="M14.8163 13.9316L11.4459 10.5612C12.398 9.40714 12.9153 7.97143 12.9153 6.45918C12.9153 4.73265 12.2449 3.11327 11.0235 1.89184C9.8051 0.670408 8.18265 0 6.45918 0C4.73571 0 3.11327 0.670408 1.89184 1.89184C0.670408 3.1102 0 4.73265 0 6.45918C0 8.18265 0.670408 9.8051 1.89184 11.0265C3.1102 12.2449 4.73265 12.9184 6.45918 12.9184C7.97449 12.9184 9.4102 12.401 10.5612 11.449L13.9316 14.8163C14.1765 15.0612 14.5714 15.0612 14.8163 14.8163C15.0612 14.5714 15.0612 14.1765 14.8163 13.9316ZM2.77653 10.1388C1.79082 9.15612 1.24898 7.84898 1.24898 6.45918C1.24898 5.06939 1.79082 3.75918 2.77347 2.77653C3.75612 1.79388 5.06327 1.25204 6.45612 1.25204C7.84592 1.25204 9.15612 1.79388 10.1388 2.77653C11.1214 3.75918 11.6633 5.06633 11.6633 6.45918C11.6633 7.84898 11.1214 9.15918 10.1388 10.1418C9.15612 11.1245 7.84592 11.6663 6.45612 11.6663C5.06633 11.6663 3.75918 11.1245 2.77653 10.1388Z" fill="#0C0D34"/>
</svg>
