<svg width="21" height="20" viewBox="0 0 21 20" fill="none" xmlns="http://www.w3.org/2000/svg">
<path d="M19.71 18.29L13.64 12.22C14.62 10.94 15.21 9.34 15.21 7.6C15.21 3.41 11.8 0 7.61 0C3.42 0 0 3.41 0 7.6C0 11.79 3.41 15.2 7.6 15.2C9.34 15.2 10.93 14.61 12.22 13.63L18.29 19.7C18.49 19.9 18.74 20 19 20C19.26 20 19.51 19.9 19.71 19.71C20.1 19.32 20.1 18.68 19.71 18.29ZM7.6 13.21C4.51 13.21 2 10.7 2 7.61C2 4.52 4.51 2 7.6 2C10.69 2 13.2 4.51 13.2 7.6C13.2 10.69 10.69 13.21 7.6 13.21Z" fill="#9194A7"/>
</svg>
