<svg width="20" height="23" viewBox="0 0 20 23" fill="none" xmlns="http://www.w3.org/2000/svg">
<path d="M17.8675 22.0279C18.3475 22.557 19.1475 22.557 19.6275 22.0279C20.1175 21.4987 20.1175 20.6399 19.6275 20.1107L11.7675 11.581L19.6275 3.0513C20.1175 2.52213 20.1175 1.66336 19.6275 1.13419C19.1475 0.605011 18.3475 0.605011 17.8675 1.13419L9.9975 9.66384L2.12751 1.13419C1.64751 0.605011 0.847499 0.605011 0.3675 1.13419C-0.1225 1.66336 -0.1225 2.52213 0.3675 3.0513L8.22748 11.581L0.3675 20.1107C-0.1225 20.6399 -0.1225 21.4987 0.3675 22.0279C0.847499 22.557 1.64751 22.557 2.12751 22.0279L9.9975 13.4982L17.8675 22.0279Z" fill="#9194A7"/>
</svg>
