<svg width="20" height="20" viewBox="0 0 20 20" fill="none" xmlns="http://www.w3.org/2000/svg">
<path d="M6.32245 9.7655C5.13172 8.74414 4.36249 7.25378 4.36249 5.57582C4.36249 2.5013 6.89147 0 10 0C13.1085 0 15.6375 2.5013 15.6375 5.57582C15.6375 7.25378 14.8683 8.74414 13.6776 9.7655C17.3762 11.2142 20 14.789 20 18.9578C20 19.531 19.5258 20 18.9463 20H6.83878C6.25922 20 5.78504 19.531 5.78504 18.9578C5.78504 18.3846 6.25922 17.9156 6.83878 17.9156H17.8188C17.3024 14.1011 14.0042 11.1516 10 11.1516C5.64805 11.1516 2.10748 14.6535 2.10748 18.9578C2.10748 19.531 1.6333 20 1.05374 20C0.474184 20 0 19.531 0 18.9578C0 14.789 2.62382 11.2246 6.32245 9.7655ZM13.53 5.57582C13.53 3.64773 11.9494 2.08442 10 2.08442C8.05058 2.08442 6.46997 3.64773 6.46997 5.57582C6.46997 7.50391 8.05058 9.06722 10 9.06722C11.9494 9.06722 13.53 7.50391 13.53 5.57582Z" fill="#9194A7"/>
</svg>
