<svg width="44" height="44" viewBox="0 0 44 44" fill="none" xmlns="http://www.w3.org/2000/svg">
<rect y="44" width="44" height="44" rx="22" transform="rotate(-90 0 44)" fill="#FAFAFA"/>
<path d="M27.3909 29.5939C27.0544 29.5939 26.7817 29.3212 26.7817 28.9848C26.7817 26.6001 24.8416 24.6599 22.4569 24.6599H21.5431C19.1584 24.6599 17.2183 26.6001 17.2183 28.9848C17.2183 29.3212 16.9456 29.5939 16.6091 29.5939C16.2727 29.5939 16 29.3212 16 28.9848C16 25.9283 18.4866 23.4417 21.5431 23.4417H22.4569C25.5134 23.4417 28 25.9283 28 28.9848C28 29.3212 27.7273 29.5939 27.3909 29.5939Z" fill="#0C0D34"/>
<path d="M21.9388 22.2234C19.6716 22.2234 17.8271 20.3789 17.8271 18.1117C17.8271 15.8445 19.6716 14 21.9388 14C24.206 14 26.0505 15.8445 26.0505 18.1117C26.0505 20.3789 24.206 22.2234 21.9388 22.2234ZM21.9388 15.2183C20.3434 15.2183 19.0454 16.5163 19.0454 18.1117C19.0454 19.7071 20.3434 21.0051 21.9388 21.0051C23.5342 21.0051 24.8322 19.7071 24.8322 18.1117C24.8322 16.5163 23.5342 15.2183 21.9388 15.2183Z" fill="#0C0D34"/>
</svg>
